G04 #@! TF.FileFunction,Soldermask,Bot*
%FSLAX46Y46*%
G04 Gerber Fmt 4.6, Leading zero omitted, Abs format (unit mm)*
G04 Created by KiCad (PCBNEW 4.0.6) date 01/12/18 15:45:59*
%MOMM*%
%LPD*%
G01*
G04 APERTURE LIST*
%ADD10C,0.100000*%
%ADD11C,2.900000*%
%ADD12R,1.900000X1.650000*%
%ADD13R,2.924000X2.224000*%
%ADD14O,2.924000X2.224000*%
%ADD15R,2.100000X2.100000*%
%ADD16O,2.100000X2.100000*%
%ADD17R,2.124000X2.124000*%
%ADD18C,2.124000*%
%ADD19O,4.124000X3.024000*%
%ADD20R,4.124000X3.024000*%
%ADD21O,3.924000X2.924000*%
%ADD22O,3.924000X3.400000*%
%ADD23O,3.400000X3.924000*%
G04 APERTURE END LIST*
D10*
D11*
X74000000Y-136000000D03*
X136000000Y-94000000D03*
X136000000Y-136000000D03*
D12*
X77150000Y-108640000D03*
X79650000Y-108640000D03*
X77140000Y-110880000D03*
X79640000Y-110880000D03*
D13*
X72000000Y-114670000D03*
D14*
X72000000Y-117210000D03*
X72000000Y-119750000D03*
X72000000Y-122290000D03*
D15*
X78290000Y-114670000D03*
D16*
X78290000Y-117210000D03*
X78290000Y-119750000D03*
X78290000Y-122290000D03*
D17*
X98100000Y-138570000D03*
D18*
X95560000Y-138570000D03*
X98100000Y-136030000D03*
X95560000Y-136030000D03*
X98100000Y-133490000D03*
X95560000Y-133490000D03*
X98100000Y-130950000D03*
X95560000Y-130950000D03*
D19*
X134200000Y-97010000D03*
X134200000Y-102090000D03*
X134200000Y-107170000D03*
D20*
X134200000Y-112250000D03*
D19*
X134200000Y-117360000D03*
X134200000Y-122440000D03*
X134200000Y-127520000D03*
D20*
X134200000Y-132600000D03*
D21*
X110400000Y-137100000D03*
D22*
X122600000Y-137100000D03*
X122650000Y-125050000D03*
D21*
X110400000Y-125100000D03*
D23*
X108450000Y-131050000D03*
D21*
X110400000Y-119100000D03*
D22*
X122600000Y-119100000D03*
X122650000Y-107050000D03*
D21*
X110400000Y-107100000D03*
D23*
X108450000Y-113050000D03*
D13*
X72000000Y-105610000D03*
D14*
X72000000Y-108150000D03*
X72000000Y-110690000D03*
D11*
X74000000Y-94000000D03*
M02*
