G04 #@! TF.FileFunction,Legend,Bot*
%FSLAX46Y46*%
G04 Gerber Fmt 4.6, Leading zero omitted, Abs format (unit mm)*
G04 Created by KiCad (PCBNEW 4.0.6) date 01/12/18 15:45:59*
%MOMM*%
%LPD*%
G01*
G04 APERTURE LIST*
%ADD10C,0.100000*%
%ADD11C,0.120000*%
%ADD12C,0.150000*%
G04 APERTURE END LIST*
D10*
D11*
X78900000Y-109490000D02*
X77900000Y-109490000D01*
X77900000Y-107790000D02*
X78900000Y-107790000D01*
X78890000Y-111730000D02*
X77890000Y-111730000D01*
X77890000Y-110030000D02*
X78890000Y-110030000D01*
D12*
X81791666Y-108982143D02*
X81839285Y-109029762D01*
X81982142Y-109077381D01*
X82077380Y-109077381D01*
X82220238Y-109029762D01*
X82315476Y-108934524D01*
X82363095Y-108839286D01*
X82410714Y-108648810D01*
X82410714Y-108505952D01*
X82363095Y-108315476D01*
X82315476Y-108220238D01*
X82220238Y-108125000D01*
X82077380Y-108077381D01*
X81982142Y-108077381D01*
X81839285Y-108125000D01*
X81791666Y-108172619D01*
X81315476Y-109077381D02*
X81125000Y-109077381D01*
X81029761Y-109029762D01*
X80982142Y-108982143D01*
X80886904Y-108839286D01*
X80839285Y-108648810D01*
X80839285Y-108267857D01*
X80886904Y-108172619D01*
X80934523Y-108125000D01*
X81029761Y-108077381D01*
X81220238Y-108077381D01*
X81315476Y-108125000D01*
X81363095Y-108172619D01*
X81410714Y-108267857D01*
X81410714Y-108505952D01*
X81363095Y-108601190D01*
X81315476Y-108648810D01*
X81220238Y-108696429D01*
X81029761Y-108696429D01*
X80934523Y-108648810D01*
X80886904Y-108601190D01*
X80839285Y-108505952D01*
X82667857Y-111207143D02*
X82715476Y-111254762D01*
X82858333Y-111302381D01*
X82953571Y-111302381D01*
X83096429Y-111254762D01*
X83191667Y-111159524D01*
X83239286Y-111064286D01*
X83286905Y-110873810D01*
X83286905Y-110730952D01*
X83239286Y-110540476D01*
X83191667Y-110445238D01*
X83096429Y-110350000D01*
X82953571Y-110302381D01*
X82858333Y-110302381D01*
X82715476Y-110350000D01*
X82667857Y-110397619D01*
X81715476Y-111302381D02*
X82286905Y-111302381D01*
X82001191Y-111302381D02*
X82001191Y-110302381D01*
X82096429Y-110445238D01*
X82191667Y-110540476D01*
X82286905Y-110588095D01*
X81382143Y-110302381D02*
X80763095Y-110302381D01*
X81096429Y-110683333D01*
X80953571Y-110683333D01*
X80858333Y-110730952D01*
X80810714Y-110778571D01*
X80763095Y-110873810D01*
X80763095Y-111111905D01*
X80810714Y-111207143D01*
X80858333Y-111254762D01*
X80953571Y-111302381D01*
X81239286Y-111302381D01*
X81334524Y-111254762D01*
X81382143Y-111207143D01*
M02*
