G04 #@! TF.FileFunction,Copper,L1,Top,Signal*
%FSLAX46Y46*%
G04 Gerber Fmt 4.6, Leading zero omitted, Abs format (unit mm)*
G04 Created by KiCad (PCBNEW 4.0.6) date 01/12/18 15:45:59*
%MOMM*%
%LPD*%
G01*
G04 APERTURE LIST*
%ADD10C,0.100000*%
%ADD11C,2.500000*%
%ADD12R,1.250000X1.500000*%
%ADD13R,2.500000X4.500000*%
%ADD14R,1.500000X1.250000*%
%ADD15R,2.550000X2.500000*%
%ADD16R,2.500000X4.000000*%
%ADD17R,1.800000X2.500000*%
%ADD18R,1.200000X1.200000*%
%ADD19R,3.500000X2.300000*%
%ADD20R,0.450000X1.450000*%
%ADD21R,2.524000X1.824000*%
%ADD22O,2.524000X1.824000*%
%ADD23R,1.700000X1.700000*%
%ADD24O,1.700000X1.700000*%
%ADD25R,2.624000X6.000000*%
%ADD26R,1.724000X1.724000*%
%ADD27C,1.724000*%
%ADD28R,1.254000X0.800100*%
%ADD29R,2.000000X1.700000*%
%ADD30R,1.500000X1.300000*%
%ADD31R,1.300000X1.500000*%
%ADD32R,2.000000X3.800000*%
%ADD33R,2.000000X1.500000*%
%ADD34R,0.700000X1.700000*%
%ADD35O,3.724000X2.624000*%
%ADD36R,3.724000X2.624000*%
%ADD37O,3.524000X2.524000*%
%ADD38O,3.524000X3.000000*%
%ADD39O,3.000000X3.524000*%
%ADD40C,1.100000*%
%ADD41C,0.300000*%
%ADD42C,1.500000*%
%ADD43C,2.000000*%
%ADD44C,0.700000*%
%ADD45C,1.000000*%
%ADD46C,0.500000*%
%ADD47C,0.400000*%
%ADD48C,0.600000*%
%ADD49C,0.350000*%
%ADD50C,3.000000*%
%ADD51C,0.800000*%
%ADD52C,0.254000*%
G04 APERTURE END LIST*
D10*
D11*
X74000000Y-136000000D03*
X136000000Y-94000000D03*
X136000000Y-136000000D03*
D12*
X112700000Y-100920000D03*
X112700000Y-98420000D03*
D13*
X118500000Y-101070000D03*
X118500000Y-94070000D03*
D12*
X91480000Y-138510000D03*
X91480000Y-136010000D03*
D14*
X77150000Y-106470000D03*
X79650000Y-106470000D03*
D15*
X76275000Y-103500000D03*
X81325000Y-103500000D03*
D12*
X83900000Y-95420000D03*
X83900000Y-97920000D03*
D16*
X89700000Y-95920000D03*
X89700000Y-102020000D03*
D12*
X112700000Y-93320000D03*
X112700000Y-95820000D03*
D14*
X85120000Y-106490000D03*
X82620000Y-106490000D03*
X85170000Y-108740000D03*
X82670000Y-108740000D03*
D12*
X99000000Y-120670000D03*
X99000000Y-118170000D03*
X82090000Y-111720000D03*
X82090000Y-114220000D03*
D17*
X125500000Y-99870000D03*
X125500000Y-95870000D03*
D18*
X89050000Y-91620000D03*
X86850000Y-91620000D03*
D19*
X101810000Y-104790000D03*
X96410000Y-104790000D03*
D17*
X104250000Y-132920000D03*
X104250000Y-128920000D03*
D18*
X82020000Y-121310000D03*
X82020000Y-123510000D03*
D17*
X104250000Y-110520000D03*
X104250000Y-114520000D03*
D20*
X90100000Y-111470000D03*
X89450000Y-111470000D03*
X88800000Y-111470000D03*
X88150000Y-111470000D03*
X87500000Y-111470000D03*
X86850000Y-111470000D03*
X86200000Y-111470000D03*
X85550000Y-111470000D03*
X84900000Y-111470000D03*
X84250000Y-111470000D03*
X84250000Y-117370000D03*
X84900000Y-117370000D03*
X85550000Y-117370000D03*
X86200000Y-117370000D03*
X86850000Y-117370000D03*
X87500000Y-117370000D03*
X88150000Y-117370000D03*
X88800000Y-117370000D03*
X89450000Y-117370000D03*
X90100000Y-117370000D03*
D21*
X72000000Y-114670000D03*
D22*
X72000000Y-117210000D03*
X72000000Y-119750000D03*
X72000000Y-122290000D03*
D23*
X78290000Y-114670000D03*
D24*
X78290000Y-117210000D03*
X78290000Y-119750000D03*
X78290000Y-122290000D03*
D25*
X97100000Y-98070000D03*
X101500000Y-98070000D03*
D26*
X98100000Y-138570000D03*
D27*
X95560000Y-138570000D03*
X98100000Y-136030000D03*
X95560000Y-136030000D03*
X98100000Y-133490000D03*
X95560000Y-133490000D03*
X98100000Y-130950000D03*
X95560000Y-130950000D03*
D28*
X103650000Y-123820000D03*
X103650000Y-125720000D03*
X105650760Y-124770000D03*
X92549240Y-111870000D03*
X92549240Y-113770000D03*
X94550000Y-112820000D03*
X103659240Y-118170000D03*
X103659240Y-120070000D03*
X105660000Y-119120000D03*
D29*
X106000000Y-102870000D03*
X110000000Y-102870000D03*
D30*
X92266666Y-91620000D03*
X94966666Y-91620000D03*
X100633332Y-91620000D03*
X97933332Y-91620000D03*
X106299998Y-91620000D03*
X103599998Y-91620000D03*
X79700000Y-108690000D03*
X77000000Y-108690000D03*
X90700000Y-106470000D03*
X88000000Y-106470000D03*
D31*
X90900000Y-123420000D03*
X90900000Y-126120000D03*
X99000000Y-111520000D03*
X99000000Y-114220000D03*
X96750000Y-111520000D03*
X96750000Y-114220000D03*
X101250000Y-123420000D03*
X101250000Y-126120000D03*
X101250000Y-111520000D03*
X101250000Y-114220000D03*
D30*
X93700000Y-126210000D03*
X96400000Y-126210000D03*
X101200000Y-109070000D03*
X98500000Y-109070000D03*
D31*
X82040000Y-119230000D03*
X82040000Y-116530000D03*
D30*
X91960000Y-109430000D03*
X94660000Y-109430000D03*
D31*
X98950000Y-126120000D03*
X98950000Y-123420000D03*
D30*
X79670000Y-110900000D03*
X76970000Y-110900000D03*
D31*
X75040000Y-119870000D03*
X75040000Y-122570000D03*
X74990000Y-117340000D03*
X74990000Y-114640000D03*
X101250000Y-118120000D03*
X101250000Y-120820000D03*
D32*
X74650000Y-98000000D03*
D33*
X80950000Y-98000000D03*
X80950000Y-95700000D03*
X80950000Y-100300000D03*
D34*
X110105000Y-94470000D03*
X108835000Y-94470000D03*
X107565000Y-94470000D03*
X106295000Y-94470000D03*
X106295000Y-99870000D03*
X107565000Y-99870000D03*
X108835000Y-99870000D03*
X110105000Y-99870000D03*
X96755000Y-116970000D03*
X95485000Y-116970000D03*
X94215000Y-116970000D03*
X92945000Y-116970000D03*
X92945000Y-122370000D03*
X94215000Y-122370000D03*
X95485000Y-122370000D03*
X96755000Y-122370000D03*
D35*
X134200000Y-97010000D03*
X134200000Y-102090000D03*
X134200000Y-107170000D03*
D36*
X134200000Y-112250000D03*
D35*
X134200000Y-117360000D03*
X134200000Y-122440000D03*
X134200000Y-127520000D03*
D36*
X134200000Y-132600000D03*
D37*
X110400000Y-137100000D03*
D38*
X122600000Y-137100000D03*
X122650000Y-125050000D03*
D37*
X110400000Y-125100000D03*
D39*
X108450000Y-131050000D03*
D37*
X110400000Y-119100000D03*
D38*
X122600000Y-119100000D03*
X122650000Y-107050000D03*
D37*
X110400000Y-107100000D03*
D39*
X108450000Y-113050000D03*
D21*
X72000000Y-105610000D03*
D22*
X72000000Y-108150000D03*
X72000000Y-110690000D03*
D11*
X74000000Y-94000000D03*
D40*
X115085669Y-106935777D03*
X113357037Y-107071573D03*
X114170000Y-107100000D03*
X106142580Y-117530449D03*
X105495265Y-116999071D03*
X128019696Y-91386312D03*
X127201548Y-91353586D03*
X126383401Y-91361767D03*
X128916620Y-91337090D03*
X125500000Y-91336992D03*
X81674461Y-114486788D03*
X82117785Y-113875000D03*
X81250000Y-123510000D03*
X101876731Y-131250000D03*
X106881196Y-122585407D03*
X119293953Y-93682304D03*
X119293953Y-94581325D03*
X118509412Y-94992071D03*
X118509412Y-93202095D03*
X118500000Y-94070000D03*
X113500000Y-95820000D03*
X95558738Y-104772085D03*
X97277890Y-104824181D03*
X97750000Y-109000000D03*
X92945000Y-114750000D03*
X98250000Y-118765448D03*
X81250000Y-91680000D03*
X80500000Y-91680000D03*
X79750000Y-91750000D03*
X86000000Y-91680000D03*
X83900000Y-99500000D03*
X83900000Y-98750000D03*
X92549240Y-113770000D03*
X91480000Y-136010000D03*
X82020000Y-123510000D03*
X101876731Y-132100737D03*
X82620000Y-106490000D03*
X97341699Y-118975092D03*
X98500000Y-109070000D03*
X96410000Y-104790000D03*
X112700000Y-95820000D03*
X86850000Y-91620000D03*
X83900000Y-97920000D03*
X92945000Y-122370000D03*
X106881196Y-121807590D03*
X98950000Y-123420000D03*
X75501730Y-114655854D03*
X75656608Y-123053868D03*
X75629955Y-122156555D03*
X74821650Y-114670000D03*
X76930352Y-103463316D03*
X85000000Y-103428824D03*
X84360252Y-103401216D03*
X76207713Y-103423120D03*
X91023646Y-123140850D03*
X97250000Y-121250000D03*
X97397122Y-111495339D03*
X91243011Y-123745711D03*
X90411250Y-96526610D03*
X90354094Y-95612122D03*
X88925207Y-96526610D03*
X88944259Y-95535914D03*
X89706332Y-96831439D03*
X89687280Y-95021515D03*
X96750000Y-111520000D03*
X89700000Y-95920000D03*
X96706853Y-120540918D03*
X87216087Y-112935665D03*
X77000000Y-108690000D03*
X84621512Y-106788007D03*
X87120000Y-109500000D03*
X76970000Y-110900000D03*
X92750000Y-126120000D03*
X93700000Y-126210000D03*
X95915000Y-124250000D03*
X96400000Y-124735000D03*
X75328758Y-124790656D03*
X75759195Y-125364573D03*
X100821123Y-129523280D03*
X85207832Y-119756459D03*
X100640090Y-128747008D03*
X84644223Y-113110224D03*
X86200264Y-123153782D03*
X85773018Y-121343072D03*
X102750000Y-91620000D03*
X104258798Y-98268917D03*
X104808797Y-98818916D03*
X103599998Y-91620000D03*
X91356094Y-117343060D03*
X101250000Y-120820000D03*
D41*
X114949873Y-107071573D02*
X115085669Y-106935777D01*
X113357037Y-107071573D02*
X114949873Y-107071573D01*
D42*
X104250000Y-110520000D02*
X104250000Y-108620381D01*
X104250000Y-108620381D02*
X105770381Y-107100000D01*
X105770381Y-107100000D02*
X108640000Y-107100000D01*
X106000000Y-102870000D02*
X106000000Y-107073989D01*
X106000000Y-107073989D02*
X105973989Y-107100000D01*
X105973989Y-107100000D02*
X108640000Y-107100000D01*
X108640000Y-107100000D02*
X110400000Y-107100000D01*
D43*
X110400000Y-107100000D02*
X114395013Y-107100000D01*
X114395013Y-107100000D02*
X118500000Y-102995013D01*
X118500000Y-102995013D02*
X118500000Y-101070000D01*
X104250000Y-132920000D02*
X104250000Y-134960000D01*
X106390000Y-137100000D02*
X110400000Y-137100000D01*
X104250000Y-134960000D02*
X106390000Y-137100000D01*
D44*
X107565000Y-99870000D02*
X107565000Y-101305000D01*
X107565000Y-101305000D02*
X106000000Y-102870000D01*
D45*
X112700000Y-100920000D02*
X118350000Y-100920000D01*
X118350000Y-100920000D02*
X118500000Y-101070000D01*
D43*
X125500000Y-99870000D02*
X119700000Y-99870000D01*
X119700000Y-99870000D02*
X118500000Y-101070000D01*
X134200000Y-112250000D02*
X137480366Y-112250000D01*
X137480366Y-112250000D02*
X138812862Y-110917504D01*
X138812862Y-110917504D02*
X138812862Y-92674915D01*
X138812862Y-92674915D02*
X137475037Y-91337090D01*
X137475037Y-91337090D02*
X129694437Y-91337090D01*
X129694437Y-91337090D02*
X128916620Y-91337090D01*
D46*
X99000000Y-118170000D02*
X99000000Y-117543845D01*
X99000000Y-117543845D02*
X99957144Y-116586701D01*
X99957144Y-116586701D02*
X105082895Y-116586701D01*
X105082895Y-116586701D02*
X105495265Y-116999071D01*
D41*
X106045264Y-117549070D02*
X106123959Y-117549070D01*
X105495265Y-116999071D02*
X106045264Y-117549070D01*
X106123959Y-117549070D02*
X106142580Y-117530449D01*
D45*
X103659240Y-120070000D02*
X103886190Y-120070000D01*
D41*
X128797513Y-91386312D02*
X128019696Y-91386312D01*
X128867398Y-91386312D02*
X128797513Y-91386312D01*
X128906259Y-91347451D02*
X128867398Y-91386312D01*
X127979365Y-91353586D02*
X128012091Y-91386312D01*
X128012091Y-91386312D02*
X128019696Y-91386312D01*
X127201548Y-91353586D02*
X127979365Y-91353586D01*
D43*
X128906259Y-91347451D02*
X128900124Y-91353586D01*
D45*
X127218044Y-91337090D02*
X127201548Y-91353586D01*
D43*
X128900124Y-91353586D02*
X127979365Y-91353586D01*
D45*
X128916620Y-91337090D02*
X127218044Y-91337090D01*
D43*
X127218142Y-91336992D02*
X127201548Y-91353586D01*
X127392123Y-91336992D02*
X127218142Y-91336992D01*
D41*
X126358626Y-91336992D02*
X126383401Y-91361767D01*
X125500000Y-91336992D02*
X126358626Y-91336992D01*
X127161218Y-91361767D02*
X126383401Y-91361767D01*
X127392123Y-91336992D02*
X127367348Y-91361767D01*
X127367348Y-91361767D02*
X127161218Y-91361767D01*
D43*
X128906259Y-91347451D02*
X128916620Y-91337090D01*
X125500000Y-91336992D02*
X127392123Y-91336992D01*
X119309771Y-91336992D02*
X125500000Y-91336992D01*
D47*
X86200000Y-111470000D02*
X86200000Y-113130146D01*
X86200000Y-113130146D02*
X85242350Y-114087796D01*
X82117785Y-113972532D02*
X82117785Y-113875000D01*
X85242350Y-114087796D02*
X82002521Y-114087796D01*
X82002521Y-114087796D02*
X82117785Y-113972532D01*
X82204929Y-113962144D02*
X82117785Y-113875000D01*
X82329225Y-113974528D02*
X82316841Y-113962144D01*
X82316841Y-113962144D02*
X82204929Y-113962144D01*
D48*
X82020000Y-123510000D02*
X81250000Y-123510000D01*
X81250000Y-123510000D02*
X80820000Y-123510000D01*
D46*
X103650000Y-125720000D02*
X103650000Y-126620050D01*
X103650000Y-126620050D02*
X101911537Y-128358513D01*
X101911537Y-128358513D02*
X101911537Y-132065931D01*
X101911537Y-132065931D02*
X101876731Y-132100737D01*
D41*
X119154700Y-94442072D02*
X119293953Y-94581325D01*
X119059411Y-94442072D02*
X119154700Y-94442072D01*
X118509412Y-94992071D02*
X119059411Y-94442072D01*
X118509412Y-93979912D02*
X118509412Y-93202095D01*
X118509412Y-94060588D02*
X118509412Y-93979912D01*
X118500000Y-94070000D02*
X118509412Y-94060588D01*
D44*
X92945000Y-115770000D02*
X92945000Y-114750000D01*
X92945000Y-114750000D02*
X92945000Y-114165760D01*
D46*
X98845448Y-118170000D02*
X98250000Y-118765448D01*
X98250000Y-118765448D02*
X98040356Y-118975092D01*
D45*
X80500000Y-91680000D02*
X81250000Y-91680000D01*
X79750000Y-91750000D02*
X80430000Y-91750000D01*
X80430000Y-91750000D02*
X80500000Y-91680000D01*
X83900000Y-98750000D02*
X83900000Y-99500000D01*
X83900000Y-99500000D02*
X83900000Y-100200000D01*
X83900000Y-97920000D02*
X83900000Y-98750000D01*
X80950000Y-100300000D02*
X84000000Y-100300000D01*
X84000000Y-100300000D02*
X86568969Y-100300000D01*
X83900000Y-100200000D02*
X84000000Y-100300000D01*
X80950000Y-100300000D02*
X80950000Y-103125000D01*
X80950000Y-103125000D02*
X81325000Y-103500000D01*
X86768969Y-100500000D02*
X88288969Y-102020000D01*
X86568969Y-100300000D02*
X86768969Y-100500000D01*
D43*
X118500000Y-94070000D02*
X118500000Y-92146763D01*
X118500000Y-92146763D02*
X119309771Y-91336992D01*
D48*
X92945000Y-116970000D02*
X92945000Y-119040000D01*
X92945000Y-119040000D02*
X92945000Y-120920000D01*
D46*
X97341699Y-118975092D02*
X93009908Y-118975092D01*
X93009908Y-118975092D02*
X92945000Y-119040000D01*
D48*
X80350000Y-120240000D02*
X79860000Y-119750000D01*
X79860000Y-119750000D02*
X78290000Y-119750000D01*
X80350000Y-123040000D02*
X80350000Y-120240000D01*
X80820000Y-123510000D02*
X80350000Y-123040000D01*
D47*
X92804872Y-115910128D02*
X92945000Y-115770000D01*
D44*
X92945000Y-116970000D02*
X92945000Y-115770000D01*
D47*
X92549240Y-113770000D02*
X92322290Y-113770000D01*
D48*
X101890233Y-132087235D02*
X101876731Y-132100737D01*
D45*
X88288969Y-102020000D02*
X89700000Y-102020000D01*
X82620000Y-106490000D02*
X81500000Y-106490000D01*
X81500000Y-106490000D02*
X79670000Y-106490000D01*
X81325000Y-106315000D02*
X81500000Y-106490000D01*
X81325000Y-102970000D02*
X81325000Y-106315000D01*
X79670000Y-106490000D02*
X79650000Y-106470000D01*
X82670000Y-108740000D02*
X82670000Y-106540000D01*
X82670000Y-106540000D02*
X82620000Y-106490000D01*
D46*
X99000000Y-118170000D02*
X98845448Y-118170000D01*
X98040356Y-118975092D02*
X97341699Y-118975092D01*
D44*
X92945000Y-114165760D02*
X92549240Y-113770000D01*
D48*
X92945000Y-120920000D02*
X92945000Y-122370000D01*
D45*
X80950000Y-102595000D02*
X81325000Y-102970000D01*
X106103379Y-121807590D02*
X106881196Y-121807590D01*
X105623780Y-121807590D02*
X106103379Y-121807590D01*
X103886190Y-120070000D02*
X105623780Y-121807590D01*
X89700000Y-102020000D02*
X91535700Y-102020000D01*
X91535700Y-102020000D02*
X94305700Y-104790000D01*
X94305700Y-104790000D02*
X96410000Y-104790000D01*
D48*
X106299998Y-91620000D02*
X106322980Y-91620000D01*
X106322980Y-91620000D02*
X106712980Y-91230000D01*
X106712980Y-91230000D02*
X116600000Y-91230000D01*
X116600000Y-91230000D02*
X118500000Y-93130000D01*
X118500000Y-93130000D02*
X118500000Y-94070000D01*
X106299998Y-91620000D02*
X106299998Y-94465002D01*
X106299998Y-94465002D02*
X106295000Y-94470000D01*
D45*
X114450000Y-95820000D02*
X116200000Y-94070000D01*
X116200000Y-94070000D02*
X116250000Y-94070000D01*
X116250000Y-94070000D02*
X118500000Y-94070000D01*
X112700000Y-95820000D02*
X114450000Y-95820000D01*
X112700000Y-98420000D02*
X112700000Y-95820000D01*
X75515876Y-114670000D02*
X75501730Y-114655854D01*
X75487584Y-114670000D02*
X75501730Y-114655854D01*
X72000000Y-114670000D02*
X75487584Y-114670000D01*
X78290000Y-114670000D02*
X75515876Y-114670000D01*
D46*
X91480000Y-138510000D02*
X84125469Y-138510000D01*
X84125469Y-138510000D02*
X73041711Y-127426242D01*
X73041711Y-127426242D02*
X73041711Y-124277975D01*
X73041711Y-124277975D02*
X74749686Y-122570000D01*
X74749686Y-122570000D02*
X75040000Y-122570000D01*
D41*
X75040000Y-122570000D02*
X75216510Y-122570000D01*
X75216510Y-122570000D02*
X75629955Y-122156555D01*
D43*
X74650000Y-101900000D02*
X76213316Y-103463316D01*
X74650000Y-98000000D02*
X74650000Y-101900000D01*
D42*
X80950000Y-98000000D02*
X74650000Y-98000000D01*
D45*
X77150000Y-106470000D02*
X77150000Y-104916781D01*
X77150000Y-104916781D02*
X75924629Y-103691410D01*
X75924629Y-103691410D02*
X75939423Y-103691410D01*
X75939423Y-103691410D02*
X76207713Y-103423120D01*
D46*
X90700000Y-106470000D02*
X90600000Y-106470000D01*
X90600000Y-106470000D02*
X89070000Y-104940000D01*
X89070000Y-104940000D02*
X87369196Y-104940000D01*
X84387860Y-103428824D02*
X84360252Y-103401216D01*
X87369196Y-104940000D02*
X85858020Y-103428824D01*
X85858020Y-103428824D02*
X84387860Y-103428824D01*
D45*
X79670000Y-110900000D02*
X79670000Y-113290000D01*
X79670000Y-113290000D02*
X78290000Y-114670000D01*
D47*
X84705000Y-110150000D02*
X82090000Y-110150000D01*
X82090000Y-110150000D02*
X79974604Y-110150000D01*
X82090000Y-111720000D02*
X82090000Y-110570000D01*
X82090000Y-110570000D02*
X82090000Y-110150000D01*
X84900000Y-111470000D02*
X84900000Y-110345000D01*
X84900000Y-110345000D02*
X84705000Y-110150000D01*
X79974604Y-110150000D02*
X79670000Y-110454604D01*
X79670000Y-110454604D02*
X79670000Y-110900000D01*
D46*
X77150000Y-106470000D02*
X77288714Y-106470000D01*
X77288714Y-106470000D02*
X79508714Y-108690000D01*
X79508714Y-108690000D02*
X79700000Y-108690000D01*
D45*
X79670000Y-110900000D02*
X79670000Y-108720000D01*
X79670000Y-108720000D02*
X79700000Y-108690000D01*
X95560000Y-138570000D02*
X91540000Y-138570000D01*
X91540000Y-138570000D02*
X91480000Y-138510000D01*
D41*
X91023646Y-123526346D02*
X91023646Y-123140850D01*
X91243011Y-123745711D02*
X91023646Y-123526346D01*
D45*
X98174939Y-111495339D02*
X97397122Y-111495339D01*
X98975339Y-111495339D02*
X98174939Y-111495339D01*
X99000000Y-111520000D02*
X98975339Y-111495339D01*
D41*
X90106421Y-96831439D02*
X90411250Y-96526610D01*
X89706332Y-96831439D02*
X90106421Y-96831439D01*
X88925207Y-95783588D02*
X88925207Y-96526610D01*
X89687280Y-95021515D02*
X88925207Y-95783588D01*
X88944259Y-96069366D02*
X88944259Y-95535914D01*
X89706332Y-96831439D02*
X88944259Y-96069366D01*
D45*
X83900000Y-95420000D02*
X81230000Y-95420000D01*
X81230000Y-95420000D02*
X80950000Y-95700000D01*
X83900000Y-95420000D02*
X89200000Y-95420000D01*
X89200000Y-95420000D02*
X89700000Y-95920000D01*
D48*
X99000000Y-120670000D02*
X96835935Y-120670000D01*
X96835935Y-120670000D02*
X96706853Y-120540918D01*
D44*
X96755000Y-122370000D02*
X96755000Y-120589065D01*
X96755000Y-120589065D02*
X96706853Y-120540918D01*
D45*
X97100000Y-98070000D02*
X97100000Y-92453332D01*
X97100000Y-92453332D02*
X97933332Y-91620000D01*
D43*
X89700000Y-95920000D02*
X94950000Y-95920000D01*
X94950000Y-95920000D02*
X97100000Y-98070000D01*
D45*
X97933332Y-91620000D02*
X94966666Y-91620000D01*
D47*
X112700000Y-93320000D02*
X112700000Y-92950000D01*
X112700000Y-92950000D02*
X112415609Y-92665609D01*
X112415609Y-92665609D02*
X108224344Y-92665609D01*
X108224344Y-92665609D02*
X107565000Y-93324953D01*
X107565000Y-93324953D02*
X107565000Y-94470000D01*
D41*
X87500000Y-111470000D02*
X87500000Y-112651752D01*
X87500000Y-112651752D02*
X87216087Y-112935665D01*
D48*
X77000000Y-108690000D02*
X76900000Y-108690000D01*
X76900000Y-108690000D02*
X76890000Y-108700000D01*
X76890000Y-108700000D02*
X76555495Y-108700000D01*
X76555495Y-108700000D02*
X73465495Y-105610000D01*
X73465495Y-105610000D02*
X72000000Y-105610000D01*
D45*
X84939519Y-106470000D02*
X84621512Y-106788007D01*
X88000000Y-106470000D02*
X84939519Y-106470000D01*
D49*
X88150000Y-111470000D02*
X88150000Y-106620000D01*
X88150000Y-106620000D02*
X88000000Y-106470000D01*
D47*
X85550000Y-111470000D02*
X85550000Y-109120000D01*
X85550000Y-109120000D02*
X85170000Y-108740000D01*
X86850000Y-111470000D02*
X86850000Y-109770000D01*
X86850000Y-109770000D02*
X87120000Y-109500000D01*
D48*
X76970000Y-110900000D02*
X76120458Y-110900000D01*
X76120458Y-110900000D02*
X73370458Y-108150000D01*
X73370458Y-108150000D02*
X72000000Y-108150000D01*
D43*
X125500000Y-95870000D02*
X133060000Y-95870000D01*
X133060000Y-95870000D02*
X134200000Y-97010000D01*
D45*
X89050000Y-91620000D02*
X92266666Y-91620000D01*
D44*
X108835000Y-94470000D02*
X108835000Y-96020000D01*
X108835000Y-96020000D02*
X108158614Y-96696386D01*
X108158614Y-96696386D02*
X102190779Y-96696386D01*
X102190779Y-96696386D02*
X101500000Y-97387165D01*
X101500000Y-97387165D02*
X101500000Y-98070000D01*
D42*
X101500000Y-98070000D02*
X101500000Y-104480000D01*
X101500000Y-104480000D02*
X101810000Y-104790000D01*
D45*
X82020000Y-121310000D02*
X82020000Y-119250000D01*
X82020000Y-119250000D02*
X82040000Y-119230000D01*
X90900000Y-126120000D02*
X92750000Y-126120000D01*
D48*
X94215000Y-123820000D02*
X93700000Y-124335000D01*
X93700000Y-124335000D02*
X93700000Y-126210000D01*
X94215000Y-122370000D02*
X94215000Y-123820000D01*
X95485000Y-123820000D02*
X96085000Y-124420000D01*
D41*
X96085000Y-124420000D02*
X96400000Y-124735000D01*
D48*
X95485000Y-122370000D02*
X95485000Y-123820000D01*
X96400000Y-124735000D02*
X96400000Y-124960000D01*
X96400000Y-124960000D02*
X96400000Y-126210000D01*
D45*
X96400000Y-126210000D02*
X98860000Y-126210000D01*
X98860000Y-126210000D02*
X98950000Y-126120000D01*
D50*
X122600000Y-137100000D02*
X127495036Y-137100000D01*
X127495036Y-137100000D02*
X131995036Y-132600000D01*
X131995036Y-132600000D02*
X134200000Y-132600000D01*
X108450000Y-131050000D02*
X125074502Y-131050000D01*
X125074502Y-131050000D02*
X128604502Y-127520000D01*
X128604502Y-127520000D02*
X134200000Y-127520000D01*
X122600000Y-119100000D02*
X125272350Y-119100000D01*
X125272350Y-119100000D02*
X128612350Y-122440000D01*
X128612350Y-122440000D02*
X134200000Y-122440000D01*
X134200000Y-117360000D02*
X130234947Y-117360000D01*
X130234947Y-117360000D02*
X125924947Y-113050000D01*
X125924947Y-113050000D02*
X112950000Y-113050000D01*
X112950000Y-113050000D02*
X108450000Y-113050000D01*
D41*
X75328758Y-124934136D02*
X75328758Y-124790656D01*
X75759195Y-125364573D02*
X75328758Y-124934136D01*
X82780561Y-125914572D02*
X76309194Y-125914572D01*
X84146088Y-119148912D02*
X84146088Y-124549045D01*
X84900000Y-118395000D02*
X84146088Y-119148912D01*
X84900000Y-117370000D02*
X84900000Y-118395000D01*
X76309194Y-125914572D02*
X75759195Y-125364573D01*
X84146088Y-124549045D02*
X82780561Y-125914572D01*
D44*
X74990000Y-117340000D02*
X72130000Y-117340000D01*
D46*
X72130000Y-117340000D02*
X72000000Y-117210000D01*
D41*
X84250000Y-117370000D02*
X84250000Y-117870000D01*
X84250000Y-117870000D02*
X83420000Y-118700000D01*
X83420000Y-118700000D02*
X83420000Y-124294816D01*
X83420000Y-124294816D02*
X82734816Y-124980000D01*
X82734816Y-124980000D02*
X77279202Y-124980000D01*
X77279202Y-124980000D02*
X76661337Y-124362135D01*
X76661337Y-120425100D02*
X76106237Y-119870000D01*
X76661337Y-124362135D02*
X76661337Y-120425100D01*
X76106237Y-119870000D02*
X75040000Y-119870000D01*
D44*
X72000000Y-119750000D02*
X74920000Y-119750000D01*
D46*
X74920000Y-119750000D02*
X75040000Y-119870000D01*
D49*
X88800000Y-117370000D02*
X88800000Y-116295000D01*
X83260000Y-117449088D02*
X82838025Y-117871063D01*
X88800000Y-116295000D02*
X88165372Y-115660372D01*
X88165372Y-115660372D02*
X83951711Y-115660372D01*
X83951711Y-115660372D02*
X83260000Y-116352083D01*
X83260000Y-116352083D02*
X83260000Y-117449088D01*
X82838025Y-117871063D02*
X78951063Y-117871063D01*
X78951063Y-117871063D02*
X78290000Y-117210000D01*
D46*
X98100000Y-136030000D02*
X99489337Y-136030000D01*
X99489337Y-136030000D02*
X100640090Y-134879247D01*
X100640090Y-134879247D02*
X100640090Y-129524825D01*
X100640090Y-129524825D02*
X100640090Y-128747008D01*
D41*
X85550000Y-119414291D02*
X85207832Y-119756459D01*
X85550000Y-117370000D02*
X85550000Y-119414291D01*
X84250000Y-112716001D02*
X84644223Y-113110224D01*
X84250000Y-111470000D02*
X84250000Y-112716001D01*
D47*
X95560000Y-136030000D02*
X95159201Y-136030000D01*
D49*
X86750263Y-122603783D02*
X86200264Y-123153782D01*
X86850000Y-122504046D02*
X86750263Y-122603783D01*
X86850000Y-117370000D02*
X86850000Y-122504046D01*
D47*
X95560000Y-133490000D02*
X90341246Y-133490000D01*
X90341246Y-133490000D02*
X87500000Y-130648754D01*
X87500000Y-130648754D02*
X87500000Y-117370000D01*
X88150000Y-117370000D02*
X88150000Y-127662997D01*
X88150000Y-127662997D02*
X89418143Y-128931140D01*
X89418143Y-128931140D02*
X97317456Y-128931140D01*
X97317456Y-128931140D02*
X98100000Y-129713684D01*
X98100000Y-129713684D02*
X98100000Y-130950000D01*
D49*
X86200000Y-120916090D02*
X85773018Y-121343072D01*
X86200000Y-117370000D02*
X86200000Y-120916090D01*
D45*
X102050000Y-123420000D02*
X102450000Y-123820000D01*
X102450000Y-123820000D02*
X103650000Y-123820000D01*
X101250000Y-123420000D02*
X102050000Y-123420000D01*
X101264183Y-123434183D02*
X101250000Y-123420000D01*
D46*
X94660000Y-109430000D02*
X94660000Y-110188225D01*
X94660000Y-110188225D02*
X92978225Y-111870000D01*
X92978225Y-111870000D02*
X92549240Y-111870000D01*
D44*
X94550000Y-112820000D02*
X94550000Y-114320000D01*
X94550000Y-114320000D02*
X94550000Y-116635000D01*
X96750000Y-114220000D02*
X94650000Y-114220000D01*
X94650000Y-114220000D02*
X94550000Y-114320000D01*
X94550000Y-116635000D02*
X94215000Y-116970000D01*
X95485000Y-116970000D02*
X94215000Y-116970000D01*
D45*
X103659240Y-118170000D02*
X101300000Y-118170000D01*
X101300000Y-118170000D02*
X101250000Y-118120000D01*
D44*
X110000000Y-102870000D02*
X110000000Y-99975000D01*
X110000000Y-99975000D02*
X110105000Y-99870000D01*
D46*
X110105000Y-99870000D02*
X108835000Y-99870000D01*
X110105000Y-99870000D02*
X110105000Y-94470000D01*
D45*
X100633332Y-91620000D02*
X102750000Y-91620000D01*
D41*
X103599998Y-91620000D02*
X102750000Y-91620000D01*
D45*
X104808797Y-98818916D02*
X104258798Y-98268917D01*
D41*
X104808797Y-99033797D02*
X104808797Y-98818916D01*
X105645000Y-99870000D02*
X104808797Y-99033797D01*
X106295000Y-99870000D02*
X105645000Y-99870000D01*
D48*
X96755000Y-116970000D02*
X96755000Y-116394380D01*
X96755000Y-116394380D02*
X96784796Y-116364584D01*
X96784796Y-116364584D02*
X98115416Y-116364584D01*
X99000000Y-115480000D02*
X99000000Y-114220000D01*
X98115416Y-116364584D02*
X99000000Y-115480000D01*
D45*
X101250000Y-114220000D02*
X99000000Y-114220000D01*
D47*
X89450000Y-117370000D02*
X89450000Y-127310000D01*
X89450000Y-127310000D02*
X89924247Y-127784247D01*
X89924247Y-127784247D02*
X99912500Y-127784247D01*
X99912500Y-127784247D02*
X101250000Y-126446747D01*
X101250000Y-126446747D02*
X101250000Y-126120000D01*
X101200000Y-109070000D02*
X101200000Y-108020000D01*
X101200000Y-108020000D02*
X100507773Y-107327773D01*
X100507773Y-107327773D02*
X93172227Y-107327773D01*
X93172227Y-107327773D02*
X92560000Y-107940000D01*
X92560000Y-107940000D02*
X90194545Y-107940000D01*
X90194545Y-107940000D02*
X88800000Y-109334545D01*
X88800000Y-109334545D02*
X88800000Y-111470000D01*
D45*
X101250000Y-111520000D02*
X101250000Y-109120000D01*
X101250000Y-109120000D02*
X101200000Y-109070000D01*
D41*
X90100000Y-111470000D02*
X90100000Y-113455221D01*
X90100000Y-113455221D02*
X88730532Y-114824689D01*
X83817743Y-114824689D02*
X82112432Y-116530000D01*
X88730532Y-114824689D02*
X83817743Y-114824689D01*
X82112432Y-116530000D02*
X82040000Y-116530000D01*
D47*
X91960000Y-109430000D02*
X90080000Y-109430000D01*
X90080000Y-109430000D02*
X89450000Y-110060000D01*
X89450000Y-110060000D02*
X89450000Y-111470000D01*
X90100000Y-117370000D02*
X91329154Y-117370000D01*
X91329154Y-117370000D02*
X91356094Y-117343060D01*
D45*
X104250000Y-128920000D02*
X105650760Y-127519240D01*
X105650760Y-127519240D02*
X105650760Y-124770000D01*
X105650760Y-124770000D02*
X110070000Y-124770000D01*
X110070000Y-124770000D02*
X110400000Y-125100000D01*
D51*
X104250000Y-114520000D02*
X105320000Y-114520000D01*
X105320000Y-114520000D02*
X109900000Y-119100000D01*
X109900000Y-119100000D02*
X110400000Y-119100000D01*
D45*
X104250000Y-114520000D02*
X104250000Y-114770000D01*
X110400000Y-119100000D02*
X105680000Y-119100000D01*
X105680000Y-119100000D02*
X105660000Y-119120000D01*
D52*
G36*
X139244000Y-139244000D02*
X127681047Y-139244000D01*
X128329669Y-139114981D01*
X129037236Y-138642200D01*
X132898436Y-134781000D01*
X134200000Y-134781000D01*
X134559538Y-134709483D01*
X134363932Y-134904748D01*
X134069335Y-135614215D01*
X134068665Y-136382415D01*
X134362023Y-137092395D01*
X134904748Y-137636068D01*
X135614215Y-137930665D01*
X136382415Y-137931335D01*
X137092395Y-137637977D01*
X137636068Y-137095252D01*
X137930665Y-136385785D01*
X137931335Y-135617585D01*
X137637977Y-134907605D01*
X137095252Y-134363932D01*
X136691870Y-134196433D01*
X136701637Y-134182138D01*
X136756341Y-133912000D01*
X136756341Y-131288000D01*
X136708856Y-131035637D01*
X136559709Y-130803856D01*
X136332138Y-130648363D01*
X136062000Y-130593659D01*
X135047564Y-130593659D01*
X135034633Y-130585019D01*
X134200000Y-130419000D01*
X131995036Y-130419000D01*
X131160403Y-130585019D01*
X130504702Y-131023144D01*
X130452836Y-131057800D01*
X126591636Y-134919000D01*
X122290139Y-134919000D01*
X121455506Y-135085019D01*
X120747939Y-135557800D01*
X120275158Y-136265367D01*
X120109139Y-137100000D01*
X120275158Y-137934633D01*
X120747939Y-138642200D01*
X121455506Y-139114981D01*
X122104128Y-139244000D01*
X96950866Y-139244000D01*
X97102731Y-138878268D01*
X97103267Y-138264425D01*
X96868854Y-137697103D01*
X96472132Y-137299688D01*
X96830312Y-136942132D01*
X97224820Y-137337329D01*
X97791732Y-137572731D01*
X98405575Y-137573267D01*
X98972897Y-137338854D01*
X99351411Y-136961000D01*
X99489337Y-136961000D01*
X99786506Y-136901890D01*
X99845616Y-136890132D01*
X100147653Y-136688316D01*
X101298406Y-135537564D01*
X101500221Y-135235526D01*
X101500222Y-135235525D01*
X101571090Y-134879247D01*
X101571090Y-132920000D01*
X102569000Y-132920000D01*
X102569000Y-134960000D01*
X102696959Y-135603291D01*
X102982077Y-136030000D01*
X103061354Y-136148646D01*
X105201353Y-138288646D01*
X105474031Y-138470843D01*
X105746709Y-138653041D01*
X106390000Y-138781000D01*
X108937826Y-138781000D01*
X109108585Y-138895098D01*
X109852139Y-139043000D01*
X110947861Y-139043000D01*
X111691415Y-138895098D01*
X112321769Y-138473908D01*
X112742959Y-137843554D01*
X112890861Y-137100000D01*
X112742959Y-136356446D01*
X112321769Y-135726092D01*
X111691415Y-135304902D01*
X110947861Y-135157000D01*
X109852139Y-135157000D01*
X109108585Y-135304902D01*
X108937826Y-135419000D01*
X107086293Y-135419000D01*
X105931000Y-134263708D01*
X105931000Y-132920000D01*
X105844341Y-132484337D01*
X105844341Y-131670000D01*
X105796856Y-131417637D01*
X105647709Y-131185856D01*
X105420138Y-131030363D01*
X105150000Y-130975659D01*
X103350000Y-130975659D01*
X103097637Y-131023144D01*
X102865856Y-131172291D01*
X102710363Y-131399862D01*
X102655659Y-131670000D01*
X102655659Y-132484337D01*
X102569000Y-132920000D01*
X101571090Y-132920000D01*
X101571090Y-130514001D01*
X101864106Y-130221496D01*
X102051909Y-129769215D01*
X102052336Y-129279493D01*
X101871009Y-128840646D01*
X101871303Y-128503221D01*
X101684290Y-128050613D01*
X101338306Y-127704025D01*
X101267885Y-127674784D01*
X101378328Y-127564341D01*
X101900000Y-127564341D01*
X102152363Y-127516856D01*
X102384144Y-127367709D01*
X102539637Y-127140138D01*
X102594341Y-126870000D01*
X102594341Y-125370000D01*
X102546856Y-125117637D01*
X102471802Y-125001000D01*
X103650000Y-125001000D01*
X104085414Y-124914391D01*
X104277000Y-124914391D01*
X104329419Y-124904528D01*
X104329419Y-125170050D01*
X104376904Y-125422413D01*
X104469760Y-125566715D01*
X104469760Y-126975659D01*
X103350000Y-126975659D01*
X103097637Y-127023144D01*
X102865856Y-127172291D01*
X102710363Y-127399862D01*
X102655659Y-127670000D01*
X102655659Y-130170000D01*
X102703144Y-130422363D01*
X102852291Y-130654144D01*
X103079862Y-130809637D01*
X103350000Y-130864341D01*
X105150000Y-130864341D01*
X105402363Y-130816856D01*
X105521584Y-130740139D01*
X106269000Y-130740139D01*
X106269000Y-131359861D01*
X106435019Y-132194494D01*
X106907800Y-132902061D01*
X107615367Y-133374842D01*
X108450000Y-133540861D01*
X109284633Y-133374842D01*
X109499908Y-133231000D01*
X125074502Y-133231000D01*
X125909135Y-133064981D01*
X126616702Y-132592200D01*
X129507902Y-129701000D01*
X134200000Y-129701000D01*
X135034633Y-129534981D01*
X135181007Y-129437177D01*
X135562508Y-129361292D01*
X136209084Y-128929264D01*
X136641112Y-128282688D01*
X136792820Y-127520000D01*
X136641112Y-126757312D01*
X136209084Y-126110736D01*
X135562508Y-125678708D01*
X135181007Y-125602823D01*
X135034633Y-125505019D01*
X134200000Y-125339000D01*
X128604502Y-125339000D01*
X127769869Y-125505019D01*
X127126218Y-125935093D01*
X127062302Y-125977800D01*
X124171102Y-128869000D01*
X109499908Y-128869000D01*
X109284633Y-128725158D01*
X108450000Y-128559139D01*
X107615367Y-128725158D01*
X106907800Y-129197939D01*
X106435019Y-129905506D01*
X106269000Y-130740139D01*
X105521584Y-130740139D01*
X105634144Y-130667709D01*
X105789637Y-130440138D01*
X105844341Y-130170000D01*
X105844341Y-128995845D01*
X106485853Y-128354333D01*
X106741862Y-127971189D01*
X106831760Y-127519240D01*
X106831760Y-125951000D01*
X108128834Y-125951000D01*
X108478231Y-126473908D01*
X109108585Y-126895098D01*
X109852139Y-127043000D01*
X110947861Y-127043000D01*
X111691415Y-126895098D01*
X112321769Y-126473908D01*
X112742959Y-125843554D01*
X112890861Y-125100000D01*
X112880916Y-125050000D01*
X120159139Y-125050000D01*
X120325158Y-125884633D01*
X120797939Y-126592200D01*
X121505506Y-127064981D01*
X122340139Y-127231000D01*
X122959861Y-127231000D01*
X123794494Y-127064981D01*
X124502061Y-126592200D01*
X124974842Y-125884633D01*
X125140861Y-125050000D01*
X124974842Y-124215367D01*
X124502061Y-123507800D01*
X123794494Y-123035019D01*
X122959861Y-122869000D01*
X122340139Y-122869000D01*
X121505506Y-123035019D01*
X120797939Y-123507800D01*
X120325158Y-124215367D01*
X120159139Y-125050000D01*
X112880916Y-125050000D01*
X112742959Y-124356446D01*
X112321769Y-123726092D01*
X111691415Y-123304902D01*
X110947861Y-123157000D01*
X109852139Y-123157000D01*
X109108585Y-123304902D01*
X108683403Y-123589000D01*
X105650760Y-123589000D01*
X105215346Y-123675609D01*
X105023760Y-123675609D01*
X104971341Y-123685472D01*
X104971341Y-123419950D01*
X104923856Y-123167587D01*
X104774709Y-122935806D01*
X104547138Y-122780313D01*
X104277000Y-122725609D01*
X104085414Y-122725609D01*
X103650000Y-122639000D01*
X102939186Y-122639000D01*
X102885093Y-122584907D01*
X102501949Y-122328898D01*
X102487964Y-122326116D01*
X102397709Y-122185856D01*
X102302080Y-122120516D01*
X102384144Y-122067709D01*
X102539637Y-121840138D01*
X102594341Y-121570000D01*
X102594341Y-120070000D01*
X102546856Y-119817637D01*
X102397709Y-119585856D01*
X102226708Y-119469016D01*
X102384144Y-119367709D01*
X102395561Y-119351000D01*
X103659240Y-119351000D01*
X104094654Y-119264391D01*
X104286240Y-119264391D01*
X104338659Y-119254528D01*
X104338659Y-119520050D01*
X104386144Y-119772413D01*
X104535291Y-120004194D01*
X104762862Y-120159687D01*
X105033000Y-120214391D01*
X105224586Y-120214391D01*
X105660000Y-120301000D01*
X105760547Y-120281000D01*
X108349334Y-120281000D01*
X108478231Y-120473908D01*
X109108585Y-120895098D01*
X109852139Y-121043000D01*
X110947861Y-121043000D01*
X111691415Y-120895098D01*
X112321769Y-120473908D01*
X112742959Y-119843554D01*
X112890861Y-119100000D01*
X120109139Y-119100000D01*
X120275158Y-119934633D01*
X120747939Y-120642200D01*
X121455506Y-121114981D01*
X122290139Y-121281000D01*
X124368950Y-121281000D01*
X127070150Y-123982200D01*
X127777717Y-124454981D01*
X128612350Y-124621000D01*
X134200000Y-124621000D01*
X135034633Y-124454981D01*
X135181007Y-124357177D01*
X135562508Y-124281292D01*
X136209084Y-123849264D01*
X136641112Y-123202688D01*
X136792820Y-122440000D01*
X136641112Y-121677312D01*
X136209084Y-121030736D01*
X135562508Y-120598708D01*
X135181007Y-120522823D01*
X135034633Y-120425019D01*
X134200000Y-120259000D01*
X129515750Y-120259000D01*
X126814550Y-117557800D01*
X126525326Y-117364547D01*
X126106983Y-117085019D01*
X125272350Y-116919000D01*
X122290139Y-116919000D01*
X121455506Y-117085019D01*
X120747939Y-117557800D01*
X120275158Y-118265367D01*
X120109139Y-119100000D01*
X112890861Y-119100000D01*
X112742959Y-118356446D01*
X112321769Y-117726092D01*
X111691415Y-117304902D01*
X110947861Y-117157000D01*
X109852139Y-117157000D01*
X109546550Y-117217785D01*
X107725516Y-115396752D01*
X108450000Y-115540861D01*
X109284633Y-115374842D01*
X109499908Y-115231000D01*
X125021547Y-115231000D01*
X128692747Y-118902200D01*
X129400314Y-119374981D01*
X130234947Y-119541000D01*
X134200000Y-119541000D01*
X135034633Y-119374981D01*
X135181007Y-119277177D01*
X135562508Y-119201292D01*
X136209084Y-118769264D01*
X136641112Y-118122688D01*
X136792820Y-117360000D01*
X136641112Y-116597312D01*
X136209084Y-115950736D01*
X135562508Y-115518708D01*
X135181007Y-115442823D01*
X135034633Y-115345019D01*
X134200000Y-115179000D01*
X131138347Y-115179000D01*
X127467147Y-111507800D01*
X127119355Y-111275413D01*
X126759580Y-111035019D01*
X125924947Y-110869000D01*
X109499908Y-110869000D01*
X109284633Y-110725158D01*
X108450000Y-110559139D01*
X107615367Y-110725158D01*
X106907800Y-111197939D01*
X106435019Y-111905506D01*
X106269000Y-112740139D01*
X106269000Y-113359861D01*
X106413109Y-114084345D01*
X106084382Y-113755618D01*
X105844341Y-113595227D01*
X105844341Y-113270000D01*
X105796856Y-113017637D01*
X105647709Y-112785856D01*
X105420138Y-112630363D01*
X105150000Y-112575659D01*
X103350000Y-112575659D01*
X103097637Y-112623144D01*
X102865856Y-112772291D01*
X102710363Y-112999862D01*
X102655659Y-113270000D01*
X102655659Y-115770000D01*
X102703144Y-116022363D01*
X102852291Y-116254144D01*
X103079862Y-116409637D01*
X103350000Y-116464341D01*
X105150000Y-116464341D01*
X105402363Y-116416856D01*
X105576219Y-116304983D01*
X107190235Y-117919000D01*
X105680000Y-117919000D01*
X105228050Y-118008898D01*
X105203040Y-118025609D01*
X105033000Y-118025609D01*
X104980581Y-118035472D01*
X104980581Y-117769950D01*
X104933096Y-117517587D01*
X104783949Y-117285806D01*
X104556378Y-117130313D01*
X104286240Y-117075609D01*
X104094654Y-117075609D01*
X103659240Y-116989000D01*
X102464080Y-116989000D01*
X102397709Y-116885856D01*
X102170138Y-116730363D01*
X101900000Y-116675659D01*
X100600000Y-116675659D01*
X100347637Y-116723144D01*
X100115856Y-116872291D01*
X99960363Y-117099862D01*
X99905659Y-117370000D01*
X99905659Y-118870000D01*
X99953144Y-119122363D01*
X100102291Y-119354144D01*
X100273292Y-119470984D01*
X100182788Y-119529221D01*
X100122709Y-119435856D01*
X99895138Y-119280363D01*
X99625000Y-119225659D01*
X98375000Y-119225659D01*
X98122637Y-119273144D01*
X97890856Y-119422291D01*
X97735363Y-119649862D01*
X97727437Y-119689000D01*
X97595801Y-119689000D01*
X97405069Y-119497935D01*
X96952788Y-119310132D01*
X96463066Y-119309705D01*
X96010458Y-119496718D01*
X95663870Y-119842702D01*
X95476067Y-120294983D01*
X95475640Y-120784705D01*
X95492562Y-120825659D01*
X95135000Y-120825659D01*
X94882637Y-120873144D01*
X94852734Y-120892386D01*
X94835138Y-120880363D01*
X94565000Y-120825659D01*
X93865000Y-120825659D01*
X93612637Y-120873144D01*
X93380856Y-121022291D01*
X93225363Y-121249862D01*
X93170659Y-121520000D01*
X93170659Y-123220000D01*
X93211358Y-123436298D01*
X93006328Y-123641328D01*
X92793674Y-123959587D01*
X92745246Y-124203050D01*
X92719000Y-124335000D01*
X92719000Y-124888973D01*
X92506213Y-124888787D01*
X92384688Y-124939000D01*
X92081906Y-124939000D01*
X92047709Y-124885856D01*
X91919392Y-124798181D01*
X91939406Y-124789911D01*
X92285994Y-124443927D01*
X92473797Y-123991646D01*
X92474224Y-123501924D01*
X92287211Y-123049316D01*
X92254755Y-123016803D01*
X92254859Y-122897063D01*
X92244341Y-122871607D01*
X92244341Y-122670000D01*
X92196856Y-122417637D01*
X92047709Y-122185856D01*
X91820138Y-122030363D01*
X91550000Y-121975659D01*
X91427552Y-121975659D01*
X91269581Y-121910064D01*
X90779859Y-121909637D01*
X90620073Y-121975659D01*
X90331000Y-121975659D01*
X90331000Y-118788212D01*
X90577363Y-118741856D01*
X90809144Y-118592709D01*
X90885712Y-118480648D01*
X91110159Y-118573846D01*
X91599881Y-118574273D01*
X92052489Y-118387260D01*
X92399077Y-118041276D01*
X92586880Y-117588995D01*
X92587307Y-117099273D01*
X92400294Y-116646665D01*
X92054310Y-116300077D01*
X91602029Y-116112274D01*
X91112307Y-116111847D01*
X90858622Y-116216667D01*
X90822709Y-116160856D01*
X90595138Y-116005363D01*
X90325000Y-115950659D01*
X89875000Y-115950659D01*
X89771329Y-115970166D01*
X89675000Y-115950659D01*
X89579640Y-115950659D01*
X89405284Y-115689717D01*
X89204076Y-115488509D01*
X89318138Y-115412295D01*
X90687606Y-114042827D01*
X90867744Y-113773231D01*
X90931000Y-113455221D01*
X90931000Y-112514367D01*
X90964637Y-112465138D01*
X91019341Y-112195000D01*
X91019341Y-110745000D01*
X91017528Y-110735365D01*
X91210000Y-110774341D01*
X92710000Y-110774341D01*
X92768204Y-110763389D01*
X92755984Y-110775609D01*
X91922240Y-110775609D01*
X91669877Y-110823094D01*
X91438096Y-110972241D01*
X91282603Y-111199812D01*
X91227899Y-111469950D01*
X91227899Y-112270050D01*
X91275384Y-112522413D01*
X91424531Y-112754194D01*
X91652102Y-112909687D01*
X91922240Y-112964391D01*
X93176240Y-112964391D01*
X93228659Y-112954528D01*
X93228659Y-113220050D01*
X93276144Y-113472413D01*
X93425291Y-113704194D01*
X93519000Y-113768223D01*
X93519000Y-115533398D01*
X93380856Y-115622291D01*
X93225363Y-115849862D01*
X93170659Y-116120000D01*
X93170659Y-117820000D01*
X93218144Y-118072363D01*
X93367291Y-118304144D01*
X93594862Y-118459637D01*
X93865000Y-118514341D01*
X94565000Y-118514341D01*
X94817363Y-118466856D01*
X94847266Y-118447614D01*
X94864862Y-118459637D01*
X95135000Y-118514341D01*
X95835000Y-118514341D01*
X96087363Y-118466856D01*
X96117266Y-118447614D01*
X96134862Y-118459637D01*
X96405000Y-118514341D01*
X97105000Y-118514341D01*
X97357363Y-118466856D01*
X97589144Y-118317709D01*
X97744637Y-118090138D01*
X97799341Y-117820000D01*
X97799341Y-117345584D01*
X98115416Y-117345584D01*
X98490829Y-117270910D01*
X98809088Y-117058256D01*
X99693672Y-116173672D01*
X99906326Y-115855413D01*
X99961325Y-115578915D01*
X100127964Y-115471686D01*
X100329862Y-115609637D01*
X100600000Y-115664341D01*
X101900000Y-115664341D01*
X102152363Y-115616856D01*
X102384144Y-115467709D01*
X102539637Y-115240138D01*
X102594341Y-114970000D01*
X102594341Y-113470000D01*
X102546856Y-113217637D01*
X102397709Y-112985856D01*
X102226708Y-112869016D01*
X102384144Y-112767709D01*
X102539637Y-112540138D01*
X102594341Y-112270000D01*
X102594341Y-110770000D01*
X102546856Y-110517637D01*
X102431000Y-110337592D01*
X102431000Y-110219732D01*
X102434144Y-110217709D01*
X102589637Y-109990138D01*
X102644341Y-109720000D01*
X102644341Y-108420000D01*
X102596856Y-108167637D01*
X102447709Y-107935856D01*
X102220138Y-107780363D01*
X102025493Y-107740947D01*
X102013938Y-107682856D01*
X101822961Y-107397039D01*
X101130734Y-106704812D01*
X101025267Y-106634341D01*
X103560000Y-106634341D01*
X103812363Y-106586856D01*
X104044144Y-106437709D01*
X104199637Y-106210138D01*
X104254341Y-105940000D01*
X104254341Y-103640000D01*
X104206856Y-103387637D01*
X104057709Y-103155856D01*
X103830138Y-103000363D01*
X103560000Y-102945659D01*
X102931000Y-102945659D01*
X102931000Y-101741950D01*
X103064363Y-101716856D01*
X103296144Y-101567709D01*
X103451637Y-101340138D01*
X103506341Y-101070000D01*
X103506341Y-99257564D01*
X103560582Y-99311900D01*
X103682021Y-99362326D01*
X103715020Y-99395325D01*
X103764597Y-99515311D01*
X104110581Y-99861899D01*
X104562862Y-100049702D01*
X104649566Y-100049778D01*
X105057392Y-100457603D01*
X105057394Y-100457606D01*
X105234543Y-100575973D01*
X105250659Y-100586741D01*
X105250659Y-100720000D01*
X105298144Y-100972363D01*
X105447291Y-101204144D01*
X105625134Y-101325659D01*
X105000000Y-101325659D01*
X104747637Y-101373144D01*
X104515856Y-101522291D01*
X104360363Y-101749862D01*
X104305659Y-102020000D01*
X104305659Y-103720000D01*
X104353144Y-103972363D01*
X104502291Y-104204144D01*
X104569000Y-104249724D01*
X104569000Y-106277642D01*
X103238130Y-107608511D01*
X102927928Y-108072761D01*
X102819000Y-108620381D01*
X102819000Y-108840867D01*
X102710363Y-108999862D01*
X102655659Y-109270000D01*
X102655659Y-111770000D01*
X102703144Y-112022363D01*
X102852291Y-112254144D01*
X103079862Y-112409637D01*
X103350000Y-112464341D01*
X105150000Y-112464341D01*
X105402363Y-112416856D01*
X105634144Y-112267709D01*
X105789637Y-112040138D01*
X105844341Y-111770000D01*
X105844341Y-109270000D01*
X105809466Y-109084655D01*
X106363120Y-108531000D01*
X108563675Y-108531000D01*
X109108585Y-108895098D01*
X109852139Y-109043000D01*
X110947861Y-109043000D01*
X111691415Y-108895098D01*
X111862174Y-108781000D01*
X114395013Y-108781000D01*
X115038304Y-108653041D01*
X115583659Y-108288646D01*
X116822305Y-107050000D01*
X120159139Y-107050000D01*
X120325158Y-107884633D01*
X120797939Y-108592200D01*
X121505506Y-109064981D01*
X122340139Y-109231000D01*
X122959861Y-109231000D01*
X123794494Y-109064981D01*
X124502061Y-108592200D01*
X124974842Y-107884633D01*
X125116991Y-107170000D01*
X131607180Y-107170000D01*
X131758888Y-107932688D01*
X132190916Y-108579264D01*
X132837492Y-109011292D01*
X133600180Y-109163000D01*
X134799820Y-109163000D01*
X135562508Y-109011292D01*
X136209084Y-108579264D01*
X136641112Y-107932688D01*
X136792820Y-107170000D01*
X136641112Y-106407312D01*
X136209084Y-105760736D01*
X135562508Y-105328708D01*
X134799820Y-105177000D01*
X133600180Y-105177000D01*
X132837492Y-105328708D01*
X132190916Y-105760736D01*
X131758888Y-106407312D01*
X131607180Y-107170000D01*
X125116991Y-107170000D01*
X125140861Y-107050000D01*
X124974842Y-106215367D01*
X124502061Y-105507800D01*
X123794494Y-105035019D01*
X122959861Y-104869000D01*
X122340139Y-104869000D01*
X121505506Y-105035019D01*
X120797939Y-105507800D01*
X120325158Y-106215367D01*
X120159139Y-107050000D01*
X116822305Y-107050000D01*
X119688646Y-104183660D01*
X119809228Y-104003197D01*
X120002363Y-103966856D01*
X120234144Y-103817709D01*
X120389637Y-103590138D01*
X120444341Y-103320000D01*
X120444341Y-102090000D01*
X131607180Y-102090000D01*
X131758888Y-102852688D01*
X132190916Y-103499264D01*
X132837492Y-103931292D01*
X133600180Y-104083000D01*
X134799820Y-104083000D01*
X135562508Y-103931292D01*
X136209084Y-103499264D01*
X136641112Y-102852688D01*
X136792820Y-102090000D01*
X136641112Y-101327312D01*
X136209084Y-100680736D01*
X135562508Y-100248708D01*
X134799820Y-100097000D01*
X133600180Y-100097000D01*
X132837492Y-100248708D01*
X132190916Y-100680736D01*
X131758888Y-101327312D01*
X131607180Y-102090000D01*
X120444341Y-102090000D01*
X120444341Y-101551000D01*
X124068094Y-101551000D01*
X124102291Y-101604144D01*
X124329862Y-101759637D01*
X124600000Y-101814341D01*
X126400000Y-101814341D01*
X126652363Y-101766856D01*
X126884144Y-101617709D01*
X127039637Y-101390138D01*
X127094341Y-101120000D01*
X127094341Y-100305663D01*
X127181000Y-99870000D01*
X127094341Y-99434337D01*
X127094341Y-98620000D01*
X127046856Y-98367637D01*
X126897709Y-98135856D01*
X126670138Y-97980363D01*
X126400000Y-97925659D01*
X124600000Y-97925659D01*
X124347637Y-97973144D01*
X124115856Y-98122291D01*
X124070276Y-98189000D01*
X120032779Y-98189000D01*
X120020138Y-98180363D01*
X119750000Y-98125659D01*
X117250000Y-98125659D01*
X116997637Y-98173144D01*
X116765856Y-98322291D01*
X116610363Y-98549862D01*
X116555659Y-98820000D01*
X116555659Y-99739000D01*
X113856906Y-99739000D01*
X113822709Y-99685856D01*
X113595138Y-99530363D01*
X113325000Y-99475659D01*
X112075000Y-99475659D01*
X111822637Y-99523144D01*
X111590856Y-99672291D01*
X111435363Y-99899862D01*
X111380659Y-100170000D01*
X111380659Y-101455879D01*
X111270138Y-101380363D01*
X111031000Y-101331937D01*
X111031000Y-101083274D01*
X111094637Y-100990138D01*
X111149341Y-100720000D01*
X111149341Y-99020000D01*
X111101856Y-98767637D01*
X111036000Y-98665294D01*
X111036000Y-95870000D01*
X123819000Y-95870000D01*
X123905659Y-96305663D01*
X123905659Y-97120000D01*
X123953144Y-97372363D01*
X124102291Y-97604144D01*
X124329862Y-97759637D01*
X124600000Y-97814341D01*
X126400000Y-97814341D01*
X126652363Y-97766856D01*
X126884144Y-97617709D01*
X126929724Y-97551000D01*
X131714792Y-97551000D01*
X131758888Y-97772688D01*
X132190916Y-98419264D01*
X132837492Y-98851292D01*
X133600180Y-99003000D01*
X134799820Y-99003000D01*
X135562508Y-98851292D01*
X136209084Y-98419264D01*
X136641112Y-97772688D01*
X136792820Y-97010000D01*
X136641112Y-96247312D01*
X136419692Y-95915933D01*
X137092395Y-95637977D01*
X137636068Y-95095252D01*
X137930665Y-94385785D01*
X137931335Y-93617585D01*
X137637977Y-92907605D01*
X137095252Y-92363932D01*
X136385785Y-92069335D01*
X135617585Y-92068665D01*
X134907605Y-92362023D01*
X134363932Y-92904748D01*
X134069335Y-93614215D01*
X134068665Y-94382415D01*
X134170651Y-94629239D01*
X134085422Y-94572291D01*
X133703291Y-94316959D01*
X133060000Y-94189000D01*
X126931906Y-94189000D01*
X126897709Y-94135856D01*
X126670138Y-93980363D01*
X126400000Y-93925659D01*
X124600000Y-93925659D01*
X124347637Y-93973144D01*
X124115856Y-94122291D01*
X123960363Y-94349862D01*
X123905659Y-94620000D01*
X123905659Y-95434337D01*
X123819000Y-95870000D01*
X111036000Y-95870000D01*
X111036000Y-95675956D01*
X111094637Y-95590138D01*
X111149341Y-95320000D01*
X111149341Y-93620000D01*
X111135532Y-93546609D01*
X111380659Y-93546609D01*
X111380659Y-94070000D01*
X111428144Y-94322363D01*
X111577291Y-94554144D01*
X111804862Y-94709637D01*
X112075000Y-94764341D01*
X113325000Y-94764341D01*
X113577363Y-94716856D01*
X113809144Y-94567709D01*
X113964637Y-94340138D01*
X114019341Y-94070000D01*
X114019341Y-92570000D01*
X113971856Y-92317637D01*
X113822709Y-92085856D01*
X113595138Y-91930363D01*
X113325000Y-91875659D01*
X112788654Y-91875659D01*
X112752753Y-91851671D01*
X112415609Y-91784609D01*
X108224344Y-91784609D01*
X107887200Y-91851671D01*
X107601383Y-92042648D01*
X106942039Y-92701992D01*
X106751062Y-92987809D01*
X106721624Y-93135802D01*
X106575363Y-93349862D01*
X106520659Y-93620000D01*
X106520659Y-95320000D01*
X106568144Y-95572363D01*
X106628003Y-95665386D01*
X103506341Y-95665386D01*
X103506341Y-95070000D01*
X103458856Y-94817637D01*
X103309709Y-94585856D01*
X103082138Y-94430363D01*
X102812000Y-94375659D01*
X100188000Y-94375659D01*
X99935637Y-94423144D01*
X99703856Y-94572291D01*
X99548363Y-94799862D01*
X99493659Y-95070000D01*
X99493659Y-101070000D01*
X99541144Y-101322363D01*
X99690291Y-101554144D01*
X99917862Y-101709637D01*
X100069000Y-101740243D01*
X100069000Y-102945659D01*
X100060000Y-102945659D01*
X99807637Y-102993144D01*
X99575856Y-103142291D01*
X99420363Y-103369862D01*
X99365659Y-103640000D01*
X99365659Y-105940000D01*
X99413144Y-106192363D01*
X99562291Y-106424144D01*
X99595410Y-106446773D01*
X93172227Y-106446773D01*
X92835083Y-106513835D01*
X92549266Y-106704812D01*
X92195078Y-107059000D01*
X92144341Y-107059000D01*
X92144341Y-105820000D01*
X92096856Y-105567637D01*
X91947709Y-105335856D01*
X91720138Y-105180363D01*
X91450000Y-105125659D01*
X90572292Y-105125659D01*
X89728316Y-104281684D01*
X89426279Y-104079868D01*
X89367169Y-104068110D01*
X89070000Y-104009000D01*
X87754829Y-104009000D01*
X86516336Y-102770508D01*
X86214299Y-102568692D01*
X86155189Y-102556934D01*
X85858020Y-102497824D01*
X85810004Y-102497824D01*
X85698216Y-102385841D01*
X85245935Y-102198038D01*
X84756213Y-102197611D01*
X84713825Y-102215125D01*
X84606187Y-102170430D01*
X84116465Y-102170003D01*
X83663857Y-102357016D01*
X83317269Y-102703000D01*
X83129466Y-103155281D01*
X83129039Y-103645003D01*
X83316052Y-104097611D01*
X83662036Y-104444199D01*
X84114317Y-104632002D01*
X84604039Y-104632429D01*
X84646427Y-104614915D01*
X84754065Y-104659610D01*
X85243787Y-104660037D01*
X85617986Y-104505422D01*
X86401563Y-105289000D01*
X86233274Y-105289000D01*
X86140138Y-105225363D01*
X85870000Y-105170659D01*
X84370000Y-105170659D01*
X84117637Y-105218144D01*
X83885856Y-105367291D01*
X83730363Y-105594862D01*
X83675659Y-105865000D01*
X83675659Y-105992830D01*
X83578529Y-106089791D01*
X83390726Y-106542072D01*
X83390299Y-107031794D01*
X83577312Y-107484402D01*
X83844069Y-107751625D01*
X83780363Y-107844862D01*
X83725659Y-108115000D01*
X83725659Y-109269000D01*
X81144341Y-109269000D01*
X81144341Y-108040000D01*
X81096856Y-107787637D01*
X80947709Y-107555856D01*
X80720138Y-107400363D01*
X80450000Y-107345659D01*
X79481005Y-107345659D01*
X78594341Y-106458995D01*
X78594341Y-105845000D01*
X78546856Y-105592637D01*
X78397709Y-105360856D01*
X78331000Y-105315276D01*
X78331000Y-104916781D01*
X78297825Y-104750000D01*
X78244341Y-104481115D01*
X78244341Y-102250000D01*
X78196856Y-101997637D01*
X78047709Y-101765856D01*
X77820138Y-101610363D01*
X77550000Y-101555659D01*
X76682952Y-101555659D01*
X76331000Y-101203708D01*
X76331000Y-99965880D01*
X76344341Y-99900000D01*
X76344341Y-99431000D01*
X79884120Y-99431000D01*
X79950000Y-99444341D01*
X81950000Y-99444341D01*
X82202363Y-99396856D01*
X82434144Y-99247709D01*
X82589637Y-99020138D01*
X82644341Y-98750000D01*
X82644341Y-97250000D01*
X82596856Y-96997637D01*
X82501394Y-96849285D01*
X82589637Y-96720138D01*
X82613763Y-96601000D01*
X82743094Y-96601000D01*
X82777291Y-96654144D01*
X83004862Y-96809637D01*
X83275000Y-96864341D01*
X84525000Y-96864341D01*
X84777363Y-96816856D01*
X85009144Y-96667709D01*
X85054724Y-96601000D01*
X87694142Y-96601000D01*
X87693994Y-96770397D01*
X87755659Y-96919638D01*
X87755659Y-97920000D01*
X87803144Y-98172363D01*
X87952291Y-98404144D01*
X88179862Y-98559637D01*
X88450000Y-98614341D01*
X90950000Y-98614341D01*
X91202363Y-98566856D01*
X91434144Y-98417709D01*
X91589637Y-98190138D01*
X91644341Y-97920000D01*
X91644341Y-97601000D01*
X94253708Y-97601000D01*
X95093659Y-98440952D01*
X95093659Y-101070000D01*
X95141144Y-101322363D01*
X95290291Y-101554144D01*
X95517862Y-101709637D01*
X95788000Y-101764341D01*
X98412000Y-101764341D01*
X98664363Y-101716856D01*
X98896144Y-101567709D01*
X99051637Y-101340138D01*
X99106341Y-101070000D01*
X99106341Y-95070000D01*
X99058856Y-94817637D01*
X98909709Y-94585856D01*
X98682138Y-94430363D01*
X98412000Y-94375659D01*
X98281000Y-94375659D01*
X98281000Y-92964341D01*
X98683332Y-92964341D01*
X98935695Y-92916856D01*
X99167476Y-92767709D01*
X99284316Y-92596708D01*
X99385623Y-92754144D01*
X99613194Y-92909637D01*
X99883332Y-92964341D01*
X101383332Y-92964341D01*
X101635695Y-92916856D01*
X101815740Y-92801000D01*
X102384167Y-92801000D01*
X102477717Y-92839845D01*
X102579860Y-92909637D01*
X102849998Y-92964341D01*
X104349998Y-92964341D01*
X104602361Y-92916856D01*
X104834142Y-92767709D01*
X104989635Y-92540138D01*
X105044339Y-92270000D01*
X105044339Y-90970000D01*
X105004072Y-90756000D01*
X139244000Y-90756000D01*
X139244000Y-139244000D01*
X139244000Y-139244000D01*
G37*
X139244000Y-139244000D02*
X127681047Y-139244000D01*
X128329669Y-139114981D01*
X129037236Y-138642200D01*
X132898436Y-134781000D01*
X134200000Y-134781000D01*
X134559538Y-134709483D01*
X134363932Y-134904748D01*
X134069335Y-135614215D01*
X134068665Y-136382415D01*
X134362023Y-137092395D01*
X134904748Y-137636068D01*
X135614215Y-137930665D01*
X136382415Y-137931335D01*
X137092395Y-137637977D01*
X137636068Y-137095252D01*
X137930665Y-136385785D01*
X137931335Y-135617585D01*
X137637977Y-134907605D01*
X137095252Y-134363932D01*
X136691870Y-134196433D01*
X136701637Y-134182138D01*
X136756341Y-133912000D01*
X136756341Y-131288000D01*
X136708856Y-131035637D01*
X136559709Y-130803856D01*
X136332138Y-130648363D01*
X136062000Y-130593659D01*
X135047564Y-130593659D01*
X135034633Y-130585019D01*
X134200000Y-130419000D01*
X131995036Y-130419000D01*
X131160403Y-130585019D01*
X130504702Y-131023144D01*
X130452836Y-131057800D01*
X126591636Y-134919000D01*
X122290139Y-134919000D01*
X121455506Y-135085019D01*
X120747939Y-135557800D01*
X120275158Y-136265367D01*
X120109139Y-137100000D01*
X120275158Y-137934633D01*
X120747939Y-138642200D01*
X121455506Y-139114981D01*
X122104128Y-139244000D01*
X96950866Y-139244000D01*
X97102731Y-138878268D01*
X97103267Y-138264425D01*
X96868854Y-137697103D01*
X96472132Y-137299688D01*
X96830312Y-136942132D01*
X97224820Y-137337329D01*
X97791732Y-137572731D01*
X98405575Y-137573267D01*
X98972897Y-137338854D01*
X99351411Y-136961000D01*
X99489337Y-136961000D01*
X99786506Y-136901890D01*
X99845616Y-136890132D01*
X100147653Y-136688316D01*
X101298406Y-135537564D01*
X101500221Y-135235526D01*
X101500222Y-135235525D01*
X101571090Y-134879247D01*
X101571090Y-132920000D01*
X102569000Y-132920000D01*
X102569000Y-134960000D01*
X102696959Y-135603291D01*
X102982077Y-136030000D01*
X103061354Y-136148646D01*
X105201353Y-138288646D01*
X105474031Y-138470843D01*
X105746709Y-138653041D01*
X106390000Y-138781000D01*
X108937826Y-138781000D01*
X109108585Y-138895098D01*
X109852139Y-139043000D01*
X110947861Y-139043000D01*
X111691415Y-138895098D01*
X112321769Y-138473908D01*
X112742959Y-137843554D01*
X112890861Y-137100000D01*
X112742959Y-136356446D01*
X112321769Y-135726092D01*
X111691415Y-135304902D01*
X110947861Y-135157000D01*
X109852139Y-135157000D01*
X109108585Y-135304902D01*
X108937826Y-135419000D01*
X107086293Y-135419000D01*
X105931000Y-134263708D01*
X105931000Y-132920000D01*
X105844341Y-132484337D01*
X105844341Y-131670000D01*
X105796856Y-131417637D01*
X105647709Y-131185856D01*
X105420138Y-131030363D01*
X105150000Y-130975659D01*
X103350000Y-130975659D01*
X103097637Y-131023144D01*
X102865856Y-131172291D01*
X102710363Y-131399862D01*
X102655659Y-131670000D01*
X102655659Y-132484337D01*
X102569000Y-132920000D01*
X101571090Y-132920000D01*
X101571090Y-130514001D01*
X101864106Y-130221496D01*
X102051909Y-129769215D01*
X102052336Y-129279493D01*
X101871009Y-128840646D01*
X101871303Y-128503221D01*
X101684290Y-128050613D01*
X101338306Y-127704025D01*
X101267885Y-127674784D01*
X101378328Y-127564341D01*
X101900000Y-127564341D01*
X102152363Y-127516856D01*
X102384144Y-127367709D01*
X102539637Y-127140138D01*
X102594341Y-126870000D01*
X102594341Y-125370000D01*
X102546856Y-125117637D01*
X102471802Y-125001000D01*
X103650000Y-125001000D01*
X104085414Y-124914391D01*
X104277000Y-124914391D01*
X104329419Y-124904528D01*
X104329419Y-125170050D01*
X104376904Y-125422413D01*
X104469760Y-125566715D01*
X104469760Y-126975659D01*
X103350000Y-126975659D01*
X103097637Y-127023144D01*
X102865856Y-127172291D01*
X102710363Y-127399862D01*
X102655659Y-127670000D01*
X102655659Y-130170000D01*
X102703144Y-130422363D01*
X102852291Y-130654144D01*
X103079862Y-130809637D01*
X103350000Y-130864341D01*
X105150000Y-130864341D01*
X105402363Y-130816856D01*
X105521584Y-130740139D01*
X106269000Y-130740139D01*
X106269000Y-131359861D01*
X106435019Y-132194494D01*
X106907800Y-132902061D01*
X107615367Y-133374842D01*
X108450000Y-133540861D01*
X109284633Y-133374842D01*
X109499908Y-133231000D01*
X125074502Y-133231000D01*
X125909135Y-133064981D01*
X126616702Y-132592200D01*
X129507902Y-129701000D01*
X134200000Y-129701000D01*
X135034633Y-129534981D01*
X135181007Y-129437177D01*
X135562508Y-129361292D01*
X136209084Y-128929264D01*
X136641112Y-128282688D01*
X136792820Y-127520000D01*
X136641112Y-126757312D01*
X136209084Y-126110736D01*
X135562508Y-125678708D01*
X135181007Y-125602823D01*
X135034633Y-125505019D01*
X134200000Y-125339000D01*
X128604502Y-125339000D01*
X127769869Y-125505019D01*
X127126218Y-125935093D01*
X127062302Y-125977800D01*
X124171102Y-128869000D01*
X109499908Y-128869000D01*
X109284633Y-128725158D01*
X108450000Y-128559139D01*
X107615367Y-128725158D01*
X106907800Y-129197939D01*
X106435019Y-129905506D01*
X106269000Y-130740139D01*
X105521584Y-130740139D01*
X105634144Y-130667709D01*
X105789637Y-130440138D01*
X105844341Y-130170000D01*
X105844341Y-128995845D01*
X106485853Y-128354333D01*
X106741862Y-127971189D01*
X106831760Y-127519240D01*
X106831760Y-125951000D01*
X108128834Y-125951000D01*
X108478231Y-126473908D01*
X109108585Y-126895098D01*
X109852139Y-127043000D01*
X110947861Y-127043000D01*
X111691415Y-126895098D01*
X112321769Y-126473908D01*
X112742959Y-125843554D01*
X112890861Y-125100000D01*
X112880916Y-125050000D01*
X120159139Y-125050000D01*
X120325158Y-125884633D01*
X120797939Y-126592200D01*
X121505506Y-127064981D01*
X122340139Y-127231000D01*
X122959861Y-127231000D01*
X123794494Y-127064981D01*
X124502061Y-126592200D01*
X124974842Y-125884633D01*
X125140861Y-125050000D01*
X124974842Y-124215367D01*
X124502061Y-123507800D01*
X123794494Y-123035019D01*
X122959861Y-122869000D01*
X122340139Y-122869000D01*
X121505506Y-123035019D01*
X120797939Y-123507800D01*
X120325158Y-124215367D01*
X120159139Y-125050000D01*
X112880916Y-125050000D01*
X112742959Y-124356446D01*
X112321769Y-123726092D01*
X111691415Y-123304902D01*
X110947861Y-123157000D01*
X109852139Y-123157000D01*
X109108585Y-123304902D01*
X108683403Y-123589000D01*
X105650760Y-123589000D01*
X105215346Y-123675609D01*
X105023760Y-123675609D01*
X104971341Y-123685472D01*
X104971341Y-123419950D01*
X104923856Y-123167587D01*
X104774709Y-122935806D01*
X104547138Y-122780313D01*
X104277000Y-122725609D01*
X104085414Y-122725609D01*
X103650000Y-122639000D01*
X102939186Y-122639000D01*
X102885093Y-122584907D01*
X102501949Y-122328898D01*
X102487964Y-122326116D01*
X102397709Y-122185856D01*
X102302080Y-122120516D01*
X102384144Y-122067709D01*
X102539637Y-121840138D01*
X102594341Y-121570000D01*
X102594341Y-120070000D01*
X102546856Y-119817637D01*
X102397709Y-119585856D01*
X102226708Y-119469016D01*
X102384144Y-119367709D01*
X102395561Y-119351000D01*
X103659240Y-119351000D01*
X104094654Y-119264391D01*
X104286240Y-119264391D01*
X104338659Y-119254528D01*
X104338659Y-119520050D01*
X104386144Y-119772413D01*
X104535291Y-120004194D01*
X104762862Y-120159687D01*
X105033000Y-120214391D01*
X105224586Y-120214391D01*
X105660000Y-120301000D01*
X105760547Y-120281000D01*
X108349334Y-120281000D01*
X108478231Y-120473908D01*
X109108585Y-120895098D01*
X109852139Y-121043000D01*
X110947861Y-121043000D01*
X111691415Y-120895098D01*
X112321769Y-120473908D01*
X112742959Y-119843554D01*
X112890861Y-119100000D01*
X120109139Y-119100000D01*
X120275158Y-119934633D01*
X120747939Y-120642200D01*
X121455506Y-121114981D01*
X122290139Y-121281000D01*
X124368950Y-121281000D01*
X127070150Y-123982200D01*
X127777717Y-124454981D01*
X128612350Y-124621000D01*
X134200000Y-124621000D01*
X135034633Y-124454981D01*
X135181007Y-124357177D01*
X135562508Y-124281292D01*
X136209084Y-123849264D01*
X136641112Y-123202688D01*
X136792820Y-122440000D01*
X136641112Y-121677312D01*
X136209084Y-121030736D01*
X135562508Y-120598708D01*
X135181007Y-120522823D01*
X135034633Y-120425019D01*
X134200000Y-120259000D01*
X129515750Y-120259000D01*
X126814550Y-117557800D01*
X126525326Y-117364547D01*
X126106983Y-117085019D01*
X125272350Y-116919000D01*
X122290139Y-116919000D01*
X121455506Y-117085019D01*
X120747939Y-117557800D01*
X120275158Y-118265367D01*
X120109139Y-119100000D01*
X112890861Y-119100000D01*
X112742959Y-118356446D01*
X112321769Y-117726092D01*
X111691415Y-117304902D01*
X110947861Y-117157000D01*
X109852139Y-117157000D01*
X109546550Y-117217785D01*
X107725516Y-115396752D01*
X108450000Y-115540861D01*
X109284633Y-115374842D01*
X109499908Y-115231000D01*
X125021547Y-115231000D01*
X128692747Y-118902200D01*
X129400314Y-119374981D01*
X130234947Y-119541000D01*
X134200000Y-119541000D01*
X135034633Y-119374981D01*
X135181007Y-119277177D01*
X135562508Y-119201292D01*
X136209084Y-118769264D01*
X136641112Y-118122688D01*
X136792820Y-117360000D01*
X136641112Y-116597312D01*
X136209084Y-115950736D01*
X135562508Y-115518708D01*
X135181007Y-115442823D01*
X135034633Y-115345019D01*
X134200000Y-115179000D01*
X131138347Y-115179000D01*
X127467147Y-111507800D01*
X127119355Y-111275413D01*
X126759580Y-111035019D01*
X125924947Y-110869000D01*
X109499908Y-110869000D01*
X109284633Y-110725158D01*
X108450000Y-110559139D01*
X107615367Y-110725158D01*
X106907800Y-111197939D01*
X106435019Y-111905506D01*
X106269000Y-112740139D01*
X106269000Y-113359861D01*
X106413109Y-114084345D01*
X106084382Y-113755618D01*
X105844341Y-113595227D01*
X105844341Y-113270000D01*
X105796856Y-113017637D01*
X105647709Y-112785856D01*
X105420138Y-112630363D01*
X105150000Y-112575659D01*
X103350000Y-112575659D01*
X103097637Y-112623144D01*
X102865856Y-112772291D01*
X102710363Y-112999862D01*
X102655659Y-113270000D01*
X102655659Y-115770000D01*
X102703144Y-116022363D01*
X102852291Y-116254144D01*
X103079862Y-116409637D01*
X103350000Y-116464341D01*
X105150000Y-116464341D01*
X105402363Y-116416856D01*
X105576219Y-116304983D01*
X107190235Y-117919000D01*
X105680000Y-117919000D01*
X105228050Y-118008898D01*
X105203040Y-118025609D01*
X105033000Y-118025609D01*
X104980581Y-118035472D01*
X104980581Y-117769950D01*
X104933096Y-117517587D01*
X104783949Y-117285806D01*
X104556378Y-117130313D01*
X104286240Y-117075609D01*
X104094654Y-117075609D01*
X103659240Y-116989000D01*
X102464080Y-116989000D01*
X102397709Y-116885856D01*
X102170138Y-116730363D01*
X101900000Y-116675659D01*
X100600000Y-116675659D01*
X100347637Y-116723144D01*
X100115856Y-116872291D01*
X99960363Y-117099862D01*
X99905659Y-117370000D01*
X99905659Y-118870000D01*
X99953144Y-119122363D01*
X100102291Y-119354144D01*
X100273292Y-119470984D01*
X100182788Y-119529221D01*
X100122709Y-119435856D01*
X99895138Y-119280363D01*
X99625000Y-119225659D01*
X98375000Y-119225659D01*
X98122637Y-119273144D01*
X97890856Y-119422291D01*
X97735363Y-119649862D01*
X97727437Y-119689000D01*
X97595801Y-119689000D01*
X97405069Y-119497935D01*
X96952788Y-119310132D01*
X96463066Y-119309705D01*
X96010458Y-119496718D01*
X95663870Y-119842702D01*
X95476067Y-120294983D01*
X95475640Y-120784705D01*
X95492562Y-120825659D01*
X95135000Y-120825659D01*
X94882637Y-120873144D01*
X94852734Y-120892386D01*
X94835138Y-120880363D01*
X94565000Y-120825659D01*
X93865000Y-120825659D01*
X93612637Y-120873144D01*
X93380856Y-121022291D01*
X93225363Y-121249862D01*
X93170659Y-121520000D01*
X93170659Y-123220000D01*
X93211358Y-123436298D01*
X93006328Y-123641328D01*
X92793674Y-123959587D01*
X92745246Y-124203050D01*
X92719000Y-124335000D01*
X92719000Y-124888973D01*
X92506213Y-124888787D01*
X92384688Y-124939000D01*
X92081906Y-124939000D01*
X92047709Y-124885856D01*
X91919392Y-124798181D01*
X91939406Y-124789911D01*
X92285994Y-124443927D01*
X92473797Y-123991646D01*
X92474224Y-123501924D01*
X92287211Y-123049316D01*
X92254755Y-123016803D01*
X92254859Y-122897063D01*
X92244341Y-122871607D01*
X92244341Y-122670000D01*
X92196856Y-122417637D01*
X92047709Y-122185856D01*
X91820138Y-122030363D01*
X91550000Y-121975659D01*
X91427552Y-121975659D01*
X91269581Y-121910064D01*
X90779859Y-121909637D01*
X90620073Y-121975659D01*
X90331000Y-121975659D01*
X90331000Y-118788212D01*
X90577363Y-118741856D01*
X90809144Y-118592709D01*
X90885712Y-118480648D01*
X91110159Y-118573846D01*
X91599881Y-118574273D01*
X92052489Y-118387260D01*
X92399077Y-118041276D01*
X92586880Y-117588995D01*
X92587307Y-117099273D01*
X92400294Y-116646665D01*
X92054310Y-116300077D01*
X91602029Y-116112274D01*
X91112307Y-116111847D01*
X90858622Y-116216667D01*
X90822709Y-116160856D01*
X90595138Y-116005363D01*
X90325000Y-115950659D01*
X89875000Y-115950659D01*
X89771329Y-115970166D01*
X89675000Y-115950659D01*
X89579640Y-115950659D01*
X89405284Y-115689717D01*
X89204076Y-115488509D01*
X89318138Y-115412295D01*
X90687606Y-114042827D01*
X90867744Y-113773231D01*
X90931000Y-113455221D01*
X90931000Y-112514367D01*
X90964637Y-112465138D01*
X91019341Y-112195000D01*
X91019341Y-110745000D01*
X91017528Y-110735365D01*
X91210000Y-110774341D01*
X92710000Y-110774341D01*
X92768204Y-110763389D01*
X92755984Y-110775609D01*
X91922240Y-110775609D01*
X91669877Y-110823094D01*
X91438096Y-110972241D01*
X91282603Y-111199812D01*
X91227899Y-111469950D01*
X91227899Y-112270050D01*
X91275384Y-112522413D01*
X91424531Y-112754194D01*
X91652102Y-112909687D01*
X91922240Y-112964391D01*
X93176240Y-112964391D01*
X93228659Y-112954528D01*
X93228659Y-113220050D01*
X93276144Y-113472413D01*
X93425291Y-113704194D01*
X93519000Y-113768223D01*
X93519000Y-115533398D01*
X93380856Y-115622291D01*
X93225363Y-115849862D01*
X93170659Y-116120000D01*
X93170659Y-117820000D01*
X93218144Y-118072363D01*
X93367291Y-118304144D01*
X93594862Y-118459637D01*
X93865000Y-118514341D01*
X94565000Y-118514341D01*
X94817363Y-118466856D01*
X94847266Y-118447614D01*
X94864862Y-118459637D01*
X95135000Y-118514341D01*
X95835000Y-118514341D01*
X96087363Y-118466856D01*
X96117266Y-118447614D01*
X96134862Y-118459637D01*
X96405000Y-118514341D01*
X97105000Y-118514341D01*
X97357363Y-118466856D01*
X97589144Y-118317709D01*
X97744637Y-118090138D01*
X97799341Y-117820000D01*
X97799341Y-117345584D01*
X98115416Y-117345584D01*
X98490829Y-117270910D01*
X98809088Y-117058256D01*
X99693672Y-116173672D01*
X99906326Y-115855413D01*
X99961325Y-115578915D01*
X100127964Y-115471686D01*
X100329862Y-115609637D01*
X100600000Y-115664341D01*
X101900000Y-115664341D01*
X102152363Y-115616856D01*
X102384144Y-115467709D01*
X102539637Y-115240138D01*
X102594341Y-114970000D01*
X102594341Y-113470000D01*
X102546856Y-113217637D01*
X102397709Y-112985856D01*
X102226708Y-112869016D01*
X102384144Y-112767709D01*
X102539637Y-112540138D01*
X102594341Y-112270000D01*
X102594341Y-110770000D01*
X102546856Y-110517637D01*
X102431000Y-110337592D01*
X102431000Y-110219732D01*
X102434144Y-110217709D01*
X102589637Y-109990138D01*
X102644341Y-109720000D01*
X102644341Y-108420000D01*
X102596856Y-108167637D01*
X102447709Y-107935856D01*
X102220138Y-107780363D01*
X102025493Y-107740947D01*
X102013938Y-107682856D01*
X101822961Y-107397039D01*
X101130734Y-106704812D01*
X101025267Y-106634341D01*
X103560000Y-106634341D01*
X103812363Y-106586856D01*
X104044144Y-106437709D01*
X104199637Y-106210138D01*
X104254341Y-105940000D01*
X104254341Y-103640000D01*
X104206856Y-103387637D01*
X104057709Y-103155856D01*
X103830138Y-103000363D01*
X103560000Y-102945659D01*
X102931000Y-102945659D01*
X102931000Y-101741950D01*
X103064363Y-101716856D01*
X103296144Y-101567709D01*
X103451637Y-101340138D01*
X103506341Y-101070000D01*
X103506341Y-99257564D01*
X103560582Y-99311900D01*
X103682021Y-99362326D01*
X103715020Y-99395325D01*
X103764597Y-99515311D01*
X104110581Y-99861899D01*
X104562862Y-100049702D01*
X104649566Y-100049778D01*
X105057392Y-100457603D01*
X105057394Y-100457606D01*
X105234543Y-100575973D01*
X105250659Y-100586741D01*
X105250659Y-100720000D01*
X105298144Y-100972363D01*
X105447291Y-101204144D01*
X105625134Y-101325659D01*
X105000000Y-101325659D01*
X104747637Y-101373144D01*
X104515856Y-101522291D01*
X104360363Y-101749862D01*
X104305659Y-102020000D01*
X104305659Y-103720000D01*
X104353144Y-103972363D01*
X104502291Y-104204144D01*
X104569000Y-104249724D01*
X104569000Y-106277642D01*
X103238130Y-107608511D01*
X102927928Y-108072761D01*
X102819000Y-108620381D01*
X102819000Y-108840867D01*
X102710363Y-108999862D01*
X102655659Y-109270000D01*
X102655659Y-111770000D01*
X102703144Y-112022363D01*
X102852291Y-112254144D01*
X103079862Y-112409637D01*
X103350000Y-112464341D01*
X105150000Y-112464341D01*
X105402363Y-112416856D01*
X105634144Y-112267709D01*
X105789637Y-112040138D01*
X105844341Y-111770000D01*
X105844341Y-109270000D01*
X105809466Y-109084655D01*
X106363120Y-108531000D01*
X108563675Y-108531000D01*
X109108585Y-108895098D01*
X109852139Y-109043000D01*
X110947861Y-109043000D01*
X111691415Y-108895098D01*
X111862174Y-108781000D01*
X114395013Y-108781000D01*
X115038304Y-108653041D01*
X115583659Y-108288646D01*
X116822305Y-107050000D01*
X120159139Y-107050000D01*
X120325158Y-107884633D01*
X120797939Y-108592200D01*
X121505506Y-109064981D01*
X122340139Y-109231000D01*
X122959861Y-109231000D01*
X123794494Y-109064981D01*
X124502061Y-108592200D01*
X124974842Y-107884633D01*
X125116991Y-107170000D01*
X131607180Y-107170000D01*
X131758888Y-107932688D01*
X132190916Y-108579264D01*
X132837492Y-109011292D01*
X133600180Y-109163000D01*
X134799820Y-109163000D01*
X135562508Y-109011292D01*
X136209084Y-108579264D01*
X136641112Y-107932688D01*
X136792820Y-107170000D01*
X136641112Y-106407312D01*
X136209084Y-105760736D01*
X135562508Y-105328708D01*
X134799820Y-105177000D01*
X133600180Y-105177000D01*
X132837492Y-105328708D01*
X132190916Y-105760736D01*
X131758888Y-106407312D01*
X131607180Y-107170000D01*
X125116991Y-107170000D01*
X125140861Y-107050000D01*
X124974842Y-106215367D01*
X124502061Y-105507800D01*
X123794494Y-105035019D01*
X122959861Y-104869000D01*
X122340139Y-104869000D01*
X121505506Y-105035019D01*
X120797939Y-105507800D01*
X120325158Y-106215367D01*
X120159139Y-107050000D01*
X116822305Y-107050000D01*
X119688646Y-104183660D01*
X119809228Y-104003197D01*
X120002363Y-103966856D01*
X120234144Y-103817709D01*
X120389637Y-103590138D01*
X120444341Y-103320000D01*
X120444341Y-102090000D01*
X131607180Y-102090000D01*
X131758888Y-102852688D01*
X132190916Y-103499264D01*
X132837492Y-103931292D01*
X133600180Y-104083000D01*
X134799820Y-104083000D01*
X135562508Y-103931292D01*
X136209084Y-103499264D01*
X136641112Y-102852688D01*
X136792820Y-102090000D01*
X136641112Y-101327312D01*
X136209084Y-100680736D01*
X135562508Y-100248708D01*
X134799820Y-100097000D01*
X133600180Y-100097000D01*
X132837492Y-100248708D01*
X132190916Y-100680736D01*
X131758888Y-101327312D01*
X131607180Y-102090000D01*
X120444341Y-102090000D01*
X120444341Y-101551000D01*
X124068094Y-101551000D01*
X124102291Y-101604144D01*
X124329862Y-101759637D01*
X124600000Y-101814341D01*
X126400000Y-101814341D01*
X126652363Y-101766856D01*
X126884144Y-101617709D01*
X127039637Y-101390138D01*
X127094341Y-101120000D01*
X127094341Y-100305663D01*
X127181000Y-99870000D01*
X127094341Y-99434337D01*
X127094341Y-98620000D01*
X127046856Y-98367637D01*
X126897709Y-98135856D01*
X126670138Y-97980363D01*
X126400000Y-97925659D01*
X124600000Y-97925659D01*
X124347637Y-97973144D01*
X124115856Y-98122291D01*
X124070276Y-98189000D01*
X120032779Y-98189000D01*
X120020138Y-98180363D01*
X119750000Y-98125659D01*
X117250000Y-98125659D01*
X116997637Y-98173144D01*
X116765856Y-98322291D01*
X116610363Y-98549862D01*
X116555659Y-98820000D01*
X116555659Y-99739000D01*
X113856906Y-99739000D01*
X113822709Y-99685856D01*
X113595138Y-99530363D01*
X113325000Y-99475659D01*
X112075000Y-99475659D01*
X111822637Y-99523144D01*
X111590856Y-99672291D01*
X111435363Y-99899862D01*
X111380659Y-100170000D01*
X111380659Y-101455879D01*
X111270138Y-101380363D01*
X111031000Y-101331937D01*
X111031000Y-101083274D01*
X111094637Y-100990138D01*
X111149341Y-100720000D01*
X111149341Y-99020000D01*
X111101856Y-98767637D01*
X111036000Y-98665294D01*
X111036000Y-95870000D01*
X123819000Y-95870000D01*
X123905659Y-96305663D01*
X123905659Y-97120000D01*
X123953144Y-97372363D01*
X124102291Y-97604144D01*
X124329862Y-97759637D01*
X124600000Y-97814341D01*
X126400000Y-97814341D01*
X126652363Y-97766856D01*
X126884144Y-97617709D01*
X126929724Y-97551000D01*
X131714792Y-97551000D01*
X131758888Y-97772688D01*
X132190916Y-98419264D01*
X132837492Y-98851292D01*
X133600180Y-99003000D01*
X134799820Y-99003000D01*
X135562508Y-98851292D01*
X136209084Y-98419264D01*
X136641112Y-97772688D01*
X136792820Y-97010000D01*
X136641112Y-96247312D01*
X136419692Y-95915933D01*
X137092395Y-95637977D01*
X137636068Y-95095252D01*
X137930665Y-94385785D01*
X137931335Y-93617585D01*
X137637977Y-92907605D01*
X137095252Y-92363932D01*
X136385785Y-92069335D01*
X135617585Y-92068665D01*
X134907605Y-92362023D01*
X134363932Y-92904748D01*
X134069335Y-93614215D01*
X134068665Y-94382415D01*
X134170651Y-94629239D01*
X134085422Y-94572291D01*
X133703291Y-94316959D01*
X133060000Y-94189000D01*
X126931906Y-94189000D01*
X126897709Y-94135856D01*
X126670138Y-93980363D01*
X126400000Y-93925659D01*
X124600000Y-93925659D01*
X124347637Y-93973144D01*
X124115856Y-94122291D01*
X123960363Y-94349862D01*
X123905659Y-94620000D01*
X123905659Y-95434337D01*
X123819000Y-95870000D01*
X111036000Y-95870000D01*
X111036000Y-95675956D01*
X111094637Y-95590138D01*
X111149341Y-95320000D01*
X111149341Y-93620000D01*
X111135532Y-93546609D01*
X111380659Y-93546609D01*
X111380659Y-94070000D01*
X111428144Y-94322363D01*
X111577291Y-94554144D01*
X111804862Y-94709637D01*
X112075000Y-94764341D01*
X113325000Y-94764341D01*
X113577363Y-94716856D01*
X113809144Y-94567709D01*
X113964637Y-94340138D01*
X114019341Y-94070000D01*
X114019341Y-92570000D01*
X113971856Y-92317637D01*
X113822709Y-92085856D01*
X113595138Y-91930363D01*
X113325000Y-91875659D01*
X112788654Y-91875659D01*
X112752753Y-91851671D01*
X112415609Y-91784609D01*
X108224344Y-91784609D01*
X107887200Y-91851671D01*
X107601383Y-92042648D01*
X106942039Y-92701992D01*
X106751062Y-92987809D01*
X106721624Y-93135802D01*
X106575363Y-93349862D01*
X106520659Y-93620000D01*
X106520659Y-95320000D01*
X106568144Y-95572363D01*
X106628003Y-95665386D01*
X103506341Y-95665386D01*
X103506341Y-95070000D01*
X103458856Y-94817637D01*
X103309709Y-94585856D01*
X103082138Y-94430363D01*
X102812000Y-94375659D01*
X100188000Y-94375659D01*
X99935637Y-94423144D01*
X99703856Y-94572291D01*
X99548363Y-94799862D01*
X99493659Y-95070000D01*
X99493659Y-101070000D01*
X99541144Y-101322363D01*
X99690291Y-101554144D01*
X99917862Y-101709637D01*
X100069000Y-101740243D01*
X100069000Y-102945659D01*
X100060000Y-102945659D01*
X99807637Y-102993144D01*
X99575856Y-103142291D01*
X99420363Y-103369862D01*
X99365659Y-103640000D01*
X99365659Y-105940000D01*
X99413144Y-106192363D01*
X99562291Y-106424144D01*
X99595410Y-106446773D01*
X93172227Y-106446773D01*
X92835083Y-106513835D01*
X92549266Y-106704812D01*
X92195078Y-107059000D01*
X92144341Y-107059000D01*
X92144341Y-105820000D01*
X92096856Y-105567637D01*
X91947709Y-105335856D01*
X91720138Y-105180363D01*
X91450000Y-105125659D01*
X90572292Y-105125659D01*
X89728316Y-104281684D01*
X89426279Y-104079868D01*
X89367169Y-104068110D01*
X89070000Y-104009000D01*
X87754829Y-104009000D01*
X86516336Y-102770508D01*
X86214299Y-102568692D01*
X86155189Y-102556934D01*
X85858020Y-102497824D01*
X85810004Y-102497824D01*
X85698216Y-102385841D01*
X85245935Y-102198038D01*
X84756213Y-102197611D01*
X84713825Y-102215125D01*
X84606187Y-102170430D01*
X84116465Y-102170003D01*
X83663857Y-102357016D01*
X83317269Y-102703000D01*
X83129466Y-103155281D01*
X83129039Y-103645003D01*
X83316052Y-104097611D01*
X83662036Y-104444199D01*
X84114317Y-104632002D01*
X84604039Y-104632429D01*
X84646427Y-104614915D01*
X84754065Y-104659610D01*
X85243787Y-104660037D01*
X85617986Y-104505422D01*
X86401563Y-105289000D01*
X86233274Y-105289000D01*
X86140138Y-105225363D01*
X85870000Y-105170659D01*
X84370000Y-105170659D01*
X84117637Y-105218144D01*
X83885856Y-105367291D01*
X83730363Y-105594862D01*
X83675659Y-105865000D01*
X83675659Y-105992830D01*
X83578529Y-106089791D01*
X83390726Y-106542072D01*
X83390299Y-107031794D01*
X83577312Y-107484402D01*
X83844069Y-107751625D01*
X83780363Y-107844862D01*
X83725659Y-108115000D01*
X83725659Y-109269000D01*
X81144341Y-109269000D01*
X81144341Y-108040000D01*
X81096856Y-107787637D01*
X80947709Y-107555856D01*
X80720138Y-107400363D01*
X80450000Y-107345659D01*
X79481005Y-107345659D01*
X78594341Y-106458995D01*
X78594341Y-105845000D01*
X78546856Y-105592637D01*
X78397709Y-105360856D01*
X78331000Y-105315276D01*
X78331000Y-104916781D01*
X78297825Y-104750000D01*
X78244341Y-104481115D01*
X78244341Y-102250000D01*
X78196856Y-101997637D01*
X78047709Y-101765856D01*
X77820138Y-101610363D01*
X77550000Y-101555659D01*
X76682952Y-101555659D01*
X76331000Y-101203708D01*
X76331000Y-99965880D01*
X76344341Y-99900000D01*
X76344341Y-99431000D01*
X79884120Y-99431000D01*
X79950000Y-99444341D01*
X81950000Y-99444341D01*
X82202363Y-99396856D01*
X82434144Y-99247709D01*
X82589637Y-99020138D01*
X82644341Y-98750000D01*
X82644341Y-97250000D01*
X82596856Y-96997637D01*
X82501394Y-96849285D01*
X82589637Y-96720138D01*
X82613763Y-96601000D01*
X82743094Y-96601000D01*
X82777291Y-96654144D01*
X83004862Y-96809637D01*
X83275000Y-96864341D01*
X84525000Y-96864341D01*
X84777363Y-96816856D01*
X85009144Y-96667709D01*
X85054724Y-96601000D01*
X87694142Y-96601000D01*
X87693994Y-96770397D01*
X87755659Y-96919638D01*
X87755659Y-97920000D01*
X87803144Y-98172363D01*
X87952291Y-98404144D01*
X88179862Y-98559637D01*
X88450000Y-98614341D01*
X90950000Y-98614341D01*
X91202363Y-98566856D01*
X91434144Y-98417709D01*
X91589637Y-98190138D01*
X91644341Y-97920000D01*
X91644341Y-97601000D01*
X94253708Y-97601000D01*
X95093659Y-98440952D01*
X95093659Y-101070000D01*
X95141144Y-101322363D01*
X95290291Y-101554144D01*
X95517862Y-101709637D01*
X95788000Y-101764341D01*
X98412000Y-101764341D01*
X98664363Y-101716856D01*
X98896144Y-101567709D01*
X99051637Y-101340138D01*
X99106341Y-101070000D01*
X99106341Y-95070000D01*
X99058856Y-94817637D01*
X98909709Y-94585856D01*
X98682138Y-94430363D01*
X98412000Y-94375659D01*
X98281000Y-94375659D01*
X98281000Y-92964341D01*
X98683332Y-92964341D01*
X98935695Y-92916856D01*
X99167476Y-92767709D01*
X99284316Y-92596708D01*
X99385623Y-92754144D01*
X99613194Y-92909637D01*
X99883332Y-92964341D01*
X101383332Y-92964341D01*
X101635695Y-92916856D01*
X101815740Y-92801000D01*
X102384167Y-92801000D01*
X102477717Y-92839845D01*
X102579860Y-92909637D01*
X102849998Y-92964341D01*
X104349998Y-92964341D01*
X104602361Y-92916856D01*
X104834142Y-92767709D01*
X104989635Y-92540138D01*
X105044339Y-92270000D01*
X105044339Y-90970000D01*
X105004072Y-90756000D01*
X139244000Y-90756000D01*
X139244000Y-139244000D01*
G36*
X73743144Y-120872363D02*
X73892291Y-121104144D01*
X74063292Y-121220984D01*
X73905856Y-121322291D01*
X73750363Y-121549862D01*
X73695659Y-121820000D01*
X73695659Y-122307394D01*
X72383395Y-123619659D01*
X72181579Y-123921696D01*
X72181579Y-123921697D01*
X72110711Y-124277975D01*
X72110711Y-127426242D01*
X72165723Y-127702808D01*
X72181579Y-127782521D01*
X72383395Y-128084558D01*
X83467153Y-139168316D01*
X83580422Y-139244000D01*
X70756000Y-139244000D01*
X70756000Y-136382415D01*
X72068665Y-136382415D01*
X72362023Y-137092395D01*
X72904748Y-137636068D01*
X73614215Y-137930665D01*
X74382415Y-137931335D01*
X75092395Y-137637977D01*
X75636068Y-137095252D01*
X75930665Y-136385785D01*
X75931335Y-135617585D01*
X75637977Y-134907605D01*
X75095252Y-134363932D01*
X74385785Y-134069335D01*
X73617585Y-134068665D01*
X72907605Y-134362023D01*
X72363932Y-134904748D01*
X72069335Y-135614215D01*
X72068665Y-136382415D01*
X70756000Y-136382415D01*
X70756000Y-121057155D01*
X71002319Y-121221740D01*
X71611934Y-121343000D01*
X72388066Y-121343000D01*
X72997681Y-121221740D01*
X73514487Y-120876421D01*
X73578245Y-120781000D01*
X73725953Y-120781000D01*
X73743144Y-120872363D01*
X73743144Y-120872363D01*
G37*
X73743144Y-120872363D02*
X73892291Y-121104144D01*
X74063292Y-121220984D01*
X73905856Y-121322291D01*
X73750363Y-121549862D01*
X73695659Y-121820000D01*
X73695659Y-122307394D01*
X72383395Y-123619659D01*
X72181579Y-123921696D01*
X72181579Y-123921697D01*
X72110711Y-124277975D01*
X72110711Y-127426242D01*
X72165723Y-127702808D01*
X72181579Y-127782521D01*
X72383395Y-128084558D01*
X83467153Y-139168316D01*
X83580422Y-139244000D01*
X70756000Y-139244000D01*
X70756000Y-136382415D01*
X72068665Y-136382415D01*
X72362023Y-137092395D01*
X72904748Y-137636068D01*
X73614215Y-137930665D01*
X74382415Y-137931335D01*
X75092395Y-137637977D01*
X75636068Y-137095252D01*
X75930665Y-136385785D01*
X75931335Y-135617585D01*
X75637977Y-134907605D01*
X75095252Y-134363932D01*
X74385785Y-134069335D01*
X73617585Y-134068665D01*
X72907605Y-134362023D01*
X72363932Y-134904748D01*
X72069335Y-135614215D01*
X72068665Y-136382415D01*
X70756000Y-136382415D01*
X70756000Y-121057155D01*
X71002319Y-121221740D01*
X71611934Y-121343000D01*
X72388066Y-121343000D01*
X72997681Y-121221740D01*
X73514487Y-120876421D01*
X73578245Y-120781000D01*
X73725953Y-120781000D01*
X73743144Y-120872363D01*
G36*
X85156064Y-123850177D02*
X85502048Y-124196765D01*
X85954329Y-124384568D01*
X86444051Y-124384995D01*
X86619000Y-124312708D01*
X86619000Y-130648754D01*
X86686062Y-130985898D01*
X86877039Y-131271715D01*
X89718285Y-134112961D01*
X90004102Y-134303938D01*
X90341246Y-134371000D01*
X94259235Y-134371000D01*
X94647868Y-134760312D01*
X94252671Y-135154820D01*
X94017269Y-135721732D01*
X94016733Y-136335575D01*
X94251146Y-136902897D01*
X94647868Y-137300312D01*
X94559026Y-137389000D01*
X92675515Y-137389000D01*
X92602709Y-137275856D01*
X92375138Y-137120363D01*
X92105000Y-137065659D01*
X90855000Y-137065659D01*
X90602637Y-137113144D01*
X90370856Y-137262291D01*
X90215363Y-137489862D01*
X90197312Y-137579000D01*
X84511101Y-137579000D01*
X73972711Y-127040610D01*
X73972711Y-124663607D01*
X74102499Y-124533820D01*
X74097972Y-124544721D01*
X74097545Y-125034443D01*
X74284558Y-125487051D01*
X74614372Y-125817441D01*
X74714995Y-126060968D01*
X75060979Y-126407556D01*
X75513260Y-126595359D01*
X75861498Y-126595663D01*
X75991184Y-126682316D01*
X76309194Y-126745572D01*
X82780561Y-126745572D01*
X83098571Y-126682316D01*
X83368167Y-126502178D01*
X84733694Y-125136651D01*
X84913832Y-124867055D01*
X84977089Y-124549045D01*
X84977088Y-124549040D01*
X84977088Y-123417020D01*
X85156064Y-123850177D01*
X85156064Y-123850177D01*
G37*
X85156064Y-123850177D02*
X85502048Y-124196765D01*
X85954329Y-124384568D01*
X86444051Y-124384995D01*
X86619000Y-124312708D01*
X86619000Y-130648754D01*
X86686062Y-130985898D01*
X86877039Y-131271715D01*
X89718285Y-134112961D01*
X90004102Y-134303938D01*
X90341246Y-134371000D01*
X94259235Y-134371000D01*
X94647868Y-134760312D01*
X94252671Y-135154820D01*
X94017269Y-135721732D01*
X94016733Y-136335575D01*
X94251146Y-136902897D01*
X94647868Y-137300312D01*
X94559026Y-137389000D01*
X92675515Y-137389000D01*
X92602709Y-137275856D01*
X92375138Y-137120363D01*
X92105000Y-137065659D01*
X90855000Y-137065659D01*
X90602637Y-137113144D01*
X90370856Y-137262291D01*
X90215363Y-137489862D01*
X90197312Y-137579000D01*
X84511101Y-137579000D01*
X73972711Y-127040610D01*
X73972711Y-124663607D01*
X74102499Y-124533820D01*
X74097972Y-124544721D01*
X74097545Y-125034443D01*
X74284558Y-125487051D01*
X74614372Y-125817441D01*
X74714995Y-126060968D01*
X75060979Y-126407556D01*
X75513260Y-126595359D01*
X75861498Y-126595663D01*
X75991184Y-126682316D01*
X76309194Y-126745572D01*
X82780561Y-126745572D01*
X83098571Y-126682316D01*
X83368167Y-126502178D01*
X84733694Y-125136651D01*
X84913832Y-124867055D01*
X84977089Y-124549045D01*
X84977088Y-124549040D01*
X84977088Y-123417020D01*
X85156064Y-123850177D01*
G36*
X100102291Y-122054144D02*
X100197920Y-122119484D01*
X100115856Y-122172291D01*
X99960363Y-122399862D01*
X99905659Y-122670000D01*
X99905659Y-124170000D01*
X99953144Y-124422363D01*
X100102291Y-124654144D01*
X100273292Y-124770984D01*
X100115856Y-124872291D01*
X100102015Y-124892548D01*
X100097709Y-124885856D01*
X99870138Y-124730363D01*
X99600000Y-124675659D01*
X98300000Y-124675659D01*
X98047637Y-124723144D01*
X97815856Y-124872291D01*
X97708781Y-125029000D01*
X97610828Y-125029000D01*
X97630786Y-124980935D01*
X97631213Y-124491213D01*
X97444200Y-124038605D01*
X97286130Y-123880259D01*
X97357363Y-123866856D01*
X97589144Y-123717709D01*
X97744637Y-123490138D01*
X97799341Y-123220000D01*
X97799341Y-122354961D01*
X97946395Y-122294200D01*
X98168465Y-122072517D01*
X98375000Y-122114341D01*
X99625000Y-122114341D01*
X99877363Y-122066856D01*
X100042212Y-121960779D01*
X100102291Y-122054144D01*
X100102291Y-122054144D01*
G37*
X100102291Y-122054144D02*
X100197920Y-122119484D01*
X100115856Y-122172291D01*
X99960363Y-122399862D01*
X99905659Y-122670000D01*
X99905659Y-124170000D01*
X99953144Y-124422363D01*
X100102291Y-124654144D01*
X100273292Y-124770984D01*
X100115856Y-124872291D01*
X100102015Y-124892548D01*
X100097709Y-124885856D01*
X99870138Y-124730363D01*
X99600000Y-124675659D01*
X98300000Y-124675659D01*
X98047637Y-124723144D01*
X97815856Y-124872291D01*
X97708781Y-125029000D01*
X97610828Y-125029000D01*
X97630786Y-124980935D01*
X97631213Y-124491213D01*
X97444200Y-124038605D01*
X97286130Y-123880259D01*
X97357363Y-123866856D01*
X97589144Y-123717709D01*
X97744637Y-123490138D01*
X97799341Y-123220000D01*
X97799341Y-122354961D01*
X97946395Y-122294200D01*
X98168465Y-122072517D01*
X98375000Y-122114341D01*
X99625000Y-122114341D01*
X99877363Y-122066856D01*
X100042212Y-121960779D01*
X100102291Y-122054144D01*
G36*
X76942291Y-116004144D02*
X77160276Y-116153087D01*
X76845546Y-116624112D01*
X76729006Y-117210000D01*
X76845546Y-117795888D01*
X77177426Y-118292580D01*
X77674118Y-118624460D01*
X78260006Y-118741000D01*
X78319994Y-118741000D01*
X78670562Y-118671268D01*
X78951063Y-118727063D01*
X80695659Y-118727063D01*
X80695659Y-119980000D01*
X80743144Y-120232363D01*
X80829959Y-120367277D01*
X80780363Y-120439862D01*
X80725659Y-120710000D01*
X80725659Y-121910000D01*
X80773144Y-122162363D01*
X80922291Y-122394144D01*
X81149862Y-122549637D01*
X81420000Y-122604341D01*
X82589000Y-122604341D01*
X82589000Y-123950605D01*
X82390604Y-124149000D01*
X77623414Y-124149000D01*
X77492337Y-124017923D01*
X77492337Y-123582997D01*
X77674118Y-123704460D01*
X78260006Y-123821000D01*
X78319994Y-123821000D01*
X78905882Y-123704460D01*
X79402574Y-123372580D01*
X79734454Y-122875888D01*
X79850994Y-122290000D01*
X79734454Y-121704112D01*
X79402574Y-121207420D01*
X78905882Y-120875540D01*
X78319994Y-120759000D01*
X78260006Y-120759000D01*
X77674118Y-120875540D01*
X77492337Y-120997003D01*
X77492337Y-120425100D01*
X77429081Y-120107090D01*
X77248943Y-119837494D01*
X76693843Y-119282394D01*
X76424247Y-119102256D01*
X76379321Y-119093320D01*
X76336856Y-118867637D01*
X76187709Y-118635856D01*
X76120590Y-118589996D01*
X76124144Y-118587709D01*
X76279637Y-118360138D01*
X76334341Y-118090000D01*
X76334341Y-116590000D01*
X76286856Y-116337637D01*
X76137709Y-116105856D01*
X75966708Y-115989016D01*
X76124144Y-115887709D01*
X76149226Y-115851000D01*
X76843746Y-115851000D01*
X76942291Y-116004144D01*
X76942291Y-116004144D01*
G37*
X76942291Y-116004144D02*
X77160276Y-116153087D01*
X76845546Y-116624112D01*
X76729006Y-117210000D01*
X76845546Y-117795888D01*
X77177426Y-118292580D01*
X77674118Y-118624460D01*
X78260006Y-118741000D01*
X78319994Y-118741000D01*
X78670562Y-118671268D01*
X78951063Y-118727063D01*
X80695659Y-118727063D01*
X80695659Y-119980000D01*
X80743144Y-120232363D01*
X80829959Y-120367277D01*
X80780363Y-120439862D01*
X80725659Y-120710000D01*
X80725659Y-121910000D01*
X80773144Y-122162363D01*
X80922291Y-122394144D01*
X81149862Y-122549637D01*
X81420000Y-122604341D01*
X82589000Y-122604341D01*
X82589000Y-123950605D01*
X82390604Y-124149000D01*
X77623414Y-124149000D01*
X77492337Y-124017923D01*
X77492337Y-123582997D01*
X77674118Y-123704460D01*
X78260006Y-123821000D01*
X78319994Y-123821000D01*
X78905882Y-123704460D01*
X79402574Y-123372580D01*
X79734454Y-122875888D01*
X79850994Y-122290000D01*
X79734454Y-121704112D01*
X79402574Y-121207420D01*
X78905882Y-120875540D01*
X78319994Y-120759000D01*
X78260006Y-120759000D01*
X77674118Y-120875540D01*
X77492337Y-120997003D01*
X77492337Y-120425100D01*
X77429081Y-120107090D01*
X77248943Y-119837494D01*
X76693843Y-119282394D01*
X76424247Y-119102256D01*
X76379321Y-119093320D01*
X76336856Y-118867637D01*
X76187709Y-118635856D01*
X76120590Y-118589996D01*
X76124144Y-118587709D01*
X76279637Y-118360138D01*
X76334341Y-118090000D01*
X76334341Y-116590000D01*
X76286856Y-116337637D01*
X76137709Y-116105856D01*
X75966708Y-115989016D01*
X76124144Y-115887709D01*
X76149226Y-115851000D01*
X76843746Y-115851000D01*
X76942291Y-116004144D01*
G36*
X83419000Y-112510855D02*
X83419000Y-112716001D01*
X83437141Y-112807203D01*
X83413437Y-112864289D01*
X83413010Y-113354011D01*
X83600023Y-113806619D01*
X83791899Y-113998830D01*
X83499733Y-114056945D01*
X83230137Y-114237083D01*
X82381561Y-115085659D01*
X81390000Y-115085659D01*
X81137637Y-115133144D01*
X80905856Y-115282291D01*
X80750363Y-115509862D01*
X80695659Y-115780000D01*
X80695659Y-117015063D01*
X79812219Y-117015063D01*
X79734454Y-116624112D01*
X79417931Y-116150403D01*
X79624144Y-116017709D01*
X79779637Y-115790138D01*
X79834341Y-115520000D01*
X79834341Y-114795845D01*
X80505093Y-114125093D01*
X80761102Y-113741949D01*
X80851000Y-113290000D01*
X80851000Y-112773423D01*
X80967291Y-112954144D01*
X81194862Y-113109637D01*
X81465000Y-113164341D01*
X82715000Y-113164341D01*
X82967363Y-113116856D01*
X83199144Y-112967709D01*
X83354637Y-112740138D01*
X83405360Y-112489658D01*
X83419000Y-112510855D01*
X83419000Y-112510855D01*
G37*
X83419000Y-112510855D02*
X83419000Y-112716001D01*
X83437141Y-112807203D01*
X83413437Y-112864289D01*
X83413010Y-113354011D01*
X83600023Y-113806619D01*
X83791899Y-113998830D01*
X83499733Y-114056945D01*
X83230137Y-114237083D01*
X82381561Y-115085659D01*
X81390000Y-115085659D01*
X81137637Y-115133144D01*
X80905856Y-115282291D01*
X80750363Y-115509862D01*
X80695659Y-115780000D01*
X80695659Y-117015063D01*
X79812219Y-117015063D01*
X79734454Y-116624112D01*
X79417931Y-116150403D01*
X79624144Y-116017709D01*
X79779637Y-115790138D01*
X79834341Y-115520000D01*
X79834341Y-114795845D01*
X80505093Y-114125093D01*
X80761102Y-113741949D01*
X80851000Y-113290000D01*
X80851000Y-112773423D01*
X80967291Y-112954144D01*
X81194862Y-113109637D01*
X81465000Y-113164341D01*
X82715000Y-113164341D01*
X82967363Y-113116856D01*
X83199144Y-112967709D01*
X83354637Y-112740138D01*
X83405360Y-112489658D01*
X83419000Y-112510855D01*
G36*
X75426786Y-111593672D02*
X75549277Y-111675517D01*
X75573144Y-111802363D01*
X75722291Y-112034144D01*
X75949862Y-112189637D01*
X76220000Y-112244341D01*
X77720000Y-112244341D01*
X77972363Y-112196856D01*
X78204144Y-112047709D01*
X78320984Y-111876708D01*
X78422291Y-112034144D01*
X78489000Y-112079724D01*
X78489000Y-112800814D01*
X78164155Y-113125659D01*
X77440000Y-113125659D01*
X77187637Y-113173144D01*
X76955856Y-113322291D01*
X76841948Y-113489000D01*
X76191211Y-113489000D01*
X76137709Y-113405856D01*
X75910138Y-113250363D01*
X75640000Y-113195659D01*
X74340000Y-113195659D01*
X74087637Y-113243144D01*
X73855856Y-113392291D01*
X73845589Y-113407317D01*
X73759709Y-113273856D01*
X73532138Y-113118363D01*
X73262000Y-113063659D01*
X70756000Y-113063659D01*
X70756000Y-109457155D01*
X71002319Y-109621740D01*
X71611934Y-109743000D01*
X72388066Y-109743000D01*
X72997681Y-109621740D01*
X73271736Y-109438622D01*
X75426786Y-111593672D01*
X75426786Y-111593672D01*
G37*
X75426786Y-111593672D02*
X75549277Y-111675517D01*
X75573144Y-111802363D01*
X75722291Y-112034144D01*
X75949862Y-112189637D01*
X76220000Y-112244341D01*
X77720000Y-112244341D01*
X77972363Y-112196856D01*
X78204144Y-112047709D01*
X78320984Y-111876708D01*
X78422291Y-112034144D01*
X78489000Y-112079724D01*
X78489000Y-112800814D01*
X78164155Y-113125659D01*
X77440000Y-113125659D01*
X77187637Y-113173144D01*
X76955856Y-113322291D01*
X76841948Y-113489000D01*
X76191211Y-113489000D01*
X76137709Y-113405856D01*
X75910138Y-113250363D01*
X75640000Y-113195659D01*
X74340000Y-113195659D01*
X74087637Y-113243144D01*
X73855856Y-113392291D01*
X73845589Y-113407317D01*
X73759709Y-113273856D01*
X73532138Y-113118363D01*
X73262000Y-113063659D01*
X70756000Y-113063659D01*
X70756000Y-109457155D01*
X71002319Y-109621740D01*
X71611934Y-109743000D01*
X72388066Y-109743000D01*
X72997681Y-109621740D01*
X73271736Y-109438622D01*
X75426786Y-111593672D01*
G36*
X99755659Y-108420000D02*
X99755659Y-109720000D01*
X99803144Y-109972363D01*
X99902518Y-110126795D01*
X99650000Y-110075659D01*
X98350000Y-110075659D01*
X98097637Y-110123144D01*
X97872036Y-110268314D01*
X97670138Y-110130363D01*
X97400000Y-110075659D01*
X96104341Y-110075659D01*
X96104341Y-108780000D01*
X96056856Y-108527637D01*
X95907709Y-108295856D01*
X95780259Y-108208773D01*
X99798433Y-108208773D01*
X99755659Y-108420000D01*
X99755659Y-108420000D01*
G37*
X99755659Y-108420000D02*
X99755659Y-109720000D01*
X99803144Y-109972363D01*
X99902518Y-110126795D01*
X99650000Y-110075659D01*
X98350000Y-110075659D01*
X98097637Y-110123144D01*
X97872036Y-110268314D01*
X97670138Y-110130363D01*
X97400000Y-110075659D01*
X96104341Y-110075659D01*
X96104341Y-108780000D01*
X96056856Y-108527637D01*
X95907709Y-108295856D01*
X95780259Y-108208773D01*
X99798433Y-108208773D01*
X99755659Y-108420000D01*
G36*
X87755659Y-91020000D02*
X87755659Y-92220000D01*
X87803144Y-92472363D01*
X87952291Y-92704144D01*
X88179862Y-92859637D01*
X88450000Y-92914341D01*
X89650000Y-92914341D01*
X89902363Y-92866856D01*
X90004706Y-92801000D01*
X91087533Y-92801000D01*
X91246528Y-92909637D01*
X91516666Y-92964341D01*
X93016666Y-92964341D01*
X93269029Y-92916856D01*
X93500810Y-92767709D01*
X93617650Y-92596708D01*
X93718957Y-92754144D01*
X93946528Y-92909637D01*
X94216666Y-92964341D01*
X95716666Y-92964341D01*
X95919000Y-92926270D01*
X95919000Y-94375659D01*
X95788000Y-94375659D01*
X95646233Y-94402334D01*
X95593291Y-94366959D01*
X94950000Y-94239000D01*
X91644341Y-94239000D01*
X91644341Y-93920000D01*
X91596856Y-93667637D01*
X91447709Y-93435856D01*
X91220138Y-93280363D01*
X90950000Y-93225659D01*
X88450000Y-93225659D01*
X88197637Y-93273144D01*
X87965856Y-93422291D01*
X87810363Y-93649862D01*
X87755659Y-93920000D01*
X87755659Y-94239000D01*
X85056906Y-94239000D01*
X85022709Y-94185856D01*
X84795138Y-94030363D01*
X84525000Y-93975659D01*
X83275000Y-93975659D01*
X83022637Y-94023144D01*
X82790856Y-94172291D01*
X82745276Y-94239000D01*
X81230000Y-94239000D01*
X81146249Y-94255659D01*
X79950000Y-94255659D01*
X79697637Y-94303144D01*
X79465856Y-94452291D01*
X79310363Y-94679862D01*
X79255659Y-94950000D01*
X79255659Y-96450000D01*
X79278050Y-96569000D01*
X76344341Y-96569000D01*
X76344341Y-96100000D01*
X76296856Y-95847637D01*
X76147709Y-95615856D01*
X75920138Y-95460363D01*
X75650000Y-95405659D01*
X75325119Y-95405659D01*
X75636068Y-95095252D01*
X75930665Y-94385785D01*
X75931335Y-93617585D01*
X75637977Y-92907605D01*
X75095252Y-92363932D01*
X74385785Y-92069335D01*
X73617585Y-92068665D01*
X72907605Y-92362023D01*
X72363932Y-92904748D01*
X72069335Y-93614215D01*
X72068665Y-94382415D01*
X72362023Y-95092395D01*
X72904748Y-95636068D01*
X73090169Y-95713062D01*
X73010363Y-95829862D01*
X72955659Y-96100000D01*
X72955659Y-99900000D01*
X72969000Y-99970902D01*
X72969000Y-101900000D01*
X73096959Y-102543291D01*
X73365813Y-102945659D01*
X73461354Y-103088646D01*
X74305659Y-103932952D01*
X74305659Y-104750000D01*
X74353144Y-105002363D01*
X74502291Y-105234144D01*
X74729862Y-105389637D01*
X75000000Y-105444341D01*
X75849544Y-105444341D01*
X75760363Y-105574862D01*
X75705659Y-105845000D01*
X75705659Y-106462820D01*
X74159167Y-104916328D01*
X73956341Y-104780804D01*
X73956341Y-104698000D01*
X73908856Y-104445637D01*
X73759709Y-104213856D01*
X73532138Y-104058363D01*
X73262000Y-104003659D01*
X70756000Y-104003659D01*
X70756000Y-90756000D01*
X87809120Y-90756000D01*
X87755659Y-91020000D01*
X87755659Y-91020000D01*
G37*
X87755659Y-91020000D02*
X87755659Y-92220000D01*
X87803144Y-92472363D01*
X87952291Y-92704144D01*
X88179862Y-92859637D01*
X88450000Y-92914341D01*
X89650000Y-92914341D01*
X89902363Y-92866856D01*
X90004706Y-92801000D01*
X91087533Y-92801000D01*
X91246528Y-92909637D01*
X91516666Y-92964341D01*
X93016666Y-92964341D01*
X93269029Y-92916856D01*
X93500810Y-92767709D01*
X93617650Y-92596708D01*
X93718957Y-92754144D01*
X93946528Y-92909637D01*
X94216666Y-92964341D01*
X95716666Y-92964341D01*
X95919000Y-92926270D01*
X95919000Y-94375659D01*
X95788000Y-94375659D01*
X95646233Y-94402334D01*
X95593291Y-94366959D01*
X94950000Y-94239000D01*
X91644341Y-94239000D01*
X91644341Y-93920000D01*
X91596856Y-93667637D01*
X91447709Y-93435856D01*
X91220138Y-93280363D01*
X90950000Y-93225659D01*
X88450000Y-93225659D01*
X88197637Y-93273144D01*
X87965856Y-93422291D01*
X87810363Y-93649862D01*
X87755659Y-93920000D01*
X87755659Y-94239000D01*
X85056906Y-94239000D01*
X85022709Y-94185856D01*
X84795138Y-94030363D01*
X84525000Y-93975659D01*
X83275000Y-93975659D01*
X83022637Y-94023144D01*
X82790856Y-94172291D01*
X82745276Y-94239000D01*
X81230000Y-94239000D01*
X81146249Y-94255659D01*
X79950000Y-94255659D01*
X79697637Y-94303144D01*
X79465856Y-94452291D01*
X79310363Y-94679862D01*
X79255659Y-94950000D01*
X79255659Y-96450000D01*
X79278050Y-96569000D01*
X76344341Y-96569000D01*
X76344341Y-96100000D01*
X76296856Y-95847637D01*
X76147709Y-95615856D01*
X75920138Y-95460363D01*
X75650000Y-95405659D01*
X75325119Y-95405659D01*
X75636068Y-95095252D01*
X75930665Y-94385785D01*
X75931335Y-93617585D01*
X75637977Y-92907605D01*
X75095252Y-92363932D01*
X74385785Y-92069335D01*
X73617585Y-92068665D01*
X72907605Y-92362023D01*
X72363932Y-92904748D01*
X72069335Y-93614215D01*
X72068665Y-94382415D01*
X72362023Y-95092395D01*
X72904748Y-95636068D01*
X73090169Y-95713062D01*
X73010363Y-95829862D01*
X72955659Y-96100000D01*
X72955659Y-99900000D01*
X72969000Y-99970902D01*
X72969000Y-101900000D01*
X73096959Y-102543291D01*
X73365813Y-102945659D01*
X73461354Y-103088646D01*
X74305659Y-103932952D01*
X74305659Y-104750000D01*
X74353144Y-105002363D01*
X74502291Y-105234144D01*
X74729862Y-105389637D01*
X75000000Y-105444341D01*
X75849544Y-105444341D01*
X75760363Y-105574862D01*
X75705659Y-105845000D01*
X75705659Y-106462820D01*
X74159167Y-104916328D01*
X73956341Y-104780804D01*
X73956341Y-104698000D01*
X73908856Y-104445637D01*
X73759709Y-104213856D01*
X73532138Y-104058363D01*
X73262000Y-104003659D01*
X70756000Y-104003659D01*
X70756000Y-90756000D01*
X87809120Y-90756000D01*
X87755659Y-91020000D01*
M02*
