G04 #@! TF.FileFunction,Legend,Top*
%FSLAX46Y46*%
G04 Gerber Fmt 4.6, Leading zero omitted, Abs format (unit mm)*
G04 Created by KiCad (PCBNEW 4.0.6) date 01/12/18 15:45:59*
%MOMM*%
%LPD*%
G01*
G04 APERTURE LIST*
%ADD10C,0.100000*%
%ADD11C,0.250000*%
%ADD12C,0.120000*%
%ADD13C,0.150000*%
%ADD14C,0.300000*%
%ADD15C,0.600000*%
%ADD16C,0.400000*%
%ADD17C,0.500000*%
G04 APERTURE END LIST*
D10*
D11*
X86207142Y-119510714D02*
X86207142Y-120177381D01*
X86207142Y-119605952D02*
X86254761Y-119558333D01*
X86349999Y-119510714D01*
X86492857Y-119510714D01*
X86588095Y-119558333D01*
X86635714Y-119653571D01*
X86635714Y-120177381D01*
X87111904Y-120177381D02*
X87111904Y-119177381D01*
X87540476Y-120177381D02*
X87540476Y-119653571D01*
X87492857Y-119558333D01*
X87397619Y-119510714D01*
X87254761Y-119510714D01*
X87159523Y-119558333D01*
X87111904Y-119605952D01*
X88445238Y-120177381D02*
X88445238Y-119653571D01*
X88397619Y-119558333D01*
X88302381Y-119510714D01*
X88111904Y-119510714D01*
X88016666Y-119558333D01*
X88445238Y-120129762D02*
X88350000Y-120177381D01*
X88111904Y-120177381D01*
X88016666Y-120129762D01*
X87969047Y-120034524D01*
X87969047Y-119939286D01*
X88016666Y-119844048D01*
X88111904Y-119796429D01*
X88350000Y-119796429D01*
X88445238Y-119748810D01*
X88921428Y-119510714D02*
X88921428Y-120177381D01*
X88921428Y-119605952D02*
X88969047Y-119558333D01*
X89064285Y-119510714D01*
X89207143Y-119510714D01*
X89302381Y-119558333D01*
X89350000Y-119653571D01*
X89350000Y-120177381D01*
X89683333Y-119510714D02*
X90064285Y-119510714D01*
X89826190Y-119177381D02*
X89826190Y-120034524D01*
X89873809Y-120129762D01*
X89969047Y-120177381D01*
X90064285Y-120177381D01*
X90254762Y-119510714D02*
X90635714Y-119510714D01*
X90397619Y-119177381D02*
X90397619Y-120034524D01*
X90445238Y-120129762D01*
X90540476Y-120177381D01*
X90635714Y-120177381D01*
D12*
X111850000Y-99170000D02*
X111850000Y-100170000D01*
X113550000Y-100170000D02*
X113550000Y-99170000D01*
X121930000Y-101760000D02*
X120010000Y-101760000D01*
X115070000Y-101760000D02*
X116990000Y-101760000D01*
X122690000Y-93380000D02*
X120010000Y-93380000D01*
X114310000Y-93380000D02*
X116990000Y-93380000D01*
X122690000Y-93380000D02*
X122690000Y-101000000D01*
X122690000Y-101000000D02*
X121930000Y-101760000D01*
X115070000Y-101760000D02*
X114310000Y-101000000D01*
X114310000Y-101000000D02*
X114310000Y-93380000D01*
X90630000Y-136760000D02*
X90630000Y-137760000D01*
X92330000Y-137760000D02*
X92330000Y-136760000D01*
X78900000Y-105620000D02*
X77900000Y-105620000D01*
X77900000Y-107320000D02*
X78900000Y-107320000D01*
X74700000Y-101650000D02*
X81800000Y-101650000D01*
X74700000Y-105350000D02*
X81800000Y-105350000D01*
X74700000Y-101650000D02*
X74700000Y-105350000D01*
X84750000Y-97170000D02*
X84750000Y-96170000D01*
X83050000Y-96170000D02*
X83050000Y-97170000D01*
X85510000Y-103160000D02*
X88190000Y-103160000D01*
X93890000Y-103160000D02*
X91210000Y-103160000D01*
X93130000Y-94780000D02*
X91210000Y-94780000D01*
X86270000Y-94780000D02*
X88190000Y-94780000D01*
X85510000Y-103160000D02*
X85510000Y-95540000D01*
X85510000Y-95540000D02*
X86270000Y-94780000D01*
X93130000Y-94780000D02*
X93890000Y-95540000D01*
X93890000Y-95540000D02*
X93890000Y-103160000D01*
X113550000Y-95070000D02*
X113550000Y-94070000D01*
X111850000Y-94070000D02*
X111850000Y-95070000D01*
X83370000Y-107340000D02*
X84370000Y-107340000D01*
X84370000Y-105640000D02*
X83370000Y-105640000D01*
X83420000Y-109590000D02*
X84420000Y-109590000D01*
X84420000Y-107890000D02*
X83420000Y-107890000D01*
X98150000Y-118920000D02*
X98150000Y-119920000D01*
X99850000Y-119920000D02*
X99850000Y-118920000D01*
X82940000Y-113470000D02*
X82940000Y-112470000D01*
X81240000Y-112470000D02*
X81240000Y-113470000D01*
X123850000Y-101270000D02*
X127150000Y-101270000D01*
X127150000Y-101270000D02*
X127150000Y-95870000D01*
X123850000Y-101270000D02*
X123850000Y-95870000D01*
X86150000Y-90920000D02*
X86150000Y-92320000D01*
X86150000Y-92320000D02*
X88950000Y-92320000D01*
X86150000Y-90920000D02*
X88950000Y-90920000D01*
X103710000Y-106940000D02*
X103710000Y-102640000D01*
X103710000Y-102640000D02*
X96410000Y-102640000D01*
X103710000Y-106940000D02*
X96410000Y-106940000D01*
X102600000Y-134320000D02*
X105900000Y-134320000D01*
X105900000Y-134320000D02*
X105900000Y-128920000D01*
X102600000Y-134320000D02*
X102600000Y-128920000D01*
X81320000Y-124210000D02*
X82720000Y-124210000D01*
X82720000Y-124210000D02*
X82720000Y-121410000D01*
X81320000Y-124210000D02*
X81320000Y-121410000D01*
X105900000Y-109120000D02*
X102600000Y-109120000D01*
X102600000Y-109120000D02*
X102600000Y-114520000D01*
X105900000Y-109120000D02*
X105900000Y-114520000D01*
D13*
X83725000Y-112195000D02*
X83725000Y-116645000D01*
X90625000Y-110670000D02*
X90625000Y-116645000D01*
D12*
X70600000Y-115940000D02*
X70600000Y-123620000D01*
X70600000Y-123620000D02*
X73400000Y-123620000D01*
X73400000Y-123620000D02*
X73400000Y-115940000D01*
X73400000Y-115940000D02*
X70600000Y-115940000D01*
X70600000Y-114670000D02*
X70600000Y-113340000D01*
X70600000Y-113340000D02*
X72000000Y-113340000D01*
X76960000Y-115940000D02*
X76960000Y-123620000D01*
X76960000Y-123620000D02*
X79620000Y-123620000D01*
X79620000Y-123620000D02*
X79620000Y-115940000D01*
X79620000Y-115940000D02*
X76960000Y-115940000D01*
X76960000Y-114670000D02*
X76960000Y-113340000D01*
X76960000Y-113340000D02*
X78290000Y-113340000D01*
D13*
X95400000Y-94570000D02*
X103300000Y-94570000D01*
X95400000Y-101570000D02*
X103300000Y-101570000D01*
X79620000Y-126220000D02*
X79620000Y-137720000D01*
X77620000Y-137720000D02*
X81120000Y-137720000D01*
X71120000Y-137720000D02*
X77620000Y-137720000D01*
X71120000Y-136220000D02*
X71120000Y-137720000D01*
X77620000Y-136220000D02*
X71120000Y-136220000D01*
X77620000Y-134720000D02*
X77620000Y-136220000D01*
X71120000Y-134720000D02*
X77620000Y-134720000D01*
X71120000Y-133220000D02*
X71120000Y-134720000D01*
X77620000Y-133220000D02*
X71120000Y-133220000D01*
X77620000Y-131720000D02*
X77620000Y-133220000D01*
X71120000Y-131720000D02*
X77620000Y-131720000D01*
X71120000Y-130220000D02*
X71120000Y-131720000D01*
X77620000Y-130220000D02*
X71120000Y-130220000D01*
X77620000Y-128720000D02*
X77620000Y-130220000D01*
X71120000Y-128720000D02*
X77620000Y-128720000D01*
X71120000Y-125720000D02*
X71120000Y-128720000D01*
X93520000Y-139720000D02*
X93520000Y-124720000D01*
X70020000Y-124720000D02*
X99520000Y-124720000D01*
X70020000Y-139720000D02*
X70020000Y-124720000D01*
X99520000Y-139720000D02*
X70020000Y-139720000D01*
X99520000Y-139720000D02*
X99520000Y-124720000D01*
X105301000Y-126069160D02*
X105301000Y-126020900D01*
X104599960Y-123270180D02*
X105301000Y-123270180D01*
X105301000Y-123270180D02*
X105301000Y-123519100D01*
X105301000Y-126069160D02*
X105301000Y-126269820D01*
X105301000Y-126269820D02*
X104599960Y-126269820D01*
X94200240Y-114119160D02*
X94200240Y-114070900D01*
X93499200Y-111320180D02*
X94200240Y-111320180D01*
X94200240Y-111320180D02*
X94200240Y-111569100D01*
X94200240Y-114119160D02*
X94200240Y-114319820D01*
X94200240Y-114319820D02*
X93499200Y-114319820D01*
X105310240Y-120419160D02*
X105310240Y-120370900D01*
X104609200Y-117620180D02*
X105310240Y-117620180D01*
X105310240Y-117620180D02*
X105310240Y-117869100D01*
X105310240Y-120419160D02*
X105310240Y-120619820D01*
X105310240Y-120619820D02*
X104609200Y-120619820D01*
D12*
X109000000Y-103940000D02*
X107000000Y-103940000D01*
X107000000Y-101800000D02*
X109000000Y-101800000D01*
X94216666Y-92500000D02*
X93016666Y-92500000D01*
X93016666Y-90740000D02*
X94216666Y-90740000D01*
X98683332Y-90740000D02*
X99883332Y-90740000D01*
X99883332Y-92500000D02*
X98683332Y-92500000D01*
X104349998Y-90740000D02*
X105549998Y-90740000D01*
X105549998Y-92500000D02*
X104349998Y-92500000D01*
X77750000Y-107810000D02*
X78950000Y-107810000D01*
X78950000Y-109570000D02*
X77750000Y-109570000D01*
X88750000Y-105590000D02*
X89950000Y-105590000D01*
X89950000Y-107350000D02*
X88750000Y-107350000D01*
X90020000Y-125370000D02*
X90020000Y-124170000D01*
X91780000Y-124170000D02*
X91780000Y-125370000D01*
X98120000Y-113470000D02*
X98120000Y-112270000D01*
X99880000Y-112270000D02*
X99880000Y-113470000D01*
X95870000Y-113470000D02*
X95870000Y-112270000D01*
X97630000Y-112270000D02*
X97630000Y-113470000D01*
X100370000Y-125370000D02*
X100370000Y-124170000D01*
X102130000Y-124170000D02*
X102130000Y-125370000D01*
X100370000Y-113470000D02*
X100370000Y-112270000D01*
X102130000Y-112270000D02*
X102130000Y-113470000D01*
X95650000Y-127090000D02*
X94450000Y-127090000D01*
X94450000Y-125330000D02*
X95650000Y-125330000D01*
X99250000Y-108190000D02*
X100450000Y-108190000D01*
X100450000Y-109950000D02*
X99250000Y-109950000D01*
X82920000Y-117280000D02*
X82920000Y-118480000D01*
X81160000Y-118480000D02*
X81160000Y-117280000D01*
X93910000Y-110310000D02*
X92710000Y-110310000D01*
X92710000Y-108550000D02*
X93910000Y-108550000D01*
X99830000Y-124170000D02*
X99830000Y-125370000D01*
X98070000Y-125370000D02*
X98070000Y-124170000D01*
X77720000Y-110020000D02*
X78920000Y-110020000D01*
X78920000Y-111780000D02*
X77720000Y-111780000D01*
X74160000Y-121820000D02*
X74160000Y-120620000D01*
X75920000Y-120620000D02*
X75920000Y-121820000D01*
X75870000Y-115390000D02*
X75870000Y-116590000D01*
X74110000Y-116590000D02*
X74110000Y-115390000D01*
X100370000Y-120070000D02*
X100370000Y-118870000D01*
X102130000Y-118870000D02*
X102130000Y-120070000D01*
X75890000Y-94590000D02*
X75890000Y-95850000D01*
X75890000Y-101410000D02*
X75890000Y-100150000D01*
X79650000Y-94590000D02*
X75890000Y-94590000D01*
X81900000Y-101410000D02*
X75890000Y-101410000D01*
D13*
X110775000Y-95095000D02*
X110725000Y-95095000D01*
X110775000Y-99245000D02*
X110630000Y-99245000D01*
X105625000Y-99245000D02*
X105770000Y-99245000D01*
X105625000Y-95095000D02*
X105770000Y-95095000D01*
X110775000Y-95095000D02*
X110775000Y-99245000D01*
X105625000Y-95095000D02*
X105625000Y-99245000D01*
X110725000Y-95095000D02*
X110725000Y-93695000D01*
X97425000Y-117595000D02*
X97375000Y-117595000D01*
X97425000Y-121745000D02*
X97280000Y-121745000D01*
X92275000Y-121745000D02*
X92420000Y-121745000D01*
X92275000Y-117595000D02*
X92420000Y-117595000D01*
X97425000Y-117595000D02*
X97425000Y-121745000D01*
X92275000Y-117595000D02*
X92275000Y-121745000D01*
X97375000Y-117595000D02*
X97375000Y-116195000D01*
X138800000Y-104630000D02*
X139900000Y-104630000D01*
X138700000Y-115310000D02*
X138700000Y-93950000D01*
X140000000Y-115310000D02*
X140000000Y-93950000D01*
X128400000Y-115310000D02*
X140000000Y-115310000D01*
X140000000Y-93950000D02*
X128400000Y-93950000D01*
X128400000Y-93950000D02*
X128400000Y-115310000D01*
X138800000Y-124980000D02*
X139900000Y-124980000D01*
X138700000Y-135660000D02*
X138700000Y-114300000D01*
X140000000Y-135660000D02*
X140000000Y-114300000D01*
X128400000Y-135660000D02*
X140000000Y-135660000D01*
X140000000Y-114300000D02*
X128400000Y-114300000D01*
X128400000Y-114300000D02*
X128400000Y-135660000D01*
D12*
X107050000Y-132250000D02*
X107050000Y-138850000D01*
X107050000Y-123250000D02*
X107050000Y-129850000D01*
X107050000Y-123250000D02*
X126850000Y-123250000D01*
X126850000Y-123250000D02*
X126850000Y-138850000D01*
X126850000Y-138850000D02*
X107050000Y-138850000D01*
X122600000Y-135250000D02*
X122600000Y-132800000D01*
X122600000Y-126850000D02*
X122600000Y-129350000D01*
X112000000Y-137100000D02*
X114500000Y-137100000D01*
X111100000Y-131100000D02*
X110300000Y-131100000D01*
X114500000Y-125100000D02*
X112000000Y-125100000D01*
X117900000Y-131100000D02*
X119400000Y-131100000D01*
X119400000Y-131100000D02*
X124000000Y-128600000D01*
X117900000Y-134700000D02*
X111100000Y-134700000D01*
X117900000Y-131100000D02*
X117900000Y-134700000D01*
X111100000Y-131100000D02*
X111100000Y-134700000D01*
X114500000Y-125100000D02*
X114500000Y-129300000D01*
X114500000Y-132900000D02*
X114500000Y-137100000D01*
X116500000Y-132900000D02*
X112500000Y-129300000D01*
X112500000Y-132900000D02*
X112500000Y-129300000D01*
X112500000Y-129300000D02*
X116500000Y-129300000D01*
X116500000Y-129300000D02*
X116500000Y-132900000D01*
X116500000Y-132900000D02*
X112500000Y-132900000D01*
X107050000Y-114250000D02*
X107050000Y-120850000D01*
X107050000Y-105250000D02*
X107050000Y-111850000D01*
X107050000Y-105250000D02*
X126850000Y-105250000D01*
X126850000Y-105250000D02*
X126850000Y-120850000D01*
X126850000Y-120850000D02*
X107050000Y-120850000D01*
X122600000Y-117250000D02*
X122600000Y-114800000D01*
X122600000Y-108850000D02*
X122600000Y-111350000D01*
X112000000Y-119100000D02*
X114500000Y-119100000D01*
X111100000Y-113100000D02*
X110300000Y-113100000D01*
X114500000Y-107100000D02*
X112000000Y-107100000D01*
X117900000Y-113100000D02*
X119400000Y-113100000D01*
X119400000Y-113100000D02*
X124000000Y-110600000D01*
X117900000Y-116700000D02*
X111100000Y-116700000D01*
X117900000Y-113100000D02*
X117900000Y-116700000D01*
X111100000Y-113100000D02*
X111100000Y-116700000D01*
X114500000Y-107100000D02*
X114500000Y-111300000D01*
X114500000Y-114900000D02*
X114500000Y-119100000D01*
X116500000Y-114900000D02*
X112500000Y-111300000D01*
X112500000Y-114900000D02*
X112500000Y-111300000D01*
X112500000Y-111300000D02*
X116500000Y-111300000D01*
X116500000Y-111300000D02*
X116500000Y-114900000D01*
X116500000Y-114900000D02*
X112500000Y-114900000D01*
X70600000Y-106880000D02*
X70600000Y-112020000D01*
X70600000Y-112020000D02*
X73400000Y-112020000D01*
X73400000Y-112020000D02*
X73400000Y-106880000D01*
X73330000Y-106880000D02*
X70670000Y-106880000D01*
X70600000Y-105610000D02*
X70600000Y-104280000D01*
X70600000Y-104280000D02*
X72000000Y-104280000D01*
D14*
X85750000Y-121300000D02*
X86385000Y-123205000D01*
X85750000Y-121300000D02*
X85115000Y-122570000D01*
X83845000Y-121427000D02*
X85750000Y-121300000D01*
X85115000Y-119776000D02*
X85750000Y-121300000D01*
D15*
X85369000Y-119776000D02*
G75*
G03X85369000Y-119776000I-254000J0D01*
G01*
D16*
X84099000Y-121427000D02*
G75*
G03X84099000Y-121427000I-254000J0D01*
G01*
D15*
X86131000Y-121300000D02*
G75*
G03X86131000Y-121300000I-381000J0D01*
G01*
D17*
X86639000Y-123205000D02*
G75*
G03X86639000Y-123205000I-254000J0D01*
G01*
D16*
X85305500Y-122570000D02*
G75*
G03X85305500Y-122570000I-190500J0D01*
G01*
D13*
X113332143Y-103141666D02*
X113379762Y-103189285D01*
X113427381Y-103332142D01*
X113427381Y-103427380D01*
X113379762Y-103570238D01*
X113284524Y-103665476D01*
X113189286Y-103713095D01*
X112998810Y-103760714D01*
X112855952Y-103760714D01*
X112665476Y-103713095D01*
X112570238Y-103665476D01*
X112475000Y-103570238D01*
X112427381Y-103427380D01*
X112427381Y-103332142D01*
X112475000Y-103189285D01*
X112522619Y-103141666D01*
X113427381Y-102189285D02*
X113427381Y-102760714D01*
X113427381Y-102475000D02*
X112427381Y-102475000D01*
X112570238Y-102570238D01*
X112665476Y-102665476D01*
X112713095Y-102760714D01*
X121058334Y-104057143D02*
X121010715Y-104104762D01*
X120867858Y-104152381D01*
X120772620Y-104152381D01*
X120629762Y-104104762D01*
X120534524Y-104009524D01*
X120486905Y-103914286D01*
X120439286Y-103723810D01*
X120439286Y-103580952D01*
X120486905Y-103390476D01*
X120534524Y-103295238D01*
X120629762Y-103200000D01*
X120772620Y-103152381D01*
X120867858Y-103152381D01*
X121010715Y-103200000D01*
X121058334Y-103247619D01*
X121439286Y-103247619D02*
X121486905Y-103200000D01*
X121582143Y-103152381D01*
X121820239Y-103152381D01*
X121915477Y-103200000D01*
X121963096Y-103247619D01*
X122010715Y-103342857D01*
X122010715Y-103438095D01*
X121963096Y-103580952D01*
X121391667Y-104152381D01*
X122010715Y-104152381D01*
X122481429Y-102730952D02*
X122481429Y-101969047D01*
X122862381Y-102349999D02*
X122100476Y-102349999D01*
X90087143Y-137426666D02*
X90134762Y-137474285D01*
X90182381Y-137617142D01*
X90182381Y-137712380D01*
X90134762Y-137855238D01*
X90039524Y-137950476D01*
X89944286Y-137998095D01*
X89753810Y-138045714D01*
X89610952Y-138045714D01*
X89420476Y-137998095D01*
X89325238Y-137950476D01*
X89230000Y-137855238D01*
X89182381Y-137712380D01*
X89182381Y-137617142D01*
X89230000Y-137474285D01*
X89277619Y-137426666D01*
X89182381Y-137093333D02*
X89182381Y-136474285D01*
X89563333Y-136807619D01*
X89563333Y-136664761D01*
X89610952Y-136569523D01*
X89658571Y-136521904D01*
X89753810Y-136474285D01*
X89991905Y-136474285D01*
X90087143Y-136521904D01*
X90134762Y-136569523D01*
X90182381Y-136664761D01*
X90182381Y-136950476D01*
X90134762Y-137045714D01*
X90087143Y-137093333D01*
X75357143Y-106666666D02*
X75404762Y-106714285D01*
X75452381Y-106857142D01*
X75452381Y-106952380D01*
X75404762Y-107095238D01*
X75309524Y-107190476D01*
X75214286Y-107238095D01*
X75023810Y-107285714D01*
X74880952Y-107285714D01*
X74690476Y-107238095D01*
X74595238Y-107190476D01*
X74500000Y-107095238D01*
X74452381Y-106952380D01*
X74452381Y-106857142D01*
X74500000Y-106714285D01*
X74547619Y-106666666D01*
X74785714Y-105809523D02*
X75452381Y-105809523D01*
X74404762Y-106047619D02*
X75119048Y-106285714D01*
X75119048Y-105666666D01*
X73333334Y-103082143D02*
X73285715Y-103129762D01*
X73142858Y-103177381D01*
X73047620Y-103177381D01*
X72904762Y-103129762D01*
X72809524Y-103034524D01*
X72761905Y-102939286D01*
X72714286Y-102748810D01*
X72714286Y-102605952D01*
X72761905Y-102415476D01*
X72809524Y-102320238D01*
X72904762Y-102225000D01*
X73047620Y-102177381D01*
X73142858Y-102177381D01*
X73285715Y-102225000D01*
X73333334Y-102272619D01*
X74238096Y-102177381D02*
X73761905Y-102177381D01*
X73714286Y-102653571D01*
X73761905Y-102605952D01*
X73857143Y-102558333D01*
X74095239Y-102558333D01*
X74190477Y-102605952D01*
X74238096Y-102653571D01*
X74285715Y-102748810D01*
X74285715Y-102986905D01*
X74238096Y-103082143D01*
X74190477Y-103129762D01*
X74095239Y-103177381D01*
X73857143Y-103177381D01*
X73761905Y-103129762D01*
X73714286Y-103082143D01*
X84232143Y-100316666D02*
X84279762Y-100364285D01*
X84327381Y-100507142D01*
X84327381Y-100602380D01*
X84279762Y-100745238D01*
X84184524Y-100840476D01*
X84089286Y-100888095D01*
X83898810Y-100935714D01*
X83755952Y-100935714D01*
X83565476Y-100888095D01*
X83470238Y-100840476D01*
X83375000Y-100745238D01*
X83327381Y-100602380D01*
X83327381Y-100507142D01*
X83375000Y-100364285D01*
X83422619Y-100316666D01*
X83327381Y-99459523D02*
X83327381Y-99650000D01*
X83375000Y-99745238D01*
X83422619Y-99792857D01*
X83565476Y-99888095D01*
X83755952Y-99935714D01*
X84136905Y-99935714D01*
X84232143Y-99888095D01*
X84279762Y-99840476D01*
X84327381Y-99745238D01*
X84327381Y-99554761D01*
X84279762Y-99459523D01*
X84232143Y-99411904D01*
X84136905Y-99364285D01*
X83898810Y-99364285D01*
X83803571Y-99411904D01*
X83755952Y-99459523D01*
X83708333Y-99554761D01*
X83708333Y-99745238D01*
X83755952Y-99840476D01*
X83803571Y-99888095D01*
X83898810Y-99935714D01*
X92533334Y-104882143D02*
X92485715Y-104929762D01*
X92342858Y-104977381D01*
X92247620Y-104977381D01*
X92104762Y-104929762D01*
X92009524Y-104834524D01*
X91961905Y-104739286D01*
X91914286Y-104548810D01*
X91914286Y-104405952D01*
X91961905Y-104215476D01*
X92009524Y-104120238D01*
X92104762Y-104025000D01*
X92247620Y-103977381D01*
X92342858Y-103977381D01*
X92485715Y-104025000D01*
X92533334Y-104072619D01*
X92866667Y-103977381D02*
X93533334Y-103977381D01*
X93104762Y-104977381D01*
X85871429Y-94570952D02*
X85871429Y-93809047D01*
X86252381Y-94189999D02*
X85490476Y-94189999D01*
X112982143Y-91316666D02*
X113029762Y-91364285D01*
X113077381Y-91507142D01*
X113077381Y-91602380D01*
X113029762Y-91745238D01*
X112934524Y-91840476D01*
X112839286Y-91888095D01*
X112648810Y-91935714D01*
X112505952Y-91935714D01*
X112315476Y-91888095D01*
X112220238Y-91840476D01*
X112125000Y-91745238D01*
X112077381Y-91602380D01*
X112077381Y-91507142D01*
X112125000Y-91364285D01*
X112172619Y-91316666D01*
X112505952Y-90745238D02*
X112458333Y-90840476D01*
X112410714Y-90888095D01*
X112315476Y-90935714D01*
X112267857Y-90935714D01*
X112172619Y-90888095D01*
X112125000Y-90840476D01*
X112077381Y-90745238D01*
X112077381Y-90554761D01*
X112125000Y-90459523D01*
X112172619Y-90411904D01*
X112267857Y-90364285D01*
X112315476Y-90364285D01*
X112410714Y-90411904D01*
X112458333Y-90459523D01*
X112505952Y-90554761D01*
X112505952Y-90745238D01*
X112553571Y-90840476D01*
X112601190Y-90888095D01*
X112696429Y-90935714D01*
X112886905Y-90935714D01*
X112982143Y-90888095D01*
X113029762Y-90840476D01*
X113077381Y-90745238D01*
X113077381Y-90554761D01*
X113029762Y-90459523D01*
X112982143Y-90411904D01*
X112886905Y-90364285D01*
X112696429Y-90364285D01*
X112601190Y-90411904D01*
X112553571Y-90459523D01*
X112505952Y-90554761D01*
X83582143Y-105332143D02*
X83534524Y-105379762D01*
X83391667Y-105427381D01*
X83296429Y-105427381D01*
X83153571Y-105379762D01*
X83058333Y-105284524D01*
X83010714Y-105189286D01*
X82963095Y-104998810D01*
X82963095Y-104855952D01*
X83010714Y-104665476D01*
X83058333Y-104570238D01*
X83153571Y-104475000D01*
X83296429Y-104427381D01*
X83391667Y-104427381D01*
X83534524Y-104475000D01*
X83582143Y-104522619D01*
X84534524Y-105427381D02*
X83963095Y-105427381D01*
X84248809Y-105427381D02*
X84248809Y-104427381D01*
X84153571Y-104570238D01*
X84058333Y-104665476D01*
X83963095Y-104713095D01*
X85486905Y-105427381D02*
X84915476Y-105427381D01*
X85201190Y-105427381D02*
X85201190Y-104427381D01*
X85105952Y-104570238D01*
X85010714Y-104665476D01*
X84915476Y-104713095D01*
X86982143Y-109732143D02*
X86934524Y-109779762D01*
X86791667Y-109827381D01*
X86696429Y-109827381D01*
X86553571Y-109779762D01*
X86458333Y-109684524D01*
X86410714Y-109589286D01*
X86363095Y-109398810D01*
X86363095Y-109255952D01*
X86410714Y-109065476D01*
X86458333Y-108970238D01*
X86553571Y-108875000D01*
X86696429Y-108827381D01*
X86791667Y-108827381D01*
X86934524Y-108875000D01*
X86982143Y-108922619D01*
X87934524Y-109827381D02*
X87363095Y-109827381D01*
X87648809Y-109827381D02*
X87648809Y-108827381D01*
X87553571Y-108970238D01*
X87458333Y-109065476D01*
X87363095Y-109113095D01*
X88315476Y-108922619D02*
X88363095Y-108875000D01*
X88458333Y-108827381D01*
X88696429Y-108827381D01*
X88791667Y-108875000D01*
X88839286Y-108922619D01*
X88886905Y-109017857D01*
X88886905Y-109113095D01*
X88839286Y-109255952D01*
X88267857Y-109827381D01*
X88886905Y-109827381D01*
X98432143Y-116832143D02*
X98384524Y-116879762D01*
X98241667Y-116927381D01*
X98146429Y-116927381D01*
X98003571Y-116879762D01*
X97908333Y-116784524D01*
X97860714Y-116689286D01*
X97813095Y-116498810D01*
X97813095Y-116355952D01*
X97860714Y-116165476D01*
X97908333Y-116070238D01*
X98003571Y-115975000D01*
X98146429Y-115927381D01*
X98241667Y-115927381D01*
X98384524Y-115975000D01*
X98432143Y-116022619D01*
X99384524Y-116927381D02*
X98813095Y-116927381D01*
X99098809Y-116927381D02*
X99098809Y-115927381D01*
X99003571Y-116070238D01*
X98908333Y-116165476D01*
X98813095Y-116213095D01*
X100241667Y-116260714D02*
X100241667Y-116927381D01*
X100003571Y-115879762D02*
X99765476Y-116594048D01*
X100384524Y-116594048D01*
X80907143Y-113967857D02*
X80954762Y-114015476D01*
X81002381Y-114158333D01*
X81002381Y-114253571D01*
X80954762Y-114396429D01*
X80859524Y-114491667D01*
X80764286Y-114539286D01*
X80573810Y-114586905D01*
X80430952Y-114586905D01*
X80240476Y-114539286D01*
X80145238Y-114491667D01*
X80050000Y-114396429D01*
X80002381Y-114253571D01*
X80002381Y-114158333D01*
X80050000Y-114015476D01*
X80097619Y-113967857D01*
X81002381Y-113015476D02*
X81002381Y-113586905D01*
X81002381Y-113301191D02*
X80002381Y-113301191D01*
X80145238Y-113396429D01*
X80240476Y-113491667D01*
X80288095Y-113586905D01*
X80002381Y-112158333D02*
X80002381Y-112348810D01*
X80050000Y-112444048D01*
X80097619Y-112491667D01*
X80240476Y-112586905D01*
X80430952Y-112634524D01*
X80811905Y-112634524D01*
X80907143Y-112586905D01*
X80954762Y-112539286D01*
X81002381Y-112444048D01*
X81002381Y-112253571D01*
X80954762Y-112158333D01*
X80907143Y-112110714D01*
X80811905Y-112063095D01*
X80573810Y-112063095D01*
X80478571Y-112110714D01*
X80430952Y-112158333D01*
X80383333Y-112253571D01*
X80383333Y-112444048D01*
X80430952Y-112539286D01*
X80478571Y-112586905D01*
X80573810Y-112634524D01*
X126077381Y-103188095D02*
X125077381Y-103188095D01*
X125077381Y-102950000D01*
X125125000Y-102807142D01*
X125220238Y-102711904D01*
X125315476Y-102664285D01*
X125505952Y-102616666D01*
X125648810Y-102616666D01*
X125839286Y-102664285D01*
X125934524Y-102711904D01*
X126029762Y-102807142D01*
X126077381Y-102950000D01*
X126077381Y-103188095D01*
X126077381Y-101664285D02*
X126077381Y-102235714D01*
X126077381Y-101950000D02*
X125077381Y-101950000D01*
X125220238Y-102045238D01*
X125315476Y-102140476D01*
X125363095Y-102235714D01*
X81886905Y-92077381D02*
X81886905Y-91077381D01*
X82125000Y-91077381D01*
X82267858Y-91125000D01*
X82363096Y-91220238D01*
X82410715Y-91315476D01*
X82458334Y-91505952D01*
X82458334Y-91648810D01*
X82410715Y-91839286D01*
X82363096Y-91934524D01*
X82267858Y-92029762D01*
X82125000Y-92077381D01*
X81886905Y-92077381D01*
X82839286Y-91172619D02*
X82886905Y-91125000D01*
X82982143Y-91077381D01*
X83220239Y-91077381D01*
X83315477Y-91125000D01*
X83363096Y-91172619D01*
X83410715Y-91267857D01*
X83410715Y-91363095D01*
X83363096Y-91505952D01*
X82791667Y-92077381D01*
X83410715Y-92077381D01*
X104211905Y-105552381D02*
X104211905Y-104552381D01*
X104450000Y-104552381D01*
X104592858Y-104600000D01*
X104688096Y-104695238D01*
X104735715Y-104790476D01*
X104783334Y-104980952D01*
X104783334Y-105123810D01*
X104735715Y-105314286D01*
X104688096Y-105409524D01*
X104592858Y-105504762D01*
X104450000Y-105552381D01*
X104211905Y-105552381D01*
X105116667Y-104552381D02*
X105735715Y-104552381D01*
X105402381Y-104933333D01*
X105545239Y-104933333D01*
X105640477Y-104980952D01*
X105688096Y-105028571D01*
X105735715Y-105123810D01*
X105735715Y-105361905D01*
X105688096Y-105457143D01*
X105640477Y-105504762D01*
X105545239Y-105552381D01*
X105259524Y-105552381D01*
X105164286Y-105504762D01*
X105116667Y-105457143D01*
X103511905Y-135877381D02*
X103511905Y-134877381D01*
X103750000Y-134877381D01*
X103892858Y-134925000D01*
X103988096Y-135020238D01*
X104035715Y-135115476D01*
X104083334Y-135305952D01*
X104083334Y-135448810D01*
X104035715Y-135639286D01*
X103988096Y-135734524D01*
X103892858Y-135829762D01*
X103750000Y-135877381D01*
X103511905Y-135877381D01*
X104940477Y-135210714D02*
X104940477Y-135877381D01*
X104702381Y-134829762D02*
X104464286Y-135544048D01*
X105083334Y-135544048D01*
X81052381Y-123138095D02*
X80052381Y-123138095D01*
X80052381Y-122900000D01*
X80100000Y-122757142D01*
X80195238Y-122661904D01*
X80290476Y-122614285D01*
X80480952Y-122566666D01*
X80623810Y-122566666D01*
X80814286Y-122614285D01*
X80909524Y-122661904D01*
X81004762Y-122757142D01*
X81052381Y-122900000D01*
X81052381Y-123138095D01*
X80052381Y-121661904D02*
X80052381Y-122138095D01*
X80528571Y-122185714D01*
X80480952Y-122138095D01*
X80433333Y-122042857D01*
X80433333Y-121804761D01*
X80480952Y-121709523D01*
X80528571Y-121661904D01*
X80623810Y-121614285D01*
X80861905Y-121614285D01*
X80957143Y-121661904D01*
X81004762Y-121709523D01*
X81052381Y-121804761D01*
X81052381Y-122042857D01*
X81004762Y-122138095D01*
X80957143Y-122185714D01*
X103311905Y-108402381D02*
X103311905Y-107402381D01*
X103550000Y-107402381D01*
X103692858Y-107450000D01*
X103788096Y-107545238D01*
X103835715Y-107640476D01*
X103883334Y-107830952D01*
X103883334Y-107973810D01*
X103835715Y-108164286D01*
X103788096Y-108259524D01*
X103692858Y-108354762D01*
X103550000Y-108402381D01*
X103311905Y-108402381D01*
X104740477Y-107402381D02*
X104550000Y-107402381D01*
X104454762Y-107450000D01*
X104407143Y-107497619D01*
X104311905Y-107640476D01*
X104264286Y-107830952D01*
X104264286Y-108211905D01*
X104311905Y-108307143D01*
X104359524Y-108354762D01*
X104454762Y-108402381D01*
X104645239Y-108402381D01*
X104740477Y-108354762D01*
X104788096Y-108307143D01*
X104835715Y-108211905D01*
X104835715Y-107973810D01*
X104788096Y-107878571D01*
X104740477Y-107830952D01*
X104645239Y-107783333D01*
X104454762Y-107783333D01*
X104359524Y-107830952D01*
X104311905Y-107878571D01*
X104264286Y-107973810D01*
X87527381Y-115376190D02*
X86527381Y-115376190D01*
X87432143Y-114328571D02*
X87479762Y-114376190D01*
X87527381Y-114519047D01*
X87527381Y-114614285D01*
X87479762Y-114757143D01*
X87384524Y-114852381D01*
X87289286Y-114900000D01*
X87098810Y-114947619D01*
X86955952Y-114947619D01*
X86765476Y-114900000D01*
X86670238Y-114852381D01*
X86575000Y-114757143D01*
X86527381Y-114614285D01*
X86527381Y-114519047D01*
X86575000Y-114376190D01*
X86622619Y-114328571D01*
X87527381Y-113376190D02*
X87527381Y-113947619D01*
X87527381Y-113661905D02*
X86527381Y-113661905D01*
X86670238Y-113757143D01*
X86765476Y-113852381D01*
X86813095Y-113947619D01*
X99183334Y-94027381D02*
X98707143Y-94027381D01*
X98707143Y-93027381D01*
X100040477Y-94027381D02*
X99469048Y-94027381D01*
X99754762Y-94027381D02*
X99754762Y-93027381D01*
X99659524Y-93170238D01*
X99564286Y-93265476D01*
X99469048Y-93313095D01*
X89972381Y-133029524D02*
X88972381Y-133029524D01*
X89686667Y-132696190D01*
X88972381Y-132362857D01*
X89972381Y-132362857D01*
X89972381Y-131362857D02*
X89972381Y-131934286D01*
X89972381Y-131648572D02*
X88972381Y-131648572D01*
X89115238Y-131743810D01*
X89210476Y-131839048D01*
X89258095Y-131934286D01*
X105104762Y-122947619D02*
X105009524Y-122900000D01*
X104914286Y-122804762D01*
X104771429Y-122661905D01*
X104676190Y-122614286D01*
X104580952Y-122614286D01*
X104628571Y-122852381D02*
X104533333Y-122804762D01*
X104438095Y-122709524D01*
X104390476Y-122519048D01*
X104390476Y-122185714D01*
X104438095Y-121995238D01*
X104533333Y-121900000D01*
X104628571Y-121852381D01*
X104819048Y-121852381D01*
X104914286Y-121900000D01*
X105009524Y-121995238D01*
X105057143Y-122185714D01*
X105057143Y-122519048D01*
X105009524Y-122709524D01*
X104914286Y-122804762D01*
X104819048Y-122852381D01*
X104628571Y-122852381D01*
X106009524Y-122852381D02*
X105438095Y-122852381D01*
X105723809Y-122852381D02*
X105723809Y-121852381D01*
X105628571Y-121995238D01*
X105533333Y-122090476D01*
X105438095Y-122138095D01*
X93729762Y-115697619D02*
X93634524Y-115650000D01*
X93539286Y-115554762D01*
X93396429Y-115411905D01*
X93301190Y-115364286D01*
X93205952Y-115364286D01*
X93253571Y-115602381D02*
X93158333Y-115554762D01*
X93063095Y-115459524D01*
X93015476Y-115269048D01*
X93015476Y-114935714D01*
X93063095Y-114745238D01*
X93158333Y-114650000D01*
X93253571Y-114602381D01*
X93444048Y-114602381D01*
X93539286Y-114650000D01*
X93634524Y-114745238D01*
X93682143Y-114935714D01*
X93682143Y-115269048D01*
X93634524Y-115459524D01*
X93539286Y-115554762D01*
X93444048Y-115602381D01*
X93253571Y-115602381D01*
X94063095Y-114697619D02*
X94110714Y-114650000D01*
X94205952Y-114602381D01*
X94444048Y-114602381D01*
X94539286Y-114650000D01*
X94586905Y-114697619D01*
X94634524Y-114792857D01*
X94634524Y-114888095D01*
X94586905Y-115030952D01*
X94015476Y-115602381D01*
X94634524Y-115602381D01*
X105104762Y-117372619D02*
X105009524Y-117325000D01*
X104914286Y-117229762D01*
X104771429Y-117086905D01*
X104676190Y-117039286D01*
X104580952Y-117039286D01*
X104628571Y-117277381D02*
X104533333Y-117229762D01*
X104438095Y-117134524D01*
X104390476Y-116944048D01*
X104390476Y-116610714D01*
X104438095Y-116420238D01*
X104533333Y-116325000D01*
X104628571Y-116277381D01*
X104819048Y-116277381D01*
X104914286Y-116325000D01*
X105009524Y-116420238D01*
X105057143Y-116610714D01*
X105057143Y-116944048D01*
X105009524Y-117134524D01*
X104914286Y-117229762D01*
X104819048Y-117277381D01*
X104628571Y-117277381D01*
X105390476Y-116277381D02*
X106009524Y-116277381D01*
X105676190Y-116658333D01*
X105819048Y-116658333D01*
X105914286Y-116705952D01*
X105961905Y-116753571D01*
X106009524Y-116848810D01*
X106009524Y-117086905D01*
X105961905Y-117182143D01*
X105914286Y-117229762D01*
X105819048Y-117277381D01*
X105533333Y-117277381D01*
X105438095Y-117229762D01*
X105390476Y-117182143D01*
X107758334Y-105052381D02*
X107425000Y-104576190D01*
X107186905Y-105052381D02*
X107186905Y-104052381D01*
X107567858Y-104052381D01*
X107663096Y-104100000D01*
X107710715Y-104147619D01*
X107758334Y-104242857D01*
X107758334Y-104385714D01*
X107710715Y-104480952D01*
X107663096Y-104528571D01*
X107567858Y-104576190D01*
X107186905Y-104576190D01*
X108710715Y-105052381D02*
X108139286Y-105052381D01*
X108425000Y-105052381D02*
X108425000Y-104052381D01*
X108329762Y-104195238D01*
X108234524Y-104290476D01*
X108139286Y-104338095D01*
X84558334Y-92102381D02*
X84225000Y-91626190D01*
X83986905Y-92102381D02*
X83986905Y-91102381D01*
X84367858Y-91102381D01*
X84463096Y-91150000D01*
X84510715Y-91197619D01*
X84558334Y-91292857D01*
X84558334Y-91435714D01*
X84510715Y-91530952D01*
X84463096Y-91578571D01*
X84367858Y-91626190D01*
X83986905Y-91626190D01*
X84939286Y-91197619D02*
X84986905Y-91150000D01*
X85082143Y-91102381D01*
X85320239Y-91102381D01*
X85415477Y-91150000D01*
X85463096Y-91197619D01*
X85510715Y-91292857D01*
X85510715Y-91388095D01*
X85463096Y-91530952D01*
X84891667Y-92102381D01*
X85510715Y-92102381D01*
X108183334Y-92102381D02*
X107850000Y-91626190D01*
X107611905Y-92102381D02*
X107611905Y-91102381D01*
X107992858Y-91102381D01*
X108088096Y-91150000D01*
X108135715Y-91197619D01*
X108183334Y-91292857D01*
X108183334Y-91435714D01*
X108135715Y-91530952D01*
X108088096Y-91578571D01*
X107992858Y-91626190D01*
X107611905Y-91626190D01*
X108516667Y-91102381D02*
X109135715Y-91102381D01*
X108802381Y-91483333D01*
X108945239Y-91483333D01*
X109040477Y-91530952D01*
X109088096Y-91578571D01*
X109135715Y-91673810D01*
X109135715Y-91911905D01*
X109088096Y-92007143D01*
X109040477Y-92054762D01*
X108945239Y-92102381D01*
X108659524Y-92102381D01*
X108564286Y-92054762D01*
X108516667Y-92007143D01*
X110133334Y-92102381D02*
X109800000Y-91626190D01*
X109561905Y-92102381D02*
X109561905Y-91102381D01*
X109942858Y-91102381D01*
X110038096Y-91150000D01*
X110085715Y-91197619D01*
X110133334Y-91292857D01*
X110133334Y-91435714D01*
X110085715Y-91530952D01*
X110038096Y-91578571D01*
X109942858Y-91626190D01*
X109561905Y-91626190D01*
X110990477Y-91435714D02*
X110990477Y-92102381D01*
X110752381Y-91054762D02*
X110514286Y-91769048D01*
X111133334Y-91769048D01*
X75452381Y-108666666D02*
X74976190Y-109000000D01*
X75452381Y-109238095D02*
X74452381Y-109238095D01*
X74452381Y-108857142D01*
X74500000Y-108761904D01*
X74547619Y-108714285D01*
X74642857Y-108666666D01*
X74785714Y-108666666D01*
X74880952Y-108714285D01*
X74928571Y-108761904D01*
X74976190Y-108857142D01*
X74976190Y-109238095D01*
X74452381Y-107761904D02*
X74452381Y-108238095D01*
X74928571Y-108285714D01*
X74880952Y-108238095D01*
X74833333Y-108142857D01*
X74833333Y-107904761D01*
X74880952Y-107809523D01*
X74928571Y-107761904D01*
X75023810Y-107714285D01*
X75261905Y-107714285D01*
X75357143Y-107761904D01*
X75404762Y-107809523D01*
X75452381Y-107904761D01*
X75452381Y-108142857D01*
X75404762Y-108238095D01*
X75357143Y-108285714D01*
X89183334Y-105377381D02*
X88850000Y-104901190D01*
X88611905Y-105377381D02*
X88611905Y-104377381D01*
X88992858Y-104377381D01*
X89088096Y-104425000D01*
X89135715Y-104472619D01*
X89183334Y-104567857D01*
X89183334Y-104710714D01*
X89135715Y-104805952D01*
X89088096Y-104853571D01*
X88992858Y-104901190D01*
X88611905Y-104901190D01*
X90040477Y-104377381D02*
X89850000Y-104377381D01*
X89754762Y-104425000D01*
X89707143Y-104472619D01*
X89611905Y-104615476D01*
X89564286Y-104805952D01*
X89564286Y-105186905D01*
X89611905Y-105282143D01*
X89659524Y-105329762D01*
X89754762Y-105377381D01*
X89945239Y-105377381D01*
X90040477Y-105329762D01*
X90088096Y-105282143D01*
X90135715Y-105186905D01*
X90135715Y-104948810D01*
X90088096Y-104853571D01*
X90040477Y-104805952D01*
X89945239Y-104758333D01*
X89754762Y-104758333D01*
X89659524Y-104805952D01*
X89611905Y-104853571D01*
X89564286Y-104948810D01*
X91302381Y-128341666D02*
X90826190Y-128675000D01*
X91302381Y-128913095D02*
X90302381Y-128913095D01*
X90302381Y-128532142D01*
X90350000Y-128436904D01*
X90397619Y-128389285D01*
X90492857Y-128341666D01*
X90635714Y-128341666D01*
X90730952Y-128389285D01*
X90778571Y-128436904D01*
X90826190Y-128532142D01*
X90826190Y-128913095D01*
X90302381Y-128008333D02*
X90302381Y-127341666D01*
X91302381Y-127770238D01*
X101477381Y-116166666D02*
X101001190Y-116500000D01*
X101477381Y-116738095D02*
X100477381Y-116738095D01*
X100477381Y-116357142D01*
X100525000Y-116261904D01*
X100572619Y-116214285D01*
X100667857Y-116166666D01*
X100810714Y-116166666D01*
X100905952Y-116214285D01*
X100953571Y-116261904D01*
X101001190Y-116357142D01*
X101001190Y-116738095D01*
X100905952Y-115595238D02*
X100858333Y-115690476D01*
X100810714Y-115738095D01*
X100715476Y-115785714D01*
X100667857Y-115785714D01*
X100572619Y-115738095D01*
X100525000Y-115690476D01*
X100477381Y-115595238D01*
X100477381Y-115404761D01*
X100525000Y-115309523D01*
X100572619Y-115261904D01*
X100667857Y-115214285D01*
X100715476Y-115214285D01*
X100810714Y-115261904D01*
X100858333Y-115309523D01*
X100905952Y-115404761D01*
X100905952Y-115595238D01*
X100953571Y-115690476D01*
X101001190Y-115738095D01*
X101096429Y-115785714D01*
X101286905Y-115785714D01*
X101382143Y-115738095D01*
X101429762Y-115690476D01*
X101477381Y-115595238D01*
X101477381Y-115404761D01*
X101429762Y-115309523D01*
X101382143Y-115261904D01*
X101286905Y-115214285D01*
X101096429Y-115214285D01*
X101001190Y-115261904D01*
X100953571Y-115309523D01*
X100905952Y-115404761D01*
X97002381Y-108941666D02*
X96526190Y-109275000D01*
X97002381Y-109513095D02*
X96002381Y-109513095D01*
X96002381Y-109132142D01*
X96050000Y-109036904D01*
X96097619Y-108989285D01*
X96192857Y-108941666D01*
X96335714Y-108941666D01*
X96430952Y-108989285D01*
X96478571Y-109036904D01*
X96526190Y-109132142D01*
X96526190Y-109513095D01*
X97002381Y-108465476D02*
X97002381Y-108275000D01*
X96954762Y-108179761D01*
X96907143Y-108132142D01*
X96764286Y-108036904D01*
X96573810Y-107989285D01*
X96192857Y-107989285D01*
X96097619Y-108036904D01*
X96050000Y-108084523D01*
X96002381Y-108179761D01*
X96002381Y-108370238D01*
X96050000Y-108465476D01*
X96097619Y-108513095D01*
X96192857Y-108560714D01*
X96430952Y-108560714D01*
X96526190Y-108513095D01*
X96573810Y-108465476D01*
X96621429Y-108370238D01*
X96621429Y-108179761D01*
X96573810Y-108084523D01*
X96526190Y-108036904D01*
X96430952Y-107989285D01*
X101702381Y-131942857D02*
X101226190Y-132276191D01*
X101702381Y-132514286D02*
X100702381Y-132514286D01*
X100702381Y-132133333D01*
X100750000Y-132038095D01*
X100797619Y-131990476D01*
X100892857Y-131942857D01*
X101035714Y-131942857D01*
X101130952Y-131990476D01*
X101178571Y-132038095D01*
X101226190Y-132133333D01*
X101226190Y-132514286D01*
X101702381Y-130990476D02*
X101702381Y-131561905D01*
X101702381Y-131276191D02*
X100702381Y-131276191D01*
X100845238Y-131371429D01*
X100940476Y-131466667D01*
X100988095Y-131561905D01*
X100702381Y-130371429D02*
X100702381Y-130276190D01*
X100750000Y-130180952D01*
X100797619Y-130133333D01*
X100892857Y-130085714D01*
X101083333Y-130038095D01*
X101321429Y-130038095D01*
X101511905Y-130085714D01*
X101607143Y-130133333D01*
X101654762Y-130180952D01*
X101702381Y-130276190D01*
X101702381Y-130371429D01*
X101654762Y-130466667D01*
X101607143Y-130514286D01*
X101511905Y-130561905D01*
X101321429Y-130609524D01*
X101083333Y-130609524D01*
X100892857Y-130561905D01*
X100797619Y-130514286D01*
X100750000Y-130466667D01*
X100702381Y-130371429D01*
X102827381Y-116742857D02*
X102351190Y-117076191D01*
X102827381Y-117314286D02*
X101827381Y-117314286D01*
X101827381Y-116933333D01*
X101875000Y-116838095D01*
X101922619Y-116790476D01*
X102017857Y-116742857D01*
X102160714Y-116742857D01*
X102255952Y-116790476D01*
X102303571Y-116838095D01*
X102351190Y-116933333D01*
X102351190Y-117314286D01*
X102827381Y-115790476D02*
X102827381Y-116361905D01*
X102827381Y-116076191D02*
X101827381Y-116076191D01*
X101970238Y-116171429D01*
X102065476Y-116266667D01*
X102113095Y-116361905D01*
X102827381Y-114838095D02*
X102827381Y-115409524D01*
X102827381Y-115123810D02*
X101827381Y-115123810D01*
X101970238Y-115219048D01*
X102065476Y-115314286D01*
X102113095Y-115409524D01*
X94457143Y-128677381D02*
X94123809Y-128201190D01*
X93885714Y-128677381D02*
X93885714Y-127677381D01*
X94266667Y-127677381D01*
X94361905Y-127725000D01*
X94409524Y-127772619D01*
X94457143Y-127867857D01*
X94457143Y-128010714D01*
X94409524Y-128105952D01*
X94361905Y-128153571D01*
X94266667Y-128201190D01*
X93885714Y-128201190D01*
X95409524Y-128677381D02*
X94838095Y-128677381D01*
X95123809Y-128677381D02*
X95123809Y-127677381D01*
X95028571Y-127820238D01*
X94933333Y-127915476D01*
X94838095Y-127963095D01*
X95790476Y-127772619D02*
X95838095Y-127725000D01*
X95933333Y-127677381D01*
X96171429Y-127677381D01*
X96266667Y-127725000D01*
X96314286Y-127772619D01*
X96361905Y-127867857D01*
X96361905Y-127963095D01*
X96314286Y-128105952D01*
X95742857Y-128677381D01*
X96361905Y-128677381D01*
X99007143Y-108102381D02*
X98673809Y-107626190D01*
X98435714Y-108102381D02*
X98435714Y-107102381D01*
X98816667Y-107102381D01*
X98911905Y-107150000D01*
X98959524Y-107197619D01*
X99007143Y-107292857D01*
X99007143Y-107435714D01*
X98959524Y-107530952D01*
X98911905Y-107578571D01*
X98816667Y-107626190D01*
X98435714Y-107626190D01*
X99959524Y-108102381D02*
X99388095Y-108102381D01*
X99673809Y-108102381D02*
X99673809Y-107102381D01*
X99578571Y-107245238D01*
X99483333Y-107340476D01*
X99388095Y-107388095D01*
X100292857Y-107102381D02*
X100911905Y-107102381D01*
X100578571Y-107483333D01*
X100721429Y-107483333D01*
X100816667Y-107530952D01*
X100864286Y-107578571D01*
X100911905Y-107673810D01*
X100911905Y-107911905D01*
X100864286Y-108007143D01*
X100816667Y-108054762D01*
X100721429Y-108102381D01*
X100435714Y-108102381D01*
X100340476Y-108054762D01*
X100292857Y-108007143D01*
X80877381Y-118517857D02*
X80401190Y-118851191D01*
X80877381Y-119089286D02*
X79877381Y-119089286D01*
X79877381Y-118708333D01*
X79925000Y-118613095D01*
X79972619Y-118565476D01*
X80067857Y-118517857D01*
X80210714Y-118517857D01*
X80305952Y-118565476D01*
X80353571Y-118613095D01*
X80401190Y-118708333D01*
X80401190Y-119089286D01*
X80877381Y-117565476D02*
X80877381Y-118136905D01*
X80877381Y-117851191D02*
X79877381Y-117851191D01*
X80020238Y-117946429D01*
X80115476Y-118041667D01*
X80163095Y-118136905D01*
X80210714Y-116708333D02*
X80877381Y-116708333D01*
X79829762Y-116946429D02*
X80544048Y-117184524D01*
X80544048Y-116565476D01*
X92667143Y-108182381D02*
X92333809Y-107706190D01*
X92095714Y-108182381D02*
X92095714Y-107182381D01*
X92476667Y-107182381D01*
X92571905Y-107230000D01*
X92619524Y-107277619D01*
X92667143Y-107372857D01*
X92667143Y-107515714D01*
X92619524Y-107610952D01*
X92571905Y-107658571D01*
X92476667Y-107706190D01*
X92095714Y-107706190D01*
X93619524Y-108182381D02*
X93048095Y-108182381D01*
X93333809Y-108182381D02*
X93333809Y-107182381D01*
X93238571Y-107325238D01*
X93143333Y-107420476D01*
X93048095Y-107468095D01*
X94524286Y-107182381D02*
X94048095Y-107182381D01*
X94000476Y-107658571D01*
X94048095Y-107610952D01*
X94143333Y-107563333D01*
X94381429Y-107563333D01*
X94476667Y-107610952D01*
X94524286Y-107658571D01*
X94571905Y-107753810D01*
X94571905Y-107991905D01*
X94524286Y-108087143D01*
X94476667Y-108134762D01*
X94381429Y-108182381D01*
X94143333Y-108182381D01*
X94048095Y-108134762D01*
X94000476Y-108087143D01*
X99252381Y-129017857D02*
X98776190Y-129351191D01*
X99252381Y-129589286D02*
X98252381Y-129589286D01*
X98252381Y-129208333D01*
X98300000Y-129113095D01*
X98347619Y-129065476D01*
X98442857Y-129017857D01*
X98585714Y-129017857D01*
X98680952Y-129065476D01*
X98728571Y-129113095D01*
X98776190Y-129208333D01*
X98776190Y-129589286D01*
X99252381Y-128065476D02*
X99252381Y-128636905D01*
X99252381Y-128351191D02*
X98252381Y-128351191D01*
X98395238Y-128446429D01*
X98490476Y-128541667D01*
X98538095Y-128636905D01*
X98252381Y-127208333D02*
X98252381Y-127398810D01*
X98300000Y-127494048D01*
X98347619Y-127541667D01*
X98490476Y-127636905D01*
X98680952Y-127684524D01*
X99061905Y-127684524D01*
X99157143Y-127636905D01*
X99204762Y-127589286D01*
X99252381Y-127494048D01*
X99252381Y-127303571D01*
X99204762Y-127208333D01*
X99157143Y-127160714D01*
X99061905Y-127113095D01*
X98823810Y-127113095D01*
X98728571Y-127160714D01*
X98680952Y-127208333D01*
X98633333Y-127303571D01*
X98633333Y-127494048D01*
X98680952Y-127589286D01*
X98728571Y-127636905D01*
X98823810Y-127684524D01*
X75452381Y-111442857D02*
X74976190Y-111776191D01*
X75452381Y-112014286D02*
X74452381Y-112014286D01*
X74452381Y-111633333D01*
X74500000Y-111538095D01*
X74547619Y-111490476D01*
X74642857Y-111442857D01*
X74785714Y-111442857D01*
X74880952Y-111490476D01*
X74928571Y-111538095D01*
X74976190Y-111633333D01*
X74976190Y-112014286D01*
X75452381Y-110490476D02*
X75452381Y-111061905D01*
X75452381Y-110776191D02*
X74452381Y-110776191D01*
X74595238Y-110871429D01*
X74690476Y-110966667D01*
X74738095Y-111061905D01*
X74452381Y-110157143D02*
X74452381Y-109490476D01*
X75452381Y-109919048D01*
X75552381Y-125717857D02*
X75076190Y-126051191D01*
X75552381Y-126289286D02*
X74552381Y-126289286D01*
X74552381Y-125908333D01*
X74600000Y-125813095D01*
X74647619Y-125765476D01*
X74742857Y-125717857D01*
X74885714Y-125717857D01*
X74980952Y-125765476D01*
X75028571Y-125813095D01*
X75076190Y-125908333D01*
X75076190Y-126289286D01*
X75552381Y-124765476D02*
X75552381Y-125336905D01*
X75552381Y-125051191D02*
X74552381Y-125051191D01*
X74695238Y-125146429D01*
X74790476Y-125241667D01*
X74838095Y-125336905D01*
X74980952Y-124194048D02*
X74933333Y-124289286D01*
X74885714Y-124336905D01*
X74790476Y-124384524D01*
X74742857Y-124384524D01*
X74647619Y-124336905D01*
X74600000Y-124289286D01*
X74552381Y-124194048D01*
X74552381Y-124003571D01*
X74600000Y-123908333D01*
X74647619Y-123860714D01*
X74742857Y-123813095D01*
X74790476Y-123813095D01*
X74885714Y-123860714D01*
X74933333Y-123908333D01*
X74980952Y-124003571D01*
X74980952Y-124194048D01*
X75028571Y-124289286D01*
X75076190Y-124336905D01*
X75171429Y-124384524D01*
X75361905Y-124384524D01*
X75457143Y-124336905D01*
X75504762Y-124289286D01*
X75552381Y-124194048D01*
X75552381Y-124003571D01*
X75504762Y-123908333D01*
X75457143Y-123860714D01*
X75361905Y-123813095D01*
X75171429Y-123813095D01*
X75076190Y-123860714D01*
X75028571Y-123908333D01*
X74980952Y-124003571D01*
X74332143Y-113302381D02*
X73998809Y-112826190D01*
X73760714Y-113302381D02*
X73760714Y-112302381D01*
X74141667Y-112302381D01*
X74236905Y-112350000D01*
X74284524Y-112397619D01*
X74332143Y-112492857D01*
X74332143Y-112635714D01*
X74284524Y-112730952D01*
X74236905Y-112778571D01*
X74141667Y-112826190D01*
X73760714Y-112826190D01*
X75284524Y-113302381D02*
X74713095Y-113302381D01*
X74998809Y-113302381D02*
X74998809Y-112302381D01*
X74903571Y-112445238D01*
X74808333Y-112540476D01*
X74713095Y-112588095D01*
X75760714Y-113302381D02*
X75951190Y-113302381D01*
X76046429Y-113254762D01*
X76094048Y-113207143D01*
X76189286Y-113064286D01*
X76236905Y-112873810D01*
X76236905Y-112492857D01*
X76189286Y-112397619D01*
X76141667Y-112350000D01*
X76046429Y-112302381D01*
X75855952Y-112302381D01*
X75760714Y-112350000D01*
X75713095Y-112397619D01*
X75665476Y-112492857D01*
X75665476Y-112730952D01*
X75713095Y-112826190D01*
X75760714Y-112873810D01*
X75855952Y-112921429D01*
X76046429Y-112921429D01*
X76141667Y-112873810D01*
X76189286Y-112826190D01*
X76236905Y-112730952D01*
X101677381Y-129067857D02*
X101201190Y-129401191D01*
X101677381Y-129639286D02*
X100677381Y-129639286D01*
X100677381Y-129258333D01*
X100725000Y-129163095D01*
X100772619Y-129115476D01*
X100867857Y-129067857D01*
X101010714Y-129067857D01*
X101105952Y-129115476D01*
X101153571Y-129163095D01*
X101201190Y-129258333D01*
X101201190Y-129639286D01*
X100772619Y-128686905D02*
X100725000Y-128639286D01*
X100677381Y-128544048D01*
X100677381Y-128305952D01*
X100725000Y-128210714D01*
X100772619Y-128163095D01*
X100867857Y-128115476D01*
X100963095Y-128115476D01*
X101105952Y-128163095D01*
X101677381Y-128734524D01*
X101677381Y-128115476D01*
X100677381Y-127496429D02*
X100677381Y-127401190D01*
X100725000Y-127305952D01*
X100772619Y-127258333D01*
X100867857Y-127210714D01*
X101058333Y-127163095D01*
X101296429Y-127163095D01*
X101486905Y-127210714D01*
X101582143Y-127258333D01*
X101629762Y-127305952D01*
X101677381Y-127401190D01*
X101677381Y-127496429D01*
X101629762Y-127591667D01*
X101582143Y-127639286D01*
X101486905Y-127686905D01*
X101296429Y-127734524D01*
X101058333Y-127734524D01*
X100867857Y-127686905D01*
X100772619Y-127639286D01*
X100725000Y-127591667D01*
X100677381Y-127496429D01*
X77277381Y-98786905D02*
X78086905Y-98786905D01*
X78182143Y-98739286D01*
X78229762Y-98691667D01*
X78277381Y-98596429D01*
X78277381Y-98405952D01*
X78229762Y-98310714D01*
X78182143Y-98263095D01*
X78086905Y-98215476D01*
X77277381Y-98215476D01*
X78277381Y-97215476D02*
X78277381Y-97786905D01*
X78277381Y-97501191D02*
X77277381Y-97501191D01*
X77420238Y-97596429D01*
X77515476Y-97691667D01*
X77563095Y-97786905D01*
X107652381Y-97886905D02*
X108461905Y-97886905D01*
X108557143Y-97839286D01*
X108604762Y-97791667D01*
X108652381Y-97696429D01*
X108652381Y-97505952D01*
X108604762Y-97410714D01*
X108557143Y-97363095D01*
X108461905Y-97315476D01*
X107652381Y-97315476D01*
X107747619Y-96886905D02*
X107700000Y-96839286D01*
X107652381Y-96744048D01*
X107652381Y-96505952D01*
X107700000Y-96410714D01*
X107747619Y-96363095D01*
X107842857Y-96315476D01*
X107938095Y-96315476D01*
X108080952Y-96363095D01*
X108652381Y-96934524D01*
X108652381Y-96315476D01*
X94252381Y-120486905D02*
X95061905Y-120486905D01*
X95157143Y-120439286D01*
X95204762Y-120391667D01*
X95252381Y-120296429D01*
X95252381Y-120105952D01*
X95204762Y-120010714D01*
X95157143Y-119963095D01*
X95061905Y-119915476D01*
X94252381Y-119915476D01*
X94252381Y-119534524D02*
X94252381Y-118915476D01*
X94633333Y-119248810D01*
X94633333Y-119105952D01*
X94680952Y-119010714D01*
X94728571Y-118963095D01*
X94823810Y-118915476D01*
X95061905Y-118915476D01*
X95157143Y-118963095D01*
X95204762Y-119010714D01*
X95252381Y-119105952D01*
X95252381Y-119391667D01*
X95204762Y-119486905D01*
X95157143Y-119534524D01*
X115703572Y-137652381D02*
X115370238Y-137176190D01*
X115132143Y-137652381D02*
X115132143Y-136652381D01*
X115513096Y-136652381D01*
X115608334Y-136700000D01*
X115655953Y-136747619D01*
X115703572Y-136842857D01*
X115703572Y-136985714D01*
X115655953Y-137080952D01*
X115608334Y-137128571D01*
X115513096Y-137176190D01*
X115132143Y-137176190D01*
X116608334Y-137652381D02*
X116132143Y-137652381D01*
X116132143Y-136652381D01*
X117465477Y-137652381D02*
X116894048Y-137652381D01*
X117179762Y-137652381D02*
X117179762Y-136652381D01*
X117084524Y-136795238D01*
X116989286Y-136890476D01*
X116894048Y-136938095D01*
X115528572Y-119777381D02*
X115195238Y-119301190D01*
X114957143Y-119777381D02*
X114957143Y-118777381D01*
X115338096Y-118777381D01*
X115433334Y-118825000D01*
X115480953Y-118872619D01*
X115528572Y-118967857D01*
X115528572Y-119110714D01*
X115480953Y-119205952D01*
X115433334Y-119253571D01*
X115338096Y-119301190D01*
X114957143Y-119301190D01*
X116433334Y-119777381D02*
X115957143Y-119777381D01*
X115957143Y-118777381D01*
X116719048Y-118872619D02*
X116766667Y-118825000D01*
X116861905Y-118777381D01*
X117100001Y-118777381D01*
X117195239Y-118825000D01*
X117242858Y-118872619D01*
X117290477Y-118967857D01*
X117290477Y-119063095D01*
X117242858Y-119205952D01*
X116671429Y-119777381D01*
X117290477Y-119777381D01*
D11*
X86878266Y-121676181D02*
X86878266Y-120676181D01*
X87530743Y-121676181D02*
X87430362Y-121628562D01*
X87380171Y-121580943D01*
X87329981Y-121485705D01*
X87329981Y-121199990D01*
X87380171Y-121104752D01*
X87430362Y-121057133D01*
X87530743Y-121009514D01*
X87681314Y-121009514D01*
X87781695Y-121057133D01*
X87831886Y-121104752D01*
X87882076Y-121199990D01*
X87882076Y-121485705D01*
X87831886Y-121580943D01*
X87781695Y-121628562D01*
X87681314Y-121676181D01*
X87530743Y-121676181D01*
X88183219Y-120676181D02*
X88785505Y-120676181D01*
X88484362Y-121676181D02*
X88484362Y-120676181D01*
M02*
