M48
;DRILL file {KiCad 4.0.6} date 01/12/18 15:46:01
;FORMAT={-:-/ absolute / metric / decimal}
FMAT,2
METRIC,TZ
T1C0.600
T2C0.900
T3C1.000
T4C1.200
T5C2.500
%
G90
G05
M71
T1
X74.822Y-114.67
X75.329Y-124.791
X75.502Y-114.656
X75.63Y-122.157
X75.657Y-123.054
X75.759Y-125.365
X76.208Y-103.423
X76.93Y-103.463
X76.97Y-110.9
X77.Y-108.69
X79.75Y-91.75
X80.5Y-91.68
X81.25Y-91.68
X81.25Y-123.51
X81.674Y-114.487
X82.02Y-123.51
X82.118Y-113.875
X82.62Y-106.49
X83.9Y-97.92
X83.9Y-98.75
X83.9Y-99.5
X84.36Y-103.401
X84.622Y-106.788
X84.644Y-113.11
X85.Y-103.429
X85.208Y-119.756
X85.773Y-121.343
X86.Y-91.68
X86.2Y-123.154
X86.85Y-91.62
X87.12Y-109.5
X87.216Y-112.936
X88.925Y-96.527
X88.944Y-95.536
X89.687Y-95.022
X89.7Y-95.92
X89.706Y-96.831
X90.354Y-95.612
X90.411Y-96.527
X91.024Y-123.141
X91.243Y-123.746
X91.356Y-117.343
X91.48Y-136.01
X92.549Y-113.77
X92.75Y-126.12
X92.945Y-114.75
X92.945Y-122.37
X93.7Y-126.21
X95.559Y-104.772
X95.915Y-124.25
X96.4Y-124.735
X96.41Y-104.79
X96.707Y-120.541
X96.75Y-111.52
X97.25Y-121.25
X97.278Y-104.824
X97.342Y-118.975
X97.397Y-111.495
X97.75Y-109.
X98.25Y-118.765
X98.5Y-109.07
X98.95Y-123.42
X100.64Y-128.747
X100.821Y-129.523
X101.25Y-120.82
X101.877Y-131.25
X101.877Y-132.101
X102.75Y-91.62
X103.6Y-91.62
X104.259Y-98.269
X104.809Y-98.819
X105.495Y-116.999
X106.143Y-117.53
X106.881Y-121.808
X106.881Y-122.585
X112.7Y-95.82
X113.357Y-107.072
X113.5Y-95.82
X114.17Y-107.1
X115.086Y-106.936
X118.5Y-94.07
X118.509Y-93.202
X118.509Y-94.992
X119.294Y-93.682
X119.294Y-94.581
X125.5Y-91.337
X126.383Y-91.362
X127.202Y-91.354
X128.02Y-91.386
X128.917Y-91.337
T2
X95.56Y-130.95
X95.56Y-133.49
X95.56Y-136.03
X95.56Y-138.57
X98.1Y-130.95
X98.1Y-133.49
X98.1Y-136.03
X98.1Y-138.57
T3
X72.Y-105.61
X72.Y-108.15
X72.Y-110.69
X72.Y-114.67
X72.Y-117.21
X72.Y-119.75
X72.Y-122.29
X78.29Y-114.67
X78.29Y-117.21
X78.29Y-119.75
X78.29Y-122.29
T4
X108.45Y-113.05
X108.45Y-131.05
X110.4Y-107.1
X110.4Y-119.1
X110.4Y-125.1
X110.4Y-137.1
X122.6Y-119.1
X122.6Y-137.1
X122.65Y-107.05
X122.65Y-125.05
X134.2Y-97.01
X134.2Y-102.09
X134.2Y-107.17
X134.2Y-112.25
X134.2Y-117.36
X134.2Y-122.44
X134.2Y-127.52
X134.2Y-132.6
T5
X74.Y-94.
X74.Y-136.
X136.Y-94.
X136.Y-136.
T0
M30
