M48
;DRILL file {KiCad 4.0.6} date 01/12/18 15:18:19
;FORMAT={-:-/ absolute / metric / decimal}
FMAT,2
METRIC,TZ
T1C0.550
T2C0.600
T3C0.900
T4C1.000
T5C1.200
T6C4.000
%
G90
G05
M71
T2
X91.796Y-81.461
X91.811Y-80.668
X91.862Y-82.338
X91.862Y-83.115
X91.862Y-84.2
X92.4Y-113.1
X93.3Y-113.1
X94.2Y-113.1
X96.493Y-127.274
X96.5Y-124.725
X96.5Y-125.5
X96.5Y-126.4
X97.9Y-113.4
X98.5Y-112.9
X99.1Y-112.3
X99.7Y-111.7
X99.7Y-111.7
X100.2Y-111.1
X102.9Y-71.5
X102.9Y-72.4
X102.9Y-73.2
X102.9Y-74.
X102.9Y-74.8
X102.959Y-117.396
X102.965Y-116.5
X103.5Y-72.
X103.5Y-95.65
X103.505Y-94.783
X103.6Y-72.8
X103.6Y-73.7
X103.7Y-74.4
X105.6Y-98.8
X105.9Y-98.1
X106.Y-128.82
X106.3Y-98.9
X106.7Y-128.82
X107.Y-106.4
X107.575Y-128.846
X107.75Y-106.5
X108.4Y-128.8
X109.Y-113.036
X109.3Y-128.8
X109.5Y-100.595
X109.744Y-113.087
X110.25Y-100.595
X111.5Y-109.4
X111.74Y-83.291
X111.746Y-84.079
X112.3Y-109.4
X112.35Y-73.
X112.5Y-96.4
X113.1Y-73.
X113.2Y-109.4
X113.3Y-96.2
X113.9Y-95.7
X115.1Y-71.1
X115.51Y-110.97
X115.9Y-71.1
X116.15Y-89.36
X116.15Y-90.2
X116.675Y-71.106
X116.7Y-106.81
X117.25Y-107.36
X117.85Y-73.
X117.85Y-100.85
X118.11Y-109.32
X118.3Y-100.4
X118.558Y-72.554
X119.23Y-107.03
X119.959Y-106.712
X119.983Y-89.258
X120.5Y-89.875
X120.8Y-89.188
X121.7Y-118.3
X121.7Y-119.2
X121.7Y-120.1
X122.132Y-109.735
X122.35Y-101.9
X122.719Y-109.181
X123.Y-97.9
X123.Y-128.2
X123.07Y-100.18
X123.07Y-101.9
X123.322Y-79.343
X123.527Y-93.729
X123.534Y-122.178
X123.7Y-128.2
X123.744Y-78.786
X123.8Y-98.
X123.84Y-100.15
X123.984Y-86.167
X124.Y-85.38
X124.Y-93.25
X124.234Y-79.309
X124.5Y-122.2
X124.5Y-128.2
X124.702Y-78.696
X125.112Y-79.309
X125.3Y-128.2
X125.392Y-122.2
X126.1Y-128.2
X126.214Y-98.383
X126.54Y-105.924
X126.9Y-128.2
X127.261Y-99.841
X127.32Y-105.924
X127.541Y-95.138
X128.Y-120.
X128.034Y-119.156
X128.1Y-118.3
X128.205Y-105.924
X129.Y-71.
X129.8Y-71.
X130.92Y-121.9
X130.92Y-122.86
X130.92Y-123.71
X130.921Y-94.006
X131.438Y-95.798
X131.723Y-93.996
X132.446Y-92.45
X133.028Y-102.718
X133.169Y-92.477
X133.36Y-98.125
X133.808Y-103.876
X133.926Y-101.586
X134.22Y-99.13
X134.52Y-84.49
X135.141Y-103.698
X135.505Y-84.49
X135.894Y-94.305
X136.49Y-84.49
X136.56Y-115.1
X136.56Y-115.74
X136.57Y-107.37
X136.57Y-108.
X136.599Y-101.892
X136.743Y-100.233
X136.895Y-103.611
X136.948Y-93.444
X137.733Y-98.766
X138.109Y-103.147
X138.465Y-87.8
X138.711Y-99.749
X139.03Y-88.365
X139.47Y-105.12
X139.566Y-94.905
X139.908Y-86.981
X141.504Y-105.15
X141.826Y-102.575
X141.866Y-99.52
X143.44Y-86.21
X144.2Y-86.21
X144.583Y-101.242
X145.049Y-103.173
X145.519Y-122.566
X146.52Y-88.75
X146.58Y-84.438
X147.04Y-110.06
X147.63Y-112.59
X148.32Y-102.67
X148.32Y-105.17
X148.514Y-83.893
X149.2Y-105.17
X150.88Y-75.2
X151.Y-89.8
X151.Y-90.7
X151.Y-91.5
X151.Y-92.3
X151.Y-93.2
X151.4Y-75.6
X151.6Y-126.92
X152.2Y-126.32
X152.72Y-125.8
X152.791Y-105.584
X153.151Y-106.326
X153.2Y-125.32
X153.663Y-106.793
X155.4Y-111.4
X155.66Y-71.54
X155.66Y-77.55
X155.66Y-81.2
X155.66Y-81.9
X155.66Y-82.6
X155.7Y-112.1
X156.217Y-111.457
X158.716Y-84.703
X158.73Y-85.47
X161.793Y-108.65
X162.524Y-71.454
X163.399Y-71.432
X165.498Y-71.525
X166.4Y-71.54
X166.499Y-89.08
X166.5Y-83.15
X166.504Y-89.821
X167.3Y-83.15
X168.1Y-83.15
X168.477Y-104.844
X168.5Y-104.015
X169.9Y-87.
X170.488Y-104.839
X170.5Y-87.24
X170.5Y-104.015
X173.03Y-85.38
X173.08Y-86.06
X173.3Y-71.54
X173.3Y-76.68
X173.3Y-77.55
T3
X147.62Y-115.14
X147.62Y-117.68
X147.62Y-120.22
X147.62Y-122.76
X150.16Y-115.14
X150.16Y-117.68
X150.16Y-120.22
X150.16Y-122.76
T4
X130.92Y-127.
X131.41Y-90.03
X133.1Y-73.08
X133.46Y-127.
X133.95Y-90.03
X135.64Y-73.08
X136.Y-127.
X136.49Y-90.03
X138.18Y-73.08
X138.54Y-127.
X139.03Y-90.03
X140.72Y-73.08
X141.08Y-127.
X143.26Y-73.08
X143.47Y-80.27
X143.62Y-127.
X145.8Y-73.08
X146.01Y-80.27
X148.34Y-73.08
X148.55Y-80.27
X150.88Y-73.08
X151.09Y-80.27
T5
X96.Y-94.84
X96.Y-99.92
X96.Y-105.
X96.Y-110.08
X111.Y-116.5
X114.7Y-122.909
T6
X93.Y-127.
X94.Y-74.
X177.Y-74.
X177.Y-127.
T1
X94.5Y-117.G85X94.5Y-117.
G05
X94.5Y-120.95G85X94.5Y-121.25
G05
T0
M30
