G04 #@! TF.FileFunction,Copper,L2,Bot,Signal*
%FSLAX46Y46*%
G04 Gerber Fmt 4.6, Leading zero omitted, Abs format (unit mm)*
G04 Created by KiCad (PCBNEW 4.0.6) date 01/12/18 15:18:15*
%MOMM*%
%LPD*%
G01*
G04 APERTURE LIST*
%ADD10C,0.100000*%
%ADD11C,4.000000*%
%ADD12C,1.524000*%
%ADD13O,3.724000X2.624000*%
%ADD14R,3.724000X2.624000*%
%ADD15R,1.824000X2.524000*%
%ADD16O,1.824000X2.524000*%
%ADD17O,0.950000X1.250000*%
%ADD18R,1.724000X2.224000*%
%ADD19O,1.724000X2.224000*%
%ADD20R,1.724000X1.724000*%
%ADD21C,1.724000*%
%ADD22C,1.100000*%
%ADD23C,1.000000*%
%ADD24C,0.700000*%
%ADD25C,0.254000*%
%ADD26C,0.500000*%
%ADD27C,0.600000*%
%ADD28C,0.400000*%
%ADD29C,1.500000*%
%ADD30C,0.300000*%
G04 APERTURE END LIST*
D10*
D11*
X93000000Y-127000000D03*
X177000000Y-127000000D03*
X94000000Y-74000000D03*
D12*
X111000000Y-116500000D03*
X114700000Y-122908588D03*
D13*
X96000000Y-110080000D03*
X96000000Y-105000000D03*
X96000000Y-99920000D03*
D14*
X96000000Y-94840000D03*
D15*
X130920000Y-127000000D03*
D16*
X133460000Y-127000000D03*
X136000000Y-127000000D03*
X138540000Y-127000000D03*
X141080000Y-127000000D03*
X143620000Y-127000000D03*
D17*
X94500000Y-117000000D03*
X94500000Y-121100000D03*
D15*
X139030000Y-90030000D03*
D16*
X136490000Y-90030000D03*
X133950000Y-90030000D03*
X131410000Y-90030000D03*
D18*
X150880000Y-73080000D03*
D19*
X148340000Y-73080000D03*
X145800000Y-73080000D03*
X143260000Y-73080000D03*
X140720000Y-73080000D03*
X138180000Y-73080000D03*
X135640000Y-73080000D03*
X133100000Y-73080000D03*
D15*
X151090000Y-80270000D03*
D16*
X148550000Y-80270000D03*
X146010000Y-80270000D03*
X143470000Y-80270000D03*
D20*
X147620000Y-115140000D03*
D21*
X150160000Y-115140000D03*
X147620000Y-117680000D03*
X150160000Y-117680000D03*
X147620000Y-120220000D03*
X150160000Y-120220000D03*
X147620000Y-122760000D03*
X150160000Y-122760000D03*
D11*
X177000000Y-74000000D03*
D22*
X122719353Y-109180944D03*
X122132229Y-109734699D03*
X109743850Y-113086715D03*
X109000000Y-113035898D03*
X152790703Y-105583908D03*
X153150896Y-106326285D03*
X153663134Y-106792991D03*
X155700000Y-112100000D03*
X156216517Y-111457250D03*
X155400000Y-111400000D03*
X121700000Y-120100000D03*
X121700000Y-118300000D03*
X121700000Y-119200000D03*
X128000000Y-120000000D03*
X128100000Y-118300000D03*
X128033721Y-119156135D03*
X123534361Y-122178093D03*
X125392306Y-122200478D03*
X147040000Y-110060000D03*
X147630000Y-112590000D03*
X151600000Y-126920000D03*
X152200000Y-126320000D03*
X152720000Y-125800000D03*
X153200000Y-125320000D03*
X151000000Y-89800000D03*
X151000000Y-93200000D03*
X151000000Y-92300000D03*
X151000000Y-91500000D03*
X151000000Y-90700000D03*
X132445539Y-92450432D03*
X113900000Y-95700000D03*
X113300000Y-96200000D03*
X112500000Y-96400000D03*
X123800000Y-98000000D03*
X123000000Y-97900000D03*
X113200000Y-109400000D03*
X112300000Y-109400000D03*
X111500000Y-109400000D03*
X129800000Y-71000000D03*
X129000000Y-71000000D03*
X150880000Y-75200000D03*
X151400000Y-75600000D03*
X115100000Y-71100000D03*
X116674819Y-71105916D03*
X115900000Y-71100000D03*
X103700000Y-74400000D03*
X103600000Y-73700000D03*
X103600000Y-72800000D03*
X103500000Y-72000000D03*
X102900000Y-71500000D03*
X102900000Y-72400000D03*
X102900000Y-73200000D03*
X102900000Y-74000000D03*
X102900000Y-74800000D03*
X105600000Y-98800000D03*
X105900000Y-98100000D03*
X106300000Y-98900000D03*
X91861968Y-84200000D03*
X91861968Y-83115356D03*
X91861968Y-82337539D03*
X91810531Y-80667536D03*
X91796034Y-81460710D03*
X94200000Y-113100000D03*
X93300000Y-113100000D03*
X92400000Y-113100000D03*
X96493328Y-127274498D03*
X96500000Y-126400000D03*
X96500000Y-125500000D03*
X96500000Y-124725000D03*
X100200000Y-111100000D03*
X99700000Y-111700000D03*
X99700000Y-111700000D03*
X99100000Y-112300000D03*
X98500000Y-112900000D03*
X97900000Y-113400000D03*
X109300000Y-128800000D03*
X108400000Y-128800000D03*
X107575345Y-128845554D03*
X106700000Y-128820000D03*
X106000000Y-128820000D03*
X123000000Y-128200000D03*
X123700000Y-128200000D03*
X126900000Y-128200000D03*
X126100000Y-128200000D03*
X125300000Y-128200000D03*
X124500000Y-128200000D03*
X124500000Y-122200000D03*
X136560000Y-115100000D03*
X136570000Y-108000000D03*
X149200000Y-105170000D03*
X165497726Y-71524895D03*
X162523837Y-71453535D03*
X163399460Y-71431531D03*
X166400000Y-71540000D03*
X158730000Y-85470000D03*
X123527121Y-93728651D03*
X123984340Y-86167098D03*
X118300000Y-100400000D03*
X110250000Y-100595000D03*
X148513525Y-83892823D03*
X124000000Y-85380000D03*
X124000000Y-93250000D03*
X133169030Y-92477071D03*
X135505000Y-84490000D03*
X134520000Y-84490000D03*
X136490000Y-84490000D03*
X158716110Y-84702835D03*
X155660000Y-71540000D03*
X173300000Y-71540000D03*
X136560000Y-115740000D03*
X136570000Y-107370000D03*
X148320000Y-105170000D03*
X117850000Y-100850000D03*
X109500000Y-100595000D03*
X168100000Y-83150000D03*
X167300000Y-83150000D03*
X155660000Y-82600000D03*
X155660000Y-81200000D03*
X144200000Y-86210000D03*
X139030000Y-88365392D03*
X138464608Y-87800000D03*
X131722986Y-93995847D03*
X130920852Y-94005512D03*
X119982727Y-89258114D03*
X120799902Y-89188438D03*
X119958811Y-106712392D03*
X126540000Y-105923935D03*
X127320000Y-105923935D03*
X130920000Y-123710000D03*
X130920000Y-122860000D03*
X130920000Y-121900000D03*
X120500000Y-89875000D03*
X119230000Y-107030000D03*
X143440000Y-86210000D03*
X128204677Y-105923935D03*
X166500000Y-83150000D03*
X155660000Y-81900000D03*
X118558414Y-72554191D03*
X124701621Y-78695613D03*
X123744043Y-78785663D03*
X123321937Y-79342843D03*
X125111667Y-79309074D03*
X124233686Y-79309074D03*
X116700395Y-106809561D03*
X117250394Y-107359560D03*
X107000000Y-106400000D03*
X103504834Y-94782696D03*
X102958563Y-117396353D03*
X116150000Y-89360000D03*
X117850000Y-73000000D03*
X116150000Y-90200000D03*
X107750000Y-106500000D03*
X103500000Y-95650000D03*
X102965477Y-116500000D03*
X136894795Y-103611004D03*
X145048978Y-103172846D03*
X136599493Y-101892318D03*
X148320000Y-102670000D03*
X127261319Y-99840864D03*
X127541150Y-95137577D03*
X139566039Y-94905200D03*
X139908044Y-86980882D03*
X126213794Y-98382872D03*
X146579561Y-84438225D03*
X133926227Y-101585787D03*
X146520000Y-88750000D03*
X133028007Y-102718471D03*
X145518740Y-122565854D03*
X135140784Y-103697578D03*
X141504193Y-105150248D03*
X139470000Y-105120000D03*
X141826154Y-102574730D03*
X138109000Y-103146528D03*
X133807610Y-103876187D03*
X111739770Y-83290825D03*
X111746340Y-84079221D03*
X113100000Y-73000000D03*
X112350000Y-73000000D03*
X123840000Y-100150000D03*
X123070000Y-100180000D03*
X135893548Y-94304729D03*
X118110000Y-109320000D03*
X133360000Y-98125002D03*
X115510000Y-110970000D03*
X134220000Y-99130000D03*
X169900000Y-87000000D03*
X136742891Y-100233003D03*
X170500000Y-87240000D03*
X166498582Y-89079636D03*
X137732949Y-98765614D03*
X166503529Y-89820784D03*
X161793332Y-108650000D03*
X144583416Y-101241509D03*
X123070000Y-101900000D03*
X136947986Y-93443547D03*
X122350000Y-101900000D03*
X168476991Y-104843621D03*
X138711084Y-99748903D03*
X168500000Y-104015000D03*
X170488260Y-104839143D03*
X141866109Y-99519979D03*
X170500000Y-104015000D03*
X173300000Y-76680000D03*
X173300000Y-77550000D03*
X173030000Y-85380000D03*
X173080000Y-86060000D03*
X131438487Y-95798412D03*
X155660000Y-77550000D03*
D23*
X109000000Y-113035898D02*
X109693033Y-113035898D01*
X109693033Y-113035898D02*
X109743850Y-113086715D01*
D24*
X109743850Y-113086715D02*
X118815958Y-113086715D01*
X118815958Y-113086715D02*
X122169354Y-109733319D01*
X122169354Y-109733319D02*
X122169354Y-109730943D01*
X122169354Y-109730943D02*
X122719353Y-109180944D01*
D25*
X152778186Y-105571391D02*
X152790703Y-105583908D01*
X152396002Y-105571391D02*
X152778186Y-105571391D01*
X152396002Y-105571391D02*
X152600897Y-105776286D01*
X152600897Y-105776286D02*
X153150896Y-106326285D01*
D23*
X151994611Y-105170000D02*
X152396002Y-105571391D01*
X148320000Y-105170000D02*
X151994611Y-105170000D01*
D26*
X156216517Y-122303483D02*
X156216517Y-112235067D01*
X153200000Y-125320000D02*
X156216517Y-122303483D01*
X156216517Y-112235067D02*
X156216517Y-111457250D01*
D25*
X121700000Y-119200000D02*
X121700000Y-118300000D01*
X128033721Y-119156135D02*
X128033721Y-119966279D01*
X128033721Y-119966279D02*
X128000000Y-120000000D01*
X127483722Y-119706134D02*
X128033721Y-119156135D01*
X125011763Y-122178093D02*
X127483722Y-119706134D01*
X123534361Y-122178093D02*
X125011763Y-122178093D01*
X124614489Y-122200478D02*
X125392306Y-122200478D01*
X124500478Y-122200478D02*
X124614489Y-122200478D01*
X124500000Y-122200000D02*
X124500478Y-122200478D01*
D26*
X151600000Y-126920000D02*
X149318360Y-129201640D01*
D25*
X152200000Y-126320000D02*
X151600000Y-126920000D01*
X152720000Y-125800000D02*
X152200000Y-126320000D01*
X153200000Y-125320000D02*
X152720000Y-125800000D01*
X151000000Y-90700000D02*
X151000000Y-89800000D01*
X151000000Y-91500000D02*
X151000000Y-92300000D01*
D24*
X151500000Y-83892823D02*
X157906098Y-83892823D01*
X148513525Y-83892823D02*
X151500000Y-83892823D01*
D25*
X151500000Y-83892823D02*
X151500000Y-90200000D01*
X151500000Y-90200000D02*
X151000000Y-90700000D01*
D26*
X148513525Y-83892823D02*
X147963526Y-83342824D01*
X147963526Y-83342824D02*
X138372566Y-83342824D01*
X138372566Y-83342824D02*
X137461723Y-84253667D01*
X137461723Y-84253667D02*
X136726333Y-84253667D01*
X136726333Y-84253667D02*
X136490000Y-84490000D01*
D27*
X133169030Y-92477071D02*
X132472178Y-92477071D01*
X132472178Y-92477071D02*
X132445539Y-92450432D01*
D25*
X112500000Y-96400000D02*
X113100000Y-96400000D01*
X113100000Y-96400000D02*
X113300000Y-96200000D01*
X123000000Y-97900000D02*
X123700000Y-97900000D01*
X123700000Y-97900000D02*
X123800000Y-98000000D01*
X111500000Y-109400000D02*
X112300000Y-109400000D01*
X129000000Y-71000000D02*
X129800000Y-71000000D01*
D23*
X150880000Y-75678000D02*
X150880000Y-75200000D01*
X150880000Y-75200000D02*
X150880000Y-73080000D01*
D25*
X151400000Y-75600000D02*
X151280000Y-75600000D01*
X151280000Y-75600000D02*
X150880000Y-75200000D01*
X103600000Y-72800000D02*
X103600000Y-73700000D01*
X102900000Y-71500000D02*
X103000000Y-71500000D01*
X103000000Y-71500000D02*
X103500000Y-72000000D01*
X102900000Y-73200000D02*
X102900000Y-72400000D01*
X102900000Y-74800000D02*
X102900000Y-74000000D01*
D28*
X105900000Y-98100000D02*
X105900000Y-98500000D01*
X105900000Y-98500000D02*
X105600000Y-98800000D01*
D29*
X91810531Y-80667536D02*
X91810531Y-82286102D01*
X91810531Y-82286102D02*
X91861968Y-82337539D01*
X91861968Y-83115356D02*
X91861968Y-84200000D01*
X91861968Y-82337539D02*
X91861968Y-83115356D01*
D25*
X92400000Y-113100000D02*
X93300000Y-113100000D01*
X99100000Y-112300000D02*
X99700000Y-111700000D01*
X97900000Y-113400000D02*
X98000000Y-113400000D01*
X98000000Y-113400000D02*
X98500000Y-112900000D01*
D26*
X108400000Y-128800000D02*
X109300000Y-128800000D01*
X124500000Y-128200000D02*
X123700000Y-128200000D01*
X125300000Y-128200000D02*
X126100000Y-128200000D01*
D28*
X136560000Y-114190000D02*
X136560000Y-115100000D01*
D25*
X136560000Y-115740000D02*
X136560000Y-115100000D01*
D28*
X136570000Y-108000000D02*
X136570000Y-114180000D01*
D25*
X136570000Y-107370000D02*
X136570000Y-108000000D01*
X166400000Y-71540000D02*
X165512831Y-71540000D01*
X165512831Y-71540000D02*
X165497726Y-71524895D01*
X162545841Y-71431531D02*
X162523837Y-71453535D01*
D23*
X162670000Y-71540000D02*
X162583535Y-71453535D01*
X162610302Y-71540000D02*
X162523837Y-71453535D01*
X166400000Y-71540000D02*
X162610302Y-71540000D01*
X162583535Y-71453535D02*
X162523837Y-71453535D01*
D25*
X163399460Y-71431531D02*
X162545841Y-71431531D01*
D23*
X162719765Y-71431531D02*
X163399460Y-71431531D01*
X162670000Y-71481296D02*
X162719765Y-71431531D01*
X162670000Y-71540000D02*
X162670000Y-71481296D01*
X173300000Y-71540000D02*
X166400000Y-71540000D01*
X158716110Y-84702835D02*
X158716110Y-85456110D01*
X158716110Y-85456110D02*
X158730000Y-85470000D01*
X124000000Y-93250000D02*
X124000000Y-93255772D01*
X124000000Y-93255772D02*
X123527121Y-93728651D01*
X110250000Y-100595000D02*
X109500000Y-100595000D01*
X110250000Y-100595000D02*
X117595000Y-100595000D01*
D26*
X149318360Y-129201640D02*
X134145432Y-129201640D01*
X134145432Y-129201640D02*
X133460000Y-128516208D01*
X133460000Y-128516208D02*
X133460000Y-127000000D01*
D24*
X157906098Y-83892823D02*
X158716110Y-84702835D01*
D23*
X124000000Y-93250000D02*
X124000000Y-85380000D01*
D27*
X133946847Y-92477071D02*
X133169030Y-92477071D01*
X134392929Y-92477071D02*
X133946847Y-92477071D01*
X136490000Y-90030000D02*
X136490000Y-90380000D01*
X136490000Y-90380000D02*
X134392929Y-92477071D01*
D23*
X135480000Y-84490000D02*
X135420000Y-84550000D01*
X136490000Y-84490000D02*
X135480000Y-84490000D01*
X135420000Y-84550000D02*
X134520000Y-84550000D01*
X136490000Y-90030000D02*
X136490000Y-84490000D01*
X148550000Y-80270000D02*
X148550000Y-78008000D01*
X148550000Y-78008000D02*
X150880000Y-75678000D01*
X162670000Y-71540000D02*
X155660000Y-71540000D01*
D28*
X136570000Y-114180000D02*
X136560000Y-114190000D01*
D23*
X117595000Y-100595000D02*
X117850000Y-100850000D01*
X155660000Y-81900000D02*
X160646997Y-81900000D01*
X160646997Y-81900000D02*
X161896997Y-83150000D01*
X161896997Y-83150000D02*
X166500000Y-83150000D01*
X166500000Y-83150000D02*
X168100000Y-83150000D01*
D25*
X167300000Y-83150000D02*
X168100000Y-83150000D01*
X166500000Y-83150000D02*
X167300000Y-83150000D01*
X155660000Y-81900000D02*
X155660000Y-82600000D01*
X155660000Y-81900000D02*
X155660000Y-81200000D01*
D23*
X144200000Y-86210000D02*
X143440000Y-86210000D01*
X138464608Y-87800000D02*
X139030000Y-88365392D01*
X138464608Y-87800000D02*
X138464608Y-86209798D01*
X139030000Y-90030000D02*
X139030000Y-88365392D01*
X131722986Y-93995847D02*
X130930517Y-93995847D01*
X130930517Y-93995847D02*
X130920852Y-94005512D01*
D26*
X132500803Y-93995847D02*
X131722986Y-93995847D01*
X134473037Y-93995847D02*
X132500803Y-93995847D01*
X136188884Y-92280000D02*
X134473037Y-93995847D01*
X137130000Y-92280000D02*
X136188884Y-92280000D01*
X139030000Y-90380000D02*
X137130000Y-92280000D01*
X139030000Y-90030000D02*
X139030000Y-90380000D01*
D23*
X119230000Y-107030000D02*
X119641203Y-107030000D01*
X119641203Y-107030000D02*
X119958811Y-106712392D01*
X120500000Y-89875000D02*
X120500000Y-89488340D01*
X120500000Y-89488340D02*
X120799902Y-89188438D01*
X120500000Y-89875000D02*
X120500000Y-89775387D01*
X120500000Y-89775387D02*
X119982727Y-89258114D01*
D25*
X119982727Y-89227796D02*
X119982727Y-89258114D01*
X120022085Y-89188438D02*
X119982727Y-89227796D01*
X120799902Y-89188438D02*
X120022085Y-89188438D01*
D23*
X119958811Y-106712392D02*
X120579511Y-106091692D01*
X120579511Y-106091692D02*
X120579511Y-89408829D01*
X120579511Y-89408829D02*
X120799902Y-89188438D01*
X127320000Y-105923935D02*
X126540000Y-105923935D01*
X128204677Y-105923935D02*
X127320000Y-105923935D01*
X130920000Y-127000000D02*
X130920000Y-123710000D01*
D25*
X130920000Y-122860000D02*
X130920000Y-123710000D01*
D23*
X130920000Y-122860000D02*
X130920000Y-121900000D01*
X130920000Y-121900000D02*
X130920000Y-108639258D01*
X138464608Y-86209798D02*
X139174406Y-85500000D01*
X139174406Y-85500000D02*
X142710000Y-85500000D01*
X142710000Y-85500000D02*
X143420000Y-86210000D01*
X143420000Y-86210000D02*
X143440000Y-86210000D01*
X128754676Y-106473934D02*
X128204677Y-105923935D01*
X130920000Y-108639258D02*
X128754676Y-106473934D01*
D29*
X116150000Y-79000000D02*
X116150000Y-75500000D01*
X118558414Y-72554191D02*
X116150000Y-74962605D01*
X116150000Y-74962605D02*
X116150000Y-75500000D01*
X118112605Y-73000000D02*
X118558414Y-72554191D01*
D23*
X123744043Y-78785663D02*
X124588256Y-78785663D01*
X124588256Y-78785663D02*
X125111667Y-79309074D01*
X125111667Y-79309074D02*
X116459074Y-79309074D01*
X116459074Y-79309074D02*
X116150000Y-79000000D01*
X124611571Y-78785663D02*
X124701621Y-78695613D01*
X123744043Y-78785663D02*
X124611571Y-78785663D01*
D29*
X116150000Y-79000000D02*
X116364337Y-78785663D01*
X116364337Y-78785663D02*
X122966226Y-78785663D01*
X122966226Y-78785663D02*
X123744043Y-78785663D01*
D23*
X116700395Y-106809561D02*
X117250394Y-107359560D01*
X116390834Y-106500000D02*
X116700395Y-106809561D01*
X107750000Y-106500000D02*
X116390834Y-106500000D01*
X102965477Y-106400000D02*
X107000000Y-106400000D01*
X107000000Y-106400000D02*
X107650000Y-106400000D01*
X102965477Y-106400000D02*
X102965477Y-96184523D01*
X102965477Y-96184523D02*
X103467994Y-95682006D01*
X103467994Y-95682006D02*
X103500000Y-95650000D01*
X103504834Y-95560513D02*
X103504834Y-94782696D01*
X103504834Y-95645166D02*
X103504834Y-95560513D01*
X103500000Y-95650000D02*
X103504834Y-95645166D01*
X102958563Y-116618536D02*
X102958563Y-117396353D01*
X102958563Y-116506914D02*
X102958563Y-116618536D01*
X102965477Y-116500000D02*
X102958563Y-116506914D01*
D29*
X116150000Y-89360000D02*
X116150000Y-90200000D01*
X116150000Y-89360000D02*
X116150000Y-79000000D01*
D23*
X102965477Y-116500000D02*
X102965477Y-106400000D01*
X107650000Y-106400000D02*
X107750000Y-106500000D01*
D30*
X138140814Y-101667011D02*
X136894795Y-102913030D01*
X145048978Y-103172846D02*
X144271161Y-103172846D01*
X142765326Y-101667011D02*
X138140814Y-101667011D01*
X136894795Y-102913030D02*
X136894795Y-103611004D01*
X144271161Y-103172846D02*
X142765326Y-101667011D01*
D25*
X137359444Y-101132367D02*
X137149492Y-101342319D01*
X143062367Y-101132367D02*
X137359444Y-101132367D01*
X144110000Y-102180000D02*
X143062367Y-101132367D01*
X146951000Y-102180000D02*
X144110000Y-102180000D01*
X148320000Y-102670000D02*
X147441000Y-102670000D01*
X137149492Y-101342319D02*
X136599493Y-101892318D01*
X147441000Y-102670000D02*
X146951000Y-102180000D01*
D28*
X148340000Y-74807862D02*
X147300000Y-75847862D01*
X140683837Y-75847862D02*
X139300000Y-77231699D01*
X139300000Y-77231699D02*
X134526994Y-77231699D01*
X147300000Y-75847862D02*
X140683837Y-75847862D01*
X148340000Y-73080000D02*
X148340000Y-74807862D01*
X128748487Y-98353696D02*
X127275912Y-99826271D01*
X134526994Y-77231699D02*
X128748487Y-83010206D01*
X128748487Y-83010206D02*
X128748487Y-98353696D01*
X127275912Y-99826271D02*
X127261319Y-99840864D01*
X138180000Y-73080000D02*
X138180000Y-75032206D01*
X138180000Y-75032206D02*
X137301860Y-75910346D01*
X137301860Y-75910346D02*
X134089654Y-75910346D01*
X134089654Y-75910346D02*
X127541150Y-82458850D01*
X127541150Y-82458850D02*
X127541150Y-94359760D01*
X127541150Y-94359760D02*
X127541150Y-95137577D01*
X139908044Y-86980882D02*
X141027331Y-88100169D01*
X141027331Y-88100169D02*
X141027331Y-93443908D01*
X141027331Y-93443908D02*
X140116038Y-94355201D01*
X140116038Y-94355201D02*
X139566039Y-94905200D01*
X133100000Y-74880000D02*
X126213794Y-81766206D01*
X126213794Y-97605055D02*
X126213794Y-98382872D01*
X126213794Y-81766206D02*
X126213794Y-97605055D01*
X133100000Y-73080000D02*
X133100000Y-74880000D01*
D25*
X146029562Y-84988224D02*
X146579561Y-84438225D01*
X145450000Y-95031684D02*
X145450000Y-85567786D01*
X137278363Y-95826169D02*
X144655515Y-95826169D01*
X135303271Y-97801261D02*
X137278363Y-95826169D01*
X135303271Y-100208743D02*
X135303271Y-97801261D01*
X144655515Y-95826169D02*
X145450000Y-95031684D01*
X133926227Y-101585787D02*
X135303271Y-100208743D01*
X145450000Y-85567786D02*
X146029562Y-84988224D01*
X146520000Y-88750000D02*
X146520000Y-95336823D01*
X146520000Y-95336823D02*
X145441002Y-96415821D01*
X145441002Y-96415821D02*
X137546023Y-96415821D01*
X137546023Y-96415821D02*
X135850268Y-98111576D01*
X135850268Y-98111576D02*
X135850268Y-101208142D01*
X134339939Y-102718471D02*
X133028007Y-102718471D01*
X135850268Y-101208142D02*
X134339939Y-102718471D01*
D28*
X135140784Y-103697578D02*
X135140784Y-117393923D01*
X135140784Y-117393923D02*
X140312715Y-122565854D01*
X140312715Y-122565854D02*
X144740923Y-122565854D01*
X144740923Y-122565854D02*
X145518740Y-122565854D01*
X141504193Y-105150248D02*
X144285830Y-107931885D01*
X144285830Y-107931885D02*
X150831885Y-107931885D01*
X150831885Y-107931885D02*
X152150000Y-109250000D01*
X152150000Y-109250000D02*
X152150000Y-116795583D01*
X152150000Y-116795583D02*
X151265583Y-117680000D01*
X151265583Y-117680000D02*
X150160000Y-117680000D01*
X139470000Y-105120000D02*
X139470000Y-118229908D01*
X141452675Y-120212583D02*
X147612583Y-120212583D01*
X139470000Y-118229908D02*
X141452675Y-120212583D01*
X147612583Y-120212583D02*
X147620000Y-120220000D01*
X150160000Y-120220000D02*
X151379052Y-120220000D01*
X151379052Y-120220000D02*
X153106896Y-118492156D01*
X153106896Y-118492156D02*
X153106896Y-108506896D01*
X153106896Y-108506896D02*
X151577170Y-106977170D01*
X151577170Y-106977170D02*
X145464468Y-106977170D01*
X145464468Y-106977170D02*
X141826154Y-103338856D01*
X141826154Y-103338856D02*
X141826154Y-102574730D01*
X147620000Y-122760000D02*
X147537083Y-122760000D01*
X138109000Y-118666044D02*
X138109000Y-103924345D01*
X147537083Y-122760000D02*
X146119896Y-121342813D01*
X146119896Y-121342813D02*
X140785769Y-121342813D01*
X140785769Y-121342813D02*
X138109000Y-118666044D01*
X138109000Y-103924345D02*
X138109000Y-103146528D01*
X150160000Y-122760000D02*
X150160000Y-123272807D01*
X150160000Y-123272807D02*
X149001298Y-124431509D01*
X133807610Y-104654004D02*
X133807610Y-103876187D01*
X149001298Y-124431509D02*
X140492084Y-124431509D01*
X140492084Y-124431509D02*
X133807610Y-117747035D01*
X133807610Y-117747035D02*
X133807610Y-104654004D01*
D24*
X112350000Y-73000000D02*
X112232752Y-73000000D01*
X112232752Y-73000000D02*
X111759480Y-73473272D01*
X111759480Y-73473272D02*
X111759480Y-83271115D01*
X111759480Y-83271115D02*
X111739770Y-83290825D01*
D23*
X111746340Y-83297395D02*
X111739770Y-83290825D01*
X111746340Y-84079221D02*
X111746340Y-83297395D01*
X112350000Y-73000000D02*
X113100000Y-73000000D01*
D25*
X125590000Y-100930000D02*
X127617108Y-100930000D01*
X123840000Y-100150000D02*
X124810000Y-100150000D01*
X124810000Y-100150000D02*
X125590000Y-100930000D01*
D28*
X123070000Y-100180000D02*
X123810000Y-100180000D01*
X123810000Y-100180000D02*
X123840000Y-100150000D01*
D25*
X127617108Y-100930000D02*
X132847108Y-95700000D01*
X132847108Y-95700000D02*
X135580000Y-95700000D01*
X135580000Y-95700000D02*
X135893548Y-95386452D01*
X135893548Y-95386452D02*
X135893548Y-94304729D01*
D30*
X133360000Y-98125002D02*
X128501485Y-102983517D01*
X128501485Y-102983517D02*
X125575529Y-102983517D01*
X125575529Y-102983517D02*
X119239046Y-109320000D01*
X119239046Y-109320000D02*
X118110000Y-109320000D01*
X134220000Y-99130000D02*
X129352172Y-103997828D01*
X118986892Y-110970000D02*
X115510000Y-110970000D01*
X129352172Y-103997828D02*
X125959064Y-103997828D01*
X125959064Y-103997828D02*
X118986892Y-110970000D01*
D28*
X170500000Y-87240000D02*
X170217821Y-86957821D01*
X154967162Y-97072120D02*
X137857937Y-97072120D01*
X170217821Y-86957821D02*
X165081461Y-86957821D01*
X165081461Y-86957821D02*
X154967162Y-97072120D01*
X137857937Y-97072120D02*
X136697116Y-98232941D01*
X136697116Y-98232941D02*
X136697116Y-100197996D01*
X136697116Y-100197996D02*
X136732123Y-100233003D01*
X136732123Y-100233003D02*
X136742891Y-100233003D01*
D25*
X170500000Y-87240000D02*
X170140000Y-87240000D01*
X170140000Y-87240000D02*
X169900000Y-87000000D01*
D28*
X166503529Y-89820784D02*
X166302323Y-89619578D01*
X138528563Y-97970000D02*
X138282948Y-98215615D01*
X166302323Y-89619578D02*
X164740315Y-89619578D01*
X164740315Y-89619578D02*
X156389893Y-97970000D01*
X156389893Y-97970000D02*
X138528563Y-97970000D01*
X138282948Y-98215615D02*
X137732949Y-98765614D01*
D23*
X166503529Y-89820784D02*
X166503529Y-89084583D01*
X166503529Y-89084583D02*
X166498582Y-89079636D01*
D28*
X144583416Y-101241509D02*
X159811129Y-101241509D01*
X159811129Y-101241509D02*
X161793332Y-103223712D01*
X161793332Y-103223712D02*
X161793332Y-108650000D01*
D25*
X123070000Y-101900000D02*
X127911961Y-101900000D01*
X122350000Y-101900000D02*
X123070000Y-101900000D01*
X136947986Y-94221364D02*
X136947986Y-93443547D01*
X136947986Y-95351730D02*
X136947986Y-94221364D01*
X127911961Y-101900000D02*
X133497006Y-96314955D01*
X135984761Y-96314955D02*
X136947986Y-95351730D01*
X133497006Y-96314955D02*
X135984761Y-96314955D01*
D28*
X138711084Y-99748903D02*
X139432170Y-100469989D01*
X139432170Y-100469989D02*
X143340011Y-100469989D01*
X143760000Y-100050000D02*
X166306747Y-100050000D01*
X143340011Y-100469989D02*
X143760000Y-100050000D01*
X166306747Y-100050000D02*
X168488547Y-102231800D01*
X168488547Y-102231800D02*
X168488547Y-104832065D01*
X168488547Y-104832065D02*
X168476991Y-104843621D01*
D26*
X170488260Y-104061326D02*
X170488260Y-104839143D01*
X170488260Y-104003260D02*
X170488260Y-104061326D01*
X170470000Y-103985000D02*
X170488260Y-104003260D01*
D28*
X142416108Y-98969980D02*
X141866109Y-99519979D01*
X170470000Y-101570000D02*
X167869980Y-98969980D01*
X170470000Y-103985000D02*
X170470000Y-101570000D01*
X167869980Y-98969980D02*
X142416108Y-98969980D01*
D24*
X173300000Y-77550000D02*
X173300000Y-76680000D01*
X173030000Y-85380000D02*
X173030000Y-77820000D01*
X173030000Y-77820000D02*
X173300000Y-77550000D01*
X173080000Y-86060000D02*
X173080000Y-85430000D01*
X173080000Y-85430000D02*
X173030000Y-85380000D01*
D28*
X155660000Y-77550000D02*
X154846719Y-77550000D01*
X154846719Y-77550000D02*
X153693540Y-78703179D01*
X152805913Y-82418102D02*
X131798924Y-82418102D01*
X153693540Y-78703179D02*
X153693540Y-81530475D01*
X131798924Y-82418102D02*
X129741046Y-84475980D01*
X131397435Y-95757360D02*
X131438487Y-95798412D01*
X153693540Y-81530475D02*
X152805913Y-82418102D01*
X129741046Y-84475980D02*
X129741046Y-95049990D01*
X129741046Y-95049990D02*
X130448416Y-95757360D01*
X130448416Y-95757360D02*
X131397435Y-95757360D01*
D10*
G36*
X103962732Y-94437268D02*
X104150000Y-94811803D01*
X104150000Y-95779290D01*
X103579290Y-96350000D01*
X102564039Y-96350000D01*
X103042930Y-94434437D01*
X103411803Y-94250000D01*
X103588197Y-94250000D01*
X103962732Y-94437268D01*
X103962732Y-94437268D01*
G37*
X103962732Y-94437268D02*
X104150000Y-94811803D01*
X104150000Y-95779290D01*
X103579290Y-96350000D01*
X102564039Y-96350000D01*
X103042930Y-94434437D01*
X103411803Y-94250000D01*
X103588197Y-94250000D01*
X103962732Y-94437268D01*
G36*
X155876062Y-80744725D02*
X156750000Y-81424455D01*
X156750000Y-82374269D01*
X156071596Y-82858843D01*
X155784861Y-83050000D01*
X155608113Y-83050000D01*
X155332087Y-82957991D01*
X155150000Y-82684861D01*
X155150000Y-81015140D01*
X155332087Y-80742009D01*
X155600000Y-80652704D01*
X155876062Y-80744725D01*
X155876062Y-80744725D01*
G37*
X155876062Y-80744725D02*
X156750000Y-81424455D01*
X156750000Y-82374269D01*
X156071596Y-82858843D01*
X155784861Y-83050000D01*
X155608113Y-83050000D01*
X155332087Y-82957991D01*
X155150000Y-82684861D01*
X155150000Y-81015140D01*
X155332087Y-80742009D01*
X155600000Y-80652704D01*
X155876062Y-80744725D01*
D25*
G36*
X131839605Y-103511037D02*
X132233368Y-103905488D01*
X132406522Y-103977388D01*
X132406368Y-104153640D01*
X132619208Y-104668753D01*
X132756610Y-104806395D01*
X132756610Y-117747035D01*
X132836613Y-118149235D01*
X133064441Y-118490204D01*
X139748915Y-125174678D01*
X139931298Y-125296542D01*
X139833371Y-125361975D01*
X139810000Y-125396952D01*
X139786629Y-125361975D01*
X139214671Y-124979804D01*
X138540000Y-124845604D01*
X137865329Y-124979804D01*
X137293371Y-125361975D01*
X137270000Y-125396952D01*
X137246629Y-125361975D01*
X136674671Y-124979804D01*
X136000000Y-124845604D01*
X135325329Y-124979804D01*
X134753371Y-125361975D01*
X134371200Y-125933933D01*
X134237000Y-126608604D01*
X134237000Y-127391396D01*
X134371200Y-128066067D01*
X134753371Y-128638025D01*
X135325329Y-129020196D01*
X135595821Y-129074000D01*
X132127873Y-129074000D01*
X132147362Y-129070333D01*
X132437002Y-128883954D01*
X132631312Y-128599573D01*
X132699672Y-128262000D01*
X132699672Y-125738000D01*
X132640333Y-125422638D01*
X132453954Y-125132998D01*
X132271000Y-125007990D01*
X132271000Y-124109725D01*
X132320756Y-123989899D01*
X132321242Y-123432547D01*
X132260391Y-123285275D01*
X132320756Y-123139899D01*
X132321242Y-122582547D01*
X132271000Y-122460952D01*
X132271000Y-122299725D01*
X132320756Y-122179899D01*
X132321242Y-121622547D01*
X132271000Y-121500952D01*
X132271000Y-108639258D01*
X132168161Y-108122253D01*
X132084188Y-107996578D01*
X131875302Y-107683957D01*
X129709977Y-105518633D01*
X129442626Y-105251282D01*
X129393079Y-105131369D01*
X129260769Y-104998828D01*
X129352172Y-104998828D01*
X129735238Y-104922631D01*
X130059986Y-104705642D01*
X131668558Y-103097070D01*
X131839605Y-103511037D01*
X131839605Y-103511037D01*
G37*
X131839605Y-103511037D02*
X132233368Y-103905488D01*
X132406522Y-103977388D01*
X132406368Y-104153640D01*
X132619208Y-104668753D01*
X132756610Y-104806395D01*
X132756610Y-117747035D01*
X132836613Y-118149235D01*
X133064441Y-118490204D01*
X139748915Y-125174678D01*
X139931298Y-125296542D01*
X139833371Y-125361975D01*
X139810000Y-125396952D01*
X139786629Y-125361975D01*
X139214671Y-124979804D01*
X138540000Y-124845604D01*
X137865329Y-124979804D01*
X137293371Y-125361975D01*
X137270000Y-125396952D01*
X137246629Y-125361975D01*
X136674671Y-124979804D01*
X136000000Y-124845604D01*
X135325329Y-124979804D01*
X134753371Y-125361975D01*
X134371200Y-125933933D01*
X134237000Y-126608604D01*
X134237000Y-127391396D01*
X134371200Y-128066067D01*
X134753371Y-128638025D01*
X135325329Y-129020196D01*
X135595821Y-129074000D01*
X132127873Y-129074000D01*
X132147362Y-129070333D01*
X132437002Y-128883954D01*
X132631312Y-128599573D01*
X132699672Y-128262000D01*
X132699672Y-125738000D01*
X132640333Y-125422638D01*
X132453954Y-125132998D01*
X132271000Y-125007990D01*
X132271000Y-124109725D01*
X132320756Y-123989899D01*
X132321242Y-123432547D01*
X132260391Y-123285275D01*
X132320756Y-123139899D01*
X132321242Y-122582547D01*
X132271000Y-122460952D01*
X132271000Y-122299725D01*
X132320756Y-122179899D01*
X132321242Y-121622547D01*
X132271000Y-121500952D01*
X132271000Y-108639258D01*
X132168161Y-108122253D01*
X132084188Y-107996578D01*
X131875302Y-107683957D01*
X129709977Y-105518633D01*
X129442626Y-105251282D01*
X129393079Y-105131369D01*
X129260769Y-104998828D01*
X129352172Y-104998828D01*
X129735238Y-104922631D01*
X130059986Y-104705642D01*
X131668558Y-103097070D01*
X131839605Y-103511037D01*
G36*
X152851084Y-78108604D02*
X152722543Y-78300979D01*
X152683762Y-78495942D01*
X152623954Y-78402998D01*
X152339573Y-78208688D01*
X152002000Y-78140328D01*
X150178000Y-78140328D01*
X149862638Y-78199667D01*
X149572998Y-78386046D01*
X149378688Y-78670427D01*
X149310328Y-79008000D01*
X149310328Y-81367102D01*
X147618063Y-81367102D01*
X147638800Y-81336067D01*
X147773000Y-80661396D01*
X147773000Y-79878604D01*
X147638800Y-79203933D01*
X147256629Y-78631975D01*
X146684671Y-78249804D01*
X146010000Y-78115604D01*
X145335329Y-78249804D01*
X144763371Y-78631975D01*
X144740000Y-78666952D01*
X144716629Y-78631975D01*
X144144671Y-78249804D01*
X143470000Y-78115604D01*
X142795329Y-78249804D01*
X142223371Y-78631975D01*
X141841200Y-79203933D01*
X141707000Y-79878604D01*
X141707000Y-80661396D01*
X141841200Y-81336067D01*
X141861937Y-81367102D01*
X131877929Y-81367102D01*
X134962332Y-78282699D01*
X139300000Y-78282699D01*
X139702200Y-78202696D01*
X140043169Y-77974868D01*
X141119175Y-76898862D01*
X147300000Y-76898862D01*
X147702200Y-76818859D01*
X148043169Y-76591031D01*
X149083169Y-75551031D01*
X149310997Y-75210062D01*
X149391000Y-74807862D01*
X149391000Y-74686823D01*
X149551274Y-74579731D01*
X149922606Y-74023994D01*
X150053000Y-73368457D01*
X150053000Y-72791543D01*
X149922606Y-72136006D01*
X149551274Y-71580269D01*
X148995537Y-71208937D01*
X148340000Y-71078543D01*
X147684463Y-71208937D01*
X147128726Y-71580269D01*
X147070000Y-71668159D01*
X147011274Y-71580269D01*
X146455537Y-71208937D01*
X145800000Y-71078543D01*
X145144463Y-71208937D01*
X144588726Y-71580269D01*
X144530000Y-71668159D01*
X144471274Y-71580269D01*
X143915537Y-71208937D01*
X143260000Y-71078543D01*
X142604463Y-71208937D01*
X142048726Y-71580269D01*
X141990000Y-71668159D01*
X141931274Y-71580269D01*
X141375537Y-71208937D01*
X140720000Y-71078543D01*
X140064463Y-71208937D01*
X139508726Y-71580269D01*
X139450000Y-71668159D01*
X139391274Y-71580269D01*
X138835537Y-71208937D01*
X138180000Y-71078543D01*
X137524463Y-71208937D01*
X136968726Y-71580269D01*
X136910000Y-71668159D01*
X136851274Y-71580269D01*
X136295537Y-71208937D01*
X135640000Y-71078543D01*
X134984463Y-71208937D01*
X134428726Y-71580269D01*
X134370000Y-71668159D01*
X134311274Y-71580269D01*
X133755537Y-71208937D01*
X133100000Y-71078543D01*
X132444463Y-71208937D01*
X131888726Y-71580269D01*
X131517394Y-72136006D01*
X131387000Y-72791543D01*
X131387000Y-73368457D01*
X131517394Y-74023994D01*
X131888726Y-74579731D01*
X131903835Y-74589827D01*
X125470625Y-81023037D01*
X125242797Y-81364006D01*
X125162794Y-81766206D01*
X125162794Y-97452453D01*
X125026777Y-97588233D01*
X124813038Y-98102973D01*
X124812552Y-98660325D01*
X125025392Y-99175438D01*
X125074476Y-99224608D01*
X124851540Y-99180263D01*
X124634639Y-98962983D01*
X124119899Y-98749244D01*
X123562547Y-98748758D01*
X123419161Y-98808004D01*
X123349899Y-98779244D01*
X122792547Y-98778758D01*
X122277434Y-98991598D01*
X121930511Y-99337916D01*
X121930511Y-90039387D01*
X121986919Y-89983077D01*
X122200658Y-89468337D01*
X122201144Y-88910985D01*
X121988304Y-88395872D01*
X121594541Y-88001421D01*
X121079801Y-87787682D01*
X120522449Y-87787196D01*
X120307524Y-87876001D01*
X120262626Y-87857358D01*
X119705274Y-87856872D01*
X119190161Y-88069712D01*
X118795710Y-88463475D01*
X118581971Y-88978215D01*
X118581485Y-89535567D01*
X118794325Y-90050680D01*
X119188088Y-90445131D01*
X119226235Y-90460971D01*
X119228511Y-90466480D01*
X119228511Y-105498262D01*
X119166245Y-105523990D01*
X119061199Y-105628853D01*
X118952547Y-105628758D01*
X118437434Y-105841598D01*
X118075419Y-106202982D01*
X118045033Y-106172543D01*
X117934022Y-106126447D01*
X117888797Y-106016995D01*
X117495034Y-105622544D01*
X117373525Y-105572089D01*
X117346135Y-105544699D01*
X116907839Y-105251839D01*
X116390834Y-105149000D01*
X108152732Y-105149000D01*
X108146959Y-105147852D01*
X108029899Y-105099244D01*
X107902032Y-105099133D01*
X107650000Y-105049000D01*
X107399725Y-105049000D01*
X107279899Y-104999244D01*
X106722547Y-104998758D01*
X106600952Y-105049000D01*
X104316477Y-105049000D01*
X104316477Y-96887019D01*
X104801748Y-96401748D01*
X104983953Y-96131087D01*
X105051000Y-95800000D01*
X105051000Y-94800000D01*
X104961158Y-94419421D01*
X104761158Y-94019421D01*
X104646727Y-93846877D01*
X104380579Y-93638842D01*
X104304675Y-93600890D01*
X104299473Y-93595679D01*
X104268681Y-93582893D01*
X103980579Y-93438842D01*
X103844281Y-93406667D01*
X103784733Y-93381940D01*
X103739369Y-93381900D01*
X103600000Y-93349000D01*
X103400000Y-93349000D01*
X103262393Y-93381485D01*
X103227381Y-93381454D01*
X103180546Y-93400806D01*
X103019421Y-93438842D01*
X102619421Y-93638842D01*
X102319754Y-93888662D01*
X102174409Y-94193602D01*
X101858906Y-95455613D01*
X101717316Y-95667518D01*
X101614477Y-96184523D01*
X101614477Y-116100275D01*
X101564721Y-116220101D01*
X101564235Y-116777453D01*
X101607563Y-116882315D01*
X101607563Y-116996628D01*
X101557807Y-117116454D01*
X101557321Y-117673806D01*
X101770161Y-118188919D01*
X102163924Y-118583370D01*
X102678664Y-118797109D01*
X103236016Y-118797595D01*
X103751129Y-118584755D01*
X104145580Y-118190992D01*
X104359319Y-117676252D01*
X104359805Y-117118900D01*
X104309563Y-116997305D01*
X104309563Y-116916375D01*
X104349814Y-116819438D01*
X109386720Y-116819438D01*
X109631767Y-117412498D01*
X110085116Y-117866638D01*
X110677747Y-118112720D01*
X111319438Y-118113280D01*
X111912498Y-117868233D01*
X112366638Y-117414884D01*
X112612720Y-116822253D01*
X112613280Y-116180562D01*
X112368233Y-115587502D01*
X111914884Y-115133362D01*
X111322253Y-114887280D01*
X110680562Y-114886720D01*
X110087502Y-115131767D01*
X109633362Y-115585116D01*
X109387280Y-116177747D01*
X109386720Y-116819438D01*
X104349814Y-116819438D01*
X104366233Y-116779899D01*
X104366719Y-116222547D01*
X104316477Y-116100952D01*
X104316477Y-107751000D01*
X106600275Y-107751000D01*
X106720101Y-107800756D01*
X107230346Y-107801201D01*
X107470101Y-107900756D01*
X108027453Y-107901242D01*
X108149048Y-107851000D01*
X115760432Y-107851000D01*
X115905756Y-107996578D01*
X116016767Y-108042674D01*
X116061992Y-108152126D01*
X116455755Y-108546577D01*
X116846756Y-108708935D01*
X116709244Y-109040101D01*
X116708758Y-109597453D01*
X116862278Y-109969000D01*
X116490332Y-109969000D01*
X116304639Y-109782983D01*
X115789899Y-109569244D01*
X115232547Y-109568758D01*
X114717434Y-109781598D01*
X114322983Y-110175361D01*
X114109244Y-110690101D01*
X114108758Y-111247453D01*
X114321598Y-111762566D01*
X114444532Y-111885715D01*
X110504814Y-111885715D01*
X110023749Y-111685959D01*
X109696934Y-111685674D01*
X109693033Y-111684898D01*
X109399725Y-111684898D01*
X109279899Y-111635142D01*
X108722547Y-111634656D01*
X108207434Y-111847496D01*
X107812983Y-112241259D01*
X107599244Y-112755999D01*
X107598758Y-113313351D01*
X107811598Y-113828464D01*
X108205361Y-114222915D01*
X108720101Y-114436654D01*
X109277453Y-114437140D01*
X109310177Y-114423619D01*
X109463951Y-114487471D01*
X110021303Y-114487957D01*
X110505926Y-114287715D01*
X118815958Y-114287715D01*
X119275561Y-114196294D01*
X119665193Y-113935950D01*
X122504295Y-111096848D01*
X122924795Y-110923101D01*
X123319246Y-110529338D01*
X123359536Y-110432309D01*
X123511919Y-110369346D01*
X123906370Y-109975583D01*
X124120109Y-109460843D01*
X124120595Y-108903491D01*
X123907755Y-108388378D01*
X123513992Y-107993927D01*
X123418320Y-107954200D01*
X125148224Y-106224296D01*
X125351598Y-106716501D01*
X125745361Y-107110952D01*
X126260101Y-107324691D01*
X126817453Y-107325177D01*
X126929639Y-107278823D01*
X127040101Y-107324691D01*
X127597453Y-107325177D01*
X127666703Y-107296563D01*
X127799375Y-107429235D01*
X129569000Y-109198861D01*
X129569000Y-121500275D01*
X129519244Y-121620101D01*
X129518758Y-122177453D01*
X129569000Y-122299048D01*
X129569000Y-122460275D01*
X129519244Y-122580101D01*
X129518758Y-123137453D01*
X129579609Y-123284725D01*
X129519244Y-123430101D01*
X129518758Y-123987453D01*
X129569000Y-124109048D01*
X129569000Y-125009226D01*
X129402998Y-125116046D01*
X129208688Y-125400427D01*
X129140328Y-125738000D01*
X129140328Y-128262000D01*
X129199667Y-128577362D01*
X129386046Y-128867002D01*
X129670427Y-129061312D01*
X129733082Y-129074000D01*
X94957823Y-129074000D01*
X95415551Y-128617070D01*
X95850504Y-127569587D01*
X95851493Y-126435389D01*
X95418369Y-125387148D01*
X94617070Y-124584449D01*
X93569587Y-124149496D01*
X92435389Y-124148507D01*
X91387148Y-124581631D01*
X90926000Y-125041975D01*
X90926000Y-123228026D01*
X113086720Y-123228026D01*
X113331767Y-123821086D01*
X113785116Y-124275226D01*
X114377747Y-124521308D01*
X115019438Y-124521868D01*
X115612498Y-124276821D01*
X116066638Y-123823472D01*
X116312720Y-123230841D01*
X116313280Y-122589150D01*
X116068233Y-121996090D01*
X115614884Y-121541950D01*
X115022253Y-121295868D01*
X114380562Y-121295308D01*
X113787502Y-121540355D01*
X113333362Y-121993704D01*
X113087280Y-122586335D01*
X113086720Y-123228026D01*
X90926000Y-123228026D01*
X90926000Y-105000000D01*
X93233849Y-105000000D01*
X93398498Y-105827744D01*
X93867377Y-106529472D01*
X94569105Y-106998351D01*
X95396849Y-107163000D01*
X96603151Y-107163000D01*
X97430895Y-106998351D01*
X98132623Y-106529472D01*
X98601502Y-105827744D01*
X98766151Y-105000000D01*
X98601502Y-104172256D01*
X98132623Y-103470528D01*
X97430895Y-103001649D01*
X96603151Y-102837000D01*
X95396849Y-102837000D01*
X94569105Y-103001649D01*
X93867377Y-103470528D01*
X93398498Y-104172256D01*
X93233849Y-105000000D01*
X90926000Y-105000000D01*
X90926000Y-99920000D01*
X93233849Y-99920000D01*
X93398498Y-100747744D01*
X93867377Y-101449472D01*
X94569105Y-101918351D01*
X95396849Y-102083000D01*
X96603151Y-102083000D01*
X97430895Y-101918351D01*
X98132623Y-101449472D01*
X98601502Y-100747744D01*
X98766151Y-99920000D01*
X98601502Y-99092256D01*
X98132623Y-98390528D01*
X97430895Y-97921649D01*
X96603151Y-97757000D01*
X95396849Y-97757000D01*
X94569105Y-97921649D01*
X93867377Y-98390528D01*
X93398498Y-99092256D01*
X93233849Y-99920000D01*
X90926000Y-99920000D01*
X90926000Y-93528000D01*
X93270328Y-93528000D01*
X93270328Y-96152000D01*
X93329667Y-96467362D01*
X93516046Y-96757002D01*
X93800427Y-96951312D01*
X94138000Y-97019672D01*
X97862000Y-97019672D01*
X98177362Y-96960333D01*
X98467002Y-96773954D01*
X98661312Y-96489573D01*
X98729672Y-96152000D01*
X98729672Y-93528000D01*
X98670333Y-93212638D01*
X98483954Y-92922998D01*
X98199573Y-92728688D01*
X97862000Y-92660328D01*
X94138000Y-92660328D01*
X93822638Y-92719667D01*
X93532998Y-92906046D01*
X93338688Y-93190427D01*
X93270328Y-93528000D01*
X90926000Y-93528000D01*
X90926000Y-83568278D01*
X110338528Y-83568278D01*
X110389898Y-83692603D01*
X110345584Y-83799322D01*
X110345098Y-84356674D01*
X110557938Y-84871787D01*
X110951701Y-85266238D01*
X111466441Y-85479977D01*
X112023793Y-85480463D01*
X112538906Y-85267623D01*
X112933357Y-84873860D01*
X113147096Y-84359120D01*
X113147582Y-83801768D01*
X113097340Y-83680173D01*
X113097340Y-83674727D01*
X113140526Y-83570724D01*
X113141012Y-83013372D01*
X112960480Y-82576450D01*
X112960480Y-74962605D01*
X114549000Y-74962605D01*
X114549000Y-90200000D01*
X114670869Y-90812676D01*
X115017922Y-91332078D01*
X115537324Y-91679131D01*
X116150000Y-91801000D01*
X116762676Y-91679131D01*
X117282078Y-91332078D01*
X117629131Y-90812676D01*
X117751000Y-90200000D01*
X117751000Y-80660074D01*
X122840888Y-80660074D01*
X123042038Y-80743599D01*
X123599390Y-80744085D01*
X123802712Y-80660074D01*
X123833961Y-80660074D01*
X123953787Y-80709830D01*
X124511139Y-80710316D01*
X124632734Y-80660074D01*
X124711942Y-80660074D01*
X124831768Y-80709830D01*
X125389120Y-80710316D01*
X125904233Y-80497476D01*
X126298684Y-80103713D01*
X126512423Y-79588973D01*
X126512909Y-79031621D01*
X126300069Y-78516508D01*
X126032925Y-78248898D01*
X125890023Y-77903047D01*
X125496260Y-77508596D01*
X124981520Y-77294857D01*
X124424168Y-77294371D01*
X124371245Y-77316238D01*
X124356719Y-77306532D01*
X123744043Y-77184663D01*
X117751000Y-77184663D01*
X117751000Y-75625761D01*
X119690492Y-73686269D01*
X120037545Y-73166867D01*
X120159414Y-72554191D01*
X120037545Y-71941515D01*
X119690492Y-71422113D01*
X119171090Y-71075060D01*
X118558414Y-70953191D01*
X117945738Y-71075060D01*
X117426336Y-71422113D01*
X115017922Y-73830527D01*
X114670869Y-74349929D01*
X114549000Y-74962605D01*
X112960480Y-74962605D01*
X112960480Y-74400878D01*
X113377453Y-74401242D01*
X113892566Y-74188402D01*
X114287017Y-73794639D01*
X114500756Y-73279899D01*
X114501242Y-72722547D01*
X114288402Y-72207434D01*
X113894639Y-71812983D01*
X113379899Y-71599244D01*
X112822547Y-71598758D01*
X112725398Y-71638899D01*
X112629899Y-71599244D01*
X112072547Y-71598758D01*
X111557434Y-71811598D01*
X111162983Y-72205361D01*
X111045151Y-72489131D01*
X110910245Y-72624037D01*
X110649901Y-73013669D01*
X110558480Y-73473272D01*
X110558480Y-82490469D01*
X110552753Y-82496186D01*
X110339014Y-83010926D01*
X110338528Y-83568278D01*
X90926000Y-83568278D01*
X90926000Y-74564611D01*
X91148507Y-74564611D01*
X91581631Y-75612852D01*
X92382930Y-76415551D01*
X93430413Y-76850504D01*
X94564611Y-76851493D01*
X95612852Y-76418369D01*
X96415551Y-75617070D01*
X96850504Y-74569587D01*
X96851493Y-73435389D01*
X96418369Y-72387148D01*
X95617070Y-71584449D01*
X94569587Y-71149496D01*
X93435389Y-71148507D01*
X92387148Y-71581631D01*
X91584449Y-72382930D01*
X91149496Y-73430413D01*
X91148507Y-74564611D01*
X90926000Y-74564611D01*
X90926000Y-70926000D01*
X152870497Y-70926000D01*
X152851084Y-78108604D01*
X152851084Y-78108604D01*
G37*
X152851084Y-78108604D02*
X152722543Y-78300979D01*
X152683762Y-78495942D01*
X152623954Y-78402998D01*
X152339573Y-78208688D01*
X152002000Y-78140328D01*
X150178000Y-78140328D01*
X149862638Y-78199667D01*
X149572998Y-78386046D01*
X149378688Y-78670427D01*
X149310328Y-79008000D01*
X149310328Y-81367102D01*
X147618063Y-81367102D01*
X147638800Y-81336067D01*
X147773000Y-80661396D01*
X147773000Y-79878604D01*
X147638800Y-79203933D01*
X147256629Y-78631975D01*
X146684671Y-78249804D01*
X146010000Y-78115604D01*
X145335329Y-78249804D01*
X144763371Y-78631975D01*
X144740000Y-78666952D01*
X144716629Y-78631975D01*
X144144671Y-78249804D01*
X143470000Y-78115604D01*
X142795329Y-78249804D01*
X142223371Y-78631975D01*
X141841200Y-79203933D01*
X141707000Y-79878604D01*
X141707000Y-80661396D01*
X141841200Y-81336067D01*
X141861937Y-81367102D01*
X131877929Y-81367102D01*
X134962332Y-78282699D01*
X139300000Y-78282699D01*
X139702200Y-78202696D01*
X140043169Y-77974868D01*
X141119175Y-76898862D01*
X147300000Y-76898862D01*
X147702200Y-76818859D01*
X148043169Y-76591031D01*
X149083169Y-75551031D01*
X149310997Y-75210062D01*
X149391000Y-74807862D01*
X149391000Y-74686823D01*
X149551274Y-74579731D01*
X149922606Y-74023994D01*
X150053000Y-73368457D01*
X150053000Y-72791543D01*
X149922606Y-72136006D01*
X149551274Y-71580269D01*
X148995537Y-71208937D01*
X148340000Y-71078543D01*
X147684463Y-71208937D01*
X147128726Y-71580269D01*
X147070000Y-71668159D01*
X147011274Y-71580269D01*
X146455537Y-71208937D01*
X145800000Y-71078543D01*
X145144463Y-71208937D01*
X144588726Y-71580269D01*
X144530000Y-71668159D01*
X144471274Y-71580269D01*
X143915537Y-71208937D01*
X143260000Y-71078543D01*
X142604463Y-71208937D01*
X142048726Y-71580269D01*
X141990000Y-71668159D01*
X141931274Y-71580269D01*
X141375537Y-71208937D01*
X140720000Y-71078543D01*
X140064463Y-71208937D01*
X139508726Y-71580269D01*
X139450000Y-71668159D01*
X139391274Y-71580269D01*
X138835537Y-71208937D01*
X138180000Y-71078543D01*
X137524463Y-71208937D01*
X136968726Y-71580269D01*
X136910000Y-71668159D01*
X136851274Y-71580269D01*
X136295537Y-71208937D01*
X135640000Y-71078543D01*
X134984463Y-71208937D01*
X134428726Y-71580269D01*
X134370000Y-71668159D01*
X134311274Y-71580269D01*
X133755537Y-71208937D01*
X133100000Y-71078543D01*
X132444463Y-71208937D01*
X131888726Y-71580269D01*
X131517394Y-72136006D01*
X131387000Y-72791543D01*
X131387000Y-73368457D01*
X131517394Y-74023994D01*
X131888726Y-74579731D01*
X131903835Y-74589827D01*
X125470625Y-81023037D01*
X125242797Y-81364006D01*
X125162794Y-81766206D01*
X125162794Y-97452453D01*
X125026777Y-97588233D01*
X124813038Y-98102973D01*
X124812552Y-98660325D01*
X125025392Y-99175438D01*
X125074476Y-99224608D01*
X124851540Y-99180263D01*
X124634639Y-98962983D01*
X124119899Y-98749244D01*
X123562547Y-98748758D01*
X123419161Y-98808004D01*
X123349899Y-98779244D01*
X122792547Y-98778758D01*
X122277434Y-98991598D01*
X121930511Y-99337916D01*
X121930511Y-90039387D01*
X121986919Y-89983077D01*
X122200658Y-89468337D01*
X122201144Y-88910985D01*
X121988304Y-88395872D01*
X121594541Y-88001421D01*
X121079801Y-87787682D01*
X120522449Y-87787196D01*
X120307524Y-87876001D01*
X120262626Y-87857358D01*
X119705274Y-87856872D01*
X119190161Y-88069712D01*
X118795710Y-88463475D01*
X118581971Y-88978215D01*
X118581485Y-89535567D01*
X118794325Y-90050680D01*
X119188088Y-90445131D01*
X119226235Y-90460971D01*
X119228511Y-90466480D01*
X119228511Y-105498262D01*
X119166245Y-105523990D01*
X119061199Y-105628853D01*
X118952547Y-105628758D01*
X118437434Y-105841598D01*
X118075419Y-106202982D01*
X118045033Y-106172543D01*
X117934022Y-106126447D01*
X117888797Y-106016995D01*
X117495034Y-105622544D01*
X117373525Y-105572089D01*
X117346135Y-105544699D01*
X116907839Y-105251839D01*
X116390834Y-105149000D01*
X108152732Y-105149000D01*
X108146959Y-105147852D01*
X108029899Y-105099244D01*
X107902032Y-105099133D01*
X107650000Y-105049000D01*
X107399725Y-105049000D01*
X107279899Y-104999244D01*
X106722547Y-104998758D01*
X106600952Y-105049000D01*
X104316477Y-105049000D01*
X104316477Y-96887019D01*
X104801748Y-96401748D01*
X104983953Y-96131087D01*
X105051000Y-95800000D01*
X105051000Y-94800000D01*
X104961158Y-94419421D01*
X104761158Y-94019421D01*
X104646727Y-93846877D01*
X104380579Y-93638842D01*
X104304675Y-93600890D01*
X104299473Y-93595679D01*
X104268681Y-93582893D01*
X103980579Y-93438842D01*
X103844281Y-93406667D01*
X103784733Y-93381940D01*
X103739369Y-93381900D01*
X103600000Y-93349000D01*
X103400000Y-93349000D01*
X103262393Y-93381485D01*
X103227381Y-93381454D01*
X103180546Y-93400806D01*
X103019421Y-93438842D01*
X102619421Y-93638842D01*
X102319754Y-93888662D01*
X102174409Y-94193602D01*
X101858906Y-95455613D01*
X101717316Y-95667518D01*
X101614477Y-96184523D01*
X101614477Y-116100275D01*
X101564721Y-116220101D01*
X101564235Y-116777453D01*
X101607563Y-116882315D01*
X101607563Y-116996628D01*
X101557807Y-117116454D01*
X101557321Y-117673806D01*
X101770161Y-118188919D01*
X102163924Y-118583370D01*
X102678664Y-118797109D01*
X103236016Y-118797595D01*
X103751129Y-118584755D01*
X104145580Y-118190992D01*
X104359319Y-117676252D01*
X104359805Y-117118900D01*
X104309563Y-116997305D01*
X104309563Y-116916375D01*
X104349814Y-116819438D01*
X109386720Y-116819438D01*
X109631767Y-117412498D01*
X110085116Y-117866638D01*
X110677747Y-118112720D01*
X111319438Y-118113280D01*
X111912498Y-117868233D01*
X112366638Y-117414884D01*
X112612720Y-116822253D01*
X112613280Y-116180562D01*
X112368233Y-115587502D01*
X111914884Y-115133362D01*
X111322253Y-114887280D01*
X110680562Y-114886720D01*
X110087502Y-115131767D01*
X109633362Y-115585116D01*
X109387280Y-116177747D01*
X109386720Y-116819438D01*
X104349814Y-116819438D01*
X104366233Y-116779899D01*
X104366719Y-116222547D01*
X104316477Y-116100952D01*
X104316477Y-107751000D01*
X106600275Y-107751000D01*
X106720101Y-107800756D01*
X107230346Y-107801201D01*
X107470101Y-107900756D01*
X108027453Y-107901242D01*
X108149048Y-107851000D01*
X115760432Y-107851000D01*
X115905756Y-107996578D01*
X116016767Y-108042674D01*
X116061992Y-108152126D01*
X116455755Y-108546577D01*
X116846756Y-108708935D01*
X116709244Y-109040101D01*
X116708758Y-109597453D01*
X116862278Y-109969000D01*
X116490332Y-109969000D01*
X116304639Y-109782983D01*
X115789899Y-109569244D01*
X115232547Y-109568758D01*
X114717434Y-109781598D01*
X114322983Y-110175361D01*
X114109244Y-110690101D01*
X114108758Y-111247453D01*
X114321598Y-111762566D01*
X114444532Y-111885715D01*
X110504814Y-111885715D01*
X110023749Y-111685959D01*
X109696934Y-111685674D01*
X109693033Y-111684898D01*
X109399725Y-111684898D01*
X109279899Y-111635142D01*
X108722547Y-111634656D01*
X108207434Y-111847496D01*
X107812983Y-112241259D01*
X107599244Y-112755999D01*
X107598758Y-113313351D01*
X107811598Y-113828464D01*
X108205361Y-114222915D01*
X108720101Y-114436654D01*
X109277453Y-114437140D01*
X109310177Y-114423619D01*
X109463951Y-114487471D01*
X110021303Y-114487957D01*
X110505926Y-114287715D01*
X118815958Y-114287715D01*
X119275561Y-114196294D01*
X119665193Y-113935950D01*
X122504295Y-111096848D01*
X122924795Y-110923101D01*
X123319246Y-110529338D01*
X123359536Y-110432309D01*
X123511919Y-110369346D01*
X123906370Y-109975583D01*
X124120109Y-109460843D01*
X124120595Y-108903491D01*
X123907755Y-108388378D01*
X123513992Y-107993927D01*
X123418320Y-107954200D01*
X125148224Y-106224296D01*
X125351598Y-106716501D01*
X125745361Y-107110952D01*
X126260101Y-107324691D01*
X126817453Y-107325177D01*
X126929639Y-107278823D01*
X127040101Y-107324691D01*
X127597453Y-107325177D01*
X127666703Y-107296563D01*
X127799375Y-107429235D01*
X129569000Y-109198861D01*
X129569000Y-121500275D01*
X129519244Y-121620101D01*
X129518758Y-122177453D01*
X129569000Y-122299048D01*
X129569000Y-122460275D01*
X129519244Y-122580101D01*
X129518758Y-123137453D01*
X129579609Y-123284725D01*
X129519244Y-123430101D01*
X129518758Y-123987453D01*
X129569000Y-124109048D01*
X129569000Y-125009226D01*
X129402998Y-125116046D01*
X129208688Y-125400427D01*
X129140328Y-125738000D01*
X129140328Y-128262000D01*
X129199667Y-128577362D01*
X129386046Y-128867002D01*
X129670427Y-129061312D01*
X129733082Y-129074000D01*
X94957823Y-129074000D01*
X95415551Y-128617070D01*
X95850504Y-127569587D01*
X95851493Y-126435389D01*
X95418369Y-125387148D01*
X94617070Y-124584449D01*
X93569587Y-124149496D01*
X92435389Y-124148507D01*
X91387148Y-124581631D01*
X90926000Y-125041975D01*
X90926000Y-123228026D01*
X113086720Y-123228026D01*
X113331767Y-123821086D01*
X113785116Y-124275226D01*
X114377747Y-124521308D01*
X115019438Y-124521868D01*
X115612498Y-124276821D01*
X116066638Y-123823472D01*
X116312720Y-123230841D01*
X116313280Y-122589150D01*
X116068233Y-121996090D01*
X115614884Y-121541950D01*
X115022253Y-121295868D01*
X114380562Y-121295308D01*
X113787502Y-121540355D01*
X113333362Y-121993704D01*
X113087280Y-122586335D01*
X113086720Y-123228026D01*
X90926000Y-123228026D01*
X90926000Y-105000000D01*
X93233849Y-105000000D01*
X93398498Y-105827744D01*
X93867377Y-106529472D01*
X94569105Y-106998351D01*
X95396849Y-107163000D01*
X96603151Y-107163000D01*
X97430895Y-106998351D01*
X98132623Y-106529472D01*
X98601502Y-105827744D01*
X98766151Y-105000000D01*
X98601502Y-104172256D01*
X98132623Y-103470528D01*
X97430895Y-103001649D01*
X96603151Y-102837000D01*
X95396849Y-102837000D01*
X94569105Y-103001649D01*
X93867377Y-103470528D01*
X93398498Y-104172256D01*
X93233849Y-105000000D01*
X90926000Y-105000000D01*
X90926000Y-99920000D01*
X93233849Y-99920000D01*
X93398498Y-100747744D01*
X93867377Y-101449472D01*
X94569105Y-101918351D01*
X95396849Y-102083000D01*
X96603151Y-102083000D01*
X97430895Y-101918351D01*
X98132623Y-101449472D01*
X98601502Y-100747744D01*
X98766151Y-99920000D01*
X98601502Y-99092256D01*
X98132623Y-98390528D01*
X97430895Y-97921649D01*
X96603151Y-97757000D01*
X95396849Y-97757000D01*
X94569105Y-97921649D01*
X93867377Y-98390528D01*
X93398498Y-99092256D01*
X93233849Y-99920000D01*
X90926000Y-99920000D01*
X90926000Y-93528000D01*
X93270328Y-93528000D01*
X93270328Y-96152000D01*
X93329667Y-96467362D01*
X93516046Y-96757002D01*
X93800427Y-96951312D01*
X94138000Y-97019672D01*
X97862000Y-97019672D01*
X98177362Y-96960333D01*
X98467002Y-96773954D01*
X98661312Y-96489573D01*
X98729672Y-96152000D01*
X98729672Y-93528000D01*
X98670333Y-93212638D01*
X98483954Y-92922998D01*
X98199573Y-92728688D01*
X97862000Y-92660328D01*
X94138000Y-92660328D01*
X93822638Y-92719667D01*
X93532998Y-92906046D01*
X93338688Y-93190427D01*
X93270328Y-93528000D01*
X90926000Y-93528000D01*
X90926000Y-83568278D01*
X110338528Y-83568278D01*
X110389898Y-83692603D01*
X110345584Y-83799322D01*
X110345098Y-84356674D01*
X110557938Y-84871787D01*
X110951701Y-85266238D01*
X111466441Y-85479977D01*
X112023793Y-85480463D01*
X112538906Y-85267623D01*
X112933357Y-84873860D01*
X113147096Y-84359120D01*
X113147582Y-83801768D01*
X113097340Y-83680173D01*
X113097340Y-83674727D01*
X113140526Y-83570724D01*
X113141012Y-83013372D01*
X112960480Y-82576450D01*
X112960480Y-74962605D01*
X114549000Y-74962605D01*
X114549000Y-90200000D01*
X114670869Y-90812676D01*
X115017922Y-91332078D01*
X115537324Y-91679131D01*
X116150000Y-91801000D01*
X116762676Y-91679131D01*
X117282078Y-91332078D01*
X117629131Y-90812676D01*
X117751000Y-90200000D01*
X117751000Y-80660074D01*
X122840888Y-80660074D01*
X123042038Y-80743599D01*
X123599390Y-80744085D01*
X123802712Y-80660074D01*
X123833961Y-80660074D01*
X123953787Y-80709830D01*
X124511139Y-80710316D01*
X124632734Y-80660074D01*
X124711942Y-80660074D01*
X124831768Y-80709830D01*
X125389120Y-80710316D01*
X125904233Y-80497476D01*
X126298684Y-80103713D01*
X126512423Y-79588973D01*
X126512909Y-79031621D01*
X126300069Y-78516508D01*
X126032925Y-78248898D01*
X125890023Y-77903047D01*
X125496260Y-77508596D01*
X124981520Y-77294857D01*
X124424168Y-77294371D01*
X124371245Y-77316238D01*
X124356719Y-77306532D01*
X123744043Y-77184663D01*
X117751000Y-77184663D01*
X117751000Y-75625761D01*
X119690492Y-73686269D01*
X120037545Y-73166867D01*
X120159414Y-72554191D01*
X120037545Y-71941515D01*
X119690492Y-71422113D01*
X119171090Y-71075060D01*
X118558414Y-70953191D01*
X117945738Y-71075060D01*
X117426336Y-71422113D01*
X115017922Y-73830527D01*
X114670869Y-74349929D01*
X114549000Y-74962605D01*
X112960480Y-74962605D01*
X112960480Y-74400878D01*
X113377453Y-74401242D01*
X113892566Y-74188402D01*
X114287017Y-73794639D01*
X114500756Y-73279899D01*
X114501242Y-72722547D01*
X114288402Y-72207434D01*
X113894639Y-71812983D01*
X113379899Y-71599244D01*
X112822547Y-71598758D01*
X112725398Y-71638899D01*
X112629899Y-71599244D01*
X112072547Y-71598758D01*
X111557434Y-71811598D01*
X111162983Y-72205361D01*
X111045151Y-72489131D01*
X110910245Y-72624037D01*
X110649901Y-73013669D01*
X110558480Y-73473272D01*
X110558480Y-82490469D01*
X110552753Y-82496186D01*
X110339014Y-83010926D01*
X110338528Y-83568278D01*
X90926000Y-83568278D01*
X90926000Y-74564611D01*
X91148507Y-74564611D01*
X91581631Y-75612852D01*
X92382930Y-76415551D01*
X93430413Y-76850504D01*
X94564611Y-76851493D01*
X95612852Y-76418369D01*
X96415551Y-75617070D01*
X96850504Y-74569587D01*
X96851493Y-73435389D01*
X96418369Y-72387148D01*
X95617070Y-71584449D01*
X94569587Y-71149496D01*
X93435389Y-71148507D01*
X92387148Y-71581631D01*
X91584449Y-72382930D01*
X91149496Y-73430413D01*
X91148507Y-74564611D01*
X90926000Y-74564611D01*
X90926000Y-70926000D01*
X152870497Y-70926000D01*
X152851084Y-78108604D01*
G36*
X156873000Y-129074000D02*
X144024179Y-129074000D01*
X144294671Y-129020196D01*
X144866629Y-128638025D01*
X145248800Y-128066067D01*
X145383000Y-127391396D01*
X145383000Y-126608604D01*
X145248800Y-125933933D01*
X144947167Y-125482509D01*
X149001298Y-125482509D01*
X149403498Y-125402506D01*
X149744467Y-125174678D01*
X150445895Y-124473250D01*
X150499242Y-124473297D01*
X151129069Y-124213058D01*
X151611364Y-123731604D01*
X151872702Y-123102232D01*
X151873297Y-122420758D01*
X151613058Y-121790931D01*
X151312549Y-121489898D01*
X151569847Y-121233048D01*
X151781252Y-121190997D01*
X152122221Y-120963169D01*
X153850065Y-119235326D01*
X154077893Y-118894357D01*
X154091166Y-118827627D01*
X154157896Y-118492156D01*
X154157896Y-108506896D01*
X154077893Y-108104696D01*
X153850065Y-107763727D01*
X153213338Y-107127000D01*
X156873000Y-107127000D01*
X156873000Y-129074000D01*
X156873000Y-129074000D01*
G37*
X156873000Y-129074000D02*
X144024179Y-129074000D01*
X144294671Y-129020196D01*
X144866629Y-128638025D01*
X145248800Y-128066067D01*
X145383000Y-127391396D01*
X145383000Y-126608604D01*
X145248800Y-125933933D01*
X144947167Y-125482509D01*
X149001298Y-125482509D01*
X149403498Y-125402506D01*
X149744467Y-125174678D01*
X150445895Y-124473250D01*
X150499242Y-124473297D01*
X151129069Y-124213058D01*
X151611364Y-123731604D01*
X151872702Y-123102232D01*
X151873297Y-122420758D01*
X151613058Y-121790931D01*
X151312549Y-121489898D01*
X151569847Y-121233048D01*
X151781252Y-121190997D01*
X152122221Y-120963169D01*
X153850065Y-119235326D01*
X154077893Y-118894357D01*
X154091166Y-118827627D01*
X154157896Y-118492156D01*
X154157896Y-108506896D01*
X154077893Y-108104696D01*
X153850065Y-107763727D01*
X153213338Y-107127000D01*
X156873000Y-107127000D01*
X156873000Y-129074000D01*
G36*
X140709554Y-106337265D02*
X141224294Y-106551004D01*
X141418781Y-106551174D01*
X143542661Y-108675054D01*
X143883630Y-108902882D01*
X144285830Y-108982885D01*
X150396547Y-108982885D01*
X151099000Y-109685338D01*
X151099000Y-113675098D01*
X150502232Y-113427298D01*
X149820758Y-113426703D01*
X149190931Y-113686942D01*
X148708636Y-114168396D01*
X148447298Y-114797768D01*
X148446703Y-115479242D01*
X148706942Y-116109069D01*
X149007451Y-116410102D01*
X148889898Y-116527451D01*
X148591604Y-116228636D01*
X147962232Y-115967298D01*
X147280758Y-115966703D01*
X146650931Y-116226942D01*
X146168636Y-116708396D01*
X145907298Y-117337768D01*
X145906703Y-118019242D01*
X146166942Y-118649069D01*
X146467451Y-118950102D01*
X146255601Y-119161583D01*
X141888013Y-119161583D01*
X140521000Y-117794570D01*
X140521000Y-106148382D01*
X140709554Y-106337265D01*
X140709554Y-106337265D01*
G37*
X140709554Y-106337265D02*
X141224294Y-106551004D01*
X141418781Y-106551174D01*
X143542661Y-108675054D01*
X143883630Y-108902882D01*
X144285830Y-108982885D01*
X150396547Y-108982885D01*
X151099000Y-109685338D01*
X151099000Y-113675098D01*
X150502232Y-113427298D01*
X149820758Y-113426703D01*
X149190931Y-113686942D01*
X148708636Y-114168396D01*
X148447298Y-114797768D01*
X148446703Y-115479242D01*
X148706942Y-116109069D01*
X149007451Y-116410102D01*
X148889898Y-116527451D01*
X148591604Y-116228636D01*
X147962232Y-115967298D01*
X147280758Y-115966703D01*
X146650931Y-116226942D01*
X146168636Y-116708396D01*
X145907298Y-117337768D01*
X145906703Y-118019242D01*
X146166942Y-118649069D01*
X146467451Y-118950102D01*
X146255601Y-119161583D01*
X141888013Y-119161583D01*
X140521000Y-117794570D01*
X140521000Y-106148382D01*
X140709554Y-106337265D01*
G36*
X136614896Y-105011760D02*
X137058000Y-105012146D01*
X137058000Y-117824801D01*
X136191784Y-116958585D01*
X136191784Y-104836068D01*
X136614896Y-105011760D01*
X136614896Y-105011760D01*
G37*
X136614896Y-105011760D02*
X137058000Y-105012146D01*
X137058000Y-117824801D01*
X136191784Y-116958585D01*
X136191784Y-104836068D01*
X136614896Y-105011760D01*
G36*
X152773844Y-106687506D02*
X152320339Y-106234001D01*
X151979370Y-106006173D01*
X151577170Y-105926170D01*
X145899806Y-105926170D01*
X144389710Y-104416074D01*
X144769079Y-104573602D01*
X145326431Y-104574088D01*
X145841544Y-104361248D01*
X146235995Y-103967485D01*
X146449734Y-103452745D01*
X146449991Y-103158000D01*
X146545899Y-103158000D01*
X146749450Y-103361551D01*
X146976275Y-103513110D01*
X147066736Y-103573554D01*
X147285914Y-103617151D01*
X147525361Y-103857017D01*
X148040101Y-104070756D01*
X148597453Y-104071242D01*
X149112566Y-103858402D01*
X149507017Y-103464639D01*
X149720756Y-102949899D01*
X149721242Y-102392547D01*
X149679907Y-102292509D01*
X152785722Y-102292509D01*
X152773844Y-106687506D01*
X152773844Y-106687506D01*
G37*
X152773844Y-106687506D02*
X152320339Y-106234001D01*
X151979370Y-106006173D01*
X151577170Y-105926170D01*
X145899806Y-105926170D01*
X144389710Y-104416074D01*
X144769079Y-104573602D01*
X145326431Y-104574088D01*
X145841544Y-104361248D01*
X146235995Y-103967485D01*
X146449734Y-103452745D01*
X146449991Y-103158000D01*
X146545899Y-103158000D01*
X146749450Y-103361551D01*
X146976275Y-103513110D01*
X147066736Y-103573554D01*
X147285914Y-103617151D01*
X147525361Y-103857017D01*
X148040101Y-104070756D01*
X148597453Y-104071242D01*
X149112566Y-103858402D01*
X149507017Y-103464639D01*
X149720756Y-102949899D01*
X149721242Y-102392547D01*
X149679907Y-102292509D01*
X152785722Y-102292509D01*
X152773844Y-106687506D01*
G36*
X152802672Y-96021120D02*
X147216397Y-96021120D01*
X147423554Y-95711087D01*
X147498000Y-95336823D01*
X147498000Y-89753291D01*
X147707017Y-89544639D01*
X147920756Y-89029899D01*
X147921242Y-88472547D01*
X147708402Y-87957434D01*
X147314639Y-87562983D01*
X146799899Y-87349244D01*
X146428000Y-87348920D01*
X146428000Y-85972886D01*
X146561677Y-85839209D01*
X146857014Y-85839467D01*
X147372127Y-85626627D01*
X147766578Y-85232864D01*
X147980317Y-84718124D01*
X147980803Y-84160772D01*
X147767963Y-83645659D01*
X147591714Y-83469102D01*
X152805913Y-83469102D01*
X152836613Y-83462995D01*
X152802672Y-96021120D01*
X152802672Y-96021120D01*
G37*
X152802672Y-96021120D02*
X147216397Y-96021120D01*
X147423554Y-95711087D01*
X147498000Y-95336823D01*
X147498000Y-89753291D01*
X147707017Y-89544639D01*
X147920756Y-89029899D01*
X147921242Y-88472547D01*
X147708402Y-87957434D01*
X147314639Y-87562983D01*
X146799899Y-87349244D01*
X146428000Y-87348920D01*
X146428000Y-85972886D01*
X146561677Y-85839209D01*
X146857014Y-85839467D01*
X147372127Y-85626627D01*
X147766578Y-85232864D01*
X147980317Y-84718124D01*
X147980803Y-84160772D01*
X147767963Y-83645659D01*
X147591714Y-83469102D01*
X152805913Y-83469102D01*
X152836613Y-83462995D01*
X152802672Y-96021120D01*
G36*
X145392544Y-83643586D02*
X145178805Y-84158326D01*
X145178545Y-84456140D01*
X144758450Y-84876236D01*
X144732991Y-84914337D01*
X144479899Y-84809244D01*
X143929366Y-84808764D01*
X143665301Y-84544699D01*
X143227005Y-84251839D01*
X142710000Y-84149000D01*
X139174406Y-84149000D01*
X138657401Y-84251839D01*
X138219105Y-84544699D01*
X137509307Y-85254497D01*
X137216447Y-85692793D01*
X137113608Y-86209798D01*
X137113608Y-87400275D01*
X137063852Y-87520101D01*
X137063366Y-88077453D01*
X137276206Y-88592566D01*
X137284227Y-88600601D01*
X137250328Y-88768000D01*
X137250328Y-90602622D01*
X136673950Y-91179000D01*
X136188889Y-91179000D01*
X136188884Y-91178999D01*
X135767549Y-91262809D01*
X135723862Y-91292000D01*
X135410359Y-91501475D01*
X135410357Y-91501478D01*
X134016987Y-92894847D01*
X132603492Y-92894847D01*
X132517625Y-92808830D01*
X132002885Y-92595091D01*
X131445533Y-92594605D01*
X131323938Y-92644847D01*
X131297301Y-92644847D01*
X131200751Y-92604756D01*
X130792046Y-92604400D01*
X130792046Y-92061478D01*
X131410000Y-92184396D01*
X132084671Y-92050196D01*
X132656629Y-91668025D01*
X132680000Y-91633048D01*
X132703371Y-91668025D01*
X133275329Y-92050196D01*
X133950000Y-92184396D01*
X134624671Y-92050196D01*
X135196629Y-91668025D01*
X135578800Y-91096067D01*
X135713000Y-90421396D01*
X135713000Y-89638604D01*
X135578800Y-88963933D01*
X135196629Y-88391975D01*
X134624671Y-88009804D01*
X133950000Y-87875604D01*
X133275329Y-88009804D01*
X132703371Y-88391975D01*
X132680000Y-88426952D01*
X132656629Y-88391975D01*
X132084671Y-88009804D01*
X131410000Y-87875604D01*
X130792046Y-87998522D01*
X130792046Y-84911318D01*
X132234262Y-83469102D01*
X145567333Y-83469102D01*
X145392544Y-83643586D01*
X145392544Y-83643586D01*
G37*
X145392544Y-83643586D02*
X145178805Y-84158326D01*
X145178545Y-84456140D01*
X144758450Y-84876236D01*
X144732991Y-84914337D01*
X144479899Y-84809244D01*
X143929366Y-84808764D01*
X143665301Y-84544699D01*
X143227005Y-84251839D01*
X142710000Y-84149000D01*
X139174406Y-84149000D01*
X138657401Y-84251839D01*
X138219105Y-84544699D01*
X137509307Y-85254497D01*
X137216447Y-85692793D01*
X137113608Y-86209798D01*
X137113608Y-87400275D01*
X137063852Y-87520101D01*
X137063366Y-88077453D01*
X137276206Y-88592566D01*
X137284227Y-88600601D01*
X137250328Y-88768000D01*
X137250328Y-90602622D01*
X136673950Y-91179000D01*
X136188889Y-91179000D01*
X136188884Y-91178999D01*
X135767549Y-91262809D01*
X135723862Y-91292000D01*
X135410359Y-91501475D01*
X135410357Y-91501478D01*
X134016987Y-92894847D01*
X132603492Y-92894847D01*
X132517625Y-92808830D01*
X132002885Y-92595091D01*
X131445533Y-92594605D01*
X131323938Y-92644847D01*
X131297301Y-92644847D01*
X131200751Y-92604756D01*
X130792046Y-92604400D01*
X130792046Y-92061478D01*
X131410000Y-92184396D01*
X132084671Y-92050196D01*
X132656629Y-91668025D01*
X132680000Y-91633048D01*
X132703371Y-91668025D01*
X133275329Y-92050196D01*
X133950000Y-92184396D01*
X134624671Y-92050196D01*
X135196629Y-91668025D01*
X135578800Y-91096067D01*
X135713000Y-90421396D01*
X135713000Y-89638604D01*
X135578800Y-88963933D01*
X135196629Y-88391975D01*
X134624671Y-88009804D01*
X133950000Y-87875604D01*
X133275329Y-88009804D01*
X132703371Y-88391975D01*
X132680000Y-88426952D01*
X132656629Y-88391975D01*
X132084671Y-88009804D01*
X131410000Y-87875604D01*
X130792046Y-87998522D01*
X130792046Y-84911318D01*
X132234262Y-83469102D01*
X145567333Y-83469102D01*
X145392544Y-83643586D01*
M02*
