G04 #@! TF.FileFunction,Legend,Top*
%FSLAX46Y46*%
G04 Gerber Fmt 4.6, Leading zero omitted, Abs format (unit mm)*
G04 Created by KiCad (PCBNEW 4.0.6) date 01/12/18 15:18:15*
%MOMM*%
%LPD*%
G01*
G04 APERTURE LIST*
%ADD10C,0.100000*%
%ADD11C,0.250000*%
%ADD12C,0.150000*%
%ADD13C,0.120000*%
%ADD14C,0.152400*%
%ADD15C,0.300000*%
%ADD16C,0.600000*%
%ADD17C,0.400000*%
%ADD18C,0.500000*%
G04 APERTURE END LIST*
D10*
D11*
X123382142Y-126160714D02*
X123382142Y-126827381D01*
X123382142Y-126255952D02*
X123429761Y-126208333D01*
X123524999Y-126160714D01*
X123667857Y-126160714D01*
X123763095Y-126208333D01*
X123810714Y-126303571D01*
X123810714Y-126827381D01*
X124286904Y-126827381D02*
X124286904Y-125827381D01*
X124715476Y-126827381D02*
X124715476Y-126303571D01*
X124667857Y-126208333D01*
X124572619Y-126160714D01*
X124429761Y-126160714D01*
X124334523Y-126208333D01*
X124286904Y-126255952D01*
X125620238Y-126827381D02*
X125620238Y-126303571D01*
X125572619Y-126208333D01*
X125477381Y-126160714D01*
X125286904Y-126160714D01*
X125191666Y-126208333D01*
X125620238Y-126779762D02*
X125525000Y-126827381D01*
X125286904Y-126827381D01*
X125191666Y-126779762D01*
X125144047Y-126684524D01*
X125144047Y-126589286D01*
X125191666Y-126494048D01*
X125286904Y-126446429D01*
X125525000Y-126446429D01*
X125620238Y-126398810D01*
X126096428Y-126160714D02*
X126096428Y-126827381D01*
X126096428Y-126255952D02*
X126144047Y-126208333D01*
X126239285Y-126160714D01*
X126382143Y-126160714D01*
X126477381Y-126208333D01*
X126525000Y-126303571D01*
X126525000Y-126827381D01*
X126858333Y-126160714D02*
X127239285Y-126160714D01*
X127001190Y-125827381D02*
X127001190Y-126684524D01*
X127048809Y-126779762D01*
X127144047Y-126827381D01*
X127239285Y-126827381D01*
X127429762Y-126160714D02*
X127810714Y-126160714D01*
X127572619Y-125827381D02*
X127572619Y-126684524D01*
X127620238Y-126779762D01*
X127715476Y-126827381D01*
X127810714Y-126827381D01*
D12*
X105235591Y-116675750D02*
X114034409Y-111595750D01*
X104600591Y-115575898D02*
X105235591Y-116675750D01*
X104600591Y-115575898D02*
X113399409Y-110495898D01*
X113399409Y-110495898D02*
X114034409Y-111595750D01*
X120557000Y-119854982D02*
G75*
G03X120557000Y-119854982I-7620000J0D01*
G01*
D13*
X108150000Y-81000000D02*
X108150000Y-82000000D01*
X109850000Y-82000000D02*
X109850000Y-81000000D01*
X106430000Y-86690000D02*
X104510000Y-86690000D01*
X99570000Y-86690000D02*
X101490000Y-86690000D01*
X107190000Y-78310000D02*
X104510000Y-78310000D01*
X98810000Y-78310000D02*
X101490000Y-78310000D01*
X107190000Y-78310000D02*
X107190000Y-85930000D01*
X107190000Y-85930000D02*
X106430000Y-86690000D01*
X99570000Y-86690000D02*
X98810000Y-85930000D01*
X98810000Y-85930000D02*
X98810000Y-78310000D01*
X148380000Y-113440000D02*
X149380000Y-113440000D01*
X149380000Y-111740000D02*
X148380000Y-111740000D01*
X124850000Y-92500000D02*
X124850000Y-91500000D01*
X123150000Y-91500000D02*
X123150000Y-92500000D01*
X122350000Y-88300000D02*
X122350000Y-95400000D01*
X118650000Y-88300000D02*
X118650000Y-95400000D01*
X122350000Y-88300000D02*
X118650000Y-88300000D01*
X139350000Y-81500000D02*
X139350000Y-80500000D01*
X137650000Y-80500000D02*
X137650000Y-81500000D01*
X127880000Y-85550000D02*
X130560000Y-85550000D01*
X136260000Y-85550000D02*
X133580000Y-85550000D01*
X135500000Y-77170000D02*
X133580000Y-77170000D01*
X128640000Y-77170000D02*
X130560000Y-77170000D01*
X127880000Y-85550000D02*
X127880000Y-77930000D01*
X127880000Y-77930000D02*
X128640000Y-77170000D01*
X135500000Y-77170000D02*
X136260000Y-77930000D01*
X136260000Y-77930000D02*
X136260000Y-85550000D01*
X110250000Y-76350000D02*
X111250000Y-76350000D01*
X111250000Y-74650000D02*
X110250000Y-74650000D01*
X148040000Y-111080000D02*
X150040000Y-111080000D01*
X150040000Y-109040000D02*
X148040000Y-109040000D01*
X145120000Y-103385477D02*
X145120000Y-104385477D01*
X146820000Y-104385477D02*
X146820000Y-103385477D01*
X142520000Y-103420000D02*
X142520000Y-104420000D01*
X144220000Y-104420000D02*
X144220000Y-103420000D01*
X149170000Y-104420000D02*
X149170000Y-103420000D01*
X147470000Y-103420000D02*
X147470000Y-104420000D01*
X104491987Y-113986122D02*
X105358013Y-113486122D01*
X104508013Y-112013878D02*
X103641987Y-112513878D01*
X109500000Y-105650000D02*
X108500000Y-105650000D01*
X108500000Y-107350000D02*
X109500000Y-107350000D01*
X101215477Y-117350000D02*
X102215477Y-117350000D01*
X102215477Y-115650000D02*
X101215477Y-115650000D01*
X132980000Y-93150000D02*
X131980000Y-93150000D01*
X131980000Y-94850000D02*
X132980000Y-94850000D01*
X134020000Y-114890000D02*
X133020000Y-114890000D01*
X133020000Y-116590000D02*
X134020000Y-116590000D01*
X139020000Y-116590000D02*
X140020000Y-116590000D01*
X140020000Y-114890000D02*
X139020000Y-114890000D01*
X149260000Y-84290000D02*
X150260000Y-84290000D01*
X150260000Y-82590000D02*
X149260000Y-82590000D01*
X130150000Y-120000000D02*
X130150000Y-121000000D01*
X131850000Y-121000000D02*
X131850000Y-120000000D01*
X144240000Y-99060000D02*
X144240000Y-98060000D01*
X142540000Y-98060000D02*
X142540000Y-99060000D01*
X127310000Y-104140000D02*
X127310000Y-105140000D01*
X129010000Y-105140000D02*
X129010000Y-104140000D01*
X124540000Y-103260000D02*
X124540000Y-105260000D01*
X126580000Y-105260000D02*
X126580000Y-103260000D01*
X157730000Y-82510000D02*
X155730000Y-82510000D01*
X155730000Y-84550000D02*
X157730000Y-84550000D01*
X157180000Y-85420000D02*
X156180000Y-85420000D01*
X156180000Y-87120000D02*
X157180000Y-87120000D01*
X120650000Y-113750000D02*
X120650000Y-114750000D01*
X122350000Y-114750000D02*
X122350000Y-113750000D01*
X126650000Y-113750000D02*
X126650000Y-114750000D01*
X128350000Y-114750000D02*
X128350000Y-113750000D01*
X172450000Y-72290000D02*
X172450000Y-73290000D01*
X174150000Y-73290000D02*
X174150000Y-72290000D01*
X97650000Y-83100000D02*
X94350000Y-83100000D01*
X94350000Y-83100000D02*
X94350000Y-88500000D01*
X97650000Y-83100000D02*
X97650000Y-88500000D01*
X120200000Y-72300000D02*
X120200000Y-73700000D01*
X120200000Y-73700000D02*
X123000000Y-73700000D01*
X120200000Y-72300000D02*
X123000000Y-72300000D01*
X117800000Y-83350000D02*
X117800000Y-87650000D01*
X117800000Y-87650000D02*
X125100000Y-87650000D01*
X117800000Y-83350000D02*
X125100000Y-83350000D01*
D12*
X102050000Y-118968751D02*
X102150000Y-118968751D01*
X101150000Y-118968751D02*
X100950000Y-118968751D01*
X101150000Y-118368751D02*
X102050000Y-118968751D01*
X101150000Y-119568751D02*
X101150000Y-118368751D01*
X102050000Y-118968751D02*
X101150000Y-119568751D01*
X102050000Y-119568751D02*
X102050000Y-118368751D01*
X103950000Y-120068751D02*
X99150000Y-120068751D01*
X103950000Y-117868751D02*
X103950000Y-120068751D01*
X103450000Y-117868751D02*
X103950000Y-117868751D01*
X99150000Y-117868751D02*
X99650000Y-117868751D01*
X99150000Y-120068751D02*
X99150000Y-117868751D01*
X99650000Y-117868751D02*
X103450000Y-117868751D01*
D13*
X168420000Y-108220000D02*
X167020000Y-108220000D01*
X167020000Y-108220000D02*
X167020000Y-111020000D01*
X168420000Y-108220000D02*
X168420000Y-111020000D01*
X140445782Y-93271704D02*
X140445782Y-94671704D01*
X140445782Y-94671704D02*
X143245782Y-94671704D01*
X140445782Y-93271704D02*
X143245782Y-93271704D01*
D12*
X91400000Y-102460000D02*
X90300000Y-102460000D01*
X91500000Y-91780000D02*
X91500000Y-113140000D01*
X90200000Y-91780000D02*
X90200000Y-113140000D01*
X101800000Y-91780000D02*
X90200000Y-91780000D01*
X90200000Y-113140000D02*
X101800000Y-113140000D01*
X101800000Y-113140000D02*
X101800000Y-91780000D01*
D13*
X129599200Y-129641600D02*
X144940800Y-129692400D01*
X144940800Y-129692400D02*
X144940800Y-123698000D01*
X144940800Y-123698000D02*
X129599200Y-123748800D01*
X129599200Y-129641600D02*
X129599200Y-123748800D01*
D12*
X90682540Y-114104399D02*
X90682540Y-123807293D01*
X97087540Y-114142500D02*
X97087540Y-122664700D01*
X97087540Y-123832600D02*
X90682540Y-123832600D01*
X97087540Y-123832600D02*
X97087540Y-115132600D01*
X90677249Y-114117100D02*
X97001900Y-114117100D01*
D13*
X137760000Y-88630000D02*
X130080000Y-88630000D01*
X130080000Y-88630000D02*
X130080000Y-91430000D01*
X130080000Y-91430000D02*
X137760000Y-91430000D01*
X137760000Y-91430000D02*
X137760000Y-88630000D01*
X139030000Y-88630000D02*
X140360000Y-88630000D01*
X140360000Y-88630000D02*
X140360000Y-90030000D01*
X131770000Y-71750000D02*
X131770000Y-74410000D01*
X149610000Y-71750000D02*
X131770000Y-71750000D01*
X149610000Y-74410000D02*
X131770000Y-74410000D01*
X149610000Y-71750000D02*
X149610000Y-74410000D01*
X150880000Y-71750000D02*
X152210000Y-71750000D01*
X152210000Y-71750000D02*
X152210000Y-73080000D01*
X149820000Y-78870000D02*
X142140000Y-78870000D01*
X142140000Y-78870000D02*
X142140000Y-81670000D01*
X142140000Y-81670000D02*
X149820000Y-81670000D01*
X149820000Y-81670000D02*
X149820000Y-78870000D01*
X151090000Y-78870000D02*
X152420000Y-78870000D01*
X152420000Y-78870000D02*
X152420000Y-80270000D01*
D12*
X125900000Y-82500000D02*
X118000000Y-82500000D01*
X125900000Y-75500000D02*
X118000000Y-75500000D01*
D13*
X145070000Y-99120000D02*
X145070000Y-97920000D01*
X146830000Y-97920000D02*
X146830000Y-99120000D01*
D12*
X166100000Y-127490000D02*
X166100000Y-115990000D01*
X168100000Y-115990000D02*
X164600000Y-115990000D01*
X174600000Y-115990000D02*
X168100000Y-115990000D01*
X174600000Y-117490000D02*
X174600000Y-115990000D01*
X168100000Y-117490000D02*
X174600000Y-117490000D01*
X168100000Y-118990000D02*
X168100000Y-117490000D01*
X174600000Y-118990000D02*
X168100000Y-118990000D01*
X174600000Y-120490000D02*
X174600000Y-118990000D01*
X168100000Y-120490000D02*
X174600000Y-120490000D01*
X168100000Y-121990000D02*
X168100000Y-120490000D01*
X174600000Y-121990000D02*
X168100000Y-121990000D01*
X174600000Y-123490000D02*
X174600000Y-121990000D01*
X168100000Y-123490000D02*
X174600000Y-123490000D01*
X168100000Y-124990000D02*
X168100000Y-123490000D01*
X174600000Y-124990000D02*
X168100000Y-124990000D01*
X174600000Y-127990000D02*
X174600000Y-124990000D01*
X152200000Y-113990000D02*
X152200000Y-128990000D01*
X175700000Y-128990000D02*
X146200000Y-128990000D01*
X175700000Y-113990000D02*
X175700000Y-128990000D01*
X146200000Y-113990000D02*
X175700000Y-113990000D01*
X146200000Y-113990000D02*
X146200000Y-128990000D01*
X114849760Y-100500840D02*
X114849760Y-100549100D01*
X115550800Y-103299820D02*
X114849760Y-103299820D01*
X114849760Y-103299820D02*
X114849760Y-103050900D01*
X114849760Y-100500840D02*
X114849760Y-100300180D01*
X114849760Y-100300180D02*
X115550800Y-100300180D01*
D13*
X114500000Y-87570000D02*
X112500000Y-87570000D01*
X112500000Y-85430000D02*
X114500000Y-85430000D01*
X127600000Y-73880000D02*
X126400000Y-73880000D01*
X126400000Y-72120000D02*
X127600000Y-72120000D01*
X117100000Y-73880000D02*
X115900000Y-73880000D01*
X115900000Y-72120000D02*
X117100000Y-72120000D01*
X111600000Y-73880000D02*
X110400000Y-73880000D01*
X110400000Y-72120000D02*
X111600000Y-72120000D01*
X147490000Y-99150000D02*
X147490000Y-97950000D01*
X149250000Y-97950000D02*
X149250000Y-99150000D01*
X129880000Y-98000000D02*
X129880000Y-99200000D01*
X128120000Y-99200000D02*
X128120000Y-98000000D01*
X102620000Y-97600000D02*
X102620000Y-96400000D01*
X104380000Y-96400000D02*
X104380000Y-97600000D01*
X115000000Y-106220000D02*
X116200000Y-106220000D01*
X116200000Y-107980000D02*
X115000000Y-107980000D01*
X116200000Y-99580000D02*
X115000000Y-99580000D01*
X115000000Y-97820000D02*
X116200000Y-97820000D01*
X101050000Y-126120000D02*
X102250000Y-126120000D01*
X102250000Y-127880000D02*
X101050000Y-127880000D01*
X115000000Y-103920000D02*
X116200000Y-103920000D01*
X116200000Y-105680000D02*
X115000000Y-105680000D01*
X102620000Y-103100000D02*
X102620000Y-101900000D01*
X104380000Y-101900000D02*
X104380000Y-103100000D01*
X121600000Y-105630000D02*
X120400000Y-105630000D01*
X120400000Y-103870000D02*
X121600000Y-103870000D01*
X101050000Y-123501250D02*
X102250000Y-123501250D01*
X102250000Y-125261250D02*
X101050000Y-125261250D01*
X120400000Y-101020000D02*
X121600000Y-101020000D01*
X121600000Y-102780000D02*
X120400000Y-102780000D01*
X102620000Y-108600000D02*
X102620000Y-107400000D01*
X104380000Y-107400000D02*
X104380000Y-108600000D01*
X101050000Y-120882500D02*
X102250000Y-120882500D01*
X102250000Y-122642500D02*
X101050000Y-122642500D01*
X163619998Y-110600000D02*
X163619998Y-109400000D01*
X165379998Y-109400000D02*
X165379998Y-110600000D01*
X142560000Y-85460000D02*
X142560000Y-84260000D01*
X144320000Y-84260000D02*
X144320000Y-85460000D01*
X145070000Y-85460000D02*
X145070000Y-84260000D01*
X146830000Y-84260000D02*
X146830000Y-85460000D01*
X171380000Y-83900000D02*
X171380000Y-85100000D01*
X169620000Y-85100000D02*
X169620000Y-83900000D01*
X167380000Y-83900000D02*
X167380000Y-85100000D01*
X165620000Y-85100000D02*
X165620000Y-83900000D01*
X162673332Y-109400000D02*
X162673332Y-110600000D01*
X160913332Y-110600000D02*
X160913332Y-109400000D01*
X160016666Y-109400000D02*
X160016666Y-110600000D01*
X158256666Y-110600000D02*
X158256666Y-109400000D01*
X157360000Y-109450000D02*
X157360000Y-110650000D01*
X155600000Y-110650000D02*
X155600000Y-109450000D01*
X133288750Y-121440000D02*
X133288750Y-120240000D01*
X135048750Y-120240000D02*
X135048750Y-121440000D01*
X136432500Y-121440000D02*
X136432500Y-120240000D01*
X138192500Y-120240000D02*
X138192500Y-121440000D01*
X139576250Y-121440000D02*
X139576250Y-120240000D01*
X141336250Y-120240000D02*
X141336250Y-121440000D01*
X142720000Y-121440000D02*
X142720000Y-120240000D01*
X144480000Y-120240000D02*
X144480000Y-121440000D01*
X147585782Y-94851704D02*
X146385782Y-94851704D01*
X146385782Y-93091704D02*
X147585782Y-93091704D01*
X172420000Y-79500000D02*
X172420000Y-78300000D01*
X174180000Y-78300000D02*
X174180000Y-79500000D01*
X171580000Y-79200000D02*
X171580000Y-72900000D01*
X169830000Y-79200000D02*
X167130000Y-79200000D01*
X167130000Y-72900000D02*
X169830000Y-72900000D01*
X165380000Y-79200000D02*
X165380000Y-72900000D01*
X111090000Y-89090000D02*
X111090000Y-90350000D01*
X111090000Y-95910000D02*
X111090000Y-94650000D01*
X114850000Y-89090000D02*
X111090000Y-89090000D01*
X117100000Y-95910000D02*
X111090000Y-95910000D01*
D12*
X116480000Y-78725000D02*
X116430000Y-78725000D01*
X116480000Y-82875000D02*
X116335000Y-82875000D01*
X111330000Y-82875000D02*
X111475000Y-82875000D01*
X111330000Y-78725000D02*
X111475000Y-78725000D01*
X116480000Y-78725000D02*
X116480000Y-82875000D01*
X111330000Y-78725000D02*
X111330000Y-82875000D01*
X116430000Y-78725000D02*
X116430000Y-77325000D01*
X111075000Y-105075000D02*
X111075000Y-105025000D01*
X106925000Y-105075000D02*
X106925000Y-104930000D01*
X106925000Y-99925000D02*
X106925000Y-100070000D01*
X111075000Y-99925000D02*
X111075000Y-100070000D01*
X111075000Y-105075000D02*
X106925000Y-105075000D01*
X111075000Y-99925000D02*
X106925000Y-99925000D01*
X111075000Y-105025000D02*
X112475000Y-105025000D01*
X132125000Y-104625000D02*
X132575000Y-104625000D01*
X132125000Y-97375000D02*
X132650000Y-97375000D01*
X139375000Y-97375000D02*
X138850000Y-97375000D01*
X139375000Y-104625000D02*
X138850000Y-104625000D01*
X132125000Y-104625000D02*
X132125000Y-104100000D01*
X139375000Y-104625000D02*
X139375000Y-104100000D01*
X139375000Y-97375000D02*
X139375000Y-97900000D01*
X132125000Y-97375000D02*
X132125000Y-97900000D01*
X132575000Y-104625000D02*
X132575000Y-106000000D01*
D14*
X155641000Y-88999000D02*
X154879000Y-88999000D01*
X154879000Y-88999000D02*
X154879000Y-105001000D01*
X154879000Y-105001000D02*
X155641000Y-105001000D01*
D13*
X142400000Y-108950000D02*
X129800000Y-108950000D01*
X129800000Y-108950000D02*
X129800000Y-114050000D01*
X129800000Y-114050000D02*
X142400000Y-114050000D01*
D12*
X122899800Y-114749680D02*
X122899800Y-123350120D01*
X122899800Y-123350120D02*
X126100200Y-123350120D01*
X126100200Y-123350120D02*
X126100200Y-114749680D01*
X125350900Y-114749680D02*
X126100200Y-114749680D01*
X123600840Y-114749680D02*
X122899800Y-114749680D01*
X124799720Y-114749680D02*
X124898780Y-114449960D01*
X124200280Y-114749680D02*
X124101220Y-114449960D01*
X123600840Y-114749680D02*
X125399160Y-114749680D01*
D13*
X154810000Y-72290000D02*
X154810000Y-73290000D01*
X156510000Y-73290000D02*
X156510000Y-72290000D01*
X154780000Y-79500000D02*
X154780000Y-78300000D01*
X156540000Y-78300000D02*
X156540000Y-79500000D01*
X157410000Y-72900000D02*
X157410000Y-79200000D01*
X159160000Y-72900000D02*
X161860000Y-72900000D01*
X161860000Y-79200000D02*
X159160000Y-79200000D01*
X163610000Y-72900000D02*
X163610000Y-79200000D01*
D15*
X121950000Y-125075000D02*
X122585000Y-126980000D01*
X121950000Y-125075000D02*
X121315000Y-126345000D01*
X120045000Y-125202000D02*
X121950000Y-125075000D01*
X121315000Y-123551000D02*
X121950000Y-125075000D01*
D16*
X121569000Y-123551000D02*
G75*
G03X121569000Y-123551000I-254000J0D01*
G01*
D17*
X120299000Y-125202000D02*
G75*
G03X120299000Y-125202000I-254000J0D01*
G01*
D16*
X122331000Y-125075000D02*
G75*
G03X122331000Y-125075000I-381000J0D01*
G01*
D18*
X122839000Y-126980000D02*
G75*
G03X122839000Y-126980000I-254000J0D01*
G01*
D17*
X121505500Y-126345000D02*
G75*
G03X121505500Y-126345000I-190500J0D01*
G01*
D12*
X91666667Y-127952381D02*
X91333333Y-127476190D01*
X91095238Y-127952381D02*
X91095238Y-126952381D01*
X91476191Y-126952381D01*
X91571429Y-127000000D01*
X91619048Y-127047619D01*
X91666667Y-127142857D01*
X91666667Y-127285714D01*
X91619048Y-127380952D01*
X91571429Y-127428571D01*
X91476191Y-127476190D01*
X91095238Y-127476190D01*
X92095238Y-127428571D02*
X92428572Y-127428571D01*
X92571429Y-127952381D02*
X92095238Y-127952381D01*
X92095238Y-126952381D01*
X92571429Y-126952381D01*
X93333334Y-127428571D02*
X93000000Y-127428571D01*
X93000000Y-127952381D02*
X93000000Y-126952381D01*
X93476191Y-126952381D01*
X94000000Y-126952381D02*
X94000000Y-127190476D01*
X93761905Y-127095238D02*
X94000000Y-127190476D01*
X94238096Y-127095238D01*
X93857143Y-127380952D02*
X94000000Y-127190476D01*
X94142858Y-127380952D01*
X94761905Y-126952381D02*
X94761905Y-127190476D01*
X94523810Y-127095238D02*
X94761905Y-127190476D01*
X95000001Y-127095238D01*
X94619048Y-127380952D02*
X94761905Y-127190476D01*
X94904763Y-127380952D01*
X175666667Y-127952381D02*
X175333333Y-127476190D01*
X175095238Y-127952381D02*
X175095238Y-126952381D01*
X175476191Y-126952381D01*
X175571429Y-127000000D01*
X175619048Y-127047619D01*
X175666667Y-127142857D01*
X175666667Y-127285714D01*
X175619048Y-127380952D01*
X175571429Y-127428571D01*
X175476191Y-127476190D01*
X175095238Y-127476190D01*
X176095238Y-127428571D02*
X176428572Y-127428571D01*
X176571429Y-127952381D02*
X176095238Y-127952381D01*
X176095238Y-126952381D01*
X176571429Y-126952381D01*
X177333334Y-127428571D02*
X177000000Y-127428571D01*
X177000000Y-127952381D02*
X177000000Y-126952381D01*
X177476191Y-126952381D01*
X178000000Y-126952381D02*
X178000000Y-127190476D01*
X177761905Y-127095238D02*
X178000000Y-127190476D01*
X178238096Y-127095238D01*
X177857143Y-127380952D02*
X178000000Y-127190476D01*
X178142858Y-127380952D01*
X178761905Y-126952381D02*
X178761905Y-127190476D01*
X178523810Y-127095238D02*
X178761905Y-127190476D01*
X179000001Y-127095238D01*
X178619048Y-127380952D02*
X178761905Y-127190476D01*
X178904763Y-127380952D01*
X92666667Y-74952381D02*
X92333333Y-74476190D01*
X92095238Y-74952381D02*
X92095238Y-73952381D01*
X92476191Y-73952381D01*
X92571429Y-74000000D01*
X92619048Y-74047619D01*
X92666667Y-74142857D01*
X92666667Y-74285714D01*
X92619048Y-74380952D01*
X92571429Y-74428571D01*
X92476191Y-74476190D01*
X92095238Y-74476190D01*
X93095238Y-74428571D02*
X93428572Y-74428571D01*
X93571429Y-74952381D02*
X93095238Y-74952381D01*
X93095238Y-73952381D01*
X93571429Y-73952381D01*
X94333334Y-74428571D02*
X94000000Y-74428571D01*
X94000000Y-74952381D02*
X94000000Y-73952381D01*
X94476191Y-73952381D01*
X95000000Y-73952381D02*
X95000000Y-74190476D01*
X94761905Y-74095238D02*
X95000000Y-74190476D01*
X95238096Y-74095238D01*
X94857143Y-74380952D02*
X95000000Y-74190476D01*
X95142858Y-74380952D01*
X95761905Y-73952381D02*
X95761905Y-74190476D01*
X95523810Y-74095238D02*
X95761905Y-74190476D01*
X96000001Y-74095238D01*
X95619048Y-74380952D02*
X95761905Y-74190476D01*
X95904763Y-74380952D01*
X112369002Y-118930214D02*
X112399192Y-119077742D01*
X112381761Y-119142791D01*
X112323092Y-119231649D01*
X112199374Y-119303078D01*
X112093086Y-119309457D01*
X112028037Y-119292028D01*
X111939179Y-119233358D01*
X111748703Y-118903444D01*
X112614728Y-118403444D01*
X112781395Y-118692119D01*
X112787775Y-118798407D01*
X112770345Y-118863456D01*
X112711676Y-118952314D01*
X112629197Y-118999933D01*
X112522909Y-119006313D01*
X112457861Y-118988883D01*
X112369002Y-118930214D01*
X112202335Y-118641539D01*
X113043299Y-119145751D02*
X113329014Y-119640623D01*
X112320131Y-119893187D02*
X113186156Y-119393187D01*
X112891560Y-120882931D02*
X112605846Y-120388059D01*
X112748703Y-120635494D02*
X113614728Y-120135494D01*
X113443391Y-120124444D01*
X113313294Y-120089585D01*
X113224435Y-120030916D01*
X105608334Y-76407143D02*
X105560715Y-76454762D01*
X105417858Y-76502381D01*
X105322620Y-76502381D01*
X105179762Y-76454762D01*
X105084524Y-76359524D01*
X105036905Y-76264286D01*
X104989286Y-76073810D01*
X104989286Y-75930952D01*
X105036905Y-75740476D01*
X105084524Y-75645238D01*
X105179762Y-75550000D01*
X105322620Y-75502381D01*
X105417858Y-75502381D01*
X105560715Y-75550000D01*
X105608334Y-75597619D01*
X106560715Y-76502381D02*
X105989286Y-76502381D01*
X106275000Y-76502381D02*
X106275000Y-75502381D01*
X106179762Y-75645238D01*
X106084524Y-75740476D01*
X105989286Y-75788095D01*
X109557143Y-84866666D02*
X109604762Y-84914285D01*
X109652381Y-85057142D01*
X109652381Y-85152380D01*
X109604762Y-85295238D01*
X109509524Y-85390476D01*
X109414286Y-85438095D01*
X109223810Y-85485714D01*
X109080952Y-85485714D01*
X108890476Y-85438095D01*
X108795238Y-85390476D01*
X108700000Y-85295238D01*
X108652381Y-85152380D01*
X108652381Y-85057142D01*
X108700000Y-84914285D01*
X108747619Y-84866666D01*
X108747619Y-84485714D02*
X108700000Y-84438095D01*
X108652381Y-84342857D01*
X108652381Y-84104761D01*
X108700000Y-84009523D01*
X108747619Y-83961904D01*
X108842857Y-83914285D01*
X108938095Y-83914285D01*
X109080952Y-83961904D01*
X109652381Y-84533333D01*
X109652381Y-83914285D01*
X106981429Y-87660952D02*
X106981429Y-86899047D01*
X107362381Y-87279999D02*
X106600476Y-87279999D01*
X145033334Y-112957143D02*
X144985715Y-113004762D01*
X144842858Y-113052381D01*
X144747620Y-113052381D01*
X144604762Y-113004762D01*
X144509524Y-112909524D01*
X144461905Y-112814286D01*
X144414286Y-112623810D01*
X144414286Y-112480952D01*
X144461905Y-112290476D01*
X144509524Y-112195238D01*
X144604762Y-112100000D01*
X144747620Y-112052381D01*
X144842858Y-112052381D01*
X144985715Y-112100000D01*
X145033334Y-112147619D01*
X145366667Y-112052381D02*
X145985715Y-112052381D01*
X145652381Y-112433333D01*
X145795239Y-112433333D01*
X145890477Y-112480952D01*
X145938096Y-112528571D01*
X145985715Y-112623810D01*
X145985715Y-112861905D01*
X145938096Y-112957143D01*
X145890477Y-113004762D01*
X145795239Y-113052381D01*
X145509524Y-113052381D01*
X145414286Y-113004762D01*
X145366667Y-112957143D01*
X124257143Y-95666666D02*
X124304762Y-95714285D01*
X124352381Y-95857142D01*
X124352381Y-95952380D01*
X124304762Y-96095238D01*
X124209524Y-96190476D01*
X124114286Y-96238095D01*
X123923810Y-96285714D01*
X123780952Y-96285714D01*
X123590476Y-96238095D01*
X123495238Y-96190476D01*
X123400000Y-96095238D01*
X123352381Y-95952380D01*
X123352381Y-95857142D01*
X123400000Y-95714285D01*
X123447619Y-95666666D01*
X123685714Y-94809523D02*
X124352381Y-94809523D01*
X123304762Y-95047619D02*
X124019048Y-95285714D01*
X124019048Y-94666666D01*
X120857143Y-97966666D02*
X120904762Y-98014285D01*
X120952381Y-98157142D01*
X120952381Y-98252380D01*
X120904762Y-98395238D01*
X120809524Y-98490476D01*
X120714286Y-98538095D01*
X120523810Y-98585714D01*
X120380952Y-98585714D01*
X120190476Y-98538095D01*
X120095238Y-98490476D01*
X120000000Y-98395238D01*
X119952381Y-98252380D01*
X119952381Y-98157142D01*
X120000000Y-98014285D01*
X120047619Y-97966666D01*
X119952381Y-97061904D02*
X119952381Y-97538095D01*
X120428571Y-97585714D01*
X120380952Y-97538095D01*
X120333333Y-97442857D01*
X120333333Y-97204761D01*
X120380952Y-97109523D01*
X120428571Y-97061904D01*
X120523810Y-97014285D01*
X120761905Y-97014285D01*
X120857143Y-97061904D01*
X120904762Y-97109523D01*
X120952381Y-97204761D01*
X120952381Y-97442857D01*
X120904762Y-97538095D01*
X120857143Y-97585714D01*
X139857143Y-84666666D02*
X139904762Y-84714285D01*
X139952381Y-84857142D01*
X139952381Y-84952380D01*
X139904762Y-85095238D01*
X139809524Y-85190476D01*
X139714286Y-85238095D01*
X139523810Y-85285714D01*
X139380952Y-85285714D01*
X139190476Y-85238095D01*
X139095238Y-85190476D01*
X139000000Y-85095238D01*
X138952381Y-84952380D01*
X138952381Y-84857142D01*
X139000000Y-84714285D01*
X139047619Y-84666666D01*
X138952381Y-83809523D02*
X138952381Y-84000000D01*
X139000000Y-84095238D01*
X139047619Y-84142857D01*
X139190476Y-84238095D01*
X139380952Y-84285714D01*
X139761905Y-84285714D01*
X139857143Y-84238095D01*
X139904762Y-84190476D01*
X139952381Y-84095238D01*
X139952381Y-83904761D01*
X139904762Y-83809523D01*
X139857143Y-83761904D01*
X139761905Y-83714285D01*
X139523810Y-83714285D01*
X139428571Y-83761904D01*
X139380952Y-83809523D01*
X139333333Y-83904761D01*
X139333333Y-84095238D01*
X139380952Y-84190476D01*
X139428571Y-84238095D01*
X139523810Y-84285714D01*
X138157143Y-84666666D02*
X138204762Y-84714285D01*
X138252381Y-84857142D01*
X138252381Y-84952380D01*
X138204762Y-85095238D01*
X138109524Y-85190476D01*
X138014286Y-85238095D01*
X137823810Y-85285714D01*
X137680952Y-85285714D01*
X137490476Y-85238095D01*
X137395238Y-85190476D01*
X137300000Y-85095238D01*
X137252381Y-84952380D01*
X137252381Y-84857142D01*
X137300000Y-84714285D01*
X137347619Y-84666666D01*
X137252381Y-84333333D02*
X137252381Y-83666666D01*
X138252381Y-84095238D01*
X128241429Y-76960952D02*
X128241429Y-76199047D01*
X128622381Y-76579999D02*
X127860476Y-76579999D01*
X114133334Y-75857143D02*
X114085715Y-75904762D01*
X113942858Y-75952381D01*
X113847620Y-75952381D01*
X113704762Y-75904762D01*
X113609524Y-75809524D01*
X113561905Y-75714286D01*
X113514286Y-75523810D01*
X113514286Y-75380952D01*
X113561905Y-75190476D01*
X113609524Y-75095238D01*
X113704762Y-75000000D01*
X113847620Y-74952381D01*
X113942858Y-74952381D01*
X114085715Y-75000000D01*
X114133334Y-75047619D01*
X114704762Y-75380952D02*
X114609524Y-75333333D01*
X114561905Y-75285714D01*
X114514286Y-75190476D01*
X114514286Y-75142857D01*
X114561905Y-75047619D01*
X114609524Y-75000000D01*
X114704762Y-74952381D01*
X114895239Y-74952381D01*
X114990477Y-75000000D01*
X115038096Y-75047619D01*
X115085715Y-75142857D01*
X115085715Y-75190476D01*
X115038096Y-75285714D01*
X114990477Y-75333333D01*
X114895239Y-75380952D01*
X114704762Y-75380952D01*
X114609524Y-75428571D01*
X114561905Y-75476190D01*
X114514286Y-75571429D01*
X114514286Y-75761905D01*
X114561905Y-75857143D01*
X114609524Y-75904762D01*
X114704762Y-75952381D01*
X114895239Y-75952381D01*
X114990477Y-75904762D01*
X115038096Y-75857143D01*
X115085715Y-75761905D01*
X115085715Y-75571429D01*
X115038096Y-75476190D01*
X114990477Y-75428571D01*
X114895239Y-75380952D01*
X144433334Y-110457143D02*
X144385715Y-110504762D01*
X144242858Y-110552381D01*
X144147620Y-110552381D01*
X144004762Y-110504762D01*
X143909524Y-110409524D01*
X143861905Y-110314286D01*
X143814286Y-110123810D01*
X143814286Y-109980952D01*
X143861905Y-109790476D01*
X143909524Y-109695238D01*
X144004762Y-109600000D01*
X144147620Y-109552381D01*
X144242858Y-109552381D01*
X144385715Y-109600000D01*
X144433334Y-109647619D01*
X144909524Y-110552381D02*
X145100000Y-110552381D01*
X145195239Y-110504762D01*
X145242858Y-110457143D01*
X145338096Y-110314286D01*
X145385715Y-110123810D01*
X145385715Y-109742857D01*
X145338096Y-109647619D01*
X145290477Y-109600000D01*
X145195239Y-109552381D01*
X145004762Y-109552381D01*
X144909524Y-109600000D01*
X144861905Y-109647619D01*
X144814286Y-109742857D01*
X144814286Y-109980952D01*
X144861905Y-110076190D01*
X144909524Y-110123810D01*
X145004762Y-110171429D01*
X145195239Y-110171429D01*
X145290477Y-110123810D01*
X145338096Y-110076190D01*
X145385715Y-109980952D01*
X145357143Y-107457143D02*
X145309524Y-107504762D01*
X145166667Y-107552381D01*
X145071429Y-107552381D01*
X144928571Y-107504762D01*
X144833333Y-107409524D01*
X144785714Y-107314286D01*
X144738095Y-107123810D01*
X144738095Y-106980952D01*
X144785714Y-106790476D01*
X144833333Y-106695238D01*
X144928571Y-106600000D01*
X145071429Y-106552381D01*
X145166667Y-106552381D01*
X145309524Y-106600000D01*
X145357143Y-106647619D01*
X146309524Y-107552381D02*
X145738095Y-107552381D01*
X146023809Y-107552381D02*
X146023809Y-106552381D01*
X145928571Y-106695238D01*
X145833333Y-106790476D01*
X145738095Y-106838095D01*
X146928571Y-106552381D02*
X147023810Y-106552381D01*
X147119048Y-106600000D01*
X147166667Y-106647619D01*
X147214286Y-106742857D01*
X147261905Y-106933333D01*
X147261905Y-107171429D01*
X147214286Y-107361905D01*
X147166667Y-107457143D01*
X147119048Y-107504762D01*
X147023810Y-107552381D01*
X146928571Y-107552381D01*
X146833333Y-107504762D01*
X146785714Y-107457143D01*
X146738095Y-107361905D01*
X146690476Y-107171429D01*
X146690476Y-106933333D01*
X146738095Y-106742857D01*
X146785714Y-106647619D01*
X146833333Y-106600000D01*
X146928571Y-106552381D01*
X142357143Y-107357143D02*
X142309524Y-107404762D01*
X142166667Y-107452381D01*
X142071429Y-107452381D01*
X141928571Y-107404762D01*
X141833333Y-107309524D01*
X141785714Y-107214286D01*
X141738095Y-107023810D01*
X141738095Y-106880952D01*
X141785714Y-106690476D01*
X141833333Y-106595238D01*
X141928571Y-106500000D01*
X142071429Y-106452381D01*
X142166667Y-106452381D01*
X142309524Y-106500000D01*
X142357143Y-106547619D01*
X143309524Y-107452381D02*
X142738095Y-107452381D01*
X143023809Y-107452381D02*
X143023809Y-106452381D01*
X142928571Y-106595238D01*
X142833333Y-106690476D01*
X142738095Y-106738095D01*
X144261905Y-107452381D02*
X143690476Y-107452381D01*
X143976190Y-107452381D02*
X143976190Y-106452381D01*
X143880952Y-106595238D01*
X143785714Y-106690476D01*
X143690476Y-106738095D01*
X148457143Y-107457143D02*
X148409524Y-107504762D01*
X148266667Y-107552381D01*
X148171429Y-107552381D01*
X148028571Y-107504762D01*
X147933333Y-107409524D01*
X147885714Y-107314286D01*
X147838095Y-107123810D01*
X147838095Y-106980952D01*
X147885714Y-106790476D01*
X147933333Y-106695238D01*
X148028571Y-106600000D01*
X148171429Y-106552381D01*
X148266667Y-106552381D01*
X148409524Y-106600000D01*
X148457143Y-106647619D01*
X149409524Y-107552381D02*
X148838095Y-107552381D01*
X149123809Y-107552381D02*
X149123809Y-106552381D01*
X149028571Y-106695238D01*
X148933333Y-106790476D01*
X148838095Y-106838095D01*
X149790476Y-106647619D02*
X149838095Y-106600000D01*
X149933333Y-106552381D01*
X150171429Y-106552381D01*
X150266667Y-106600000D01*
X150314286Y-106647619D01*
X150361905Y-106742857D01*
X150361905Y-106838095D01*
X150314286Y-106980952D01*
X149742857Y-107552381D01*
X150361905Y-107552381D01*
X103321841Y-112230722D02*
X103304411Y-112295771D01*
X103204503Y-112408439D01*
X103122024Y-112456058D01*
X102974496Y-112486248D01*
X102844399Y-112451388D01*
X102755540Y-112392719D01*
X102619063Y-112251572D01*
X102547634Y-112127853D01*
X102493635Y-111939086D01*
X102487256Y-111832798D01*
X102522115Y-111702701D01*
X102622024Y-111590033D01*
X102704503Y-111542414D01*
X102852030Y-111512224D01*
X102917079Y-111529654D01*
X104194246Y-111837010D02*
X103699374Y-112122725D01*
X103946810Y-111979868D02*
X103446810Y-111113843D01*
X103435760Y-111285179D01*
X103400900Y-111415277D01*
X103342231Y-111504135D01*
X103982921Y-110804319D02*
X104519032Y-110494795D01*
X104420833Y-110991376D01*
X104544551Y-110919947D01*
X104650839Y-110913567D01*
X104715888Y-110930997D01*
X104804747Y-110989667D01*
X104923794Y-111195863D01*
X104930174Y-111302151D01*
X104912744Y-111367200D01*
X104854075Y-111456058D01*
X104606639Y-111598915D01*
X104500351Y-111605295D01*
X104435302Y-111587865D01*
X108357143Y-108557143D02*
X108309524Y-108604762D01*
X108166667Y-108652381D01*
X108071429Y-108652381D01*
X107928571Y-108604762D01*
X107833333Y-108509524D01*
X107785714Y-108414286D01*
X107738095Y-108223810D01*
X107738095Y-108080952D01*
X107785714Y-107890476D01*
X107833333Y-107795238D01*
X107928571Y-107700000D01*
X108071429Y-107652381D01*
X108166667Y-107652381D01*
X108309524Y-107700000D01*
X108357143Y-107747619D01*
X109309524Y-108652381D02*
X108738095Y-108652381D01*
X109023809Y-108652381D02*
X109023809Y-107652381D01*
X108928571Y-107795238D01*
X108833333Y-107890476D01*
X108738095Y-107938095D01*
X110166667Y-107985714D02*
X110166667Y-108652381D01*
X109928571Y-107604762D02*
X109690476Y-108319048D01*
X110309524Y-108319048D01*
X99857143Y-115057143D02*
X99809524Y-115104762D01*
X99666667Y-115152381D01*
X99571429Y-115152381D01*
X99428571Y-115104762D01*
X99333333Y-115009524D01*
X99285714Y-114914286D01*
X99238095Y-114723810D01*
X99238095Y-114580952D01*
X99285714Y-114390476D01*
X99333333Y-114295238D01*
X99428571Y-114200000D01*
X99571429Y-114152381D01*
X99666667Y-114152381D01*
X99809524Y-114200000D01*
X99857143Y-114247619D01*
X100809524Y-115152381D02*
X100238095Y-115152381D01*
X100523809Y-115152381D02*
X100523809Y-114152381D01*
X100428571Y-114295238D01*
X100333333Y-114390476D01*
X100238095Y-114438095D01*
X101714286Y-114152381D02*
X101238095Y-114152381D01*
X101190476Y-114628571D01*
X101238095Y-114580952D01*
X101333333Y-114533333D01*
X101571429Y-114533333D01*
X101666667Y-114580952D01*
X101714286Y-114628571D01*
X101761905Y-114723810D01*
X101761905Y-114961905D01*
X101714286Y-115057143D01*
X101666667Y-115104762D01*
X101571429Y-115152381D01*
X101333333Y-115152381D01*
X101238095Y-115104762D01*
X101190476Y-115057143D01*
X127857143Y-94357143D02*
X127809524Y-94404762D01*
X127666667Y-94452381D01*
X127571429Y-94452381D01*
X127428571Y-94404762D01*
X127333333Y-94309524D01*
X127285714Y-94214286D01*
X127238095Y-94023810D01*
X127238095Y-93880952D01*
X127285714Y-93690476D01*
X127333333Y-93595238D01*
X127428571Y-93500000D01*
X127571429Y-93452381D01*
X127666667Y-93452381D01*
X127809524Y-93500000D01*
X127857143Y-93547619D01*
X128809524Y-94452381D02*
X128238095Y-94452381D01*
X128523809Y-94452381D02*
X128523809Y-93452381D01*
X128428571Y-93595238D01*
X128333333Y-93690476D01*
X128238095Y-93738095D01*
X129666667Y-93452381D02*
X129476190Y-93452381D01*
X129380952Y-93500000D01*
X129333333Y-93547619D01*
X129238095Y-93690476D01*
X129190476Y-93880952D01*
X129190476Y-94261905D01*
X129238095Y-94357143D01*
X129285714Y-94404762D01*
X129380952Y-94452381D01*
X129571429Y-94452381D01*
X129666667Y-94404762D01*
X129714286Y-94357143D01*
X129761905Y-94261905D01*
X129761905Y-94023810D01*
X129714286Y-93928571D01*
X129666667Y-93880952D01*
X129571429Y-93833333D01*
X129380952Y-93833333D01*
X129285714Y-93880952D01*
X129238095Y-93928571D01*
X129190476Y-94023810D01*
X132857143Y-117847143D02*
X132809524Y-117894762D01*
X132666667Y-117942381D01*
X132571429Y-117942381D01*
X132428571Y-117894762D01*
X132333333Y-117799524D01*
X132285714Y-117704286D01*
X132238095Y-117513810D01*
X132238095Y-117370952D01*
X132285714Y-117180476D01*
X132333333Y-117085238D01*
X132428571Y-116990000D01*
X132571429Y-116942381D01*
X132666667Y-116942381D01*
X132809524Y-116990000D01*
X132857143Y-117037619D01*
X133809524Y-117942381D02*
X133238095Y-117942381D01*
X133523809Y-117942381D02*
X133523809Y-116942381D01*
X133428571Y-117085238D01*
X133333333Y-117180476D01*
X133238095Y-117228095D01*
X134142857Y-116942381D02*
X134809524Y-116942381D01*
X134380952Y-117942381D01*
X138877143Y-117847143D02*
X138829524Y-117894762D01*
X138686667Y-117942381D01*
X138591429Y-117942381D01*
X138448571Y-117894762D01*
X138353333Y-117799524D01*
X138305714Y-117704286D01*
X138258095Y-117513810D01*
X138258095Y-117370952D01*
X138305714Y-117180476D01*
X138353333Y-117085238D01*
X138448571Y-116990000D01*
X138591429Y-116942381D01*
X138686667Y-116942381D01*
X138829524Y-116990000D01*
X138877143Y-117037619D01*
X139829524Y-117942381D02*
X139258095Y-117942381D01*
X139543809Y-117942381D02*
X139543809Y-116942381D01*
X139448571Y-117085238D01*
X139353333Y-117180476D01*
X139258095Y-117228095D01*
X140400952Y-117370952D02*
X140305714Y-117323333D01*
X140258095Y-117275714D01*
X140210476Y-117180476D01*
X140210476Y-117132857D01*
X140258095Y-117037619D01*
X140305714Y-116990000D01*
X140400952Y-116942381D01*
X140591429Y-116942381D01*
X140686667Y-116990000D01*
X140734286Y-117037619D01*
X140781905Y-117132857D01*
X140781905Y-117180476D01*
X140734286Y-117275714D01*
X140686667Y-117323333D01*
X140591429Y-117370952D01*
X140400952Y-117370952D01*
X140305714Y-117418571D01*
X140258095Y-117466190D01*
X140210476Y-117561429D01*
X140210476Y-117751905D01*
X140258095Y-117847143D01*
X140305714Y-117894762D01*
X140400952Y-117942381D01*
X140591429Y-117942381D01*
X140686667Y-117894762D01*
X140734286Y-117847143D01*
X140781905Y-117751905D01*
X140781905Y-117561429D01*
X140734286Y-117466190D01*
X140686667Y-117418571D01*
X140591429Y-117370952D01*
X149117143Y-85547143D02*
X149069524Y-85594762D01*
X148926667Y-85642381D01*
X148831429Y-85642381D01*
X148688571Y-85594762D01*
X148593333Y-85499524D01*
X148545714Y-85404286D01*
X148498095Y-85213810D01*
X148498095Y-85070952D01*
X148545714Y-84880476D01*
X148593333Y-84785238D01*
X148688571Y-84690000D01*
X148831429Y-84642381D01*
X148926667Y-84642381D01*
X149069524Y-84690000D01*
X149117143Y-84737619D01*
X150069524Y-85642381D02*
X149498095Y-85642381D01*
X149783809Y-85642381D02*
X149783809Y-84642381D01*
X149688571Y-84785238D01*
X149593333Y-84880476D01*
X149498095Y-84928095D01*
X150545714Y-85642381D02*
X150736190Y-85642381D01*
X150831429Y-85594762D01*
X150879048Y-85547143D01*
X150974286Y-85404286D01*
X151021905Y-85213810D01*
X151021905Y-84832857D01*
X150974286Y-84737619D01*
X150926667Y-84690000D01*
X150831429Y-84642381D01*
X150640952Y-84642381D01*
X150545714Y-84690000D01*
X150498095Y-84737619D01*
X150450476Y-84832857D01*
X150450476Y-85070952D01*
X150498095Y-85166190D01*
X150545714Y-85213810D01*
X150640952Y-85261429D01*
X150831429Y-85261429D01*
X150926667Y-85213810D01*
X150974286Y-85166190D01*
X151021905Y-85070952D01*
X129607143Y-121142857D02*
X129654762Y-121190476D01*
X129702381Y-121333333D01*
X129702381Y-121428571D01*
X129654762Y-121571429D01*
X129559524Y-121666667D01*
X129464286Y-121714286D01*
X129273810Y-121761905D01*
X129130952Y-121761905D01*
X128940476Y-121714286D01*
X128845238Y-121666667D01*
X128750000Y-121571429D01*
X128702381Y-121428571D01*
X128702381Y-121333333D01*
X128750000Y-121190476D01*
X128797619Y-121142857D01*
X128797619Y-120761905D02*
X128750000Y-120714286D01*
X128702381Y-120619048D01*
X128702381Y-120380952D01*
X128750000Y-120285714D01*
X128797619Y-120238095D01*
X128892857Y-120190476D01*
X128988095Y-120190476D01*
X129130952Y-120238095D01*
X129702381Y-120809524D01*
X129702381Y-120190476D01*
X128702381Y-119571429D02*
X128702381Y-119476190D01*
X128750000Y-119380952D01*
X128797619Y-119333333D01*
X128892857Y-119285714D01*
X129083333Y-119238095D01*
X129321429Y-119238095D01*
X129511905Y-119285714D01*
X129607143Y-119333333D01*
X129654762Y-119380952D01*
X129702381Y-119476190D01*
X129702381Y-119571429D01*
X129654762Y-119666667D01*
X129607143Y-119714286D01*
X129511905Y-119761905D01*
X129321429Y-119809524D01*
X129083333Y-119809524D01*
X128892857Y-119761905D01*
X128797619Y-119714286D01*
X128750000Y-119666667D01*
X128702381Y-119571429D01*
X142757143Y-95957143D02*
X142709524Y-96004762D01*
X142566667Y-96052381D01*
X142471429Y-96052381D01*
X142328571Y-96004762D01*
X142233333Y-95909524D01*
X142185714Y-95814286D01*
X142138095Y-95623810D01*
X142138095Y-95480952D01*
X142185714Y-95290476D01*
X142233333Y-95195238D01*
X142328571Y-95100000D01*
X142471429Y-95052381D01*
X142566667Y-95052381D01*
X142709524Y-95100000D01*
X142757143Y-95147619D01*
X143138095Y-95147619D02*
X143185714Y-95100000D01*
X143280952Y-95052381D01*
X143519048Y-95052381D01*
X143614286Y-95100000D01*
X143661905Y-95147619D01*
X143709524Y-95242857D01*
X143709524Y-95338095D01*
X143661905Y-95480952D01*
X143090476Y-96052381D01*
X143709524Y-96052381D01*
X144661905Y-96052381D02*
X144090476Y-96052381D01*
X144376190Y-96052381D02*
X144376190Y-95052381D01*
X144280952Y-95195238D01*
X144185714Y-95290476D01*
X144090476Y-95338095D01*
X128557143Y-109042857D02*
X128604762Y-109090476D01*
X128652381Y-109233333D01*
X128652381Y-109328571D01*
X128604762Y-109471429D01*
X128509524Y-109566667D01*
X128414286Y-109614286D01*
X128223810Y-109661905D01*
X128080952Y-109661905D01*
X127890476Y-109614286D01*
X127795238Y-109566667D01*
X127700000Y-109471429D01*
X127652381Y-109328571D01*
X127652381Y-109233333D01*
X127700000Y-109090476D01*
X127747619Y-109042857D01*
X127747619Y-108661905D02*
X127700000Y-108614286D01*
X127652381Y-108519048D01*
X127652381Y-108280952D01*
X127700000Y-108185714D01*
X127747619Y-108138095D01*
X127842857Y-108090476D01*
X127938095Y-108090476D01*
X128080952Y-108138095D01*
X128652381Y-108709524D01*
X128652381Y-108090476D01*
X127747619Y-107709524D02*
X127700000Y-107661905D01*
X127652381Y-107566667D01*
X127652381Y-107328571D01*
X127700000Y-107233333D01*
X127747619Y-107185714D01*
X127842857Y-107138095D01*
X127938095Y-107138095D01*
X128080952Y-107185714D01*
X128652381Y-107757143D01*
X128652381Y-107138095D01*
X125957143Y-109542857D02*
X126004762Y-109590476D01*
X126052381Y-109733333D01*
X126052381Y-109828571D01*
X126004762Y-109971429D01*
X125909524Y-110066667D01*
X125814286Y-110114286D01*
X125623810Y-110161905D01*
X125480952Y-110161905D01*
X125290476Y-110114286D01*
X125195238Y-110066667D01*
X125100000Y-109971429D01*
X125052381Y-109828571D01*
X125052381Y-109733333D01*
X125100000Y-109590476D01*
X125147619Y-109542857D01*
X125147619Y-109161905D02*
X125100000Y-109114286D01*
X125052381Y-109019048D01*
X125052381Y-108780952D01*
X125100000Y-108685714D01*
X125147619Y-108638095D01*
X125242857Y-108590476D01*
X125338095Y-108590476D01*
X125480952Y-108638095D01*
X126052381Y-109209524D01*
X126052381Y-108590476D01*
X125052381Y-108257143D02*
X125052381Y-107638095D01*
X125433333Y-107971429D01*
X125433333Y-107828571D01*
X125480952Y-107733333D01*
X125528571Y-107685714D01*
X125623810Y-107638095D01*
X125861905Y-107638095D01*
X125957143Y-107685714D01*
X126004762Y-107733333D01*
X126052381Y-107828571D01*
X126052381Y-108114286D01*
X126004762Y-108209524D01*
X125957143Y-108257143D01*
X160757143Y-83857143D02*
X160709524Y-83904762D01*
X160566667Y-83952381D01*
X160471429Y-83952381D01*
X160328571Y-83904762D01*
X160233333Y-83809524D01*
X160185714Y-83714286D01*
X160138095Y-83523810D01*
X160138095Y-83380952D01*
X160185714Y-83190476D01*
X160233333Y-83095238D01*
X160328571Y-83000000D01*
X160471429Y-82952381D01*
X160566667Y-82952381D01*
X160709524Y-83000000D01*
X160757143Y-83047619D01*
X161138095Y-83047619D02*
X161185714Y-83000000D01*
X161280952Y-82952381D01*
X161519048Y-82952381D01*
X161614286Y-83000000D01*
X161661905Y-83047619D01*
X161709524Y-83142857D01*
X161709524Y-83238095D01*
X161661905Y-83380952D01*
X161090476Y-83952381D01*
X161709524Y-83952381D01*
X162566667Y-83285714D02*
X162566667Y-83952381D01*
X162328571Y-82904762D02*
X162090476Y-83619048D01*
X162709524Y-83619048D01*
X160057143Y-86657143D02*
X160009524Y-86704762D01*
X159866667Y-86752381D01*
X159771429Y-86752381D01*
X159628571Y-86704762D01*
X159533333Y-86609524D01*
X159485714Y-86514286D01*
X159438095Y-86323810D01*
X159438095Y-86180952D01*
X159485714Y-85990476D01*
X159533333Y-85895238D01*
X159628571Y-85800000D01*
X159771429Y-85752381D01*
X159866667Y-85752381D01*
X160009524Y-85800000D01*
X160057143Y-85847619D01*
X160438095Y-85847619D02*
X160485714Y-85800000D01*
X160580952Y-85752381D01*
X160819048Y-85752381D01*
X160914286Y-85800000D01*
X160961905Y-85847619D01*
X161009524Y-85942857D01*
X161009524Y-86038095D01*
X160961905Y-86180952D01*
X160390476Y-86752381D01*
X161009524Y-86752381D01*
X161914286Y-85752381D02*
X161438095Y-85752381D01*
X161390476Y-86228571D01*
X161438095Y-86180952D01*
X161533333Y-86133333D01*
X161771429Y-86133333D01*
X161866667Y-86180952D01*
X161914286Y-86228571D01*
X161961905Y-86323810D01*
X161961905Y-86561905D01*
X161914286Y-86657143D01*
X161866667Y-86704762D01*
X161771429Y-86752381D01*
X161533333Y-86752381D01*
X161438095Y-86704762D01*
X161390476Y-86657143D01*
X120757143Y-111457143D02*
X120709524Y-111504762D01*
X120566667Y-111552381D01*
X120471429Y-111552381D01*
X120328571Y-111504762D01*
X120233333Y-111409524D01*
X120185714Y-111314286D01*
X120138095Y-111123810D01*
X120138095Y-110980952D01*
X120185714Y-110790476D01*
X120233333Y-110695238D01*
X120328571Y-110600000D01*
X120471429Y-110552381D01*
X120566667Y-110552381D01*
X120709524Y-110600000D01*
X120757143Y-110647619D01*
X121138095Y-110647619D02*
X121185714Y-110600000D01*
X121280952Y-110552381D01*
X121519048Y-110552381D01*
X121614286Y-110600000D01*
X121661905Y-110647619D01*
X121709524Y-110742857D01*
X121709524Y-110838095D01*
X121661905Y-110980952D01*
X121090476Y-111552381D01*
X121709524Y-111552381D01*
X122566667Y-110552381D02*
X122376190Y-110552381D01*
X122280952Y-110600000D01*
X122233333Y-110647619D01*
X122138095Y-110790476D01*
X122090476Y-110980952D01*
X122090476Y-111361905D01*
X122138095Y-111457143D01*
X122185714Y-111504762D01*
X122280952Y-111552381D01*
X122471429Y-111552381D01*
X122566667Y-111504762D01*
X122614286Y-111457143D01*
X122661905Y-111361905D01*
X122661905Y-111123810D01*
X122614286Y-111028571D01*
X122566667Y-110980952D01*
X122471429Y-110933333D01*
X122280952Y-110933333D01*
X122185714Y-110980952D01*
X122138095Y-111028571D01*
X122090476Y-111123810D01*
X126957143Y-111557143D02*
X126909524Y-111604762D01*
X126766667Y-111652381D01*
X126671429Y-111652381D01*
X126528571Y-111604762D01*
X126433333Y-111509524D01*
X126385714Y-111414286D01*
X126338095Y-111223810D01*
X126338095Y-111080952D01*
X126385714Y-110890476D01*
X126433333Y-110795238D01*
X126528571Y-110700000D01*
X126671429Y-110652381D01*
X126766667Y-110652381D01*
X126909524Y-110700000D01*
X126957143Y-110747619D01*
X127338095Y-110747619D02*
X127385714Y-110700000D01*
X127480952Y-110652381D01*
X127719048Y-110652381D01*
X127814286Y-110700000D01*
X127861905Y-110747619D01*
X127909524Y-110842857D01*
X127909524Y-110938095D01*
X127861905Y-111080952D01*
X127290476Y-111652381D01*
X127909524Y-111652381D01*
X128242857Y-110652381D02*
X128909524Y-110652381D01*
X128480952Y-111652381D01*
X172657143Y-75857143D02*
X172609524Y-75904762D01*
X172466667Y-75952381D01*
X172371429Y-75952381D01*
X172228571Y-75904762D01*
X172133333Y-75809524D01*
X172085714Y-75714286D01*
X172038095Y-75523810D01*
X172038095Y-75380952D01*
X172085714Y-75190476D01*
X172133333Y-75095238D01*
X172228571Y-75000000D01*
X172371429Y-74952381D01*
X172466667Y-74952381D01*
X172609524Y-75000000D01*
X172657143Y-75047619D01*
X173038095Y-75047619D02*
X173085714Y-75000000D01*
X173180952Y-74952381D01*
X173419048Y-74952381D01*
X173514286Y-75000000D01*
X173561905Y-75047619D01*
X173609524Y-75142857D01*
X173609524Y-75238095D01*
X173561905Y-75380952D01*
X172990476Y-75952381D01*
X173609524Y-75952381D01*
X174180952Y-75380952D02*
X174085714Y-75333333D01*
X174038095Y-75285714D01*
X173990476Y-75190476D01*
X173990476Y-75142857D01*
X174038095Y-75047619D01*
X174085714Y-75000000D01*
X174180952Y-74952381D01*
X174371429Y-74952381D01*
X174466667Y-75000000D01*
X174514286Y-75047619D01*
X174561905Y-75142857D01*
X174561905Y-75190476D01*
X174514286Y-75285714D01*
X174466667Y-75333333D01*
X174371429Y-75380952D01*
X174180952Y-75380952D01*
X174085714Y-75428571D01*
X174038095Y-75476190D01*
X173990476Y-75571429D01*
X173990476Y-75761905D01*
X174038095Y-75857143D01*
X174085714Y-75904762D01*
X174180952Y-75952381D01*
X174371429Y-75952381D01*
X174466667Y-75904762D01*
X174514286Y-75857143D01*
X174561905Y-75761905D01*
X174561905Y-75571429D01*
X174514286Y-75476190D01*
X174466667Y-75428571D01*
X174371429Y-75380952D01*
X93652381Y-87238095D02*
X92652381Y-87238095D01*
X92652381Y-87000000D01*
X92700000Y-86857142D01*
X92795238Y-86761904D01*
X92890476Y-86714285D01*
X93080952Y-86666666D01*
X93223810Y-86666666D01*
X93414286Y-86714285D01*
X93509524Y-86761904D01*
X93604762Y-86857142D01*
X93652381Y-87000000D01*
X93652381Y-87238095D01*
X93652381Y-85714285D02*
X93652381Y-86285714D01*
X93652381Y-86000000D02*
X92652381Y-86000000D01*
X92795238Y-86095238D01*
X92890476Y-86190476D01*
X92938095Y-86285714D01*
X121261905Y-71752381D02*
X121261905Y-70752381D01*
X121500000Y-70752381D01*
X121642858Y-70800000D01*
X121738096Y-70895238D01*
X121785715Y-70990476D01*
X121833334Y-71180952D01*
X121833334Y-71323810D01*
X121785715Y-71514286D01*
X121738096Y-71609524D01*
X121642858Y-71704762D01*
X121500000Y-71752381D01*
X121261905Y-71752381D01*
X122214286Y-70847619D02*
X122261905Y-70800000D01*
X122357143Y-70752381D01*
X122595239Y-70752381D01*
X122690477Y-70800000D01*
X122738096Y-70847619D01*
X122785715Y-70942857D01*
X122785715Y-71038095D01*
X122738096Y-71180952D01*
X122166667Y-71752381D01*
X122785715Y-71752381D01*
X121661905Y-82852381D02*
X121661905Y-81852381D01*
X121900000Y-81852381D01*
X122042858Y-81900000D01*
X122138096Y-81995238D01*
X122185715Y-82090476D01*
X122233334Y-82280952D01*
X122233334Y-82423810D01*
X122185715Y-82614286D01*
X122138096Y-82709524D01*
X122042858Y-82804762D01*
X121900000Y-82852381D01*
X121661905Y-82852381D01*
X122566667Y-81852381D02*
X123185715Y-81852381D01*
X122852381Y-82233333D01*
X122995239Y-82233333D01*
X123090477Y-82280952D01*
X123138096Y-82328571D01*
X123185715Y-82423810D01*
X123185715Y-82661905D01*
X123138096Y-82757143D01*
X123090477Y-82804762D01*
X122995239Y-82852381D01*
X122709524Y-82852381D01*
X122614286Y-82804762D01*
X122566667Y-82757143D01*
X173352381Y-110638095D02*
X172352381Y-110638095D01*
X172352381Y-110400000D01*
X172400000Y-110257142D01*
X172495238Y-110161904D01*
X172590476Y-110114285D01*
X172780952Y-110066666D01*
X172923810Y-110066666D01*
X173114286Y-110114285D01*
X173209524Y-110161904D01*
X173304762Y-110257142D01*
X173352381Y-110400000D01*
X173352381Y-110638095D01*
X172352381Y-109161904D02*
X172352381Y-109638095D01*
X172828571Y-109685714D01*
X172780952Y-109638095D01*
X172733333Y-109542857D01*
X172733333Y-109304761D01*
X172780952Y-109209523D01*
X172828571Y-109161904D01*
X172923810Y-109114285D01*
X173161905Y-109114285D01*
X173257143Y-109161904D01*
X173304762Y-109209523D01*
X173352381Y-109304761D01*
X173352381Y-109542857D01*
X173304762Y-109638095D01*
X173257143Y-109685714D01*
X141507687Y-92724085D02*
X141507687Y-91724085D01*
X141745782Y-91724085D01*
X141888640Y-91771704D01*
X141983878Y-91866942D01*
X142031497Y-91962180D01*
X142079116Y-92152656D01*
X142079116Y-92295514D01*
X142031497Y-92485990D01*
X141983878Y-92581228D01*
X141888640Y-92676466D01*
X141745782Y-92724085D01*
X141507687Y-92724085D01*
X142936259Y-91724085D02*
X142745782Y-91724085D01*
X142650544Y-91771704D01*
X142602925Y-91819323D01*
X142507687Y-91962180D01*
X142460068Y-92152656D01*
X142460068Y-92533609D01*
X142507687Y-92628847D01*
X142555306Y-92676466D01*
X142650544Y-92724085D01*
X142841021Y-92724085D01*
X142936259Y-92676466D01*
X142983878Y-92628847D01*
X143031497Y-92533609D01*
X143031497Y-92295514D01*
X142983878Y-92200275D01*
X142936259Y-92152656D01*
X142841021Y-92105037D01*
X142650544Y-92105037D01*
X142555306Y-92152656D01*
X142507687Y-92200275D01*
X142460068Y-92295514D01*
X98552381Y-102833333D02*
X99266667Y-102833333D01*
X99409524Y-102880953D01*
X99504762Y-102976191D01*
X99552381Y-103119048D01*
X99552381Y-103214286D01*
X99552381Y-101833333D02*
X99552381Y-102404762D01*
X99552381Y-102119048D02*
X98552381Y-102119048D01*
X98695238Y-102214286D01*
X98790476Y-102309524D01*
X98838095Y-102404762D01*
X136866667Y-128477381D02*
X136866667Y-129191667D01*
X136819047Y-129334524D01*
X136723809Y-129429762D01*
X136580952Y-129477381D01*
X136485714Y-129477381D01*
X137295238Y-128572619D02*
X137342857Y-128525000D01*
X137438095Y-128477381D01*
X137676191Y-128477381D01*
X137771429Y-128525000D01*
X137819048Y-128572619D01*
X137866667Y-128667857D01*
X137866667Y-128763095D01*
X137819048Y-128905952D01*
X137247619Y-129477381D01*
X137866667Y-129477381D01*
X94652381Y-125233333D02*
X95366667Y-125233333D01*
X95509524Y-125280953D01*
X95604762Y-125376191D01*
X95652381Y-125519048D01*
X95652381Y-125614286D01*
X94652381Y-124852381D02*
X94652381Y-124233333D01*
X95033333Y-124566667D01*
X95033333Y-124423809D01*
X95080952Y-124328571D01*
X95128571Y-124280952D01*
X95223810Y-124233333D01*
X95461905Y-124233333D01*
X95557143Y-124280952D01*
X95604762Y-124328571D01*
X95652381Y-124423809D01*
X95652381Y-124709524D01*
X95604762Y-124804762D01*
X95557143Y-124852381D01*
X141152381Y-90333333D02*
X141866667Y-90333333D01*
X142009524Y-90380953D01*
X142104762Y-90476191D01*
X142152381Y-90619048D01*
X142152381Y-90714286D01*
X141485714Y-89428571D02*
X142152381Y-89428571D01*
X141104762Y-89666667D02*
X141819048Y-89904762D01*
X141819048Y-89285714D01*
X143866667Y-74852381D02*
X143866667Y-75566667D01*
X143819047Y-75709524D01*
X143723809Y-75804762D01*
X143580952Y-75852381D01*
X143485714Y-75852381D01*
X144819048Y-74852381D02*
X144342857Y-74852381D01*
X144295238Y-75328571D01*
X144342857Y-75280952D01*
X144438095Y-75233333D01*
X144676191Y-75233333D01*
X144771429Y-75280952D01*
X144819048Y-75328571D01*
X144866667Y-75423810D01*
X144866667Y-75661905D01*
X144819048Y-75757143D01*
X144771429Y-75804762D01*
X144676191Y-75852381D01*
X144438095Y-75852381D01*
X144342857Y-75804762D01*
X144295238Y-75757143D01*
X140452381Y-80633333D02*
X141166667Y-80633333D01*
X141309524Y-80680953D01*
X141404762Y-80776191D01*
X141452381Y-80919048D01*
X141452381Y-81014286D01*
X140452381Y-79728571D02*
X140452381Y-79919048D01*
X140500000Y-80014286D01*
X140547619Y-80061905D01*
X140690476Y-80157143D01*
X140880952Y-80204762D01*
X141261905Y-80204762D01*
X141357143Y-80157143D01*
X141404762Y-80109524D01*
X141452381Y-80014286D01*
X141452381Y-79823809D01*
X141404762Y-79728571D01*
X141357143Y-79680952D01*
X141261905Y-79633333D01*
X141023810Y-79633333D01*
X140928571Y-79680952D01*
X140880952Y-79728571D01*
X140833333Y-79823809D01*
X140833333Y-80014286D01*
X140880952Y-80109524D01*
X140928571Y-80157143D01*
X141023810Y-80204762D01*
X121733334Y-83652381D02*
X121257143Y-83652381D01*
X121257143Y-82652381D01*
X122590477Y-83652381D02*
X122019048Y-83652381D01*
X122304762Y-83652381D02*
X122304762Y-82652381D01*
X122209524Y-82795238D01*
X122114286Y-82890476D01*
X122019048Y-82938095D01*
X145733334Y-96052381D02*
X145257143Y-96052381D01*
X145257143Y-95052381D01*
X146019048Y-95147619D02*
X146066667Y-95100000D01*
X146161905Y-95052381D01*
X146400001Y-95052381D01*
X146495239Y-95100000D01*
X146542858Y-95147619D01*
X146590477Y-95242857D01*
X146590477Y-95338095D01*
X146542858Y-95480952D01*
X145971429Y-96052381D01*
X146590477Y-96052381D01*
X156652381Y-122299524D02*
X155652381Y-122299524D01*
X156366667Y-121966190D01*
X155652381Y-121632857D01*
X156652381Y-121632857D01*
X156652381Y-120632857D02*
X156652381Y-121204286D01*
X156652381Y-120918572D02*
X155652381Y-120918572D01*
X155795238Y-121013810D01*
X155890476Y-121109048D01*
X155938095Y-121204286D01*
X118547619Y-102695238D02*
X118500000Y-102790476D01*
X118404762Y-102885714D01*
X118261905Y-103028571D01*
X118214286Y-103123810D01*
X118214286Y-103219048D01*
X118452381Y-103171429D02*
X118404762Y-103266667D01*
X118309524Y-103361905D01*
X118119048Y-103409524D01*
X117785714Y-103409524D01*
X117595238Y-103361905D01*
X117500000Y-103266667D01*
X117452381Y-103171429D01*
X117452381Y-102980952D01*
X117500000Y-102885714D01*
X117595238Y-102790476D01*
X117785714Y-102742857D01*
X118119048Y-102742857D01*
X118309524Y-102790476D01*
X118404762Y-102885714D01*
X118452381Y-102980952D01*
X118452381Y-103171429D01*
X117547619Y-102361905D02*
X117500000Y-102314286D01*
X117452381Y-102219048D01*
X117452381Y-101980952D01*
X117500000Y-101885714D01*
X117547619Y-101838095D01*
X117642857Y-101790476D01*
X117738095Y-101790476D01*
X117880952Y-101838095D01*
X118452381Y-102409524D01*
X118452381Y-101790476D01*
X113333334Y-85102381D02*
X113000000Y-84626190D01*
X112761905Y-85102381D02*
X112761905Y-84102381D01*
X113142858Y-84102381D01*
X113238096Y-84150000D01*
X113285715Y-84197619D01*
X113333334Y-84292857D01*
X113333334Y-84435714D01*
X113285715Y-84530952D01*
X113238096Y-84578571D01*
X113142858Y-84626190D01*
X112761905Y-84626190D01*
X114285715Y-85102381D02*
X113714286Y-85102381D01*
X114000000Y-85102381D02*
X114000000Y-84102381D01*
X113904762Y-84245238D01*
X113809524Y-84340476D01*
X113714286Y-84388095D01*
X126833334Y-71752381D02*
X126500000Y-71276190D01*
X126261905Y-71752381D02*
X126261905Y-70752381D01*
X126642858Y-70752381D01*
X126738096Y-70800000D01*
X126785715Y-70847619D01*
X126833334Y-70942857D01*
X126833334Y-71085714D01*
X126785715Y-71180952D01*
X126738096Y-71228571D01*
X126642858Y-71276190D01*
X126261905Y-71276190D01*
X127214286Y-70847619D02*
X127261905Y-70800000D01*
X127357143Y-70752381D01*
X127595239Y-70752381D01*
X127690477Y-70800000D01*
X127738096Y-70847619D01*
X127785715Y-70942857D01*
X127785715Y-71038095D01*
X127738096Y-71180952D01*
X127166667Y-71752381D01*
X127785715Y-71752381D01*
X117933334Y-71652381D02*
X117600000Y-71176190D01*
X117361905Y-71652381D02*
X117361905Y-70652381D01*
X117742858Y-70652381D01*
X117838096Y-70700000D01*
X117885715Y-70747619D01*
X117933334Y-70842857D01*
X117933334Y-70985714D01*
X117885715Y-71080952D01*
X117838096Y-71128571D01*
X117742858Y-71176190D01*
X117361905Y-71176190D01*
X118266667Y-70652381D02*
X118885715Y-70652381D01*
X118552381Y-71033333D01*
X118695239Y-71033333D01*
X118790477Y-71080952D01*
X118838096Y-71128571D01*
X118885715Y-71223810D01*
X118885715Y-71461905D01*
X118838096Y-71557143D01*
X118790477Y-71604762D01*
X118695239Y-71652381D01*
X118409524Y-71652381D01*
X118314286Y-71604762D01*
X118266667Y-71557143D01*
X110833334Y-71752381D02*
X110500000Y-71276190D01*
X110261905Y-71752381D02*
X110261905Y-70752381D01*
X110642858Y-70752381D01*
X110738096Y-70800000D01*
X110785715Y-70847619D01*
X110833334Y-70942857D01*
X110833334Y-71085714D01*
X110785715Y-71180952D01*
X110738096Y-71228571D01*
X110642858Y-71276190D01*
X110261905Y-71276190D01*
X111690477Y-71085714D02*
X111690477Y-71752381D01*
X111452381Y-70704762D02*
X111214286Y-71419048D01*
X111833334Y-71419048D01*
X148233334Y-96052381D02*
X147900000Y-95576190D01*
X147661905Y-96052381D02*
X147661905Y-95052381D01*
X148042858Y-95052381D01*
X148138096Y-95100000D01*
X148185715Y-95147619D01*
X148233334Y-95242857D01*
X148233334Y-95385714D01*
X148185715Y-95480952D01*
X148138096Y-95528571D01*
X148042858Y-95576190D01*
X147661905Y-95576190D01*
X149138096Y-95052381D02*
X148661905Y-95052381D01*
X148614286Y-95528571D01*
X148661905Y-95480952D01*
X148757143Y-95433333D01*
X148995239Y-95433333D01*
X149090477Y-95480952D01*
X149138096Y-95528571D01*
X149185715Y-95623810D01*
X149185715Y-95861905D01*
X149138096Y-95957143D01*
X149090477Y-96004762D01*
X148995239Y-96052381D01*
X148757143Y-96052381D01*
X148661905Y-96004762D01*
X148614286Y-95957143D01*
X127752381Y-98766666D02*
X127276190Y-99100000D01*
X127752381Y-99338095D02*
X126752381Y-99338095D01*
X126752381Y-98957142D01*
X126800000Y-98861904D01*
X126847619Y-98814285D01*
X126942857Y-98766666D01*
X127085714Y-98766666D01*
X127180952Y-98814285D01*
X127228571Y-98861904D01*
X127276190Y-98957142D01*
X127276190Y-99338095D01*
X126752381Y-97909523D02*
X126752381Y-98100000D01*
X126800000Y-98195238D01*
X126847619Y-98242857D01*
X126990476Y-98338095D01*
X127180952Y-98385714D01*
X127561905Y-98385714D01*
X127657143Y-98338095D01*
X127704762Y-98290476D01*
X127752381Y-98195238D01*
X127752381Y-98004761D01*
X127704762Y-97909523D01*
X127657143Y-97861904D01*
X127561905Y-97814285D01*
X127323810Y-97814285D01*
X127228571Y-97861904D01*
X127180952Y-97909523D01*
X127133333Y-98004761D01*
X127133333Y-98195238D01*
X127180952Y-98290476D01*
X127228571Y-98338095D01*
X127323810Y-98385714D01*
X103952381Y-90266666D02*
X103476190Y-90600000D01*
X103952381Y-90838095D02*
X102952381Y-90838095D01*
X102952381Y-90457142D01*
X103000000Y-90361904D01*
X103047619Y-90314285D01*
X103142857Y-90266666D01*
X103285714Y-90266666D01*
X103380952Y-90314285D01*
X103428571Y-90361904D01*
X103476190Y-90457142D01*
X103476190Y-90838095D01*
X102952381Y-89933333D02*
X102952381Y-89266666D01*
X103952381Y-89695238D01*
X115433334Y-110952381D02*
X115100000Y-110476190D01*
X114861905Y-110952381D02*
X114861905Y-109952381D01*
X115242858Y-109952381D01*
X115338096Y-110000000D01*
X115385715Y-110047619D01*
X115433334Y-110142857D01*
X115433334Y-110285714D01*
X115385715Y-110380952D01*
X115338096Y-110428571D01*
X115242858Y-110476190D01*
X114861905Y-110476190D01*
X116004762Y-110380952D02*
X115909524Y-110333333D01*
X115861905Y-110285714D01*
X115814286Y-110190476D01*
X115814286Y-110142857D01*
X115861905Y-110047619D01*
X115909524Y-110000000D01*
X116004762Y-109952381D01*
X116195239Y-109952381D01*
X116290477Y-110000000D01*
X116338096Y-110047619D01*
X116385715Y-110142857D01*
X116385715Y-110190476D01*
X116338096Y-110285714D01*
X116290477Y-110333333D01*
X116195239Y-110380952D01*
X116004762Y-110380952D01*
X115909524Y-110428571D01*
X115861905Y-110476190D01*
X115814286Y-110571429D01*
X115814286Y-110761905D01*
X115861905Y-110857143D01*
X115909524Y-110904762D01*
X116004762Y-110952381D01*
X116195239Y-110952381D01*
X116290477Y-110904762D01*
X116338096Y-110857143D01*
X116385715Y-110761905D01*
X116385715Y-110571429D01*
X116338096Y-110476190D01*
X116290477Y-110428571D01*
X116195239Y-110380952D01*
X115433334Y-97652381D02*
X115100000Y-97176190D01*
X114861905Y-97652381D02*
X114861905Y-96652381D01*
X115242858Y-96652381D01*
X115338096Y-96700000D01*
X115385715Y-96747619D01*
X115433334Y-96842857D01*
X115433334Y-96985714D01*
X115385715Y-97080952D01*
X115338096Y-97128571D01*
X115242858Y-97176190D01*
X114861905Y-97176190D01*
X115909524Y-97652381D02*
X116100000Y-97652381D01*
X116195239Y-97604762D01*
X116242858Y-97557143D01*
X116338096Y-97414286D01*
X116385715Y-97223810D01*
X116385715Y-96842857D01*
X116338096Y-96747619D01*
X116290477Y-96700000D01*
X116195239Y-96652381D01*
X116004762Y-96652381D01*
X115909524Y-96700000D01*
X115861905Y-96747619D01*
X115814286Y-96842857D01*
X115814286Y-97080952D01*
X115861905Y-97176190D01*
X115909524Y-97223810D01*
X116004762Y-97271429D01*
X116195239Y-97271429D01*
X116290477Y-97223810D01*
X116338096Y-97176190D01*
X116385715Y-97080952D01*
X98852381Y-128342857D02*
X98376190Y-128676191D01*
X98852381Y-128914286D02*
X97852381Y-128914286D01*
X97852381Y-128533333D01*
X97900000Y-128438095D01*
X97947619Y-128390476D01*
X98042857Y-128342857D01*
X98185714Y-128342857D01*
X98280952Y-128390476D01*
X98328571Y-128438095D01*
X98376190Y-128533333D01*
X98376190Y-128914286D01*
X98852381Y-127390476D02*
X98852381Y-127961905D01*
X98852381Y-127676191D02*
X97852381Y-127676191D01*
X97995238Y-127771429D01*
X98090476Y-127866667D01*
X98138095Y-127961905D01*
X97852381Y-126771429D02*
X97852381Y-126676190D01*
X97900000Y-126580952D01*
X97947619Y-126533333D01*
X98042857Y-126485714D01*
X98233333Y-126438095D01*
X98471429Y-126438095D01*
X98661905Y-126485714D01*
X98757143Y-126533333D01*
X98804762Y-126580952D01*
X98852381Y-126676190D01*
X98852381Y-126771429D01*
X98804762Y-126866667D01*
X98757143Y-126914286D01*
X98661905Y-126961905D01*
X98471429Y-127009524D01*
X98233333Y-127009524D01*
X98042857Y-126961905D01*
X97947619Y-126914286D01*
X97900000Y-126866667D01*
X97852381Y-126771429D01*
X115057143Y-109352381D02*
X114723809Y-108876190D01*
X114485714Y-109352381D02*
X114485714Y-108352381D01*
X114866667Y-108352381D01*
X114961905Y-108400000D01*
X115009524Y-108447619D01*
X115057143Y-108542857D01*
X115057143Y-108685714D01*
X115009524Y-108780952D01*
X114961905Y-108828571D01*
X114866667Y-108876190D01*
X114485714Y-108876190D01*
X116009524Y-109352381D02*
X115438095Y-109352381D01*
X115723809Y-109352381D02*
X115723809Y-108352381D01*
X115628571Y-108495238D01*
X115533333Y-108590476D01*
X115438095Y-108638095D01*
X116961905Y-109352381D02*
X116390476Y-109352381D01*
X116676190Y-109352381D02*
X116676190Y-108352381D01*
X116580952Y-108495238D01*
X116485714Y-108590476D01*
X116390476Y-108638095D01*
X103952381Y-93542857D02*
X103476190Y-93876191D01*
X103952381Y-94114286D02*
X102952381Y-94114286D01*
X102952381Y-93733333D01*
X103000000Y-93638095D01*
X103047619Y-93590476D01*
X103142857Y-93542857D01*
X103285714Y-93542857D01*
X103380952Y-93590476D01*
X103428571Y-93638095D01*
X103476190Y-93733333D01*
X103476190Y-94114286D01*
X103952381Y-92590476D02*
X103952381Y-93161905D01*
X103952381Y-92876191D02*
X102952381Y-92876191D01*
X103095238Y-92971429D01*
X103190476Y-93066667D01*
X103238095Y-93161905D01*
X103047619Y-92209524D02*
X103000000Y-92161905D01*
X102952381Y-92066667D01*
X102952381Y-91828571D01*
X103000000Y-91733333D01*
X103047619Y-91685714D01*
X103142857Y-91638095D01*
X103238095Y-91638095D01*
X103380952Y-91685714D01*
X103952381Y-92257143D01*
X103952381Y-91638095D01*
X121257143Y-107252381D02*
X120923809Y-106776190D01*
X120685714Y-107252381D02*
X120685714Y-106252381D01*
X121066667Y-106252381D01*
X121161905Y-106300000D01*
X121209524Y-106347619D01*
X121257143Y-106442857D01*
X121257143Y-106585714D01*
X121209524Y-106680952D01*
X121161905Y-106728571D01*
X121066667Y-106776190D01*
X120685714Y-106776190D01*
X122209524Y-107252381D02*
X121638095Y-107252381D01*
X121923809Y-107252381D02*
X121923809Y-106252381D01*
X121828571Y-106395238D01*
X121733333Y-106490476D01*
X121638095Y-106538095D01*
X122542857Y-106252381D02*
X123161905Y-106252381D01*
X122828571Y-106633333D01*
X122971429Y-106633333D01*
X123066667Y-106680952D01*
X123114286Y-106728571D01*
X123161905Y-106823810D01*
X123161905Y-107061905D01*
X123114286Y-107157143D01*
X123066667Y-107204762D01*
X122971429Y-107252381D01*
X122685714Y-107252381D01*
X122590476Y-107204762D01*
X122542857Y-107157143D01*
X98852381Y-125242857D02*
X98376190Y-125576191D01*
X98852381Y-125814286D02*
X97852381Y-125814286D01*
X97852381Y-125433333D01*
X97900000Y-125338095D01*
X97947619Y-125290476D01*
X98042857Y-125242857D01*
X98185714Y-125242857D01*
X98280952Y-125290476D01*
X98328571Y-125338095D01*
X98376190Y-125433333D01*
X98376190Y-125814286D01*
X98852381Y-124290476D02*
X98852381Y-124861905D01*
X98852381Y-124576191D02*
X97852381Y-124576191D01*
X97995238Y-124671429D01*
X98090476Y-124766667D01*
X98138095Y-124861905D01*
X98185714Y-123433333D02*
X98852381Y-123433333D01*
X97804762Y-123671429D02*
X98519048Y-123909524D01*
X98519048Y-123290476D01*
X120357143Y-100552381D02*
X120023809Y-100076190D01*
X119785714Y-100552381D02*
X119785714Y-99552381D01*
X120166667Y-99552381D01*
X120261905Y-99600000D01*
X120309524Y-99647619D01*
X120357143Y-99742857D01*
X120357143Y-99885714D01*
X120309524Y-99980952D01*
X120261905Y-100028571D01*
X120166667Y-100076190D01*
X119785714Y-100076190D01*
X121309524Y-100552381D02*
X120738095Y-100552381D01*
X121023809Y-100552381D02*
X121023809Y-99552381D01*
X120928571Y-99695238D01*
X120833333Y-99790476D01*
X120738095Y-99838095D01*
X122214286Y-99552381D02*
X121738095Y-99552381D01*
X121690476Y-100028571D01*
X121738095Y-99980952D01*
X121833333Y-99933333D01*
X122071429Y-99933333D01*
X122166667Y-99980952D01*
X122214286Y-100028571D01*
X122261905Y-100123810D01*
X122261905Y-100361905D01*
X122214286Y-100457143D01*
X122166667Y-100504762D01*
X122071429Y-100552381D01*
X121833333Y-100552381D01*
X121738095Y-100504762D01*
X121690476Y-100457143D01*
X105652381Y-108642857D02*
X105176190Y-108976191D01*
X105652381Y-109214286D02*
X104652381Y-109214286D01*
X104652381Y-108833333D01*
X104700000Y-108738095D01*
X104747619Y-108690476D01*
X104842857Y-108642857D01*
X104985714Y-108642857D01*
X105080952Y-108690476D01*
X105128571Y-108738095D01*
X105176190Y-108833333D01*
X105176190Y-109214286D01*
X105652381Y-107690476D02*
X105652381Y-108261905D01*
X105652381Y-107976191D02*
X104652381Y-107976191D01*
X104795238Y-108071429D01*
X104890476Y-108166667D01*
X104938095Y-108261905D01*
X104652381Y-106833333D02*
X104652381Y-107023810D01*
X104700000Y-107119048D01*
X104747619Y-107166667D01*
X104890476Y-107261905D01*
X105080952Y-107309524D01*
X105461905Y-107309524D01*
X105557143Y-107261905D01*
X105604762Y-107214286D01*
X105652381Y-107119048D01*
X105652381Y-106928571D01*
X105604762Y-106833333D01*
X105557143Y-106785714D01*
X105461905Y-106738095D01*
X105223810Y-106738095D01*
X105128571Y-106785714D01*
X105080952Y-106833333D01*
X105033333Y-106928571D01*
X105033333Y-107119048D01*
X105080952Y-107214286D01*
X105128571Y-107261905D01*
X105223810Y-107309524D01*
X98852381Y-122442857D02*
X98376190Y-122776191D01*
X98852381Y-123014286D02*
X97852381Y-123014286D01*
X97852381Y-122633333D01*
X97900000Y-122538095D01*
X97947619Y-122490476D01*
X98042857Y-122442857D01*
X98185714Y-122442857D01*
X98280952Y-122490476D01*
X98328571Y-122538095D01*
X98376190Y-122633333D01*
X98376190Y-123014286D01*
X98852381Y-121490476D02*
X98852381Y-122061905D01*
X98852381Y-121776191D02*
X97852381Y-121776191D01*
X97995238Y-121871429D01*
X98090476Y-121966667D01*
X98138095Y-122061905D01*
X97852381Y-121157143D02*
X97852381Y-120490476D01*
X98852381Y-120919048D01*
X171952381Y-110442857D02*
X171476190Y-110776191D01*
X171952381Y-111014286D02*
X170952381Y-111014286D01*
X170952381Y-110633333D01*
X171000000Y-110538095D01*
X171047619Y-110490476D01*
X171142857Y-110442857D01*
X171285714Y-110442857D01*
X171380952Y-110490476D01*
X171428571Y-110538095D01*
X171476190Y-110633333D01*
X171476190Y-111014286D01*
X171952381Y-109490476D02*
X171952381Y-110061905D01*
X171952381Y-109776191D02*
X170952381Y-109776191D01*
X171095238Y-109871429D01*
X171190476Y-109966667D01*
X171238095Y-110061905D01*
X171380952Y-108919048D02*
X171333333Y-109014286D01*
X171285714Y-109061905D01*
X171190476Y-109109524D01*
X171142857Y-109109524D01*
X171047619Y-109061905D01*
X171000000Y-109014286D01*
X170952381Y-108919048D01*
X170952381Y-108728571D01*
X171000000Y-108633333D01*
X171047619Y-108585714D01*
X171142857Y-108538095D01*
X171190476Y-108538095D01*
X171285714Y-108585714D01*
X171333333Y-108633333D01*
X171380952Y-108728571D01*
X171380952Y-108919048D01*
X171428571Y-109014286D01*
X171476190Y-109061905D01*
X171571429Y-109109524D01*
X171761905Y-109109524D01*
X171857143Y-109061905D01*
X171904762Y-109014286D01*
X171952381Y-108919048D01*
X171952381Y-108728571D01*
X171904762Y-108633333D01*
X171857143Y-108585714D01*
X171761905Y-108538095D01*
X171571429Y-108538095D01*
X171476190Y-108585714D01*
X171428571Y-108633333D01*
X171380952Y-108728571D01*
X143952381Y-89342857D02*
X143476190Y-89676191D01*
X143952381Y-89914286D02*
X142952381Y-89914286D01*
X142952381Y-89533333D01*
X143000000Y-89438095D01*
X143047619Y-89390476D01*
X143142857Y-89342857D01*
X143285714Y-89342857D01*
X143380952Y-89390476D01*
X143428571Y-89438095D01*
X143476190Y-89533333D01*
X143476190Y-89914286D01*
X143952381Y-88390476D02*
X143952381Y-88961905D01*
X143952381Y-88676191D02*
X142952381Y-88676191D01*
X143095238Y-88771429D01*
X143190476Y-88866667D01*
X143238095Y-88961905D01*
X143952381Y-87914286D02*
X143952381Y-87723810D01*
X143904762Y-87628571D01*
X143857143Y-87580952D01*
X143714286Y-87485714D01*
X143523810Y-87438095D01*
X143142857Y-87438095D01*
X143047619Y-87485714D01*
X143000000Y-87533333D01*
X142952381Y-87628571D01*
X142952381Y-87819048D01*
X143000000Y-87914286D01*
X143047619Y-87961905D01*
X143142857Y-88009524D01*
X143380952Y-88009524D01*
X143476190Y-87961905D01*
X143523810Y-87914286D01*
X143571429Y-87819048D01*
X143571429Y-87628571D01*
X143523810Y-87533333D01*
X143476190Y-87485714D01*
X143380952Y-87438095D01*
X145852381Y-89442857D02*
X145376190Y-89776191D01*
X145852381Y-90014286D02*
X144852381Y-90014286D01*
X144852381Y-89633333D01*
X144900000Y-89538095D01*
X144947619Y-89490476D01*
X145042857Y-89442857D01*
X145185714Y-89442857D01*
X145280952Y-89490476D01*
X145328571Y-89538095D01*
X145376190Y-89633333D01*
X145376190Y-90014286D01*
X144947619Y-89061905D02*
X144900000Y-89014286D01*
X144852381Y-88919048D01*
X144852381Y-88680952D01*
X144900000Y-88585714D01*
X144947619Y-88538095D01*
X145042857Y-88490476D01*
X145138095Y-88490476D01*
X145280952Y-88538095D01*
X145852381Y-89109524D01*
X145852381Y-88490476D01*
X144852381Y-87871429D02*
X144852381Y-87776190D01*
X144900000Y-87680952D01*
X144947619Y-87633333D01*
X145042857Y-87585714D01*
X145233333Y-87538095D01*
X145471429Y-87538095D01*
X145661905Y-87585714D01*
X145757143Y-87633333D01*
X145804762Y-87680952D01*
X145852381Y-87776190D01*
X145852381Y-87871429D01*
X145804762Y-87966667D01*
X145757143Y-88014286D01*
X145661905Y-88061905D01*
X145471429Y-88109524D01*
X145233333Y-88109524D01*
X145042857Y-88061905D01*
X144947619Y-88014286D01*
X144900000Y-87966667D01*
X144852381Y-87871429D01*
X169252381Y-85542857D02*
X168776190Y-85876191D01*
X169252381Y-86114286D02*
X168252381Y-86114286D01*
X168252381Y-85733333D01*
X168300000Y-85638095D01*
X168347619Y-85590476D01*
X168442857Y-85542857D01*
X168585714Y-85542857D01*
X168680952Y-85590476D01*
X168728571Y-85638095D01*
X168776190Y-85733333D01*
X168776190Y-86114286D01*
X168347619Y-85161905D02*
X168300000Y-85114286D01*
X168252381Y-85019048D01*
X168252381Y-84780952D01*
X168300000Y-84685714D01*
X168347619Y-84638095D01*
X168442857Y-84590476D01*
X168538095Y-84590476D01*
X168680952Y-84638095D01*
X169252381Y-85209524D01*
X169252381Y-84590476D01*
X169252381Y-83638095D02*
X169252381Y-84209524D01*
X169252381Y-83923810D02*
X168252381Y-83923810D01*
X168395238Y-84019048D01*
X168490476Y-84114286D01*
X168538095Y-84209524D01*
X165252381Y-85642857D02*
X164776190Y-85976191D01*
X165252381Y-86214286D02*
X164252381Y-86214286D01*
X164252381Y-85833333D01*
X164300000Y-85738095D01*
X164347619Y-85690476D01*
X164442857Y-85642857D01*
X164585714Y-85642857D01*
X164680952Y-85690476D01*
X164728571Y-85738095D01*
X164776190Y-85833333D01*
X164776190Y-86214286D01*
X164347619Y-85261905D02*
X164300000Y-85214286D01*
X164252381Y-85119048D01*
X164252381Y-84880952D01*
X164300000Y-84785714D01*
X164347619Y-84738095D01*
X164442857Y-84690476D01*
X164538095Y-84690476D01*
X164680952Y-84738095D01*
X165252381Y-85309524D01*
X165252381Y-84690476D01*
X164347619Y-84309524D02*
X164300000Y-84261905D01*
X164252381Y-84166667D01*
X164252381Y-83928571D01*
X164300000Y-83833333D01*
X164347619Y-83785714D01*
X164442857Y-83738095D01*
X164538095Y-83738095D01*
X164680952Y-83785714D01*
X165252381Y-84357143D01*
X165252381Y-83738095D01*
X170452381Y-110442857D02*
X169976190Y-110776191D01*
X170452381Y-111014286D02*
X169452381Y-111014286D01*
X169452381Y-110633333D01*
X169500000Y-110538095D01*
X169547619Y-110490476D01*
X169642857Y-110442857D01*
X169785714Y-110442857D01*
X169880952Y-110490476D01*
X169928571Y-110538095D01*
X169976190Y-110633333D01*
X169976190Y-111014286D01*
X169547619Y-110061905D02*
X169500000Y-110014286D01*
X169452381Y-109919048D01*
X169452381Y-109680952D01*
X169500000Y-109585714D01*
X169547619Y-109538095D01*
X169642857Y-109490476D01*
X169738095Y-109490476D01*
X169880952Y-109538095D01*
X170452381Y-110109524D01*
X170452381Y-109490476D01*
X169452381Y-109157143D02*
X169452381Y-108538095D01*
X169833333Y-108871429D01*
X169833333Y-108728571D01*
X169880952Y-108633333D01*
X169928571Y-108585714D01*
X170023810Y-108538095D01*
X170261905Y-108538095D01*
X170357143Y-108585714D01*
X170404762Y-108633333D01*
X170452381Y-108728571D01*
X170452381Y-109014286D01*
X170404762Y-109109524D01*
X170357143Y-109157143D01*
X155152381Y-110042857D02*
X154676190Y-110376191D01*
X155152381Y-110614286D02*
X154152381Y-110614286D01*
X154152381Y-110233333D01*
X154200000Y-110138095D01*
X154247619Y-110090476D01*
X154342857Y-110042857D01*
X154485714Y-110042857D01*
X154580952Y-110090476D01*
X154628571Y-110138095D01*
X154676190Y-110233333D01*
X154676190Y-110614286D01*
X154247619Y-109661905D02*
X154200000Y-109614286D01*
X154152381Y-109519048D01*
X154152381Y-109280952D01*
X154200000Y-109185714D01*
X154247619Y-109138095D01*
X154342857Y-109090476D01*
X154438095Y-109090476D01*
X154580952Y-109138095D01*
X155152381Y-109709524D01*
X155152381Y-109090476D01*
X154485714Y-108233333D02*
X155152381Y-108233333D01*
X154104762Y-108471429D02*
X154819048Y-108709524D01*
X154819048Y-108090476D01*
X153852381Y-110042857D02*
X153376190Y-110376191D01*
X153852381Y-110614286D02*
X152852381Y-110614286D01*
X152852381Y-110233333D01*
X152900000Y-110138095D01*
X152947619Y-110090476D01*
X153042857Y-110042857D01*
X153185714Y-110042857D01*
X153280952Y-110090476D01*
X153328571Y-110138095D01*
X153376190Y-110233333D01*
X153376190Y-110614286D01*
X152947619Y-109661905D02*
X152900000Y-109614286D01*
X152852381Y-109519048D01*
X152852381Y-109280952D01*
X152900000Y-109185714D01*
X152947619Y-109138095D01*
X153042857Y-109090476D01*
X153138095Y-109090476D01*
X153280952Y-109138095D01*
X153852381Y-109709524D01*
X153852381Y-109090476D01*
X152852381Y-108185714D02*
X152852381Y-108661905D01*
X153328571Y-108709524D01*
X153280952Y-108661905D01*
X153233333Y-108566667D01*
X153233333Y-108328571D01*
X153280952Y-108233333D01*
X153328571Y-108185714D01*
X153423810Y-108138095D01*
X153661905Y-108138095D01*
X153757143Y-108185714D01*
X153804762Y-108233333D01*
X153852381Y-108328571D01*
X153852381Y-108566667D01*
X153804762Y-108661905D01*
X153757143Y-108709524D01*
X133152381Y-121442857D02*
X132676190Y-121776191D01*
X133152381Y-122014286D02*
X132152381Y-122014286D01*
X132152381Y-121633333D01*
X132200000Y-121538095D01*
X132247619Y-121490476D01*
X132342857Y-121442857D01*
X132485714Y-121442857D01*
X132580952Y-121490476D01*
X132628571Y-121538095D01*
X132676190Y-121633333D01*
X132676190Y-122014286D01*
X132247619Y-121061905D02*
X132200000Y-121014286D01*
X132152381Y-120919048D01*
X132152381Y-120680952D01*
X132200000Y-120585714D01*
X132247619Y-120538095D01*
X132342857Y-120490476D01*
X132438095Y-120490476D01*
X132580952Y-120538095D01*
X133152381Y-121109524D01*
X133152381Y-120490476D01*
X132152381Y-119633333D02*
X132152381Y-119823810D01*
X132200000Y-119919048D01*
X132247619Y-119966667D01*
X132390476Y-120061905D01*
X132580952Y-120109524D01*
X132961905Y-120109524D01*
X133057143Y-120061905D01*
X133104762Y-120014286D01*
X133152381Y-119919048D01*
X133152381Y-119728571D01*
X133104762Y-119633333D01*
X133057143Y-119585714D01*
X132961905Y-119538095D01*
X132723810Y-119538095D01*
X132628571Y-119585714D01*
X132580952Y-119633333D01*
X132533333Y-119728571D01*
X132533333Y-119919048D01*
X132580952Y-120014286D01*
X132628571Y-120061905D01*
X132723810Y-120109524D01*
X136252381Y-121482857D02*
X135776190Y-121816191D01*
X136252381Y-122054286D02*
X135252381Y-122054286D01*
X135252381Y-121673333D01*
X135300000Y-121578095D01*
X135347619Y-121530476D01*
X135442857Y-121482857D01*
X135585714Y-121482857D01*
X135680952Y-121530476D01*
X135728571Y-121578095D01*
X135776190Y-121673333D01*
X135776190Y-122054286D01*
X135347619Y-121101905D02*
X135300000Y-121054286D01*
X135252381Y-120959048D01*
X135252381Y-120720952D01*
X135300000Y-120625714D01*
X135347619Y-120578095D01*
X135442857Y-120530476D01*
X135538095Y-120530476D01*
X135680952Y-120578095D01*
X136252381Y-121149524D01*
X136252381Y-120530476D01*
X135252381Y-120197143D02*
X135252381Y-119530476D01*
X136252381Y-119959048D01*
X139352381Y-121482857D02*
X138876190Y-121816191D01*
X139352381Y-122054286D02*
X138352381Y-122054286D01*
X138352381Y-121673333D01*
X138400000Y-121578095D01*
X138447619Y-121530476D01*
X138542857Y-121482857D01*
X138685714Y-121482857D01*
X138780952Y-121530476D01*
X138828571Y-121578095D01*
X138876190Y-121673333D01*
X138876190Y-122054286D01*
X138447619Y-121101905D02*
X138400000Y-121054286D01*
X138352381Y-120959048D01*
X138352381Y-120720952D01*
X138400000Y-120625714D01*
X138447619Y-120578095D01*
X138542857Y-120530476D01*
X138638095Y-120530476D01*
X138780952Y-120578095D01*
X139352381Y-121149524D01*
X139352381Y-120530476D01*
X138780952Y-119959048D02*
X138733333Y-120054286D01*
X138685714Y-120101905D01*
X138590476Y-120149524D01*
X138542857Y-120149524D01*
X138447619Y-120101905D01*
X138400000Y-120054286D01*
X138352381Y-119959048D01*
X138352381Y-119768571D01*
X138400000Y-119673333D01*
X138447619Y-119625714D01*
X138542857Y-119578095D01*
X138590476Y-119578095D01*
X138685714Y-119625714D01*
X138733333Y-119673333D01*
X138780952Y-119768571D01*
X138780952Y-119959048D01*
X138828571Y-120054286D01*
X138876190Y-120101905D01*
X138971429Y-120149524D01*
X139161905Y-120149524D01*
X139257143Y-120101905D01*
X139304762Y-120054286D01*
X139352381Y-119959048D01*
X139352381Y-119768571D01*
X139304762Y-119673333D01*
X139257143Y-119625714D01*
X139161905Y-119578095D01*
X138971429Y-119578095D01*
X138876190Y-119625714D01*
X138828571Y-119673333D01*
X138780952Y-119768571D01*
X142552381Y-121442857D02*
X142076190Y-121776191D01*
X142552381Y-122014286D02*
X141552381Y-122014286D01*
X141552381Y-121633333D01*
X141600000Y-121538095D01*
X141647619Y-121490476D01*
X141742857Y-121442857D01*
X141885714Y-121442857D01*
X141980952Y-121490476D01*
X142028571Y-121538095D01*
X142076190Y-121633333D01*
X142076190Y-122014286D01*
X141647619Y-121061905D02*
X141600000Y-121014286D01*
X141552381Y-120919048D01*
X141552381Y-120680952D01*
X141600000Y-120585714D01*
X141647619Y-120538095D01*
X141742857Y-120490476D01*
X141838095Y-120490476D01*
X141980952Y-120538095D01*
X142552381Y-121109524D01*
X142552381Y-120490476D01*
X142552381Y-120014286D02*
X142552381Y-119823810D01*
X142504762Y-119728571D01*
X142457143Y-119680952D01*
X142314286Y-119585714D01*
X142123810Y-119538095D01*
X141742857Y-119538095D01*
X141647619Y-119585714D01*
X141600000Y-119633333D01*
X141552381Y-119728571D01*
X141552381Y-119919048D01*
X141600000Y-120014286D01*
X141647619Y-120061905D01*
X141742857Y-120109524D01*
X141980952Y-120109524D01*
X142076190Y-120061905D01*
X142123810Y-120014286D01*
X142171429Y-119919048D01*
X142171429Y-119728571D01*
X142123810Y-119633333D01*
X142076190Y-119585714D01*
X141980952Y-119538095D01*
X146342925Y-92724085D02*
X146009591Y-92247894D01*
X145771496Y-92724085D02*
X145771496Y-91724085D01*
X146152449Y-91724085D01*
X146247687Y-91771704D01*
X146295306Y-91819323D01*
X146342925Y-91914561D01*
X146342925Y-92057418D01*
X146295306Y-92152656D01*
X146247687Y-92200275D01*
X146152449Y-92247894D01*
X145771496Y-92247894D01*
X146676258Y-91724085D02*
X147295306Y-91724085D01*
X146961972Y-92105037D01*
X147104830Y-92105037D01*
X147200068Y-92152656D01*
X147247687Y-92200275D01*
X147295306Y-92295514D01*
X147295306Y-92533609D01*
X147247687Y-92628847D01*
X147200068Y-92676466D01*
X147104830Y-92724085D01*
X146819115Y-92724085D01*
X146723877Y-92676466D01*
X146676258Y-92628847D01*
X147914353Y-91724085D02*
X148009592Y-91724085D01*
X148104830Y-91771704D01*
X148152449Y-91819323D01*
X148200068Y-91914561D01*
X148247687Y-92105037D01*
X148247687Y-92343133D01*
X148200068Y-92533609D01*
X148152449Y-92628847D01*
X148104830Y-92676466D01*
X148009592Y-92724085D01*
X147914353Y-92724085D01*
X147819115Y-92676466D01*
X147771496Y-92628847D01*
X147723877Y-92533609D01*
X147676258Y-92343133D01*
X147676258Y-92105037D01*
X147723877Y-91914561D01*
X147771496Y-91819323D01*
X147819115Y-91771704D01*
X147914353Y-91724085D01*
X172657143Y-82552381D02*
X172323809Y-82076190D01*
X172085714Y-82552381D02*
X172085714Y-81552381D01*
X172466667Y-81552381D01*
X172561905Y-81600000D01*
X172609524Y-81647619D01*
X172657143Y-81742857D01*
X172657143Y-81885714D01*
X172609524Y-81980952D01*
X172561905Y-82028571D01*
X172466667Y-82076190D01*
X172085714Y-82076190D01*
X172990476Y-81552381D02*
X173609524Y-81552381D01*
X173276190Y-81933333D01*
X173419048Y-81933333D01*
X173514286Y-81980952D01*
X173561905Y-82028571D01*
X173609524Y-82123810D01*
X173609524Y-82361905D01*
X173561905Y-82457143D01*
X173514286Y-82504762D01*
X173419048Y-82552381D01*
X173133333Y-82552381D01*
X173038095Y-82504762D01*
X172990476Y-82457143D01*
X174561905Y-82552381D02*
X173990476Y-82552381D01*
X174276190Y-82552381D02*
X174276190Y-81552381D01*
X174180952Y-81695238D01*
X174085714Y-81790476D01*
X173990476Y-81838095D01*
X168228571Y-76685714D02*
X168276190Y-76542857D01*
X168323810Y-76495238D01*
X168419048Y-76447619D01*
X168561905Y-76447619D01*
X168657143Y-76495238D01*
X168704762Y-76542857D01*
X168752381Y-76638095D01*
X168752381Y-77019048D01*
X167752381Y-77019048D01*
X167752381Y-76685714D01*
X167800000Y-76590476D01*
X167847619Y-76542857D01*
X167942857Y-76495238D01*
X168038095Y-76495238D01*
X168133333Y-76542857D01*
X168180952Y-76590476D01*
X168228571Y-76685714D01*
X168228571Y-77019048D01*
X167752381Y-76161905D02*
X167752381Y-75590476D01*
X168752381Y-75876191D02*
X167752381Y-75876191D01*
X168752381Y-74733333D02*
X168752381Y-75304762D01*
X168752381Y-75019048D02*
X167752381Y-75019048D01*
X167895238Y-75114286D01*
X167990476Y-75209524D01*
X168038095Y-75304762D01*
X107252381Y-93261905D02*
X108061905Y-93261905D01*
X108157143Y-93214286D01*
X108204762Y-93166667D01*
X108252381Y-93071429D01*
X108252381Y-92880952D01*
X108204762Y-92785714D01*
X108157143Y-92738095D01*
X108061905Y-92690476D01*
X107252381Y-92690476D01*
X108252381Y-91690476D02*
X108252381Y-92261905D01*
X108252381Y-91976191D02*
X107252381Y-91976191D01*
X107395238Y-92071429D01*
X107490476Y-92166667D01*
X107538095Y-92261905D01*
X116652381Y-81561905D02*
X117461905Y-81561905D01*
X117557143Y-81514286D01*
X117604762Y-81466667D01*
X117652381Y-81371429D01*
X117652381Y-81180952D01*
X117604762Y-81085714D01*
X117557143Y-81038095D01*
X117461905Y-80990476D01*
X116652381Y-80990476D01*
X116747619Y-80561905D02*
X116700000Y-80514286D01*
X116652381Y-80419048D01*
X116652381Y-80180952D01*
X116700000Y-80085714D01*
X116747619Y-80038095D01*
X116842857Y-79990476D01*
X116938095Y-79990476D01*
X117080952Y-80038095D01*
X117652381Y-80609524D01*
X117652381Y-79990476D01*
X108238095Y-98452381D02*
X108238095Y-99261905D01*
X108285714Y-99357143D01*
X108333333Y-99404762D01*
X108428571Y-99452381D01*
X108619048Y-99452381D01*
X108714286Y-99404762D01*
X108761905Y-99357143D01*
X108809524Y-99261905D01*
X108809524Y-98452381D01*
X109190476Y-98452381D02*
X109809524Y-98452381D01*
X109476190Y-98833333D01*
X109619048Y-98833333D01*
X109714286Y-98880952D01*
X109761905Y-98928571D01*
X109809524Y-99023810D01*
X109809524Y-99261905D01*
X109761905Y-99357143D01*
X109714286Y-99404762D01*
X109619048Y-99452381D01*
X109333333Y-99452381D01*
X109238095Y-99404762D01*
X109190476Y-99357143D01*
X134838095Y-100352381D02*
X134838095Y-101161905D01*
X134885714Y-101257143D01*
X134933333Y-101304762D01*
X135028571Y-101352381D01*
X135219048Y-101352381D01*
X135314286Y-101304762D01*
X135361905Y-101257143D01*
X135409524Y-101161905D01*
X135409524Y-100352381D01*
X136314286Y-100685714D02*
X136314286Y-101352381D01*
X136076190Y-100304762D02*
X135838095Y-101019048D01*
X136457143Y-101019048D01*
X163338095Y-96452381D02*
X163338095Y-97261905D01*
X163385714Y-97357143D01*
X163433333Y-97404762D01*
X163528571Y-97452381D01*
X163719048Y-97452381D01*
X163814286Y-97404762D01*
X163861905Y-97357143D01*
X163909524Y-97261905D01*
X163909524Y-96452381D01*
X164861905Y-96452381D02*
X164385714Y-96452381D01*
X164338095Y-96928571D01*
X164385714Y-96880952D01*
X164480952Y-96833333D01*
X164719048Y-96833333D01*
X164814286Y-96880952D01*
X164861905Y-96928571D01*
X164909524Y-97023810D01*
X164909524Y-97261905D01*
X164861905Y-97357143D01*
X164814286Y-97404762D01*
X164719048Y-97452381D01*
X164480952Y-97452381D01*
X164385714Y-97404762D01*
X164338095Y-97357143D01*
X136123809Y-111576190D02*
X136123809Y-112052381D01*
X135790476Y-111052381D02*
X136123809Y-111576190D01*
X136457143Y-111052381D01*
X137314286Y-112052381D02*
X136742857Y-112052381D01*
X137028571Y-112052381D02*
X137028571Y-111052381D01*
X136933333Y-111195238D01*
X136838095Y-111290476D01*
X136742857Y-111338095D01*
X123948809Y-118001190D02*
X123948809Y-118477381D01*
X123615476Y-117477381D02*
X123948809Y-118001190D01*
X124282143Y-117477381D01*
X124567857Y-117572619D02*
X124615476Y-117525000D01*
X124710714Y-117477381D01*
X124948810Y-117477381D01*
X125044048Y-117525000D01*
X125091667Y-117572619D01*
X125139286Y-117667857D01*
X125139286Y-117763095D01*
X125091667Y-117905952D01*
X124520238Y-118477381D01*
X125139286Y-118477381D01*
X154267143Y-73432857D02*
X154314762Y-73480476D01*
X154362381Y-73623333D01*
X154362381Y-73718571D01*
X154314762Y-73861429D01*
X154219524Y-73956667D01*
X154124286Y-74004286D01*
X153933810Y-74051905D01*
X153790952Y-74051905D01*
X153600476Y-74004286D01*
X153505238Y-73956667D01*
X153410000Y-73861429D01*
X153362381Y-73718571D01*
X153362381Y-73623333D01*
X153410000Y-73480476D01*
X153457619Y-73432857D01*
X153457619Y-73051905D02*
X153410000Y-73004286D01*
X153362381Y-72909048D01*
X153362381Y-72670952D01*
X153410000Y-72575714D01*
X153457619Y-72528095D01*
X153552857Y-72480476D01*
X153648095Y-72480476D01*
X153790952Y-72528095D01*
X154362381Y-73099524D01*
X154362381Y-72480476D01*
X154362381Y-72004286D02*
X154362381Y-71813810D01*
X154314762Y-71718571D01*
X154267143Y-71670952D01*
X154124286Y-71575714D01*
X153933810Y-71528095D01*
X153552857Y-71528095D01*
X153457619Y-71575714D01*
X153410000Y-71623333D01*
X153362381Y-71718571D01*
X153362381Y-71909048D01*
X153410000Y-72004286D01*
X153457619Y-72051905D01*
X153552857Y-72099524D01*
X153790952Y-72099524D01*
X153886190Y-72051905D01*
X153933810Y-72004286D01*
X153981429Y-71909048D01*
X153981429Y-71718571D01*
X153933810Y-71623333D01*
X153886190Y-71575714D01*
X153790952Y-71528095D01*
X154452381Y-79442857D02*
X153976190Y-79776191D01*
X154452381Y-80014286D02*
X153452381Y-80014286D01*
X153452381Y-79633333D01*
X153500000Y-79538095D01*
X153547619Y-79490476D01*
X153642857Y-79442857D01*
X153785714Y-79442857D01*
X153880952Y-79490476D01*
X153928571Y-79538095D01*
X153976190Y-79633333D01*
X153976190Y-80014286D01*
X153452381Y-79109524D02*
X153452381Y-78490476D01*
X153833333Y-78823810D01*
X153833333Y-78680952D01*
X153880952Y-78585714D01*
X153928571Y-78538095D01*
X154023810Y-78490476D01*
X154261905Y-78490476D01*
X154357143Y-78538095D01*
X154404762Y-78585714D01*
X154452381Y-78680952D01*
X154452381Y-78966667D01*
X154404762Y-79061905D01*
X154357143Y-79109524D01*
X153547619Y-78109524D02*
X153500000Y-78061905D01*
X153452381Y-77966667D01*
X153452381Y-77728571D01*
X153500000Y-77633333D01*
X153547619Y-77585714D01*
X153642857Y-77538095D01*
X153738095Y-77538095D01*
X153880952Y-77585714D01*
X154452381Y-78157143D01*
X154452381Y-77538095D01*
X160528571Y-76685714D02*
X160576190Y-76542857D01*
X160623810Y-76495238D01*
X160719048Y-76447619D01*
X160861905Y-76447619D01*
X160957143Y-76495238D01*
X161004762Y-76542857D01*
X161052381Y-76638095D01*
X161052381Y-77019048D01*
X160052381Y-77019048D01*
X160052381Y-76685714D01*
X160100000Y-76590476D01*
X160147619Y-76542857D01*
X160242857Y-76495238D01*
X160338095Y-76495238D01*
X160433333Y-76542857D01*
X160480952Y-76590476D01*
X160528571Y-76685714D01*
X160528571Y-77019048D01*
X160052381Y-76161905D02*
X160052381Y-75590476D01*
X161052381Y-75876191D02*
X160052381Y-75876191D01*
X160147619Y-75304762D02*
X160100000Y-75257143D01*
X160052381Y-75161905D01*
X160052381Y-74923809D01*
X160100000Y-74828571D01*
X160147619Y-74780952D01*
X160242857Y-74733333D01*
X160338095Y-74733333D01*
X160480952Y-74780952D01*
X161052381Y-75352381D01*
X161052381Y-74733333D01*
X175666667Y-74952381D02*
X175333333Y-74476190D01*
X175095238Y-74952381D02*
X175095238Y-73952381D01*
X175476191Y-73952381D01*
X175571429Y-74000000D01*
X175619048Y-74047619D01*
X175666667Y-74142857D01*
X175666667Y-74285714D01*
X175619048Y-74380952D01*
X175571429Y-74428571D01*
X175476191Y-74476190D01*
X175095238Y-74476190D01*
X176095238Y-74428571D02*
X176428572Y-74428571D01*
X176571429Y-74952381D02*
X176095238Y-74952381D01*
X176095238Y-73952381D01*
X176571429Y-73952381D01*
X177333334Y-74428571D02*
X177000000Y-74428571D01*
X177000000Y-74952381D02*
X177000000Y-73952381D01*
X177476191Y-73952381D01*
X178000000Y-73952381D02*
X178000000Y-74190476D01*
X177761905Y-74095238D02*
X178000000Y-74190476D01*
X178238096Y-74095238D01*
X177857143Y-74380952D02*
X178000000Y-74190476D01*
X178142858Y-74380952D01*
X178761905Y-73952381D02*
X178761905Y-74190476D01*
X178523810Y-74095238D02*
X178761905Y-74190476D01*
X179000001Y-74095238D01*
X178619048Y-74380952D02*
X178761905Y-74190476D01*
X178904763Y-74380952D01*
D11*
X123078266Y-125451181D02*
X123078266Y-124451181D01*
X123730743Y-125451181D02*
X123630362Y-125403562D01*
X123580171Y-125355943D01*
X123529981Y-125260705D01*
X123529981Y-124974990D01*
X123580171Y-124879752D01*
X123630362Y-124832133D01*
X123730743Y-124784514D01*
X123881314Y-124784514D01*
X123981695Y-124832133D01*
X124031886Y-124879752D01*
X124082076Y-124974990D01*
X124082076Y-125260705D01*
X124031886Y-125355943D01*
X123981695Y-125403562D01*
X123881314Y-125451181D01*
X123730743Y-125451181D01*
X124383219Y-124451181D02*
X124985505Y-124451181D01*
X124684362Y-125451181D02*
X124684362Y-124451181D01*
M02*
