G04 #@! TF.FileFunction,Soldermask,Bot*
%FSLAX46Y46*%
G04 Gerber Fmt 4.6, Leading zero omitted, Abs format (unit mm)*
G04 Created by KiCad (PCBNEW 4.0.6) date 01/12/18 15:18:15*
%MOMM*%
%LPD*%
G01*
G04 APERTURE LIST*
%ADD10C,0.100000*%
%ADD11C,4.400000*%
%ADD12C,1.924000*%
%ADD13O,4.124000X3.024000*%
%ADD14R,4.124000X3.024000*%
%ADD15R,2.224000X2.924000*%
%ADD16O,2.224000X2.924000*%
%ADD17O,1.350000X1.650000*%
%ADD18R,2.124000X2.624000*%
%ADD19O,2.124000X2.624000*%
%ADD20R,2.124000X2.124000*%
%ADD21C,2.124000*%
G04 APERTURE END LIST*
D10*
D11*
X93000000Y-127000000D03*
X177000000Y-127000000D03*
X94000000Y-74000000D03*
D12*
X111000000Y-116500000D03*
X114700000Y-122908588D03*
D13*
X96000000Y-110080000D03*
X96000000Y-105000000D03*
X96000000Y-99920000D03*
D14*
X96000000Y-94840000D03*
D15*
X130920000Y-127000000D03*
D16*
X133460000Y-127000000D03*
X136000000Y-127000000D03*
X138540000Y-127000000D03*
X141080000Y-127000000D03*
X143620000Y-127000000D03*
D17*
X94500000Y-117000000D03*
X94500000Y-121100000D03*
D15*
X139030000Y-90030000D03*
D16*
X136490000Y-90030000D03*
X133950000Y-90030000D03*
X131410000Y-90030000D03*
D18*
X150880000Y-73080000D03*
D19*
X148340000Y-73080000D03*
X145800000Y-73080000D03*
X143260000Y-73080000D03*
X140720000Y-73080000D03*
X138180000Y-73080000D03*
X135640000Y-73080000D03*
X133100000Y-73080000D03*
D15*
X151090000Y-80270000D03*
D16*
X148550000Y-80270000D03*
X146010000Y-80270000D03*
X143470000Y-80270000D03*
D20*
X147620000Y-115140000D03*
D21*
X150160000Y-115140000D03*
X147620000Y-117680000D03*
X150160000Y-117680000D03*
X147620000Y-120220000D03*
X150160000Y-120220000D03*
X147620000Y-122760000D03*
X150160000Y-122760000D03*
D11*
X177000000Y-74000000D03*
M02*
