G04 #@! TF.FileFunction,Soldermask,Top*
%FSLAX46Y46*%
G04 Gerber Fmt 4.6, Leading zero omitted, Abs format (unit mm)*
G04 Created by KiCad (PCBNEW 4.0.6) date 01/12/18 15:47:40*
%MOMM*%
%LPD*%
G01*
G04 APERTURE LIST*
%ADD10C,0.100000*%
%ADD11C,4.400000*%
%ADD12R,2.000000X2.400000*%
%ADD13R,1.650000X1.900000*%
%ADD14R,2.900000X2.400000*%
%ADD15R,1.900000X1.650000*%
%ADD16R,2.400000X2.100000*%
%ADD17R,1.900000X1.700000*%
%ADD18R,1.850000X0.850000*%
%ADD19R,2.224000X2.924000*%
%ADD20O,2.224000X2.924000*%
%ADD21O,4.124000X3.024000*%
%ADD22R,4.124000X3.024000*%
%ADD23O,3.650000X1.350000*%
%ADD24R,1.654000X1.200100*%
%ADD25R,1.700000X1.900000*%
%ADD26R,3.154000X1.654000*%
%ADD27R,1.000000X1.950000*%
%ADD28R,1.960000X1.050000*%
%ADD29R,2.100000X1.100000*%
%ADD30R,2.200000X2.900000*%
%ADD31R,2.324000X2.124000*%
%ADD32O,2.324000X2.124000*%
%ADD33R,2.924000X2.224000*%
%ADD34O,2.924000X2.224000*%
G04 APERTURE END LIST*
D10*
D11*
X104000000Y-74000000D03*
X166000000Y-74000000D03*
X166000000Y-116000000D03*
D12*
X140100000Y-79700000D03*
X140100000Y-83700000D03*
D13*
X149500000Y-81250000D03*
X149500000Y-78750000D03*
X127900000Y-76750000D03*
X127900000Y-79250000D03*
D14*
X125100000Y-76100000D03*
X125100000Y-80100000D03*
D13*
X116500000Y-76750000D03*
X116500000Y-79250000D03*
D14*
X113500000Y-76000000D03*
X113500000Y-80000000D03*
D12*
X131000000Y-79300000D03*
X131000000Y-83300000D03*
D15*
X123250000Y-82500000D03*
X120750000Y-82500000D03*
X138015477Y-86800000D03*
X140515477Y-86800000D03*
D13*
X110400000Y-109250000D03*
X110400000Y-111750000D03*
X135800000Y-98950000D03*
X135800000Y-101450000D03*
D15*
X121650000Y-97100000D03*
X124150000Y-97100000D03*
X139850000Y-101900000D03*
X142350000Y-101900000D03*
D16*
X139000000Y-104500000D03*
X143000000Y-104500000D03*
D17*
X125400000Y-88500000D03*
X122700000Y-88500000D03*
X125400000Y-86250000D03*
X122700000Y-86250000D03*
X115650000Y-73500000D03*
X118350000Y-73500000D03*
X128250000Y-103300000D03*
X130950000Y-103300000D03*
D18*
X138350000Y-93975000D03*
X138350000Y-94625000D03*
X138350000Y-95275000D03*
X138350000Y-95925000D03*
X138350000Y-96575000D03*
X138350000Y-97225000D03*
X138350000Y-97875000D03*
X138350000Y-98525000D03*
X138350000Y-99175000D03*
X138350000Y-99825000D03*
X144250000Y-99825000D03*
X144250000Y-99175000D03*
X144250000Y-98525000D03*
X144250000Y-97875000D03*
X144250000Y-97225000D03*
X144250000Y-96575000D03*
X144250000Y-95925000D03*
X144250000Y-95275000D03*
X144250000Y-94625000D03*
X144250000Y-93975000D03*
D19*
X142960000Y-73500000D03*
D20*
X145500000Y-73500000D03*
D21*
X111000000Y-102620000D03*
X111000000Y-97540000D03*
X111000000Y-92460000D03*
D22*
X111000000Y-87380000D03*
D19*
X132210000Y-73500000D03*
D20*
X134750000Y-73500000D03*
D19*
X126890000Y-115700000D03*
D20*
X129430000Y-115700000D03*
X131970000Y-115700000D03*
X134510000Y-115700000D03*
D19*
X145280000Y-89300000D03*
D20*
X142740000Y-89300000D03*
X140200000Y-89300000D03*
X137660000Y-89300000D03*
D23*
X153000000Y-83000000D03*
X153000000Y-84270000D03*
X153000000Y-79190000D03*
X153050000Y-80460000D03*
X153000000Y-81730000D03*
X153000000Y-85540000D03*
X153000000Y-86810000D03*
X153000000Y-88080000D03*
D24*
X130600760Y-92750000D03*
X130600760Y-90850000D03*
X128600000Y-91800000D03*
D25*
X138800000Y-75950000D03*
X138800000Y-73250000D03*
D17*
X115650000Y-82500000D03*
X118350000Y-82500000D03*
D25*
X143750000Y-83000000D03*
X143750000Y-85700000D03*
D17*
X121050000Y-73500000D03*
X123750000Y-73500000D03*
X130800000Y-88500000D03*
X128100000Y-88500000D03*
X130800000Y-86250000D03*
X128100000Y-86250000D03*
D25*
X143750000Y-77900000D03*
X143750000Y-80600000D03*
X146500000Y-80600000D03*
X146500000Y-77900000D03*
X146500000Y-85600000D03*
X146500000Y-82900000D03*
D17*
X140550000Y-92100000D03*
X137850000Y-92100000D03*
D25*
X124000000Y-111950000D03*
X124000000Y-109250000D03*
X118180000Y-86550000D03*
X118180000Y-89250000D03*
X128200000Y-100350000D03*
X128200000Y-97650000D03*
X131000000Y-100350000D03*
X131000000Y-97650000D03*
D17*
X130950000Y-95200000D03*
X128250000Y-95200000D03*
D25*
X118100000Y-91650000D03*
X118100000Y-94350000D03*
X133350000Y-95150000D03*
X133350000Y-97850000D03*
X133400000Y-103250000D03*
X133400000Y-100550000D03*
X133300000Y-92750000D03*
X133300000Y-90050000D03*
X118100000Y-96650000D03*
X118100000Y-99350000D03*
X134002500Y-109050000D03*
X134002500Y-111750000D03*
X130685000Y-109050000D03*
X130685000Y-111750000D03*
D26*
X119680000Y-109200000D03*
X113920000Y-109200000D03*
X113920000Y-113200000D03*
X119680000Y-113200000D03*
D27*
X137505000Y-78900000D03*
X136235000Y-78900000D03*
X134965000Y-78900000D03*
X133695000Y-78900000D03*
X133695000Y-84300000D03*
X134965000Y-84300000D03*
X136235000Y-84300000D03*
X137505000Y-84300000D03*
D28*
X119150000Y-77050000D03*
X119150000Y-78000000D03*
X119150000Y-78950000D03*
X121850000Y-78950000D03*
X121850000Y-77050000D03*
D29*
X125900000Y-95205000D03*
X125900000Y-93935000D03*
X125900000Y-92665000D03*
X125900000Y-91395000D03*
X120500000Y-91395000D03*
X120500000Y-92665000D03*
X120500000Y-93935000D03*
X120500000Y-95205000D03*
D11*
X104000000Y-116000000D03*
D30*
X109750000Y-76000000D03*
X109750000Y-80000000D03*
D31*
X151500000Y-93380000D03*
D32*
X151500000Y-95920000D03*
X151500000Y-98460000D03*
X151500000Y-101000000D03*
D19*
X138320000Y-115700000D03*
D20*
X140860000Y-115700000D03*
X143400000Y-115700000D03*
X145940000Y-115700000D03*
D19*
X155840000Y-115650001D03*
D20*
X153300000Y-115650001D03*
X150760000Y-115650001D03*
D33*
X167200000Y-106220000D03*
D34*
X167200000Y-108760000D03*
X167200000Y-111300000D03*
D25*
X148200000Y-96050000D03*
X148200000Y-93350000D03*
X143955000Y-109050000D03*
X143955000Y-111750000D03*
X140637500Y-109050000D03*
X140637500Y-111750000D03*
X153857500Y-111750000D03*
X153857500Y-109050000D03*
D17*
X162950000Y-107550000D03*
X160250000Y-107550000D03*
D25*
X150590000Y-109050000D03*
X150590000Y-111750000D03*
D17*
X160250000Y-109925000D03*
X162950000Y-109925000D03*
D25*
X147222500Y-111750000D03*
X147222500Y-109050000D03*
D17*
X162950000Y-112400000D03*
X160250000Y-112400000D03*
D13*
X137295000Y-111750000D03*
X137295000Y-109250000D03*
X127342500Y-111750000D03*
X127342500Y-109250000D03*
D15*
X162950000Y-105100000D03*
X160450000Y-105100000D03*
D13*
X157200000Y-111584523D03*
X157200000Y-109084523D03*
X148200000Y-91350000D03*
X148200000Y-88850000D03*
M02*
