M48
;DRILL file {KiCad 4.0.6} date 01/12/18 15:47:42
;FORMAT={-:-/ absolute / metric / decimal}
FMAT,2
METRIC,TZ
T1C0.600
T2C0.762
T3C0.800
T4C1.000
T5C1.200
T6C4.000
%
G90
G05
M71
T1
X103.7Y-106.3
X103.8Y-105.375
X103.9Y-104.425
X103.95Y-103.575
X104.Y-102.675
X113.462Y-80.871
X113.5Y-80.
X113.5Y-81.8
X114.25Y-117.05
X114.825Y-73.
X115.125Y-117.15
X115.65Y-73.5
X115.65Y-82.5
X116.Y-117.15
X116.5Y-76.75
X116.9Y-117.15
X117.775Y-117.15
X118.18Y-86.55
X118.65Y-117.225
X119.1Y-104.975
X119.68Y-113.2
X119.925Y-105.15
X120.5Y-96.4
X120.775Y-105.2
X121.55Y-105.55
X124.Y-109.25
X124.15Y-97.1
X124.15Y-98.
X124.9Y-98.225
X125.1Y-76.1
X125.1Y-76.9
X125.797Y-75.634
X125.953Y-76.48
X127.343Y-109.25
X128.25Y-105.725
X128.5Y-92.7
X129.125Y-106.
X130.Y-106.
X130.685Y-109.05
X130.989Y-97.503
X131.Y-83.3
X131.825Y-83.775
X132.675Y-84.05
X133.35Y-97.85
X133.4Y-100.55
X134.002Y-109.05
X135.6Y-96.3
X136.4Y-77.3
X137.295Y-109.25
X137.7Y-93.6
X137.8Y-101.7
X138.2Y-70.9
X138.975Y-70.9
X139.725Y-70.9
X139.85Y-101.9
X139.904Y-98.011
X140.1Y-79.7
X140.269Y-101.149
X140.55Y-92.1
X140.637Y-109.05
X141.283Y-93.621
X141.907Y-94.906
X142.Y-105.5
X142.678Y-97.788
X142.8Y-105.475
X143.955Y-109.05
X145.936Y-96.258
X146.5Y-77.9
X146.5Y-85.6
X146.85Y-100.975
X147.Y-101.6
X147.222Y-109.05
X147.813Y-102.912
X148.577Y-97.932
X148.832Y-85.667
X148.85Y-80.925
X149.5Y-81.25
X149.768Y-86.893
X152.4Y-73.955
X152.845Y-74.4
X153.375Y-74.93
X153.764Y-75.725
X154.992Y-90.569
X154.992Y-91.325
X155.425Y-107.025
X155.8Y-83.1
X156.157Y-83.665
X156.2Y-107.5
X156.775Y-108.275
X157.2Y-109.085
X158.725Y-105.1
X159.425Y-118.3
X159.475Y-116.625
X159.475Y-117.45
X159.525Y-105.1
X160.25Y-112.4
X160.25Y-118.85
X160.275Y-117.1
X160.275Y-118.
X160.3Y-116.2
X160.45Y-105.1
T2
X151.5Y-95.92
X151.5Y-98.46
X151.5Y-101.
T3
X151.5Y-93.38
T4
X126.89Y-115.7
X129.43Y-115.7
X131.97Y-115.7
X132.21Y-73.5
X134.51Y-115.7
X134.75Y-73.5
X137.66Y-89.3
X138.32Y-115.7
X140.2Y-89.3
X140.86Y-115.7
X142.74Y-89.3
X142.96Y-73.5
X143.4Y-115.7
X145.28Y-89.3
X145.5Y-73.5
X145.94Y-115.7
X150.76Y-115.65
X153.3Y-115.65
X155.84Y-115.65
X167.2Y-106.22
X167.2Y-108.76
X167.2Y-111.3
T5
X111.Y-87.38
X111.Y-92.46
X111.Y-97.54
X111.Y-102.62
T6
X104.Y-74.
X104.Y-116.
X166.Y-74.
X166.Y-116.
T0
M30
