G04 #@! TF.FileFunction,Copper,L2,Bot,Signal*
%FSLAX46Y46*%
G04 Gerber Fmt 4.6, Leading zero omitted, Abs format (unit mm)*
G04 Created by KiCad (PCBNEW 4.0.6) date 01/12/18 15:47:40*
%MOMM*%
%LPD*%
G01*
G04 APERTURE LIST*
%ADD10C,0.100000*%
%ADD11C,4.000000*%
%ADD12R,1.824000X2.524000*%
%ADD13O,1.824000X2.524000*%
%ADD14O,3.724000X2.624000*%
%ADD15R,3.724000X2.624000*%
%ADD16R,1.924000X1.724000*%
%ADD17O,1.924000X1.724000*%
%ADD18R,2.524000X1.824000*%
%ADD19O,2.524000X1.824000*%
%ADD20C,1.100000*%
%ADD21C,0.254000*%
%ADD22C,0.600000*%
%ADD23C,1.000000*%
%ADD24C,0.400000*%
%ADD25C,0.700000*%
%ADD26C,0.500000*%
%ADD27C,0.800000*%
G04 APERTURE END LIST*
D10*
D11*
X104000000Y-74000000D03*
X166000000Y-74000000D03*
X166000000Y-116000000D03*
D12*
X142960000Y-73500000D03*
D13*
X145500000Y-73500000D03*
D14*
X111000000Y-102620000D03*
X111000000Y-97540000D03*
X111000000Y-92460000D03*
D15*
X111000000Y-87380000D03*
D12*
X132210000Y-73500000D03*
D13*
X134750000Y-73500000D03*
D12*
X126890000Y-115700000D03*
D13*
X129430000Y-115700000D03*
X131970000Y-115700000D03*
X134510000Y-115700000D03*
D12*
X145280000Y-89300000D03*
D13*
X142740000Y-89300000D03*
X140200000Y-89300000D03*
X137660000Y-89300000D03*
D11*
X104000000Y-116000000D03*
D16*
X151500000Y-93380000D03*
D17*
X151500000Y-95920000D03*
X151500000Y-98460000D03*
X151500000Y-101000000D03*
D12*
X138320000Y-115700000D03*
D13*
X140860000Y-115700000D03*
X143400000Y-115700000D03*
X145940000Y-115700000D03*
D12*
X155840000Y-115650001D03*
D13*
X153300000Y-115650001D03*
X150760000Y-115650001D03*
D18*
X167200000Y-106220000D03*
D19*
X167200000Y-108760000D03*
X167200000Y-111300000D03*
D20*
X159475000Y-116625000D03*
X159475000Y-117450000D03*
X159425000Y-118300000D03*
X160250000Y-118850000D03*
X160275000Y-118000000D03*
X160275000Y-117100000D03*
X160300000Y-116200000D03*
X139725000Y-70900000D03*
X138200000Y-70900000D03*
X138975000Y-70900000D03*
X153764475Y-75725000D03*
X153375000Y-74930004D03*
X152844996Y-74400000D03*
X152400000Y-73955004D03*
X113500000Y-81800000D03*
X113461744Y-80871192D03*
X114825000Y-73000000D03*
X121550000Y-105550000D03*
X120775000Y-105200000D03*
X119925000Y-105150000D03*
X119100000Y-104975000D03*
X124900000Y-98225000D03*
X124150000Y-98000000D03*
X103700000Y-106300000D03*
X103800000Y-105375000D03*
X103900000Y-104425000D03*
X103950000Y-103575000D03*
X104000000Y-102675000D03*
X118650000Y-117225000D03*
X117775000Y-117150000D03*
X116900000Y-117150000D03*
X116000000Y-117150000D03*
X115125000Y-117150000D03*
X114250000Y-117050000D03*
X130000000Y-106000000D03*
X129125000Y-106000000D03*
X128250000Y-105725000D03*
X142800000Y-105475000D03*
X158725000Y-105100000D03*
X159525000Y-105100000D03*
X155425000Y-107025000D03*
X156200000Y-107500000D03*
X156775000Y-108275000D03*
X133350000Y-97850000D03*
X160450000Y-105100000D03*
X157200000Y-109084523D03*
X142000000Y-105500000D03*
X124150000Y-97100000D03*
X147222500Y-109050000D03*
X137295000Y-109250000D03*
X127342500Y-109250000D03*
X119680000Y-113200000D03*
X160250000Y-112400000D03*
X140100000Y-79700000D03*
X146500000Y-85600000D03*
X115650000Y-73500000D03*
X113500000Y-80000000D03*
X148850000Y-80925000D03*
X125796735Y-75634246D03*
X125952658Y-76480087D03*
X125100000Y-76900000D03*
X140268587Y-101149476D03*
X139850000Y-101900000D03*
X125100000Y-76100000D03*
X140550000Y-92100000D03*
X149500000Y-81250000D03*
X132675000Y-84050000D03*
X131825000Y-83775000D03*
X131000000Y-83300000D03*
X120500000Y-96400000D03*
X118180000Y-86550000D03*
X115650000Y-82500000D03*
X116500000Y-76750000D03*
X124000000Y-109250000D03*
X135600000Y-96300000D03*
X139904446Y-98010893D03*
X133400000Y-100550000D03*
X156156978Y-83664732D03*
X155800000Y-83100000D03*
X137800000Y-101700000D03*
X143955000Y-109050000D03*
X134002500Y-109050000D03*
X140637500Y-109050000D03*
X130685000Y-109050000D03*
X154992241Y-91325000D03*
X142677781Y-97788342D03*
X154992241Y-90569138D03*
X148831670Y-85667250D03*
X141283190Y-93621465D03*
X149767785Y-86893076D03*
X141907428Y-94905930D03*
X130988784Y-97502809D03*
X128500000Y-92700000D03*
X146500000Y-77900000D03*
X136400000Y-77300000D03*
X137700000Y-93600000D03*
X146850000Y-100975000D03*
X147000000Y-101600000D03*
X145936275Y-96257704D03*
X148577101Y-97932152D03*
X147812512Y-102911953D03*
D21*
X159475000Y-117450000D02*
X159475000Y-116625000D01*
X160250000Y-118850000D02*
X159975000Y-118850000D01*
X159975000Y-118850000D02*
X159425000Y-118300000D01*
X160275000Y-117100000D02*
X160275000Y-118000000D01*
X160250000Y-112400000D02*
X160250000Y-116150000D01*
X160250000Y-116150000D02*
X160300000Y-116200000D01*
D22*
X153764475Y-100177963D02*
X153764475Y-75725000D01*
D23*
X153375000Y-74930004D02*
X153375000Y-75335525D01*
X153375000Y-75335525D02*
X153764475Y-75725000D01*
X152844996Y-74400000D02*
X153375000Y-74930004D01*
X152400000Y-73955004D02*
X152844996Y-74400000D01*
D22*
X152400000Y-73955004D02*
X151944996Y-73500000D01*
D23*
X104000000Y-84225000D02*
X108225000Y-80000000D01*
X108225000Y-80000000D02*
X113500000Y-80000000D01*
X104000000Y-102675000D02*
X104000000Y-84225000D01*
D21*
X113461744Y-80871192D02*
X113461744Y-81761744D01*
X113461744Y-81761744D02*
X113500000Y-81800000D01*
X113461744Y-80093375D02*
X113461744Y-80871192D01*
X113461744Y-80038256D02*
X113461744Y-80093375D01*
X113500000Y-80000000D02*
X113461744Y-80038256D01*
X115650000Y-73500000D02*
X115325000Y-73500000D01*
X115325000Y-73500000D02*
X114825000Y-73000000D01*
X119925000Y-105150000D02*
X120725000Y-105150000D01*
X120725000Y-105150000D02*
X120775000Y-105200000D01*
X118505000Y-102620000D02*
X118505000Y-104380000D01*
X118505000Y-104380000D02*
X119100000Y-104975000D01*
X124150000Y-97100000D02*
X124150000Y-98000000D01*
X103900000Y-104425000D02*
X103900000Y-105275000D01*
X103900000Y-105275000D02*
X103800000Y-105375000D01*
X104000000Y-102675000D02*
X104000000Y-103525000D01*
X104000000Y-103525000D02*
X103950000Y-103575000D01*
X117775000Y-117150000D02*
X118575000Y-117150000D01*
X118575000Y-117150000D02*
X118650000Y-117225000D01*
X116000000Y-117150000D02*
X116900000Y-117150000D01*
X114250000Y-117050000D02*
X115025000Y-117050000D01*
X115025000Y-117050000D02*
X115125000Y-117150000D01*
X142000000Y-105500000D02*
X142775000Y-105500000D01*
X142775000Y-105500000D02*
X142800000Y-105475000D01*
X156200000Y-107500000D02*
X155900000Y-107500000D01*
X155900000Y-107500000D02*
X155425000Y-107025000D01*
X157200000Y-109084523D02*
X157200000Y-108700000D01*
X157200000Y-108700000D02*
X156775000Y-108275000D01*
D24*
X133350000Y-97850000D02*
X132742626Y-97850000D01*
X132742626Y-97850000D02*
X132046258Y-98546368D01*
X132046258Y-98546368D02*
X129750425Y-98546368D01*
X129750425Y-98546368D02*
X128304057Y-97100000D01*
X128304057Y-97100000D02*
X124150000Y-97100000D01*
D25*
X142000000Y-105500000D02*
X130967500Y-105500000D01*
X130967500Y-105500000D02*
X127342500Y-109125000D01*
X127342500Y-109125000D02*
X127342500Y-109250000D01*
D22*
X151500000Y-101000000D02*
X152942438Y-101000000D01*
X152942438Y-101000000D02*
X153764475Y-100177963D01*
X151944996Y-73500000D02*
X145500000Y-73500000D01*
X158300000Y-105100000D02*
X160450000Y-105100000D01*
X157200000Y-106200000D02*
X158300000Y-105100000D01*
X157200000Y-106795972D02*
X157200000Y-106200000D01*
X147100000Y-106700000D02*
X157104028Y-106700000D01*
X157104028Y-106700000D02*
X157200000Y-106795972D01*
X157200000Y-106795972D02*
X157200000Y-109084523D01*
X143200000Y-106700000D02*
X147100000Y-106700000D01*
X147222500Y-109050000D02*
X147222500Y-106822500D01*
X147222500Y-106822500D02*
X147100000Y-106700000D01*
X142000000Y-105500000D02*
X143200000Y-106700000D01*
D26*
X124150000Y-97100000D02*
X124025000Y-97100000D01*
X124025000Y-97100000D02*
X118505000Y-102620000D01*
X118505000Y-102620000D02*
X113362000Y-102620000D01*
X113362000Y-102620000D02*
X111000000Y-102620000D01*
D22*
X134510000Y-115700000D02*
X134510000Y-113838000D01*
X134510000Y-113838000D02*
X137295000Y-111053000D01*
X137295000Y-111053000D02*
X137295000Y-109250000D01*
X167200000Y-111300000D02*
X164474297Y-111300000D01*
X164474297Y-111300000D02*
X163374297Y-112400000D01*
X163374297Y-112400000D02*
X160250000Y-112400000D01*
X147222500Y-111877500D02*
X145940000Y-113160000D01*
X145940000Y-113160000D02*
X145940000Y-115700000D01*
X147222500Y-109050000D02*
X147222500Y-111877500D01*
X119680000Y-113200000D02*
X123517500Y-113200000D01*
X123517500Y-113200000D02*
X127342500Y-109375000D01*
X127342500Y-109375000D02*
X127342500Y-109250000D01*
D26*
X146500000Y-85600000D02*
X140200000Y-85600000D01*
X140200000Y-85600000D02*
X140200000Y-89300000D01*
D22*
X140100000Y-79700000D02*
X140100000Y-89200000D01*
X140100000Y-89200000D02*
X140200000Y-89300000D01*
X135800000Y-79700000D02*
X134750000Y-78650000D01*
X134750000Y-78650000D02*
X134750000Y-73500000D01*
X140100000Y-79700000D02*
X135800000Y-79700000D01*
D23*
X113500000Y-80000000D02*
X113500000Y-75650000D01*
X113500000Y-75650000D02*
X115650000Y-73500000D01*
D27*
X140550000Y-92100000D02*
X143820267Y-92100000D01*
X143820267Y-92100000D02*
X145280000Y-90640267D01*
X145280000Y-90640267D02*
X145280000Y-90323612D01*
D23*
X148850000Y-80925000D02*
X149175000Y-80925000D01*
X149175000Y-80925000D02*
X149500000Y-81250000D01*
X155840000Y-115650001D02*
X155840000Y-113688001D01*
X155840000Y-113688001D02*
X163308001Y-106220000D01*
X163308001Y-106220000D02*
X167200000Y-106220000D01*
D22*
X145280000Y-90323612D02*
X145280000Y-89300000D01*
D21*
X125796735Y-76203265D02*
X125796735Y-75634246D01*
X125100000Y-76900000D02*
X125796735Y-76203265D01*
X125402659Y-75930088D02*
X125952658Y-76480087D01*
X125269912Y-75930088D02*
X125402659Y-75930088D01*
X125100000Y-76100000D02*
X125269912Y-75930088D01*
D23*
X125100000Y-84000000D02*
X125100000Y-76900000D01*
D21*
X125100000Y-76100000D02*
X125100000Y-76900000D01*
D22*
X140268587Y-101149476D02*
X141200000Y-100218063D01*
X141200000Y-100218063D02*
X141200000Y-97383526D01*
X141200000Y-97383526D02*
X139716474Y-95900000D01*
X139716474Y-95900000D02*
X137600000Y-95900000D01*
X137600000Y-95900000D02*
X136300000Y-94600000D01*
X136300000Y-94600000D02*
X136300000Y-92100000D01*
D23*
X140550000Y-92100000D02*
X136300000Y-92100000D01*
X136300000Y-92100000D02*
X133200000Y-92100000D01*
X149500000Y-81250000D02*
X149710876Y-81250000D01*
X149710876Y-81250000D02*
X151500000Y-83039124D01*
X151500000Y-83039124D02*
X151500000Y-93380000D01*
X133200000Y-92100000D02*
X125100000Y-84000000D01*
X149500000Y-81250000D02*
X149500000Y-81375000D01*
X131000000Y-83300000D02*
X131925000Y-83300000D01*
X131925000Y-83300000D02*
X132675000Y-84050000D01*
X131000000Y-83300000D02*
X131350000Y-83300000D01*
X131350000Y-83300000D02*
X131825000Y-83775000D01*
X131000000Y-83300000D02*
X131000000Y-74710000D01*
X131000000Y-74710000D02*
X132210000Y-73500000D01*
X118180000Y-86550000D02*
X118180000Y-94080000D01*
X118180000Y-94080000D02*
X120500000Y-96400000D01*
D22*
X116500000Y-82500000D02*
X116500000Y-84943559D01*
X116500000Y-84943559D02*
X118106441Y-86550000D01*
X118106441Y-86550000D02*
X118180000Y-86550000D01*
X116500000Y-76750000D02*
X116500000Y-82500000D01*
X116500000Y-82500000D02*
X115650000Y-82500000D01*
D24*
X124000000Y-109250000D02*
X124000000Y-103309068D01*
X124000000Y-103309068D02*
X127904801Y-99404267D01*
X127904801Y-99404267D02*
X134138457Y-99404267D01*
X134138457Y-99404267D02*
X135600000Y-97942724D01*
X135600000Y-97942724D02*
X135600000Y-97077817D01*
X135600000Y-97077817D02*
X135600000Y-96300000D01*
X139354447Y-98560892D02*
X139904446Y-98010893D01*
X137365339Y-100550000D02*
X139354447Y-98560892D01*
X133400000Y-100550000D02*
X137365339Y-100550000D01*
D26*
X156156978Y-83456978D02*
X156156978Y-83664732D01*
X145000000Y-105200000D02*
X154226830Y-105200000D01*
X154226830Y-105200000D02*
X156156978Y-103269852D01*
X155800000Y-83100000D02*
X156156978Y-83456978D01*
X156156978Y-84442549D02*
X156156978Y-83664732D01*
X156156978Y-103269852D02*
X156156978Y-84442549D01*
X140013422Y-103913422D02*
X143713422Y-103913422D01*
X143713422Y-103913422D02*
X145000000Y-105200000D01*
X137800000Y-101700000D02*
X140013422Y-103913422D01*
D22*
X143400000Y-115700000D02*
X143400000Y-117714574D01*
X143400000Y-117714574D02*
X142614574Y-118500000D01*
X142614574Y-118500000D02*
X132800000Y-118500000D01*
X132800000Y-118500000D02*
X131970000Y-117670000D01*
X131970000Y-117670000D02*
X131970000Y-115700000D01*
X134002500Y-111097500D02*
X131970000Y-113130000D01*
X131970000Y-113130000D02*
X131970000Y-115700000D01*
X134002500Y-109050000D02*
X134002500Y-111097500D01*
X143955000Y-112145000D02*
X143400000Y-112700000D01*
X143400000Y-112700000D02*
X143400000Y-115700000D01*
X143955000Y-109050000D02*
X143955000Y-112145000D01*
X140637500Y-109050000D02*
X140637500Y-108917111D01*
X140637500Y-108917111D02*
X139141482Y-107421093D01*
X139141482Y-107421093D02*
X132262632Y-107421093D01*
X132262632Y-107421093D02*
X130685000Y-108998725D01*
X130685000Y-108998725D02*
X130685000Y-109050000D01*
X129430000Y-112570000D02*
X130685000Y-111315000D01*
X130685000Y-111315000D02*
X130685000Y-109050000D01*
X129430000Y-115700000D02*
X129430000Y-112570000D01*
X140860000Y-115700000D02*
X140860000Y-109272500D01*
X140860000Y-109272500D02*
X140637500Y-109050000D01*
D26*
X142677781Y-98566159D02*
X142677781Y-97788342D01*
X147661086Y-104200000D02*
X142677781Y-99216695D01*
X153095629Y-104200000D02*
X147661086Y-104200000D01*
X154992241Y-102303388D02*
X153095629Y-104200000D01*
X154992241Y-90569138D02*
X154992241Y-102303388D01*
X142677781Y-99216695D02*
X142677781Y-98566159D01*
D24*
X148281671Y-86217249D02*
X148831670Y-85667250D01*
X148100000Y-86398920D02*
X148281671Y-86217249D01*
X148100000Y-90007773D02*
X148100000Y-86398920D01*
X141283190Y-93621465D02*
X144486308Y-93621465D01*
X144486308Y-93621465D02*
X148100000Y-90007773D01*
X149767785Y-89713994D02*
X149767785Y-87670893D01*
X144575849Y-94905930D02*
X149767785Y-89713994D01*
X141907428Y-94905930D02*
X144575849Y-94905930D01*
X149767785Y-87670893D02*
X149767785Y-86893076D01*
X128500000Y-92700000D02*
X128500000Y-95014025D01*
X128500000Y-95014025D02*
X129680855Y-96194880D01*
X129680855Y-96194880D02*
X129694769Y-96194880D01*
X130988784Y-97488895D02*
X130988784Y-97502809D01*
X129694769Y-96194880D02*
X130988784Y-97488895D01*
D22*
X146500000Y-77900000D02*
X146500000Y-77895468D01*
X145909767Y-77305235D02*
X136405235Y-77305235D01*
X146500000Y-77895468D02*
X145909767Y-77305235D01*
X136405235Y-77305235D02*
X136400000Y-77300000D01*
D24*
X151500000Y-95920000D02*
X151400000Y-95920000D01*
X151400000Y-95920000D02*
X150138000Y-94658000D01*
X137734045Y-93634045D02*
X137700000Y-93600000D01*
X150138000Y-94658000D02*
X146031883Y-94658000D01*
X146031883Y-94658000D02*
X144624043Y-96065840D01*
X138945458Y-93634045D02*
X137734045Y-93634045D01*
X144624043Y-96065840D02*
X141377253Y-96065840D01*
X141377253Y-96065840D02*
X138945458Y-93634045D01*
D21*
X147000000Y-101600000D02*
X147000000Y-101125000D01*
X147000000Y-101125000D02*
X146850000Y-100975000D01*
D24*
X145936275Y-96257704D02*
X145936275Y-100536275D01*
X145936275Y-100536275D02*
X147000000Y-101600000D01*
X148577101Y-98709969D02*
X148577101Y-97932152D01*
X148577101Y-102147364D02*
X148577101Y-98709969D01*
X147812512Y-102911953D02*
X148577101Y-102147364D01*
D10*
G36*
X157950000Y-103400000D02*
X157953123Y-103417394D01*
X157963584Y-103434261D01*
X157979782Y-103445730D01*
X157999167Y-103449993D01*
X169251000Y-103637524D01*
X169251000Y-119251000D01*
X143210091Y-119251000D01*
X143303296Y-119188722D01*
X144088722Y-118403296D01*
X144299859Y-118087308D01*
X144374000Y-117714574D01*
X144374000Y-117307936D01*
X144521471Y-117209399D01*
X144865273Y-116694864D01*
X144986000Y-116087928D01*
X144986000Y-115312072D01*
X144976055Y-115262073D01*
X151714000Y-115262073D01*
X151714000Y-116037929D01*
X151834727Y-116644865D01*
X152178529Y-117159400D01*
X152693064Y-117503202D01*
X153300000Y-117623929D01*
X153906936Y-117503202D01*
X154326921Y-117222576D01*
X154435407Y-117391168D01*
X154660639Y-117545063D01*
X154928000Y-117599205D01*
X156752000Y-117599205D01*
X157001769Y-117552208D01*
X157231167Y-117404594D01*
X157385062Y-117179362D01*
X157439204Y-116912001D01*
X157439204Y-116529558D01*
X163325537Y-116529558D01*
X163731771Y-117512721D01*
X164483323Y-118265585D01*
X165465775Y-118673535D01*
X166529558Y-118674463D01*
X167512721Y-118268229D01*
X168265585Y-117516677D01*
X168673535Y-116534225D01*
X168674463Y-115470442D01*
X168268229Y-114487279D01*
X167516677Y-113734415D01*
X166534225Y-113326465D01*
X165470442Y-113325537D01*
X164487279Y-113731771D01*
X163734415Y-114483323D01*
X163326465Y-115465775D01*
X163325537Y-116529558D01*
X157439204Y-116529558D01*
X157439204Y-114388001D01*
X157392207Y-114138232D01*
X157258242Y-113930045D01*
X163794288Y-107394000D01*
X165305663Y-107394000D01*
X165445407Y-107611167D01*
X165626298Y-107734765D01*
X165346799Y-108153064D01*
X165226072Y-108760000D01*
X165346799Y-109366936D01*
X165690601Y-109881471D01*
X166205136Y-110225273D01*
X166812072Y-110346000D01*
X167587928Y-110346000D01*
X168194864Y-110225273D01*
X168709399Y-109881471D01*
X169053201Y-109366936D01*
X169173928Y-108760000D01*
X169053201Y-108153064D01*
X168772575Y-107733079D01*
X168941167Y-107624593D01*
X169095062Y-107399361D01*
X169149204Y-107132000D01*
X169149204Y-105308000D01*
X169102207Y-105058231D01*
X168954593Y-104828833D01*
X168729361Y-104674938D01*
X168462000Y-104620796D01*
X165938000Y-104620796D01*
X165688231Y-104667793D01*
X165458833Y-104815407D01*
X165304938Y-105040639D01*
X165303852Y-105046000D01*
X163308001Y-105046000D01*
X162858731Y-105135365D01*
X162858729Y-105135366D01*
X162858730Y-105135366D01*
X162477857Y-105389857D01*
X155009857Y-112857858D01*
X154755365Y-113238730D01*
X154740539Y-113313269D01*
X154666000Y-113688001D01*
X154666000Y-113755664D01*
X154448833Y-113895408D01*
X154325235Y-114076299D01*
X153906936Y-113796800D01*
X153300000Y-113676073D01*
X152693064Y-113796800D01*
X152178529Y-114140602D01*
X151834727Y-114655137D01*
X151714000Y-115262073D01*
X144976055Y-115262073D01*
X144865273Y-114705136D01*
X144521471Y-114190601D01*
X144374000Y-114092064D01*
X144374000Y-113103444D01*
X144643722Y-112833722D01*
X144797641Y-112603366D01*
X144854859Y-112517734D01*
X144929000Y-112145000D01*
X144929000Y-109807188D01*
X144992052Y-109744246D01*
X145178787Y-109294537D01*
X145179212Y-108807599D01*
X144993262Y-108357565D01*
X144649246Y-108012948D01*
X144199537Y-107826213D01*
X143712599Y-107825788D01*
X143262565Y-108011738D01*
X142917948Y-108355754D01*
X142731213Y-108805463D01*
X142730788Y-109292401D01*
X142916738Y-109742435D01*
X142981000Y-109806809D01*
X142981000Y-111741556D01*
X142711278Y-112011278D01*
X142500141Y-112327266D01*
X142426000Y-112700000D01*
X142426000Y-114092064D01*
X142278529Y-114190601D01*
X142130000Y-114412890D01*
X141981471Y-114190601D01*
X141834000Y-114092064D01*
X141834000Y-109360252D01*
X141861287Y-109294537D01*
X141861712Y-108807599D01*
X141675762Y-108357565D01*
X141331746Y-108012948D01*
X140953876Y-107856043D01*
X139830204Y-106732371D01*
X139514216Y-106521234D01*
X139141482Y-106447093D01*
X132262632Y-106447093D01*
X131889898Y-106521234D01*
X131668347Y-106669270D01*
X131573910Y-106732371D01*
X130480460Y-107825821D01*
X130442599Y-107825788D01*
X129992565Y-108011738D01*
X129647948Y-108355754D01*
X129461213Y-108805463D01*
X129460788Y-109292401D01*
X129646738Y-109742435D01*
X129711000Y-109806809D01*
X129711000Y-110911556D01*
X128741278Y-111881278D01*
X128530141Y-112197266D01*
X128456000Y-112570000D01*
X128456000Y-114092064D01*
X128403079Y-114127425D01*
X128294593Y-113958833D01*
X128069361Y-113804938D01*
X127802000Y-113750796D01*
X125978000Y-113750796D01*
X125728231Y-113797793D01*
X125498833Y-113945407D01*
X125344938Y-114170639D01*
X125290796Y-114438000D01*
X125290796Y-116962000D01*
X125337793Y-117211769D01*
X125485407Y-117441167D01*
X125710639Y-117595062D01*
X125978000Y-117649204D01*
X127802000Y-117649204D01*
X128051769Y-117602207D01*
X128281167Y-117454593D01*
X128404765Y-117273702D01*
X128823064Y-117553201D01*
X129430000Y-117673928D01*
X130036936Y-117553201D01*
X130551471Y-117209399D01*
X130700000Y-116987110D01*
X130848529Y-117209399D01*
X130996000Y-117307936D01*
X130996000Y-117670000D01*
X131070141Y-118042734D01*
X131281278Y-118358722D01*
X132111278Y-119188722D01*
X132204483Y-119251000D01*
X100749000Y-119251000D01*
X100749000Y-116529558D01*
X101325537Y-116529558D01*
X101731771Y-117512721D01*
X102483323Y-118265585D01*
X103465775Y-118673535D01*
X104529558Y-118674463D01*
X105512721Y-118268229D01*
X106265585Y-117516677D01*
X106673535Y-116534225D01*
X106674463Y-115470442D01*
X106268229Y-114487279D01*
X105516677Y-113734415D01*
X104534225Y-113326465D01*
X103470442Y-113325537D01*
X102487279Y-113731771D01*
X101734415Y-114483323D01*
X101326465Y-115465775D01*
X101325537Y-116529558D01*
X100749000Y-116529558D01*
X100749000Y-109492401D01*
X122775788Y-109492401D01*
X122961738Y-109942435D01*
X123305754Y-110287052D01*
X123755463Y-110473787D01*
X124242401Y-110474212D01*
X124692435Y-110288262D01*
X125037052Y-109944246D01*
X125223787Y-109494537D01*
X125224212Y-109007599D01*
X125038262Y-108557565D01*
X124874000Y-108393016D01*
X124874000Y-103671090D01*
X128266824Y-100278267D01*
X132187506Y-100278267D01*
X132176213Y-100305463D01*
X132175788Y-100792401D01*
X132361738Y-101242435D01*
X132705754Y-101587052D01*
X133155463Y-101773787D01*
X133642401Y-101774212D01*
X134092435Y-101588262D01*
X134256984Y-101424000D01*
X136589278Y-101424000D01*
X136576213Y-101455463D01*
X136575788Y-101942401D01*
X136761738Y-102392435D01*
X137105754Y-102737052D01*
X137555463Y-102923787D01*
X137717194Y-102923928D01*
X139360053Y-104566786D01*
X139360055Y-104566789D01*
X139659823Y-104767087D01*
X140013422Y-104837422D01*
X143330688Y-104837422D01*
X144346633Y-105853367D01*
X144646400Y-106053665D01*
X145000000Y-106124000D01*
X154226830Y-106124000D01*
X154580430Y-106053665D01*
X154880197Y-105853367D01*
X156810342Y-103923221D01*
X156810345Y-103923219D01*
X157010643Y-103623451D01*
X157080978Y-103269852D01*
X157080978Y-84471833D01*
X157194030Y-84358978D01*
X157380765Y-83909269D01*
X157381190Y-83422331D01*
X157195240Y-82972297D01*
X156984289Y-82760977D01*
X156838262Y-82407565D01*
X156494246Y-82062948D01*
X156044537Y-81876213D01*
X155557599Y-81875788D01*
X155107565Y-82061738D01*
X154762948Y-82405754D01*
X154576213Y-82855463D01*
X154575788Y-83342401D01*
X154761738Y-83792435D01*
X154972689Y-84003755D01*
X155118716Y-84357167D01*
X155232978Y-84471629D01*
X155232978Y-89345348D01*
X154749840Y-89344926D01*
X154299806Y-89530876D01*
X153955189Y-89874892D01*
X153768454Y-90324601D01*
X153768029Y-90811539D01*
X153823937Y-90946846D01*
X153768454Y-91080463D01*
X153768029Y-91567401D01*
X153953979Y-92017435D01*
X154068241Y-92131897D01*
X154068241Y-101920655D01*
X152712895Y-103276000D01*
X148986674Y-103276000D01*
X149036299Y-103156490D01*
X149036502Y-102923985D01*
X149195112Y-102765375D01*
X149384572Y-102481830D01*
X149401993Y-102394246D01*
X149451101Y-102147364D01*
X149451101Y-98789166D01*
X149614153Y-98626398D01*
X149800888Y-98176689D01*
X149801313Y-97689751D01*
X149615363Y-97239717D01*
X149271347Y-96895100D01*
X148821638Y-96708365D01*
X148334700Y-96707940D01*
X147884666Y-96893890D01*
X147540049Y-97237906D01*
X147353314Y-97687615D01*
X147352889Y-98174553D01*
X147538839Y-98624587D01*
X147703101Y-98789136D01*
X147703101Y-100097081D01*
X147544246Y-99937948D01*
X147094537Y-99751213D01*
X146810275Y-99750965D01*
X146810275Y-97114718D01*
X146973327Y-96951950D01*
X147160062Y-96502241D01*
X147160487Y-96015303D01*
X146974537Y-95565269D01*
X146941326Y-95532000D01*
X149775978Y-95532000D01*
X149887036Y-95643058D01*
X149831949Y-95920000D01*
X149948870Y-96507802D01*
X150281833Y-97006116D01*
X150557035Y-97190000D01*
X150281833Y-97373884D01*
X149948870Y-97872198D01*
X149831949Y-98460000D01*
X149948870Y-99047802D01*
X150281833Y-99546116D01*
X150780147Y-99879079D01*
X151367949Y-99996000D01*
X151632051Y-99996000D01*
X152219853Y-99879079D01*
X152718167Y-99546116D01*
X153051130Y-99047802D01*
X153168051Y-98460000D01*
X153051130Y-97872198D01*
X152718167Y-97373884D01*
X152442965Y-97190000D01*
X152718167Y-97006116D01*
X153051130Y-96507802D01*
X153168051Y-95920000D01*
X153051130Y-95332198D01*
X152738823Y-94864798D01*
X152941167Y-94734593D01*
X153095062Y-94509361D01*
X153149204Y-94242000D01*
X153149204Y-92518000D01*
X153102207Y-92268231D01*
X152954593Y-92038833D01*
X152729361Y-91884938D01*
X152674000Y-91873727D01*
X152674000Y-83039124D01*
X152584635Y-82589854D01*
X152497625Y-82459635D01*
X152330143Y-82208980D01*
X150541019Y-80419857D01*
X150160147Y-80165365D01*
X150085608Y-80150539D01*
X150054671Y-80144385D01*
X150005143Y-80094857D01*
X149624271Y-79840365D01*
X149549732Y-79825539D01*
X149250701Y-79766058D01*
X149094537Y-79701213D01*
X148607599Y-79700788D01*
X148157565Y-79886738D01*
X147812948Y-80230754D01*
X147626213Y-80680463D01*
X147625788Y-81167401D01*
X147811738Y-81617435D01*
X148155754Y-81962052D01*
X148605463Y-82148787D01*
X148632217Y-82148810D01*
X148669857Y-82205143D01*
X149050730Y-82459635D01*
X149312243Y-82511653D01*
X150326000Y-83525411D01*
X150326000Y-85799539D01*
X150055653Y-85687282D01*
X150055882Y-85424849D01*
X149869932Y-84974815D01*
X149525916Y-84630198D01*
X149076207Y-84443463D01*
X148589269Y-84443038D01*
X148139235Y-84628988D01*
X147794618Y-84973004D01*
X147607883Y-85422713D01*
X147607680Y-85655217D01*
X147481989Y-85780909D01*
X147292529Y-86064454D01*
X147270089Y-86177267D01*
X147226000Y-86398920D01*
X147226000Y-89645751D01*
X146879204Y-89992547D01*
X146879204Y-88038000D01*
X146832207Y-87788231D01*
X146684593Y-87558833D01*
X146459361Y-87404938D01*
X146192000Y-87350796D01*
X144368000Y-87350796D01*
X144118231Y-87397793D01*
X143888833Y-87545407D01*
X143765235Y-87726298D01*
X143346936Y-87446799D01*
X142740000Y-87326072D01*
X142133064Y-87446799D01*
X141618529Y-87790601D01*
X141274727Y-88305136D01*
X141154000Y-88912072D01*
X141154000Y-89687928D01*
X141274727Y-90294864D01*
X141618529Y-90809399D01*
X141942695Y-91026000D01*
X141155265Y-91026000D01*
X140794537Y-90876213D01*
X140307599Y-90875788D01*
X140186077Y-90926000D01*
X138606966Y-90926000D01*
X138781471Y-90809399D01*
X139125273Y-90294864D01*
X139246000Y-89687928D01*
X139246000Y-88912072D01*
X139125273Y-88305136D01*
X138781471Y-87790601D01*
X138266936Y-87446799D01*
X137660000Y-87326072D01*
X137053064Y-87446799D01*
X136538529Y-87790601D01*
X136194727Y-88305136D01*
X136074000Y-88912072D01*
X136074000Y-89687928D01*
X136194727Y-90294864D01*
X136538529Y-90809399D01*
X136713034Y-90926000D01*
X133686286Y-90926000D01*
X126302687Y-83542401D01*
X129775788Y-83542401D01*
X129961738Y-83992435D01*
X130305754Y-84337052D01*
X130755463Y-84523787D01*
X130843068Y-84523863D01*
X131130754Y-84812052D01*
X131580463Y-84998787D01*
X131892915Y-84999060D01*
X131980754Y-85087052D01*
X132430463Y-85273787D01*
X132917401Y-85274212D01*
X133367435Y-85088262D01*
X133712052Y-84744246D01*
X133898787Y-84294537D01*
X133899212Y-83807599D01*
X133713262Y-83357565D01*
X133369246Y-83012948D01*
X133247809Y-82962523D01*
X132755143Y-82469857D01*
X132374271Y-82215365D01*
X132299732Y-82200539D01*
X132174000Y-82175529D01*
X132174000Y-77542401D01*
X135175788Y-77542401D01*
X135361738Y-77992435D01*
X135705754Y-78337052D01*
X136155463Y-78523787D01*
X136642401Y-78524212D01*
X137092435Y-78338262D01*
X137151565Y-78279235D01*
X145332327Y-78279235D01*
X145461738Y-78592435D01*
X145805754Y-78937052D01*
X146255463Y-79123787D01*
X146742401Y-79124212D01*
X147192435Y-78938262D01*
X147537052Y-78594246D01*
X147723787Y-78144537D01*
X147724212Y-77657599D01*
X147538262Y-77207565D01*
X147194246Y-76862948D01*
X146744537Y-76676213D01*
X146658114Y-76676138D01*
X146598489Y-76616513D01*
X146282501Y-76405376D01*
X145909767Y-76331235D01*
X137162414Y-76331235D01*
X137094246Y-76262948D01*
X136644537Y-76076213D01*
X136157599Y-76075788D01*
X135707565Y-76261738D01*
X135362948Y-76605754D01*
X135176213Y-77055463D01*
X135175788Y-77542401D01*
X132174000Y-77542401D01*
X132174000Y-75449204D01*
X133122000Y-75449204D01*
X133371769Y-75402207D01*
X133601167Y-75254593D01*
X133755062Y-75029361D01*
X133809204Y-74762000D01*
X133809204Y-72238000D01*
X141360796Y-72238000D01*
X141360796Y-74762000D01*
X141407793Y-75011769D01*
X141555407Y-75241167D01*
X141780639Y-75395062D01*
X142048000Y-75449204D01*
X143872000Y-75449204D01*
X144121769Y-75402207D01*
X144351167Y-75254593D01*
X144505062Y-75029361D01*
X144559204Y-74762000D01*
X144559204Y-72238000D01*
X144512207Y-71988231D01*
X144364593Y-71758833D01*
X144139361Y-71604938D01*
X143872000Y-71550796D01*
X142048000Y-71550796D01*
X141798231Y-71597793D01*
X141568833Y-71745407D01*
X141414938Y-71970639D01*
X141360796Y-72238000D01*
X133809204Y-72238000D01*
X133762207Y-71988231D01*
X133614593Y-71758833D01*
X133389361Y-71604938D01*
X133122000Y-71550796D01*
X131298000Y-71550796D01*
X131048231Y-71597793D01*
X130818833Y-71745407D01*
X130664938Y-71970639D01*
X130610796Y-72238000D01*
X130610796Y-73438918D01*
X130169857Y-73879857D01*
X129915365Y-74260729D01*
X129915365Y-74260730D01*
X129826000Y-74710000D01*
X129826000Y-82935562D01*
X129776213Y-83055463D01*
X129775788Y-83542401D01*
X126302687Y-83542401D01*
X126274000Y-83513714D01*
X126274000Y-77878308D01*
X126276590Y-77876590D01*
X126627605Y-77525575D01*
X126645093Y-77518349D01*
X126989710Y-77174333D01*
X126997424Y-77155756D01*
X127076590Y-77076590D01*
X127184604Y-76935431D01*
X127269047Y-76681561D01*
X127248067Y-76414838D01*
X127020749Y-75619223D01*
X127020947Y-75391845D01*
X126834997Y-74941811D01*
X126778371Y-74885086D01*
X126712214Y-74761922D01*
X126501422Y-74597156D01*
X126101422Y-74397156D01*
X125941300Y-74340978D01*
X125673771Y-74337926D01*
X125426132Y-74439198D01*
X125332206Y-74501815D01*
X125104300Y-74595984D01*
X124930083Y-74769898D01*
X124630484Y-74969630D01*
X124407565Y-75061738D01*
X124237159Y-75231846D01*
X124226132Y-75239198D01*
X124208754Y-75260202D01*
X124062948Y-75405754D01*
X124037373Y-75467345D01*
X123979102Y-75537776D01*
X123951471Y-75674221D01*
X123876213Y-75855463D01*
X123875788Y-76342401D01*
X123926000Y-76463923D01*
X123926000Y-76535562D01*
X123876213Y-76655463D01*
X123875788Y-77142401D01*
X123926000Y-77263923D01*
X123926000Y-84000000D01*
X123968393Y-84213123D01*
X124015365Y-84449271D01*
X124269857Y-84830143D01*
X132369857Y-92930143D01*
X132750729Y-93184635D01*
X133200000Y-93274000D01*
X135326000Y-93274000D01*
X135326000Y-94600000D01*
X135400141Y-94972734D01*
X135469065Y-95075885D01*
X135357599Y-95075788D01*
X134907565Y-95261738D01*
X134562948Y-95605754D01*
X134376213Y-96055463D01*
X134375788Y-96542401D01*
X134561738Y-96992435D01*
X134726000Y-97156984D01*
X134726000Y-97580702D01*
X133776435Y-98530267D01*
X131692042Y-98530267D01*
X132025836Y-98197055D01*
X132212571Y-97747346D01*
X132212996Y-97260408D01*
X132027046Y-96810374D01*
X131683030Y-96465757D01*
X131233321Y-96279022D01*
X131014743Y-96278831D01*
X130312780Y-95576869D01*
X130270847Y-95548850D01*
X129374000Y-94652003D01*
X129374000Y-93557014D01*
X129537052Y-93394246D01*
X129723787Y-92944537D01*
X129724212Y-92457599D01*
X129538262Y-92007565D01*
X129194246Y-91662948D01*
X128744537Y-91476213D01*
X128257599Y-91475788D01*
X127807565Y-91661738D01*
X127462948Y-92005754D01*
X127276213Y-92455463D01*
X127275788Y-92942401D01*
X127461738Y-93392435D01*
X127626000Y-93556984D01*
X127626000Y-95014025D01*
X127692529Y-95348491D01*
X127881989Y-95632036D01*
X129062844Y-96812891D01*
X129104777Y-96840910D01*
X129764785Y-97500919D01*
X129764572Y-97745210D01*
X129950522Y-98195244D01*
X130284961Y-98530267D01*
X127904801Y-98530267D01*
X127570336Y-98596796D01*
X127286790Y-98786255D01*
X123381989Y-102691057D01*
X123192529Y-102974602D01*
X123132578Y-103276000D01*
X123126000Y-103309068D01*
X123126000Y-108392986D01*
X122962948Y-108555754D01*
X122776213Y-109005463D01*
X122775788Y-109492401D01*
X100749000Y-109492401D01*
X100749000Y-97540000D01*
X108414317Y-97540000D01*
X108565492Y-98300009D01*
X108996003Y-98944314D01*
X109640308Y-99374825D01*
X110400317Y-99526000D01*
X111599683Y-99526000D01*
X112359692Y-99374825D01*
X113003997Y-98944314D01*
X113434508Y-98300009D01*
X113585683Y-97540000D01*
X113434508Y-96779991D01*
X113003997Y-96135686D01*
X112359692Y-95705175D01*
X111599683Y-95554000D01*
X110400317Y-95554000D01*
X109640308Y-95705175D01*
X108996003Y-96135686D01*
X108565492Y-96779991D01*
X108414317Y-97540000D01*
X100749000Y-97540000D01*
X100749000Y-92460000D01*
X108414317Y-92460000D01*
X108565492Y-93220009D01*
X108996003Y-93864314D01*
X109640308Y-94294825D01*
X110400317Y-94446000D01*
X111599683Y-94446000D01*
X112359692Y-94294825D01*
X113003997Y-93864314D01*
X113434508Y-93220009D01*
X113585683Y-92460000D01*
X113434508Y-91699991D01*
X113003997Y-91055686D01*
X112359692Y-90625175D01*
X111599683Y-90474000D01*
X110400317Y-90474000D01*
X109640308Y-90625175D01*
X108996003Y-91055686D01*
X108565492Y-91699991D01*
X108414317Y-92460000D01*
X100749000Y-92460000D01*
X100749000Y-86068000D01*
X108450796Y-86068000D01*
X108450796Y-88692000D01*
X108497793Y-88941769D01*
X108645407Y-89171167D01*
X108870639Y-89325062D01*
X109138000Y-89379204D01*
X112862000Y-89379204D01*
X113111769Y-89332207D01*
X113341167Y-89184593D01*
X113495062Y-88959361D01*
X113549204Y-88692000D01*
X113549204Y-86068000D01*
X113502207Y-85818231D01*
X113354593Y-85588833D01*
X113129361Y-85434938D01*
X112862000Y-85380796D01*
X109138000Y-85380796D01*
X108888231Y-85427793D01*
X108658833Y-85575407D01*
X108504938Y-85800639D01*
X108450796Y-86068000D01*
X100749000Y-86068000D01*
X100749000Y-82742401D01*
X114425788Y-82742401D01*
X114611738Y-83192435D01*
X114955754Y-83537052D01*
X115405463Y-83723787D01*
X115526000Y-83723892D01*
X115526000Y-84943559D01*
X115600141Y-85316293D01*
X115811278Y-85632281D01*
X116955802Y-86776805D01*
X116955788Y-86792401D01*
X117006000Y-86913923D01*
X117006000Y-94080000D01*
X117052886Y-94315711D01*
X117095365Y-94529271D01*
X117349857Y-94910143D01*
X119412160Y-96972447D01*
X119461738Y-97092435D01*
X119805754Y-97437052D01*
X120255463Y-97623787D01*
X120742401Y-97624212D01*
X121192435Y-97438262D01*
X121537052Y-97094246D01*
X121723787Y-96644537D01*
X121724212Y-96157599D01*
X121538262Y-95707565D01*
X121194246Y-95362948D01*
X121072811Y-95312524D01*
X119354000Y-93593714D01*
X119354000Y-86914438D01*
X119403787Y-86794537D01*
X119404212Y-86307599D01*
X119218262Y-85857565D01*
X118874246Y-85512948D01*
X118424537Y-85326213D01*
X118259954Y-85326069D01*
X117474000Y-84540115D01*
X117474000Y-77507188D01*
X117537052Y-77444246D01*
X117723787Y-76994537D01*
X117724212Y-76507599D01*
X117538262Y-76057565D01*
X117194246Y-75712948D01*
X116744537Y-75526213D01*
X116257599Y-75525788D01*
X115807565Y-75711738D01*
X115462948Y-76055754D01*
X115276213Y-76505463D01*
X115275788Y-76992401D01*
X115461738Y-77442435D01*
X115526000Y-77506809D01*
X115526000Y-81275891D01*
X115407599Y-81275788D01*
X114957565Y-81461738D01*
X114612948Y-81805754D01*
X114426213Y-82255463D01*
X114425788Y-82742401D01*
X100749000Y-82742401D01*
X100749000Y-74529558D01*
X101325537Y-74529558D01*
X101731771Y-75512721D01*
X102483323Y-76265585D01*
X103465775Y-76673535D01*
X104529558Y-76674463D01*
X105512721Y-76268229D01*
X106265585Y-75516677D01*
X106673535Y-74534225D01*
X106674463Y-73470442D01*
X106268229Y-72487279D01*
X105516677Y-71734415D01*
X104534225Y-71326465D01*
X103470442Y-71325537D01*
X102487279Y-71731771D01*
X101734415Y-72483323D01*
X101326465Y-73465775D01*
X101325537Y-74529558D01*
X100749000Y-74529558D01*
X100749000Y-70749000D01*
X157950000Y-70749000D01*
X157950000Y-103400000D01*
X157950000Y-103400000D01*
G37*
X157950000Y-103400000D02*
X157953123Y-103417394D01*
X157963584Y-103434261D01*
X157979782Y-103445730D01*
X157999167Y-103449993D01*
X169251000Y-103637524D01*
X169251000Y-119251000D01*
X143210091Y-119251000D01*
X143303296Y-119188722D01*
X144088722Y-118403296D01*
X144299859Y-118087308D01*
X144374000Y-117714574D01*
X144374000Y-117307936D01*
X144521471Y-117209399D01*
X144865273Y-116694864D01*
X144986000Y-116087928D01*
X144986000Y-115312072D01*
X144976055Y-115262073D01*
X151714000Y-115262073D01*
X151714000Y-116037929D01*
X151834727Y-116644865D01*
X152178529Y-117159400D01*
X152693064Y-117503202D01*
X153300000Y-117623929D01*
X153906936Y-117503202D01*
X154326921Y-117222576D01*
X154435407Y-117391168D01*
X154660639Y-117545063D01*
X154928000Y-117599205D01*
X156752000Y-117599205D01*
X157001769Y-117552208D01*
X157231167Y-117404594D01*
X157385062Y-117179362D01*
X157439204Y-116912001D01*
X157439204Y-116529558D01*
X163325537Y-116529558D01*
X163731771Y-117512721D01*
X164483323Y-118265585D01*
X165465775Y-118673535D01*
X166529558Y-118674463D01*
X167512721Y-118268229D01*
X168265585Y-117516677D01*
X168673535Y-116534225D01*
X168674463Y-115470442D01*
X168268229Y-114487279D01*
X167516677Y-113734415D01*
X166534225Y-113326465D01*
X165470442Y-113325537D01*
X164487279Y-113731771D01*
X163734415Y-114483323D01*
X163326465Y-115465775D01*
X163325537Y-116529558D01*
X157439204Y-116529558D01*
X157439204Y-114388001D01*
X157392207Y-114138232D01*
X157258242Y-113930045D01*
X163794288Y-107394000D01*
X165305663Y-107394000D01*
X165445407Y-107611167D01*
X165626298Y-107734765D01*
X165346799Y-108153064D01*
X165226072Y-108760000D01*
X165346799Y-109366936D01*
X165690601Y-109881471D01*
X166205136Y-110225273D01*
X166812072Y-110346000D01*
X167587928Y-110346000D01*
X168194864Y-110225273D01*
X168709399Y-109881471D01*
X169053201Y-109366936D01*
X169173928Y-108760000D01*
X169053201Y-108153064D01*
X168772575Y-107733079D01*
X168941167Y-107624593D01*
X169095062Y-107399361D01*
X169149204Y-107132000D01*
X169149204Y-105308000D01*
X169102207Y-105058231D01*
X168954593Y-104828833D01*
X168729361Y-104674938D01*
X168462000Y-104620796D01*
X165938000Y-104620796D01*
X165688231Y-104667793D01*
X165458833Y-104815407D01*
X165304938Y-105040639D01*
X165303852Y-105046000D01*
X163308001Y-105046000D01*
X162858731Y-105135365D01*
X162858729Y-105135366D01*
X162858730Y-105135366D01*
X162477857Y-105389857D01*
X155009857Y-112857858D01*
X154755365Y-113238730D01*
X154740539Y-113313269D01*
X154666000Y-113688001D01*
X154666000Y-113755664D01*
X154448833Y-113895408D01*
X154325235Y-114076299D01*
X153906936Y-113796800D01*
X153300000Y-113676073D01*
X152693064Y-113796800D01*
X152178529Y-114140602D01*
X151834727Y-114655137D01*
X151714000Y-115262073D01*
X144976055Y-115262073D01*
X144865273Y-114705136D01*
X144521471Y-114190601D01*
X144374000Y-114092064D01*
X144374000Y-113103444D01*
X144643722Y-112833722D01*
X144797641Y-112603366D01*
X144854859Y-112517734D01*
X144929000Y-112145000D01*
X144929000Y-109807188D01*
X144992052Y-109744246D01*
X145178787Y-109294537D01*
X145179212Y-108807599D01*
X144993262Y-108357565D01*
X144649246Y-108012948D01*
X144199537Y-107826213D01*
X143712599Y-107825788D01*
X143262565Y-108011738D01*
X142917948Y-108355754D01*
X142731213Y-108805463D01*
X142730788Y-109292401D01*
X142916738Y-109742435D01*
X142981000Y-109806809D01*
X142981000Y-111741556D01*
X142711278Y-112011278D01*
X142500141Y-112327266D01*
X142426000Y-112700000D01*
X142426000Y-114092064D01*
X142278529Y-114190601D01*
X142130000Y-114412890D01*
X141981471Y-114190601D01*
X141834000Y-114092064D01*
X141834000Y-109360252D01*
X141861287Y-109294537D01*
X141861712Y-108807599D01*
X141675762Y-108357565D01*
X141331746Y-108012948D01*
X140953876Y-107856043D01*
X139830204Y-106732371D01*
X139514216Y-106521234D01*
X139141482Y-106447093D01*
X132262632Y-106447093D01*
X131889898Y-106521234D01*
X131668347Y-106669270D01*
X131573910Y-106732371D01*
X130480460Y-107825821D01*
X130442599Y-107825788D01*
X129992565Y-108011738D01*
X129647948Y-108355754D01*
X129461213Y-108805463D01*
X129460788Y-109292401D01*
X129646738Y-109742435D01*
X129711000Y-109806809D01*
X129711000Y-110911556D01*
X128741278Y-111881278D01*
X128530141Y-112197266D01*
X128456000Y-112570000D01*
X128456000Y-114092064D01*
X128403079Y-114127425D01*
X128294593Y-113958833D01*
X128069361Y-113804938D01*
X127802000Y-113750796D01*
X125978000Y-113750796D01*
X125728231Y-113797793D01*
X125498833Y-113945407D01*
X125344938Y-114170639D01*
X125290796Y-114438000D01*
X125290796Y-116962000D01*
X125337793Y-117211769D01*
X125485407Y-117441167D01*
X125710639Y-117595062D01*
X125978000Y-117649204D01*
X127802000Y-117649204D01*
X128051769Y-117602207D01*
X128281167Y-117454593D01*
X128404765Y-117273702D01*
X128823064Y-117553201D01*
X129430000Y-117673928D01*
X130036936Y-117553201D01*
X130551471Y-117209399D01*
X130700000Y-116987110D01*
X130848529Y-117209399D01*
X130996000Y-117307936D01*
X130996000Y-117670000D01*
X131070141Y-118042734D01*
X131281278Y-118358722D01*
X132111278Y-119188722D01*
X132204483Y-119251000D01*
X100749000Y-119251000D01*
X100749000Y-116529558D01*
X101325537Y-116529558D01*
X101731771Y-117512721D01*
X102483323Y-118265585D01*
X103465775Y-118673535D01*
X104529558Y-118674463D01*
X105512721Y-118268229D01*
X106265585Y-117516677D01*
X106673535Y-116534225D01*
X106674463Y-115470442D01*
X106268229Y-114487279D01*
X105516677Y-113734415D01*
X104534225Y-113326465D01*
X103470442Y-113325537D01*
X102487279Y-113731771D01*
X101734415Y-114483323D01*
X101326465Y-115465775D01*
X101325537Y-116529558D01*
X100749000Y-116529558D01*
X100749000Y-109492401D01*
X122775788Y-109492401D01*
X122961738Y-109942435D01*
X123305754Y-110287052D01*
X123755463Y-110473787D01*
X124242401Y-110474212D01*
X124692435Y-110288262D01*
X125037052Y-109944246D01*
X125223787Y-109494537D01*
X125224212Y-109007599D01*
X125038262Y-108557565D01*
X124874000Y-108393016D01*
X124874000Y-103671090D01*
X128266824Y-100278267D01*
X132187506Y-100278267D01*
X132176213Y-100305463D01*
X132175788Y-100792401D01*
X132361738Y-101242435D01*
X132705754Y-101587052D01*
X133155463Y-101773787D01*
X133642401Y-101774212D01*
X134092435Y-101588262D01*
X134256984Y-101424000D01*
X136589278Y-101424000D01*
X136576213Y-101455463D01*
X136575788Y-101942401D01*
X136761738Y-102392435D01*
X137105754Y-102737052D01*
X137555463Y-102923787D01*
X137717194Y-102923928D01*
X139360053Y-104566786D01*
X139360055Y-104566789D01*
X139659823Y-104767087D01*
X140013422Y-104837422D01*
X143330688Y-104837422D01*
X144346633Y-105853367D01*
X144646400Y-106053665D01*
X145000000Y-106124000D01*
X154226830Y-106124000D01*
X154580430Y-106053665D01*
X154880197Y-105853367D01*
X156810342Y-103923221D01*
X156810345Y-103923219D01*
X157010643Y-103623451D01*
X157080978Y-103269852D01*
X157080978Y-84471833D01*
X157194030Y-84358978D01*
X157380765Y-83909269D01*
X157381190Y-83422331D01*
X157195240Y-82972297D01*
X156984289Y-82760977D01*
X156838262Y-82407565D01*
X156494246Y-82062948D01*
X156044537Y-81876213D01*
X155557599Y-81875788D01*
X155107565Y-82061738D01*
X154762948Y-82405754D01*
X154576213Y-82855463D01*
X154575788Y-83342401D01*
X154761738Y-83792435D01*
X154972689Y-84003755D01*
X155118716Y-84357167D01*
X155232978Y-84471629D01*
X155232978Y-89345348D01*
X154749840Y-89344926D01*
X154299806Y-89530876D01*
X153955189Y-89874892D01*
X153768454Y-90324601D01*
X153768029Y-90811539D01*
X153823937Y-90946846D01*
X153768454Y-91080463D01*
X153768029Y-91567401D01*
X153953979Y-92017435D01*
X154068241Y-92131897D01*
X154068241Y-101920655D01*
X152712895Y-103276000D01*
X148986674Y-103276000D01*
X149036299Y-103156490D01*
X149036502Y-102923985D01*
X149195112Y-102765375D01*
X149384572Y-102481830D01*
X149401993Y-102394246D01*
X149451101Y-102147364D01*
X149451101Y-98789166D01*
X149614153Y-98626398D01*
X149800888Y-98176689D01*
X149801313Y-97689751D01*
X149615363Y-97239717D01*
X149271347Y-96895100D01*
X148821638Y-96708365D01*
X148334700Y-96707940D01*
X147884666Y-96893890D01*
X147540049Y-97237906D01*
X147353314Y-97687615D01*
X147352889Y-98174553D01*
X147538839Y-98624587D01*
X147703101Y-98789136D01*
X147703101Y-100097081D01*
X147544246Y-99937948D01*
X147094537Y-99751213D01*
X146810275Y-99750965D01*
X146810275Y-97114718D01*
X146973327Y-96951950D01*
X147160062Y-96502241D01*
X147160487Y-96015303D01*
X146974537Y-95565269D01*
X146941326Y-95532000D01*
X149775978Y-95532000D01*
X149887036Y-95643058D01*
X149831949Y-95920000D01*
X149948870Y-96507802D01*
X150281833Y-97006116D01*
X150557035Y-97190000D01*
X150281833Y-97373884D01*
X149948870Y-97872198D01*
X149831949Y-98460000D01*
X149948870Y-99047802D01*
X150281833Y-99546116D01*
X150780147Y-99879079D01*
X151367949Y-99996000D01*
X151632051Y-99996000D01*
X152219853Y-99879079D01*
X152718167Y-99546116D01*
X153051130Y-99047802D01*
X153168051Y-98460000D01*
X153051130Y-97872198D01*
X152718167Y-97373884D01*
X152442965Y-97190000D01*
X152718167Y-97006116D01*
X153051130Y-96507802D01*
X153168051Y-95920000D01*
X153051130Y-95332198D01*
X152738823Y-94864798D01*
X152941167Y-94734593D01*
X153095062Y-94509361D01*
X153149204Y-94242000D01*
X153149204Y-92518000D01*
X153102207Y-92268231D01*
X152954593Y-92038833D01*
X152729361Y-91884938D01*
X152674000Y-91873727D01*
X152674000Y-83039124D01*
X152584635Y-82589854D01*
X152497625Y-82459635D01*
X152330143Y-82208980D01*
X150541019Y-80419857D01*
X150160147Y-80165365D01*
X150085608Y-80150539D01*
X150054671Y-80144385D01*
X150005143Y-80094857D01*
X149624271Y-79840365D01*
X149549732Y-79825539D01*
X149250701Y-79766058D01*
X149094537Y-79701213D01*
X148607599Y-79700788D01*
X148157565Y-79886738D01*
X147812948Y-80230754D01*
X147626213Y-80680463D01*
X147625788Y-81167401D01*
X147811738Y-81617435D01*
X148155754Y-81962052D01*
X148605463Y-82148787D01*
X148632217Y-82148810D01*
X148669857Y-82205143D01*
X149050730Y-82459635D01*
X149312243Y-82511653D01*
X150326000Y-83525411D01*
X150326000Y-85799539D01*
X150055653Y-85687282D01*
X150055882Y-85424849D01*
X149869932Y-84974815D01*
X149525916Y-84630198D01*
X149076207Y-84443463D01*
X148589269Y-84443038D01*
X148139235Y-84628988D01*
X147794618Y-84973004D01*
X147607883Y-85422713D01*
X147607680Y-85655217D01*
X147481989Y-85780909D01*
X147292529Y-86064454D01*
X147270089Y-86177267D01*
X147226000Y-86398920D01*
X147226000Y-89645751D01*
X146879204Y-89992547D01*
X146879204Y-88038000D01*
X146832207Y-87788231D01*
X146684593Y-87558833D01*
X146459361Y-87404938D01*
X146192000Y-87350796D01*
X144368000Y-87350796D01*
X144118231Y-87397793D01*
X143888833Y-87545407D01*
X143765235Y-87726298D01*
X143346936Y-87446799D01*
X142740000Y-87326072D01*
X142133064Y-87446799D01*
X141618529Y-87790601D01*
X141274727Y-88305136D01*
X141154000Y-88912072D01*
X141154000Y-89687928D01*
X141274727Y-90294864D01*
X141618529Y-90809399D01*
X141942695Y-91026000D01*
X141155265Y-91026000D01*
X140794537Y-90876213D01*
X140307599Y-90875788D01*
X140186077Y-90926000D01*
X138606966Y-90926000D01*
X138781471Y-90809399D01*
X139125273Y-90294864D01*
X139246000Y-89687928D01*
X139246000Y-88912072D01*
X139125273Y-88305136D01*
X138781471Y-87790601D01*
X138266936Y-87446799D01*
X137660000Y-87326072D01*
X137053064Y-87446799D01*
X136538529Y-87790601D01*
X136194727Y-88305136D01*
X136074000Y-88912072D01*
X136074000Y-89687928D01*
X136194727Y-90294864D01*
X136538529Y-90809399D01*
X136713034Y-90926000D01*
X133686286Y-90926000D01*
X126302687Y-83542401D01*
X129775788Y-83542401D01*
X129961738Y-83992435D01*
X130305754Y-84337052D01*
X130755463Y-84523787D01*
X130843068Y-84523863D01*
X131130754Y-84812052D01*
X131580463Y-84998787D01*
X131892915Y-84999060D01*
X131980754Y-85087052D01*
X132430463Y-85273787D01*
X132917401Y-85274212D01*
X133367435Y-85088262D01*
X133712052Y-84744246D01*
X133898787Y-84294537D01*
X133899212Y-83807599D01*
X133713262Y-83357565D01*
X133369246Y-83012948D01*
X133247809Y-82962523D01*
X132755143Y-82469857D01*
X132374271Y-82215365D01*
X132299732Y-82200539D01*
X132174000Y-82175529D01*
X132174000Y-77542401D01*
X135175788Y-77542401D01*
X135361738Y-77992435D01*
X135705754Y-78337052D01*
X136155463Y-78523787D01*
X136642401Y-78524212D01*
X137092435Y-78338262D01*
X137151565Y-78279235D01*
X145332327Y-78279235D01*
X145461738Y-78592435D01*
X145805754Y-78937052D01*
X146255463Y-79123787D01*
X146742401Y-79124212D01*
X147192435Y-78938262D01*
X147537052Y-78594246D01*
X147723787Y-78144537D01*
X147724212Y-77657599D01*
X147538262Y-77207565D01*
X147194246Y-76862948D01*
X146744537Y-76676213D01*
X146658114Y-76676138D01*
X146598489Y-76616513D01*
X146282501Y-76405376D01*
X145909767Y-76331235D01*
X137162414Y-76331235D01*
X137094246Y-76262948D01*
X136644537Y-76076213D01*
X136157599Y-76075788D01*
X135707565Y-76261738D01*
X135362948Y-76605754D01*
X135176213Y-77055463D01*
X135175788Y-77542401D01*
X132174000Y-77542401D01*
X132174000Y-75449204D01*
X133122000Y-75449204D01*
X133371769Y-75402207D01*
X133601167Y-75254593D01*
X133755062Y-75029361D01*
X133809204Y-74762000D01*
X133809204Y-72238000D01*
X141360796Y-72238000D01*
X141360796Y-74762000D01*
X141407793Y-75011769D01*
X141555407Y-75241167D01*
X141780639Y-75395062D01*
X142048000Y-75449204D01*
X143872000Y-75449204D01*
X144121769Y-75402207D01*
X144351167Y-75254593D01*
X144505062Y-75029361D01*
X144559204Y-74762000D01*
X144559204Y-72238000D01*
X144512207Y-71988231D01*
X144364593Y-71758833D01*
X144139361Y-71604938D01*
X143872000Y-71550796D01*
X142048000Y-71550796D01*
X141798231Y-71597793D01*
X141568833Y-71745407D01*
X141414938Y-71970639D01*
X141360796Y-72238000D01*
X133809204Y-72238000D01*
X133762207Y-71988231D01*
X133614593Y-71758833D01*
X133389361Y-71604938D01*
X133122000Y-71550796D01*
X131298000Y-71550796D01*
X131048231Y-71597793D01*
X130818833Y-71745407D01*
X130664938Y-71970639D01*
X130610796Y-72238000D01*
X130610796Y-73438918D01*
X130169857Y-73879857D01*
X129915365Y-74260729D01*
X129915365Y-74260730D01*
X129826000Y-74710000D01*
X129826000Y-82935562D01*
X129776213Y-83055463D01*
X129775788Y-83542401D01*
X126302687Y-83542401D01*
X126274000Y-83513714D01*
X126274000Y-77878308D01*
X126276590Y-77876590D01*
X126627605Y-77525575D01*
X126645093Y-77518349D01*
X126989710Y-77174333D01*
X126997424Y-77155756D01*
X127076590Y-77076590D01*
X127184604Y-76935431D01*
X127269047Y-76681561D01*
X127248067Y-76414838D01*
X127020749Y-75619223D01*
X127020947Y-75391845D01*
X126834997Y-74941811D01*
X126778371Y-74885086D01*
X126712214Y-74761922D01*
X126501422Y-74597156D01*
X126101422Y-74397156D01*
X125941300Y-74340978D01*
X125673771Y-74337926D01*
X125426132Y-74439198D01*
X125332206Y-74501815D01*
X125104300Y-74595984D01*
X124930083Y-74769898D01*
X124630484Y-74969630D01*
X124407565Y-75061738D01*
X124237159Y-75231846D01*
X124226132Y-75239198D01*
X124208754Y-75260202D01*
X124062948Y-75405754D01*
X124037373Y-75467345D01*
X123979102Y-75537776D01*
X123951471Y-75674221D01*
X123876213Y-75855463D01*
X123875788Y-76342401D01*
X123926000Y-76463923D01*
X123926000Y-76535562D01*
X123876213Y-76655463D01*
X123875788Y-77142401D01*
X123926000Y-77263923D01*
X123926000Y-84000000D01*
X123968393Y-84213123D01*
X124015365Y-84449271D01*
X124269857Y-84830143D01*
X132369857Y-92930143D01*
X132750729Y-93184635D01*
X133200000Y-93274000D01*
X135326000Y-93274000D01*
X135326000Y-94600000D01*
X135400141Y-94972734D01*
X135469065Y-95075885D01*
X135357599Y-95075788D01*
X134907565Y-95261738D01*
X134562948Y-95605754D01*
X134376213Y-96055463D01*
X134375788Y-96542401D01*
X134561738Y-96992435D01*
X134726000Y-97156984D01*
X134726000Y-97580702D01*
X133776435Y-98530267D01*
X131692042Y-98530267D01*
X132025836Y-98197055D01*
X132212571Y-97747346D01*
X132212996Y-97260408D01*
X132027046Y-96810374D01*
X131683030Y-96465757D01*
X131233321Y-96279022D01*
X131014743Y-96278831D01*
X130312780Y-95576869D01*
X130270847Y-95548850D01*
X129374000Y-94652003D01*
X129374000Y-93557014D01*
X129537052Y-93394246D01*
X129723787Y-92944537D01*
X129724212Y-92457599D01*
X129538262Y-92007565D01*
X129194246Y-91662948D01*
X128744537Y-91476213D01*
X128257599Y-91475788D01*
X127807565Y-91661738D01*
X127462948Y-92005754D01*
X127276213Y-92455463D01*
X127275788Y-92942401D01*
X127461738Y-93392435D01*
X127626000Y-93556984D01*
X127626000Y-95014025D01*
X127692529Y-95348491D01*
X127881989Y-95632036D01*
X129062844Y-96812891D01*
X129104777Y-96840910D01*
X129764785Y-97500919D01*
X129764572Y-97745210D01*
X129950522Y-98195244D01*
X130284961Y-98530267D01*
X127904801Y-98530267D01*
X127570336Y-98596796D01*
X127286790Y-98786255D01*
X123381989Y-102691057D01*
X123192529Y-102974602D01*
X123132578Y-103276000D01*
X123126000Y-103309068D01*
X123126000Y-108392986D01*
X122962948Y-108555754D01*
X122776213Y-109005463D01*
X122775788Y-109492401D01*
X100749000Y-109492401D01*
X100749000Y-97540000D01*
X108414317Y-97540000D01*
X108565492Y-98300009D01*
X108996003Y-98944314D01*
X109640308Y-99374825D01*
X110400317Y-99526000D01*
X111599683Y-99526000D01*
X112359692Y-99374825D01*
X113003997Y-98944314D01*
X113434508Y-98300009D01*
X113585683Y-97540000D01*
X113434508Y-96779991D01*
X113003997Y-96135686D01*
X112359692Y-95705175D01*
X111599683Y-95554000D01*
X110400317Y-95554000D01*
X109640308Y-95705175D01*
X108996003Y-96135686D01*
X108565492Y-96779991D01*
X108414317Y-97540000D01*
X100749000Y-97540000D01*
X100749000Y-92460000D01*
X108414317Y-92460000D01*
X108565492Y-93220009D01*
X108996003Y-93864314D01*
X109640308Y-94294825D01*
X110400317Y-94446000D01*
X111599683Y-94446000D01*
X112359692Y-94294825D01*
X113003997Y-93864314D01*
X113434508Y-93220009D01*
X113585683Y-92460000D01*
X113434508Y-91699991D01*
X113003997Y-91055686D01*
X112359692Y-90625175D01*
X111599683Y-90474000D01*
X110400317Y-90474000D01*
X109640308Y-90625175D01*
X108996003Y-91055686D01*
X108565492Y-91699991D01*
X108414317Y-92460000D01*
X100749000Y-92460000D01*
X100749000Y-86068000D01*
X108450796Y-86068000D01*
X108450796Y-88692000D01*
X108497793Y-88941769D01*
X108645407Y-89171167D01*
X108870639Y-89325062D01*
X109138000Y-89379204D01*
X112862000Y-89379204D01*
X113111769Y-89332207D01*
X113341167Y-89184593D01*
X113495062Y-88959361D01*
X113549204Y-88692000D01*
X113549204Y-86068000D01*
X113502207Y-85818231D01*
X113354593Y-85588833D01*
X113129361Y-85434938D01*
X112862000Y-85380796D01*
X109138000Y-85380796D01*
X108888231Y-85427793D01*
X108658833Y-85575407D01*
X108504938Y-85800639D01*
X108450796Y-86068000D01*
X100749000Y-86068000D01*
X100749000Y-82742401D01*
X114425788Y-82742401D01*
X114611738Y-83192435D01*
X114955754Y-83537052D01*
X115405463Y-83723787D01*
X115526000Y-83723892D01*
X115526000Y-84943559D01*
X115600141Y-85316293D01*
X115811278Y-85632281D01*
X116955802Y-86776805D01*
X116955788Y-86792401D01*
X117006000Y-86913923D01*
X117006000Y-94080000D01*
X117052886Y-94315711D01*
X117095365Y-94529271D01*
X117349857Y-94910143D01*
X119412160Y-96972447D01*
X119461738Y-97092435D01*
X119805754Y-97437052D01*
X120255463Y-97623787D01*
X120742401Y-97624212D01*
X121192435Y-97438262D01*
X121537052Y-97094246D01*
X121723787Y-96644537D01*
X121724212Y-96157599D01*
X121538262Y-95707565D01*
X121194246Y-95362948D01*
X121072811Y-95312524D01*
X119354000Y-93593714D01*
X119354000Y-86914438D01*
X119403787Y-86794537D01*
X119404212Y-86307599D01*
X119218262Y-85857565D01*
X118874246Y-85512948D01*
X118424537Y-85326213D01*
X118259954Y-85326069D01*
X117474000Y-84540115D01*
X117474000Y-77507188D01*
X117537052Y-77444246D01*
X117723787Y-76994537D01*
X117724212Y-76507599D01*
X117538262Y-76057565D01*
X117194246Y-75712948D01*
X116744537Y-75526213D01*
X116257599Y-75525788D01*
X115807565Y-75711738D01*
X115462948Y-76055754D01*
X115276213Y-76505463D01*
X115275788Y-76992401D01*
X115461738Y-77442435D01*
X115526000Y-77506809D01*
X115526000Y-81275891D01*
X115407599Y-81275788D01*
X114957565Y-81461738D01*
X114612948Y-81805754D01*
X114426213Y-82255463D01*
X114425788Y-82742401D01*
X100749000Y-82742401D01*
X100749000Y-74529558D01*
X101325537Y-74529558D01*
X101731771Y-75512721D01*
X102483323Y-76265585D01*
X103465775Y-76673535D01*
X104529558Y-76674463D01*
X105512721Y-76268229D01*
X106265585Y-75516677D01*
X106673535Y-74534225D01*
X106674463Y-73470442D01*
X106268229Y-72487279D01*
X105516677Y-71734415D01*
X104534225Y-71326465D01*
X103470442Y-71325537D01*
X102487279Y-71731771D01*
X101734415Y-72483323D01*
X101326465Y-73465775D01*
X101325537Y-74529558D01*
X100749000Y-74529558D01*
X100749000Y-70749000D01*
X157950000Y-70749000D01*
X157950000Y-103400000D01*
G36*
X139413482Y-109070537D02*
X139413288Y-109292401D01*
X139599238Y-109742435D01*
X139886000Y-110029698D01*
X139886000Y-114092064D01*
X139833079Y-114127425D01*
X139724593Y-113958833D01*
X139499361Y-113804938D01*
X139232000Y-113750796D01*
X137408000Y-113750796D01*
X137158231Y-113797793D01*
X136928833Y-113945407D01*
X136774938Y-114170639D01*
X136720796Y-114438000D01*
X136720796Y-116962000D01*
X136767793Y-117211769D01*
X136915407Y-117441167D01*
X137039564Y-117526000D01*
X133203444Y-117526000D01*
X132968806Y-117291362D01*
X133091471Y-117209399D01*
X133435273Y-116694864D01*
X133556000Y-116087928D01*
X133556000Y-115312072D01*
X133435273Y-114705136D01*
X133091471Y-114190601D01*
X132944000Y-114092064D01*
X132944000Y-113533444D01*
X134691222Y-111786222D01*
X134902359Y-111470234D01*
X134976500Y-111097500D01*
X134976500Y-109807188D01*
X135039552Y-109744246D01*
X135226287Y-109294537D01*
X135226712Y-108807599D01*
X135056268Y-108395093D01*
X138738038Y-108395093D01*
X139413482Y-109070537D01*
X139413482Y-109070537D01*
G37*
X139413482Y-109070537D02*
X139413288Y-109292401D01*
X139599238Y-109742435D01*
X139886000Y-110029698D01*
X139886000Y-114092064D01*
X139833079Y-114127425D01*
X139724593Y-113958833D01*
X139499361Y-113804938D01*
X139232000Y-113750796D01*
X137408000Y-113750796D01*
X137158231Y-113797793D01*
X136928833Y-113945407D01*
X136774938Y-114170639D01*
X136720796Y-114438000D01*
X136720796Y-116962000D01*
X136767793Y-117211769D01*
X136915407Y-117441167D01*
X137039564Y-117526000D01*
X133203444Y-117526000D01*
X132968806Y-117291362D01*
X133091471Y-117209399D01*
X133435273Y-116694864D01*
X133556000Y-116087928D01*
X133556000Y-115312072D01*
X133435273Y-114705136D01*
X133091471Y-114190601D01*
X132944000Y-114092064D01*
X132944000Y-113533444D01*
X134691222Y-111786222D01*
X134902359Y-111470234D01*
X134976500Y-111097500D01*
X134976500Y-109807188D01*
X135039552Y-109744246D01*
X135226287Y-109294537D01*
X135226712Y-108807599D01*
X135056268Y-108395093D01*
X138738038Y-108395093D01*
X139413482Y-109070537D01*
G36*
X126157967Y-75234885D02*
X126543842Y-76585448D01*
X125779290Y-77350000D01*
X124650000Y-77350000D01*
X124650000Y-75826760D01*
X125803593Y-75057698D01*
X126157967Y-75234885D01*
X126157967Y-75234885D01*
G37*
X126157967Y-75234885D02*
X126543842Y-76585448D01*
X125779290Y-77350000D01*
X124650000Y-77350000D01*
X124650000Y-75826760D01*
X125803593Y-75057698D01*
X126157967Y-75234885D01*
M02*
