G04 #@! TF.FileFunction,Legend,Top*
%FSLAX46Y46*%
G04 Gerber Fmt 4.6, Leading zero omitted, Abs format (unit mm)*
G04 Created by KiCad (PCBNEW 4.0.6) date 01/12/18 15:47:40*
%MOMM*%
%LPD*%
G01*
G04 APERTURE LIST*
%ADD10C,0.100000*%
%ADD11C,0.250000*%
%ADD12C,0.120000*%
%ADD13C,0.150000*%
%ADD14C,0.500000*%
%ADD15C,0.300000*%
%ADD16C,0.600000*%
%ADD17C,0.400000*%
G04 APERTURE END LIST*
D10*
D11*
X122657142Y-103960714D02*
X122657142Y-104627381D01*
X122657142Y-104055952D02*
X122704761Y-104008333D01*
X122799999Y-103960714D01*
X122942857Y-103960714D01*
X123038095Y-104008333D01*
X123085714Y-104103571D01*
X123085714Y-104627381D01*
X123561904Y-104627381D02*
X123561904Y-103627381D01*
X123990476Y-104627381D02*
X123990476Y-104103571D01*
X123942857Y-104008333D01*
X123847619Y-103960714D01*
X123704761Y-103960714D01*
X123609523Y-104008333D01*
X123561904Y-104055952D01*
X124895238Y-104627381D02*
X124895238Y-104103571D01*
X124847619Y-104008333D01*
X124752381Y-103960714D01*
X124561904Y-103960714D01*
X124466666Y-104008333D01*
X124895238Y-104579762D02*
X124800000Y-104627381D01*
X124561904Y-104627381D01*
X124466666Y-104579762D01*
X124419047Y-104484524D01*
X124419047Y-104389286D01*
X124466666Y-104294048D01*
X124561904Y-104246429D01*
X124800000Y-104246429D01*
X124895238Y-104198810D01*
X125371428Y-103960714D02*
X125371428Y-104627381D01*
X125371428Y-104055952D02*
X125419047Y-104008333D01*
X125514285Y-103960714D01*
X125657143Y-103960714D01*
X125752381Y-104008333D01*
X125800000Y-104103571D01*
X125800000Y-104627381D01*
X126133333Y-103960714D02*
X126514285Y-103960714D01*
X126276190Y-103627381D02*
X126276190Y-104484524D01*
X126323809Y-104579762D01*
X126419047Y-104627381D01*
X126514285Y-104627381D01*
X126704762Y-103960714D02*
X127085714Y-103960714D01*
X126847619Y-103627381D02*
X126847619Y-104484524D01*
X126895238Y-104579762D01*
X126990476Y-104627381D01*
X127085714Y-104627381D01*
D12*
X141120000Y-82700000D02*
X141120000Y-80700000D01*
X139080000Y-80700000D02*
X139080000Y-82700000D01*
X148650000Y-79500000D02*
X148650000Y-80500000D01*
X150350000Y-80500000D02*
X150350000Y-79500000D01*
X128750000Y-78500000D02*
X128750000Y-77500000D01*
X127050000Y-77500000D02*
X127050000Y-78500000D01*
X126580000Y-79100000D02*
X126580000Y-77100000D01*
X123620000Y-77100000D02*
X123620000Y-79100000D01*
X117350000Y-78500000D02*
X117350000Y-77500000D01*
X115650000Y-77500000D02*
X115650000Y-78500000D01*
X114980000Y-79000000D02*
X114980000Y-77000000D01*
X112020000Y-77000000D02*
X112020000Y-79000000D01*
X132020000Y-82300000D02*
X132020000Y-80300000D01*
X129980000Y-80300000D02*
X129980000Y-82300000D01*
X121500000Y-83350000D02*
X122500000Y-83350000D01*
X122500000Y-81650000D02*
X121500000Y-81650000D01*
X139765477Y-85950000D02*
X138765477Y-85950000D01*
X138765477Y-87650000D02*
X139765477Y-87650000D01*
X111250000Y-111000000D02*
X111250000Y-110000000D01*
X109550000Y-110000000D02*
X109550000Y-111000000D01*
X136650000Y-100700000D02*
X136650000Y-99700000D01*
X134950000Y-99700000D02*
X134950000Y-100700000D01*
X123400000Y-96250000D02*
X122400000Y-96250000D01*
X122400000Y-97950000D02*
X123400000Y-97950000D01*
X141600000Y-101050000D02*
X140600000Y-101050000D01*
X140600000Y-102750000D02*
X141600000Y-102750000D01*
X142000000Y-105570000D02*
X140000000Y-105570000D01*
X140000000Y-103430000D02*
X142000000Y-103430000D01*
X123050000Y-87750000D02*
X126250000Y-87750000D01*
X126250000Y-89250000D02*
X123050000Y-89250000D01*
X126250000Y-89250000D02*
X126250000Y-87750000D01*
X123050000Y-85500000D02*
X126250000Y-85500000D01*
X126250000Y-87000000D02*
X123050000Y-87000000D01*
X126250000Y-87000000D02*
X126250000Y-85500000D01*
X118000000Y-74250000D02*
X114800000Y-74250000D01*
X114800000Y-72750000D02*
X118000000Y-72750000D01*
X114800000Y-72750000D02*
X114800000Y-74250000D01*
X130600000Y-104050000D02*
X127400000Y-104050000D01*
X127400000Y-102550000D02*
X130600000Y-102550000D01*
X127400000Y-102550000D02*
X127400000Y-104050000D01*
D13*
X139075000Y-100350000D02*
X143525000Y-100350000D01*
X137550000Y-93450000D02*
X143525000Y-93450000D01*
D12*
X146973200Y-76294000D02*
X146973200Y-70198000D01*
X146973200Y-70198000D02*
X141639200Y-70198000D01*
X146973200Y-76294000D02*
X141639200Y-76294000D01*
X141639200Y-76294000D02*
X141639200Y-70198000D01*
D13*
X106400000Y-95000000D02*
X105300000Y-95000000D01*
X106500000Y-84320000D02*
X106500000Y-105680000D01*
X105200000Y-84320000D02*
X105200000Y-105680000D01*
X116800000Y-84320000D02*
X105200000Y-84320000D01*
X105200000Y-105680000D02*
X116800000Y-105680000D01*
X116800000Y-105680000D02*
X116800000Y-84320000D01*
D12*
X136223200Y-76294000D02*
X136223200Y-70198000D01*
X136223200Y-70198000D02*
X130889200Y-70198000D01*
X136223200Y-76294000D02*
X130889200Y-76294000D01*
X130889200Y-76294000D02*
X130889200Y-70198000D01*
X128160000Y-117100000D02*
X135840000Y-117100000D01*
X135840000Y-117100000D02*
X135840000Y-114300000D01*
X135840000Y-114300000D02*
X128160000Y-114300000D01*
X128160000Y-114300000D02*
X128160000Y-117100000D01*
X126890000Y-117100000D02*
X125560000Y-117100000D01*
X125560000Y-117100000D02*
X125560000Y-115700000D01*
X144010000Y-87900000D02*
X136330000Y-87900000D01*
X136330000Y-87900000D02*
X136330000Y-90700000D01*
X136330000Y-90700000D02*
X144010000Y-90700000D01*
X144010000Y-90700000D02*
X144010000Y-87900000D01*
X145280000Y-87900000D02*
X146610000Y-87900000D01*
X146610000Y-87900000D02*
X146610000Y-89300000D01*
D13*
X169000000Y-87635000D02*
X169000000Y-89135000D01*
X164500000Y-87635000D02*
X169000000Y-87635000D01*
X164500000Y-86135000D02*
X164500000Y-87635000D01*
X169000000Y-86135000D02*
X164500000Y-86135000D01*
X169000000Y-84635000D02*
X169000000Y-86135000D01*
X164500000Y-84635000D02*
X169000000Y-84635000D01*
X164500000Y-83135000D02*
X164500000Y-84635000D01*
X169000000Y-83135000D02*
X164500000Y-83135000D01*
X169000000Y-81635000D02*
X169000000Y-83135000D01*
X164500000Y-81635000D02*
X169000000Y-81635000D01*
X164500000Y-80135000D02*
X164500000Y-81635000D01*
X169000000Y-80135000D02*
X164500000Y-80135000D01*
X169000000Y-78635000D02*
X169000000Y-80135000D01*
X162000000Y-78635000D02*
X169000000Y-78635000D01*
X170000000Y-77590000D02*
X170000000Y-89680000D01*
X151500000Y-89675000D02*
X151500000Y-88825000D01*
X151500000Y-89680000D02*
X170000000Y-89680000D01*
X151500000Y-77595000D02*
X151500000Y-78435000D01*
X151500000Y-77590000D02*
X170000000Y-77590000D01*
X128949760Y-90500840D02*
X128949760Y-90549100D01*
X129650800Y-93299820D02*
X128949760Y-93299820D01*
X128949760Y-93299820D02*
X128949760Y-93050900D01*
X128949760Y-90500840D02*
X128949760Y-90300180D01*
X128949760Y-90300180D02*
X129650800Y-90300180D01*
D12*
X139680000Y-74000000D02*
X139680000Y-75200000D01*
X137920000Y-75200000D02*
X137920000Y-74000000D01*
X117600000Y-83380000D02*
X116400000Y-83380000D01*
X116400000Y-81620000D02*
X117600000Y-81620000D01*
X142870000Y-84950000D02*
X142870000Y-83750000D01*
X144630000Y-83750000D02*
X144630000Y-84950000D01*
X123000000Y-74380000D02*
X121800000Y-74380000D01*
X121800000Y-72620000D02*
X123000000Y-72620000D01*
X128850000Y-87620000D02*
X130050000Y-87620000D01*
X130050000Y-89380000D02*
X128850000Y-89380000D01*
X128850000Y-85370000D02*
X130050000Y-85370000D01*
X130050000Y-87130000D02*
X128850000Y-87130000D01*
X142870000Y-79850000D02*
X142870000Y-78650000D01*
X144630000Y-78650000D02*
X144630000Y-79850000D01*
X147380000Y-78650000D02*
X147380000Y-79850000D01*
X145620000Y-79850000D02*
X145620000Y-78650000D01*
X147380000Y-83650000D02*
X147380000Y-84850000D01*
X145620000Y-84850000D02*
X145620000Y-83650000D01*
X138600000Y-91220000D02*
X139800000Y-91220000D01*
X139800000Y-92980000D02*
X138600000Y-92980000D01*
X124880000Y-110000000D02*
X124880000Y-111200000D01*
X123120000Y-111200000D02*
X123120000Y-110000000D01*
X117300000Y-88500000D02*
X117300000Y-87300000D01*
X119060000Y-87300000D02*
X119060000Y-88500000D01*
X129080000Y-98400000D02*
X129080000Y-99600000D01*
X127320000Y-99600000D02*
X127320000Y-98400000D01*
X131880000Y-98400000D02*
X131880000Y-99600000D01*
X130120000Y-99600000D02*
X130120000Y-98400000D01*
X129000000Y-94320000D02*
X130200000Y-94320000D01*
X130200000Y-96080000D02*
X129000000Y-96080000D01*
X117220000Y-93600000D02*
X117220000Y-92400000D01*
X118980000Y-92400000D02*
X118980000Y-93600000D01*
X132470000Y-97100000D02*
X132470000Y-95900000D01*
X134230000Y-95900000D02*
X134230000Y-97100000D01*
X134280000Y-101300000D02*
X134280000Y-102500000D01*
X132520000Y-102500000D02*
X132520000Y-101300000D01*
X134180000Y-90800000D02*
X134180000Y-92000000D01*
X132420000Y-92000000D02*
X132420000Y-90800000D01*
X117220000Y-98600000D02*
X117220000Y-97400000D01*
X118980000Y-97400000D02*
X118980000Y-98600000D01*
X133122500Y-111000000D02*
X133122500Y-109800000D01*
X134882500Y-109800000D02*
X134882500Y-111000000D01*
X129805000Y-111000000D02*
X129805000Y-109800000D01*
X131565000Y-109800000D02*
X131565000Y-111000000D01*
X113650000Y-113850000D02*
X113650000Y-114300000D01*
X113650000Y-114300000D02*
X119950000Y-114300000D01*
X119950000Y-114300000D02*
X119950000Y-113900000D01*
X113650000Y-112550000D02*
X113650000Y-109850000D01*
X119950000Y-109850000D02*
X119950000Y-112550000D01*
X113650000Y-108100000D02*
X119950000Y-108100000D01*
X119950000Y-108100000D02*
X119950000Y-108550000D01*
X113650000Y-108550000D02*
X113650000Y-108100000D01*
D13*
X138175000Y-79525000D02*
X138125000Y-79525000D01*
X138175000Y-83675000D02*
X138030000Y-83675000D01*
X133025000Y-83675000D02*
X133170000Y-83675000D01*
X133025000Y-79525000D02*
X133170000Y-79525000D01*
X138175000Y-79525000D02*
X138175000Y-83675000D01*
X133025000Y-79525000D02*
X133025000Y-83675000D01*
X138125000Y-79525000D02*
X138125000Y-78125000D01*
D12*
X119600000Y-79610000D02*
X121400000Y-79610000D01*
X121400000Y-76390000D02*
X118950000Y-76390000D01*
D13*
X125275000Y-95875000D02*
X125275000Y-95825000D01*
X121125000Y-95875000D02*
X121125000Y-95730000D01*
X121125000Y-90725000D02*
X121125000Y-90870000D01*
X125275000Y-90725000D02*
X125275000Y-90870000D01*
X125275000Y-95875000D02*
X121125000Y-95875000D01*
X125275000Y-90725000D02*
X121125000Y-90725000D01*
X125275000Y-95825000D02*
X126675000Y-95825000D01*
D12*
X111400000Y-74600000D02*
X108100000Y-74600000D01*
X108100000Y-74600000D02*
X108100000Y-80000000D01*
X111400000Y-74600000D02*
X111400000Y-80000000D01*
D14*
X169915000Y-90840000D02*
X149595000Y-90840000D01*
X169915000Y-103540000D02*
X169915000Y-90840000D01*
X149595000Y-103540000D02*
X169915000Y-103540000D01*
X149595000Y-90840000D02*
X149595000Y-103540000D01*
D12*
X139590000Y-117100000D02*
X147270000Y-117100000D01*
X147270000Y-117100000D02*
X147270000Y-114300000D01*
X147270000Y-114300000D02*
X139590000Y-114300000D01*
X139590000Y-114300000D02*
X139590000Y-117100000D01*
X138320000Y-117100000D02*
X136990000Y-117100000D01*
X136990000Y-117100000D02*
X136990000Y-115700000D01*
X154570000Y-114250001D02*
X149430000Y-114250001D01*
X149430000Y-114250001D02*
X149430000Y-117050001D01*
X149430000Y-117050001D02*
X154570000Y-117050001D01*
X154570000Y-116980001D02*
X154570000Y-114320001D01*
X155840000Y-114250001D02*
X157170000Y-114250001D01*
X157170000Y-114250001D02*
X157170000Y-115650001D01*
X165800000Y-107490000D02*
X165800000Y-112630000D01*
X165800000Y-112630000D02*
X168600000Y-112630000D01*
X168600000Y-112630000D02*
X168600000Y-107490000D01*
X168530000Y-107490000D02*
X165870000Y-107490000D01*
X165800000Y-106220000D02*
X165800000Y-104890000D01*
X165800000Y-104890000D02*
X167200000Y-104890000D01*
X149080000Y-94100000D02*
X149080000Y-95300000D01*
X147320000Y-95300000D02*
X147320000Y-94100000D01*
X143075000Y-111000000D02*
X143075000Y-109800000D01*
X144835000Y-109800000D02*
X144835000Y-111000000D01*
X139757500Y-111000000D02*
X139757500Y-109800000D01*
X141517500Y-109800000D02*
X141517500Y-111000000D01*
X154737500Y-109800000D02*
X154737500Y-111000000D01*
X152977500Y-111000000D02*
X152977500Y-109800000D01*
X161000000Y-106670000D02*
X162200000Y-106670000D01*
X162200000Y-108430000D02*
X161000000Y-108430000D01*
X149710000Y-111000000D02*
X149710000Y-109800000D01*
X151470000Y-109800000D02*
X151470000Y-111000000D01*
X162200000Y-110805000D02*
X161000000Y-110805000D01*
X161000000Y-109045000D02*
X162200000Y-109045000D01*
X148102500Y-109800000D02*
X148102500Y-111000000D01*
X146342500Y-111000000D02*
X146342500Y-109800000D01*
X161000000Y-111520000D02*
X162200000Y-111520000D01*
X162200000Y-113280000D02*
X161000000Y-113280000D01*
X136445000Y-110000000D02*
X136445000Y-111000000D01*
X138145000Y-111000000D02*
X138145000Y-110000000D01*
X126492500Y-110000000D02*
X126492500Y-111000000D01*
X128192500Y-111000000D02*
X128192500Y-110000000D01*
X161200000Y-105950000D02*
X162200000Y-105950000D01*
X162200000Y-104250000D02*
X161200000Y-104250000D01*
X156350000Y-109834523D02*
X156350000Y-110834523D01*
X158050000Y-110834523D02*
X158050000Y-109834523D01*
X147350000Y-89600000D02*
X147350000Y-90600000D01*
X149050000Y-90600000D02*
X149050000Y-89600000D01*
D15*
X121375000Y-102825000D02*
X122010000Y-104730000D01*
X121375000Y-102825000D02*
X120740000Y-104095000D01*
X119470000Y-102952000D02*
X121375000Y-102825000D01*
X120740000Y-101301000D02*
X121375000Y-102825000D01*
D16*
X120994000Y-101301000D02*
G75*
G03X120994000Y-101301000I-254000J0D01*
G01*
D17*
X119724000Y-102952000D02*
G75*
G03X119724000Y-102952000I-254000J0D01*
G01*
D16*
X121756000Y-102825000D02*
G75*
G03X121756000Y-102825000I-381000J0D01*
G01*
D14*
X122264000Y-104730000D02*
G75*
G03X122264000Y-104730000I-254000J0D01*
G01*
D17*
X120930500Y-104095000D02*
G75*
G03X120930500Y-104095000I-190500J0D01*
G01*
D13*
X102666667Y-74952381D02*
X102333333Y-74476190D01*
X102095238Y-74952381D02*
X102095238Y-73952381D01*
X102476191Y-73952381D01*
X102571429Y-74000000D01*
X102619048Y-74047619D01*
X102666667Y-74142857D01*
X102666667Y-74285714D01*
X102619048Y-74380952D01*
X102571429Y-74428571D01*
X102476191Y-74476190D01*
X102095238Y-74476190D01*
X103095238Y-74428571D02*
X103428572Y-74428571D01*
X103571429Y-74952381D02*
X103095238Y-74952381D01*
X103095238Y-73952381D01*
X103571429Y-73952381D01*
X104333334Y-74428571D02*
X104000000Y-74428571D01*
X104000000Y-74952381D02*
X104000000Y-73952381D01*
X104476191Y-73952381D01*
X105000000Y-73952381D02*
X105000000Y-74190476D01*
X104761905Y-74095238D02*
X105000000Y-74190476D01*
X105238096Y-74095238D01*
X104857143Y-74380952D02*
X105000000Y-74190476D01*
X105142858Y-74380952D01*
X105761905Y-73952381D02*
X105761905Y-74190476D01*
X105523810Y-74095238D02*
X105761905Y-74190476D01*
X106000001Y-74095238D01*
X105619048Y-74380952D02*
X105761905Y-74190476D01*
X105904763Y-74380952D01*
X164666667Y-74952381D02*
X164333333Y-74476190D01*
X164095238Y-74952381D02*
X164095238Y-73952381D01*
X164476191Y-73952381D01*
X164571429Y-74000000D01*
X164619048Y-74047619D01*
X164666667Y-74142857D01*
X164666667Y-74285714D01*
X164619048Y-74380952D01*
X164571429Y-74428571D01*
X164476191Y-74476190D01*
X164095238Y-74476190D01*
X165095238Y-74428571D02*
X165428572Y-74428571D01*
X165571429Y-74952381D02*
X165095238Y-74952381D01*
X165095238Y-73952381D01*
X165571429Y-73952381D01*
X166333334Y-74428571D02*
X166000000Y-74428571D01*
X166000000Y-74952381D02*
X166000000Y-73952381D01*
X166476191Y-73952381D01*
X167000000Y-73952381D02*
X167000000Y-74190476D01*
X166761905Y-74095238D02*
X167000000Y-74190476D01*
X167238096Y-74095238D01*
X166857143Y-74380952D02*
X167000000Y-74190476D01*
X167142858Y-74380952D01*
X167761905Y-73952381D02*
X167761905Y-74190476D01*
X167523810Y-74095238D02*
X167761905Y-74190476D01*
X168000001Y-74095238D01*
X167619048Y-74380952D02*
X167761905Y-74190476D01*
X167904763Y-74380952D01*
X164666667Y-116952381D02*
X164333333Y-116476190D01*
X164095238Y-116952381D02*
X164095238Y-115952381D01*
X164476191Y-115952381D01*
X164571429Y-116000000D01*
X164619048Y-116047619D01*
X164666667Y-116142857D01*
X164666667Y-116285714D01*
X164619048Y-116380952D01*
X164571429Y-116428571D01*
X164476191Y-116476190D01*
X164095238Y-116476190D01*
X165095238Y-116428571D02*
X165428572Y-116428571D01*
X165571429Y-116952381D02*
X165095238Y-116952381D01*
X165095238Y-115952381D01*
X165571429Y-115952381D01*
X166333334Y-116428571D02*
X166000000Y-116428571D01*
X166000000Y-116952381D02*
X166000000Y-115952381D01*
X166476191Y-115952381D01*
X167000000Y-115952381D02*
X167000000Y-116190476D01*
X166761905Y-116095238D02*
X167000000Y-116190476D01*
X167238096Y-116095238D01*
X166857143Y-116380952D02*
X167000000Y-116190476D01*
X167142858Y-116380952D01*
X167761905Y-115952381D02*
X167761905Y-116190476D01*
X167523810Y-116095238D02*
X167761905Y-116190476D01*
X168000001Y-116095238D01*
X167619048Y-116380952D02*
X167761905Y-116190476D01*
X167904763Y-116380952D01*
X142207143Y-81866666D02*
X142254762Y-81914285D01*
X142302381Y-82057142D01*
X142302381Y-82152380D01*
X142254762Y-82295238D01*
X142159524Y-82390476D01*
X142064286Y-82438095D01*
X141873810Y-82485714D01*
X141730952Y-82485714D01*
X141540476Y-82438095D01*
X141445238Y-82390476D01*
X141350000Y-82295238D01*
X141302381Y-82152380D01*
X141302381Y-82057142D01*
X141350000Y-81914285D01*
X141397619Y-81866666D01*
X142302381Y-80914285D02*
X142302381Y-81485714D01*
X142302381Y-81200000D02*
X141302381Y-81200000D01*
X141445238Y-81295238D01*
X141540476Y-81390476D01*
X141588095Y-81485714D01*
X149932143Y-76441666D02*
X149979762Y-76489285D01*
X150027381Y-76632142D01*
X150027381Y-76727380D01*
X149979762Y-76870238D01*
X149884524Y-76965476D01*
X149789286Y-77013095D01*
X149598810Y-77060714D01*
X149455952Y-77060714D01*
X149265476Y-77013095D01*
X149170238Y-76965476D01*
X149075000Y-76870238D01*
X149027381Y-76727380D01*
X149027381Y-76632142D01*
X149075000Y-76489285D01*
X149122619Y-76441666D01*
X149122619Y-76060714D02*
X149075000Y-76013095D01*
X149027381Y-75917857D01*
X149027381Y-75679761D01*
X149075000Y-75584523D01*
X149122619Y-75536904D01*
X149217857Y-75489285D01*
X149313095Y-75489285D01*
X149455952Y-75536904D01*
X150027381Y-76108333D01*
X150027381Y-75489285D01*
X128207143Y-74316666D02*
X128254762Y-74364285D01*
X128302381Y-74507142D01*
X128302381Y-74602380D01*
X128254762Y-74745238D01*
X128159524Y-74840476D01*
X128064286Y-74888095D01*
X127873810Y-74935714D01*
X127730952Y-74935714D01*
X127540476Y-74888095D01*
X127445238Y-74840476D01*
X127350000Y-74745238D01*
X127302381Y-74602380D01*
X127302381Y-74507142D01*
X127350000Y-74364285D01*
X127397619Y-74316666D01*
X127302381Y-73983333D02*
X127302381Y-73364285D01*
X127683333Y-73697619D01*
X127683333Y-73554761D01*
X127730952Y-73459523D01*
X127778571Y-73411904D01*
X127873810Y-73364285D01*
X128111905Y-73364285D01*
X128207143Y-73411904D01*
X128254762Y-73459523D01*
X128302381Y-73554761D01*
X128302381Y-73840476D01*
X128254762Y-73935714D01*
X128207143Y-73983333D01*
X126232143Y-73516666D02*
X126279762Y-73564285D01*
X126327381Y-73707142D01*
X126327381Y-73802380D01*
X126279762Y-73945238D01*
X126184524Y-74040476D01*
X126089286Y-74088095D01*
X125898810Y-74135714D01*
X125755952Y-74135714D01*
X125565476Y-74088095D01*
X125470238Y-74040476D01*
X125375000Y-73945238D01*
X125327381Y-73802380D01*
X125327381Y-73707142D01*
X125375000Y-73564285D01*
X125422619Y-73516666D01*
X125660714Y-72659523D02*
X126327381Y-72659523D01*
X125279762Y-72897619D02*
X125994048Y-73135714D01*
X125994048Y-72516666D01*
X107557143Y-78066666D02*
X107604762Y-78114285D01*
X107652381Y-78257142D01*
X107652381Y-78352380D01*
X107604762Y-78495238D01*
X107509524Y-78590476D01*
X107414286Y-78638095D01*
X107223810Y-78685714D01*
X107080952Y-78685714D01*
X106890476Y-78638095D01*
X106795238Y-78590476D01*
X106700000Y-78495238D01*
X106652381Y-78352380D01*
X106652381Y-78257142D01*
X106700000Y-78114285D01*
X106747619Y-78066666D01*
X106652381Y-77161904D02*
X106652381Y-77638095D01*
X107128571Y-77685714D01*
X107080952Y-77638095D01*
X107033333Y-77542857D01*
X107033333Y-77304761D01*
X107080952Y-77209523D01*
X107128571Y-77161904D01*
X107223810Y-77114285D01*
X107461905Y-77114285D01*
X107557143Y-77161904D01*
X107604762Y-77209523D01*
X107652381Y-77304761D01*
X107652381Y-77542857D01*
X107604762Y-77638095D01*
X107557143Y-77685714D01*
X106232143Y-78116666D02*
X106279762Y-78164285D01*
X106327381Y-78307142D01*
X106327381Y-78402380D01*
X106279762Y-78545238D01*
X106184524Y-78640476D01*
X106089286Y-78688095D01*
X105898810Y-78735714D01*
X105755952Y-78735714D01*
X105565476Y-78688095D01*
X105470238Y-78640476D01*
X105375000Y-78545238D01*
X105327381Y-78402380D01*
X105327381Y-78307142D01*
X105375000Y-78164285D01*
X105422619Y-78116666D01*
X105327381Y-77259523D02*
X105327381Y-77450000D01*
X105375000Y-77545238D01*
X105422619Y-77592857D01*
X105565476Y-77688095D01*
X105755952Y-77735714D01*
X106136905Y-77735714D01*
X106232143Y-77688095D01*
X106279762Y-77640476D01*
X106327381Y-77545238D01*
X106327381Y-77354761D01*
X106279762Y-77259523D01*
X106232143Y-77211904D01*
X106136905Y-77164285D01*
X105898810Y-77164285D01*
X105803571Y-77211904D01*
X105755952Y-77259523D01*
X105708333Y-77354761D01*
X105708333Y-77545238D01*
X105755952Y-77640476D01*
X105803571Y-77688095D01*
X105898810Y-77735714D01*
X130883334Y-77782143D02*
X130835715Y-77829762D01*
X130692858Y-77877381D01*
X130597620Y-77877381D01*
X130454762Y-77829762D01*
X130359524Y-77734524D01*
X130311905Y-77639286D01*
X130264286Y-77448810D01*
X130264286Y-77305952D01*
X130311905Y-77115476D01*
X130359524Y-77020238D01*
X130454762Y-76925000D01*
X130597620Y-76877381D01*
X130692858Y-76877381D01*
X130835715Y-76925000D01*
X130883334Y-76972619D01*
X131216667Y-76877381D02*
X131883334Y-76877381D01*
X131454762Y-77877381D01*
X121808334Y-81332143D02*
X121760715Y-81379762D01*
X121617858Y-81427381D01*
X121522620Y-81427381D01*
X121379762Y-81379762D01*
X121284524Y-81284524D01*
X121236905Y-81189286D01*
X121189286Y-80998810D01*
X121189286Y-80855952D01*
X121236905Y-80665476D01*
X121284524Y-80570238D01*
X121379762Y-80475000D01*
X121522620Y-80427381D01*
X121617858Y-80427381D01*
X121760715Y-80475000D01*
X121808334Y-80522619D01*
X122379762Y-80855952D02*
X122284524Y-80808333D01*
X122236905Y-80760714D01*
X122189286Y-80665476D01*
X122189286Y-80617857D01*
X122236905Y-80522619D01*
X122284524Y-80475000D01*
X122379762Y-80427381D01*
X122570239Y-80427381D01*
X122665477Y-80475000D01*
X122713096Y-80522619D01*
X122760715Y-80617857D01*
X122760715Y-80665476D01*
X122713096Y-80760714D01*
X122665477Y-80808333D01*
X122570239Y-80855952D01*
X122379762Y-80855952D01*
X122284524Y-80903571D01*
X122236905Y-80951190D01*
X122189286Y-81046429D01*
X122189286Y-81236905D01*
X122236905Y-81332143D01*
X122284524Y-81379762D01*
X122379762Y-81427381D01*
X122570239Y-81427381D01*
X122665477Y-81379762D01*
X122713096Y-81332143D01*
X122760715Y-81236905D01*
X122760715Y-81046429D01*
X122713096Y-80951190D01*
X122665477Y-80903571D01*
X122570239Y-80855952D01*
X135733334Y-87082143D02*
X135685715Y-87129762D01*
X135542858Y-87177381D01*
X135447620Y-87177381D01*
X135304762Y-87129762D01*
X135209524Y-87034524D01*
X135161905Y-86939286D01*
X135114286Y-86748810D01*
X135114286Y-86605952D01*
X135161905Y-86415476D01*
X135209524Y-86320238D01*
X135304762Y-86225000D01*
X135447620Y-86177381D01*
X135542858Y-86177381D01*
X135685715Y-86225000D01*
X135733334Y-86272619D01*
X136209524Y-87177381D02*
X136400000Y-87177381D01*
X136495239Y-87129762D01*
X136542858Y-87082143D01*
X136638096Y-86939286D01*
X136685715Y-86748810D01*
X136685715Y-86367857D01*
X136638096Y-86272619D01*
X136590477Y-86225000D01*
X136495239Y-86177381D01*
X136304762Y-86177381D01*
X136209524Y-86225000D01*
X136161905Y-86272619D01*
X136114286Y-86367857D01*
X136114286Y-86605952D01*
X136161905Y-86701190D01*
X136209524Y-86748810D01*
X136304762Y-86796429D01*
X136495239Y-86796429D01*
X136590477Y-86748810D01*
X136638096Y-86701190D01*
X136685715Y-86605952D01*
X109057143Y-111167857D02*
X109104762Y-111215476D01*
X109152381Y-111358333D01*
X109152381Y-111453571D01*
X109104762Y-111596429D01*
X109009524Y-111691667D01*
X108914286Y-111739286D01*
X108723810Y-111786905D01*
X108580952Y-111786905D01*
X108390476Y-111739286D01*
X108295238Y-111691667D01*
X108200000Y-111596429D01*
X108152381Y-111453571D01*
X108152381Y-111358333D01*
X108200000Y-111215476D01*
X108247619Y-111167857D01*
X109152381Y-110215476D02*
X109152381Y-110786905D01*
X109152381Y-110501191D02*
X108152381Y-110501191D01*
X108295238Y-110596429D01*
X108390476Y-110691667D01*
X108438095Y-110786905D01*
X108152381Y-109596429D02*
X108152381Y-109501190D01*
X108200000Y-109405952D01*
X108247619Y-109358333D01*
X108342857Y-109310714D01*
X108533333Y-109263095D01*
X108771429Y-109263095D01*
X108961905Y-109310714D01*
X109057143Y-109358333D01*
X109104762Y-109405952D01*
X109152381Y-109501190D01*
X109152381Y-109596429D01*
X109104762Y-109691667D01*
X109057143Y-109739286D01*
X108961905Y-109786905D01*
X108771429Y-109834524D01*
X108533333Y-109834524D01*
X108342857Y-109786905D01*
X108247619Y-109739286D01*
X108200000Y-109691667D01*
X108152381Y-109596429D01*
X136182143Y-104642857D02*
X136229762Y-104690476D01*
X136277381Y-104833333D01*
X136277381Y-104928571D01*
X136229762Y-105071429D01*
X136134524Y-105166667D01*
X136039286Y-105214286D01*
X135848810Y-105261905D01*
X135705952Y-105261905D01*
X135515476Y-105214286D01*
X135420238Y-105166667D01*
X135325000Y-105071429D01*
X135277381Y-104928571D01*
X135277381Y-104833333D01*
X135325000Y-104690476D01*
X135372619Y-104642857D01*
X136277381Y-103690476D02*
X136277381Y-104261905D01*
X136277381Y-103976191D02*
X135277381Y-103976191D01*
X135420238Y-104071429D01*
X135515476Y-104166667D01*
X135563095Y-104261905D01*
X136277381Y-102738095D02*
X136277381Y-103309524D01*
X136277381Y-103023810D02*
X135277381Y-103023810D01*
X135420238Y-103119048D01*
X135515476Y-103214286D01*
X135563095Y-103309524D01*
X122257143Y-99157143D02*
X122209524Y-99204762D01*
X122066667Y-99252381D01*
X121971429Y-99252381D01*
X121828571Y-99204762D01*
X121733333Y-99109524D01*
X121685714Y-99014286D01*
X121638095Y-98823810D01*
X121638095Y-98680952D01*
X121685714Y-98490476D01*
X121733333Y-98395238D01*
X121828571Y-98300000D01*
X121971429Y-98252381D01*
X122066667Y-98252381D01*
X122209524Y-98300000D01*
X122257143Y-98347619D01*
X123209524Y-99252381D02*
X122638095Y-99252381D01*
X122923809Y-99252381D02*
X122923809Y-98252381D01*
X122828571Y-98395238D01*
X122733333Y-98490476D01*
X122638095Y-98538095D01*
X123590476Y-98347619D02*
X123638095Y-98300000D01*
X123733333Y-98252381D01*
X123971429Y-98252381D01*
X124066667Y-98300000D01*
X124114286Y-98347619D01*
X124161905Y-98442857D01*
X124161905Y-98538095D01*
X124114286Y-98680952D01*
X123542857Y-99252381D01*
X124161905Y-99252381D01*
X144457143Y-102257143D02*
X144409524Y-102304762D01*
X144266667Y-102352381D01*
X144171429Y-102352381D01*
X144028571Y-102304762D01*
X143933333Y-102209524D01*
X143885714Y-102114286D01*
X143838095Y-101923810D01*
X143838095Y-101780952D01*
X143885714Y-101590476D01*
X143933333Y-101495238D01*
X144028571Y-101400000D01*
X144171429Y-101352381D01*
X144266667Y-101352381D01*
X144409524Y-101400000D01*
X144457143Y-101447619D01*
X145409524Y-102352381D02*
X144838095Y-102352381D01*
X145123809Y-102352381D02*
X145123809Y-101352381D01*
X145028571Y-101495238D01*
X144933333Y-101590476D01*
X144838095Y-101638095D01*
X145742857Y-101352381D02*
X146361905Y-101352381D01*
X146028571Y-101733333D01*
X146171429Y-101733333D01*
X146266667Y-101780952D01*
X146314286Y-101828571D01*
X146361905Y-101923810D01*
X146361905Y-102161905D01*
X146314286Y-102257143D01*
X146266667Y-102304762D01*
X146171429Y-102352381D01*
X145885714Y-102352381D01*
X145790476Y-102304762D01*
X145742857Y-102257143D01*
X145032143Y-104807143D02*
X144984524Y-104854762D01*
X144841667Y-104902381D01*
X144746429Y-104902381D01*
X144603571Y-104854762D01*
X144508333Y-104759524D01*
X144460714Y-104664286D01*
X144413095Y-104473810D01*
X144413095Y-104330952D01*
X144460714Y-104140476D01*
X144508333Y-104045238D01*
X144603571Y-103950000D01*
X144746429Y-103902381D01*
X144841667Y-103902381D01*
X144984524Y-103950000D01*
X145032143Y-103997619D01*
X145984524Y-104902381D02*
X145413095Y-104902381D01*
X145698809Y-104902381D02*
X145698809Y-103902381D01*
X145603571Y-104045238D01*
X145508333Y-104140476D01*
X145413095Y-104188095D01*
X146841667Y-104235714D02*
X146841667Y-104902381D01*
X146603571Y-103854762D02*
X146365476Y-104569048D01*
X146984524Y-104569048D01*
X125311905Y-84977381D02*
X125311905Y-83977381D01*
X125550000Y-83977381D01*
X125692858Y-84025000D01*
X125788096Y-84120238D01*
X125835715Y-84215476D01*
X125883334Y-84405952D01*
X125883334Y-84548810D01*
X125835715Y-84739286D01*
X125788096Y-84834524D01*
X125692858Y-84929762D01*
X125550000Y-84977381D01*
X125311905Y-84977381D01*
X126835715Y-84977381D02*
X126264286Y-84977381D01*
X126550000Y-84977381D02*
X126550000Y-83977381D01*
X126454762Y-84120238D01*
X126359524Y-84215476D01*
X126264286Y-84263095D01*
X125236905Y-83677381D02*
X125236905Y-82677381D01*
X125475000Y-82677381D01*
X125617858Y-82725000D01*
X125713096Y-82820238D01*
X125760715Y-82915476D01*
X125808334Y-83105952D01*
X125808334Y-83248810D01*
X125760715Y-83439286D01*
X125713096Y-83534524D01*
X125617858Y-83629762D01*
X125475000Y-83677381D01*
X125236905Y-83677381D01*
X126189286Y-82772619D02*
X126236905Y-82725000D01*
X126332143Y-82677381D01*
X126570239Y-82677381D01*
X126665477Y-82725000D01*
X126713096Y-82772619D01*
X126760715Y-82867857D01*
X126760715Y-82963095D01*
X126713096Y-83105952D01*
X126141667Y-83677381D01*
X126760715Y-83677381D01*
X116261905Y-72252381D02*
X116261905Y-71252381D01*
X116500000Y-71252381D01*
X116642858Y-71300000D01*
X116738096Y-71395238D01*
X116785715Y-71490476D01*
X116833334Y-71680952D01*
X116833334Y-71823810D01*
X116785715Y-72014286D01*
X116738096Y-72109524D01*
X116642858Y-72204762D01*
X116500000Y-72252381D01*
X116261905Y-72252381D01*
X117166667Y-71252381D02*
X117785715Y-71252381D01*
X117452381Y-71633333D01*
X117595239Y-71633333D01*
X117690477Y-71680952D01*
X117738096Y-71728571D01*
X117785715Y-71823810D01*
X117785715Y-72061905D01*
X117738096Y-72157143D01*
X117690477Y-72204762D01*
X117595239Y-72252381D01*
X117309524Y-72252381D01*
X117214286Y-72204762D01*
X117166667Y-72157143D01*
X128711905Y-106902381D02*
X128711905Y-105902381D01*
X128950000Y-105902381D01*
X129092858Y-105950000D01*
X129188096Y-106045238D01*
X129235715Y-106140476D01*
X129283334Y-106330952D01*
X129283334Y-106473810D01*
X129235715Y-106664286D01*
X129188096Y-106759524D01*
X129092858Y-106854762D01*
X128950000Y-106902381D01*
X128711905Y-106902381D01*
X130140477Y-106235714D02*
X130140477Y-106902381D01*
X129902381Y-105854762D02*
X129664286Y-106569048D01*
X130283334Y-106569048D01*
X141752381Y-97651190D02*
X140752381Y-97651190D01*
X141657143Y-96603571D02*
X141704762Y-96651190D01*
X141752381Y-96794047D01*
X141752381Y-96889285D01*
X141704762Y-97032143D01*
X141609524Y-97127381D01*
X141514286Y-97175000D01*
X141323810Y-97222619D01*
X141180952Y-97222619D01*
X140990476Y-97175000D01*
X140895238Y-97127381D01*
X140800000Y-97032143D01*
X140752381Y-96889285D01*
X140752381Y-96794047D01*
X140800000Y-96651190D01*
X140847619Y-96603571D01*
X141752381Y-95651190D02*
X141752381Y-96222619D01*
X141752381Y-95936905D02*
X140752381Y-95936905D01*
X140895238Y-96032143D01*
X140990476Y-96127381D01*
X141038095Y-96222619D01*
X114952381Y-95433333D02*
X115666667Y-95433333D01*
X115809524Y-95480953D01*
X115904762Y-95576191D01*
X115952381Y-95719048D01*
X115952381Y-95814286D01*
X115047619Y-95004762D02*
X115000000Y-94957143D01*
X114952381Y-94861905D01*
X114952381Y-94623809D01*
X115000000Y-94528571D01*
X115047619Y-94480952D01*
X115142857Y-94433333D01*
X115238095Y-94433333D01*
X115380952Y-94480952D01*
X115952381Y-95052381D01*
X115952381Y-94433333D01*
X157142381Y-84674524D02*
X156142381Y-84674524D01*
X156856667Y-84341190D01*
X156142381Y-84007857D01*
X157142381Y-84007857D01*
X157142381Y-83007857D02*
X157142381Y-83579286D01*
X157142381Y-83293572D02*
X156142381Y-83293572D01*
X156285238Y-83388810D01*
X156380476Y-83484048D01*
X156428095Y-83579286D01*
X127854762Y-90822619D02*
X127759524Y-90775000D01*
X127664286Y-90679762D01*
X127521429Y-90536905D01*
X127426190Y-90489286D01*
X127330952Y-90489286D01*
X127378571Y-90727381D02*
X127283333Y-90679762D01*
X127188095Y-90584524D01*
X127140476Y-90394048D01*
X127140476Y-90060714D01*
X127188095Y-89870238D01*
X127283333Y-89775000D01*
X127378571Y-89727381D01*
X127569048Y-89727381D01*
X127664286Y-89775000D01*
X127759524Y-89870238D01*
X127807143Y-90060714D01*
X127807143Y-90394048D01*
X127759524Y-90584524D01*
X127664286Y-90679762D01*
X127569048Y-90727381D01*
X127378571Y-90727381D01*
X128759524Y-90727381D02*
X128188095Y-90727381D01*
X128473809Y-90727381D02*
X128473809Y-89727381D01*
X128378571Y-89870238D01*
X128283333Y-89965476D01*
X128188095Y-90013095D01*
X137552381Y-74766666D02*
X137076190Y-75100000D01*
X137552381Y-75338095D02*
X136552381Y-75338095D01*
X136552381Y-74957142D01*
X136600000Y-74861904D01*
X136647619Y-74814285D01*
X136742857Y-74766666D01*
X136885714Y-74766666D01*
X136980952Y-74814285D01*
X137028571Y-74861904D01*
X137076190Y-74957142D01*
X137076190Y-75338095D01*
X137552381Y-73814285D02*
X137552381Y-74385714D01*
X137552381Y-74100000D02*
X136552381Y-74100000D01*
X136695238Y-74195238D01*
X136790476Y-74290476D01*
X136838095Y-74385714D01*
X116808334Y-81427381D02*
X116475000Y-80951190D01*
X116236905Y-81427381D02*
X116236905Y-80427381D01*
X116617858Y-80427381D01*
X116713096Y-80475000D01*
X116760715Y-80522619D01*
X116808334Y-80617857D01*
X116808334Y-80760714D01*
X116760715Y-80855952D01*
X116713096Y-80903571D01*
X116617858Y-80951190D01*
X116236905Y-80951190D01*
X117189286Y-80522619D02*
X117236905Y-80475000D01*
X117332143Y-80427381D01*
X117570239Y-80427381D01*
X117665477Y-80475000D01*
X117713096Y-80522619D01*
X117760715Y-80617857D01*
X117760715Y-80713095D01*
X117713096Y-80855952D01*
X117141667Y-81427381D01*
X117760715Y-81427381D01*
X142577381Y-84566666D02*
X142101190Y-84900000D01*
X142577381Y-85138095D02*
X141577381Y-85138095D01*
X141577381Y-84757142D01*
X141625000Y-84661904D01*
X141672619Y-84614285D01*
X141767857Y-84566666D01*
X141910714Y-84566666D01*
X142005952Y-84614285D01*
X142053571Y-84661904D01*
X142101190Y-84757142D01*
X142101190Y-85138095D01*
X141577381Y-84233333D02*
X141577381Y-83614285D01*
X141958333Y-83947619D01*
X141958333Y-83804761D01*
X142005952Y-83709523D01*
X142053571Y-83661904D01*
X142148810Y-83614285D01*
X142386905Y-83614285D01*
X142482143Y-83661904D01*
X142529762Y-83709523D01*
X142577381Y-83804761D01*
X142577381Y-84090476D01*
X142529762Y-84185714D01*
X142482143Y-84233333D01*
X122233334Y-72252381D02*
X121900000Y-71776190D01*
X121661905Y-72252381D02*
X121661905Y-71252381D01*
X122042858Y-71252381D01*
X122138096Y-71300000D01*
X122185715Y-71347619D01*
X122233334Y-71442857D01*
X122233334Y-71585714D01*
X122185715Y-71680952D01*
X122138096Y-71728571D01*
X122042858Y-71776190D01*
X121661905Y-71776190D01*
X123090477Y-71585714D02*
X123090477Y-72252381D01*
X122852381Y-71204762D02*
X122614286Y-71919048D01*
X123233334Y-71919048D01*
X128233334Y-85027381D02*
X127900000Y-84551190D01*
X127661905Y-85027381D02*
X127661905Y-84027381D01*
X128042858Y-84027381D01*
X128138096Y-84075000D01*
X128185715Y-84122619D01*
X128233334Y-84217857D01*
X128233334Y-84360714D01*
X128185715Y-84455952D01*
X128138096Y-84503571D01*
X128042858Y-84551190D01*
X127661905Y-84551190D01*
X129138096Y-84027381D02*
X128661905Y-84027381D01*
X128614286Y-84503571D01*
X128661905Y-84455952D01*
X128757143Y-84408333D01*
X128995239Y-84408333D01*
X129090477Y-84455952D01*
X129138096Y-84503571D01*
X129185715Y-84598810D01*
X129185715Y-84836905D01*
X129138096Y-84932143D01*
X129090477Y-84979762D01*
X128995239Y-85027381D01*
X128757143Y-85027381D01*
X128661905Y-84979762D01*
X128614286Y-84932143D01*
X128208334Y-83777381D02*
X127875000Y-83301190D01*
X127636905Y-83777381D02*
X127636905Y-82777381D01*
X128017858Y-82777381D01*
X128113096Y-82825000D01*
X128160715Y-82872619D01*
X128208334Y-82967857D01*
X128208334Y-83110714D01*
X128160715Y-83205952D01*
X128113096Y-83253571D01*
X128017858Y-83301190D01*
X127636905Y-83301190D01*
X129065477Y-82777381D02*
X128875000Y-82777381D01*
X128779762Y-82825000D01*
X128732143Y-82872619D01*
X128636905Y-83015476D01*
X128589286Y-83205952D01*
X128589286Y-83586905D01*
X128636905Y-83682143D01*
X128684524Y-83729762D01*
X128779762Y-83777381D01*
X128970239Y-83777381D01*
X129065477Y-83729762D01*
X129113096Y-83682143D01*
X129160715Y-83586905D01*
X129160715Y-83348810D01*
X129113096Y-83253571D01*
X129065477Y-83205952D01*
X128970239Y-83158333D01*
X128779762Y-83158333D01*
X128684524Y-83205952D01*
X128636905Y-83253571D01*
X128589286Y-83348810D01*
X142602381Y-79416666D02*
X142126190Y-79750000D01*
X142602381Y-79988095D02*
X141602381Y-79988095D01*
X141602381Y-79607142D01*
X141650000Y-79511904D01*
X141697619Y-79464285D01*
X141792857Y-79416666D01*
X141935714Y-79416666D01*
X142030952Y-79464285D01*
X142078571Y-79511904D01*
X142126190Y-79607142D01*
X142126190Y-79988095D01*
X141602381Y-79083333D02*
X141602381Y-78416666D01*
X142602381Y-78845238D01*
X148552381Y-79366666D02*
X148076190Y-79700000D01*
X148552381Y-79938095D02*
X147552381Y-79938095D01*
X147552381Y-79557142D01*
X147600000Y-79461904D01*
X147647619Y-79414285D01*
X147742857Y-79366666D01*
X147885714Y-79366666D01*
X147980952Y-79414285D01*
X148028571Y-79461904D01*
X148076190Y-79557142D01*
X148076190Y-79938095D01*
X147980952Y-78795238D02*
X147933333Y-78890476D01*
X147885714Y-78938095D01*
X147790476Y-78985714D01*
X147742857Y-78985714D01*
X147647619Y-78938095D01*
X147600000Y-78890476D01*
X147552381Y-78795238D01*
X147552381Y-78604761D01*
X147600000Y-78509523D01*
X147647619Y-78461904D01*
X147742857Y-78414285D01*
X147790476Y-78414285D01*
X147885714Y-78461904D01*
X147933333Y-78509523D01*
X147980952Y-78604761D01*
X147980952Y-78795238D01*
X148028571Y-78890476D01*
X148076190Y-78938095D01*
X148171429Y-78985714D01*
X148361905Y-78985714D01*
X148457143Y-78938095D01*
X148504762Y-78890476D01*
X148552381Y-78795238D01*
X148552381Y-78604761D01*
X148504762Y-78509523D01*
X148457143Y-78461904D01*
X148361905Y-78414285D01*
X148171429Y-78414285D01*
X148076190Y-78461904D01*
X148028571Y-78509523D01*
X147980952Y-78604761D01*
X148677381Y-84391666D02*
X148201190Y-84725000D01*
X148677381Y-84963095D02*
X147677381Y-84963095D01*
X147677381Y-84582142D01*
X147725000Y-84486904D01*
X147772619Y-84439285D01*
X147867857Y-84391666D01*
X148010714Y-84391666D01*
X148105952Y-84439285D01*
X148153571Y-84486904D01*
X148201190Y-84582142D01*
X148201190Y-84963095D01*
X148677381Y-83915476D02*
X148677381Y-83725000D01*
X148629762Y-83629761D01*
X148582143Y-83582142D01*
X148439286Y-83486904D01*
X148248810Y-83439285D01*
X147867857Y-83439285D01*
X147772619Y-83486904D01*
X147725000Y-83534523D01*
X147677381Y-83629761D01*
X147677381Y-83820238D01*
X147725000Y-83915476D01*
X147772619Y-83963095D01*
X147867857Y-84010714D01*
X148105952Y-84010714D01*
X148201190Y-83963095D01*
X148248810Y-83915476D01*
X148296429Y-83820238D01*
X148296429Y-83629761D01*
X148248810Y-83534523D01*
X148201190Y-83486904D01*
X148105952Y-83439285D01*
X142657143Y-92452381D02*
X142323809Y-91976190D01*
X142085714Y-92452381D02*
X142085714Y-91452381D01*
X142466667Y-91452381D01*
X142561905Y-91500000D01*
X142609524Y-91547619D01*
X142657143Y-91642857D01*
X142657143Y-91785714D01*
X142609524Y-91880952D01*
X142561905Y-91928571D01*
X142466667Y-91976190D01*
X142085714Y-91976190D01*
X143609524Y-92452381D02*
X143038095Y-92452381D01*
X143323809Y-92452381D02*
X143323809Y-91452381D01*
X143228571Y-91595238D01*
X143133333Y-91690476D01*
X143038095Y-91738095D01*
X144228571Y-91452381D02*
X144323810Y-91452381D01*
X144419048Y-91500000D01*
X144466667Y-91547619D01*
X144514286Y-91642857D01*
X144561905Y-91833333D01*
X144561905Y-92071429D01*
X144514286Y-92261905D01*
X144466667Y-92357143D01*
X144419048Y-92404762D01*
X144323810Y-92452381D01*
X144228571Y-92452381D01*
X144133333Y-92404762D01*
X144085714Y-92357143D01*
X144038095Y-92261905D01*
X143990476Y-92071429D01*
X143990476Y-91833333D01*
X144038095Y-91642857D01*
X144085714Y-91547619D01*
X144133333Y-91500000D01*
X144228571Y-91452381D01*
X122752381Y-111242857D02*
X122276190Y-111576191D01*
X122752381Y-111814286D02*
X121752381Y-111814286D01*
X121752381Y-111433333D01*
X121800000Y-111338095D01*
X121847619Y-111290476D01*
X121942857Y-111242857D01*
X122085714Y-111242857D01*
X122180952Y-111290476D01*
X122228571Y-111338095D01*
X122276190Y-111433333D01*
X122276190Y-111814286D01*
X122752381Y-110290476D02*
X122752381Y-110861905D01*
X122752381Y-110576191D02*
X121752381Y-110576191D01*
X121895238Y-110671429D01*
X121990476Y-110766667D01*
X122038095Y-110861905D01*
X122752381Y-109338095D02*
X122752381Y-109909524D01*
X122752381Y-109623810D02*
X121752381Y-109623810D01*
X121895238Y-109719048D01*
X121990476Y-109814286D01*
X122038095Y-109909524D01*
X120332381Y-88542857D02*
X119856190Y-88876191D01*
X120332381Y-89114286D02*
X119332381Y-89114286D01*
X119332381Y-88733333D01*
X119380000Y-88638095D01*
X119427619Y-88590476D01*
X119522857Y-88542857D01*
X119665714Y-88542857D01*
X119760952Y-88590476D01*
X119808571Y-88638095D01*
X119856190Y-88733333D01*
X119856190Y-89114286D01*
X120332381Y-87590476D02*
X120332381Y-88161905D01*
X120332381Y-87876191D02*
X119332381Y-87876191D01*
X119475238Y-87971429D01*
X119570476Y-88066667D01*
X119618095Y-88161905D01*
X119427619Y-87209524D02*
X119380000Y-87161905D01*
X119332381Y-87066667D01*
X119332381Y-86828571D01*
X119380000Y-86733333D01*
X119427619Y-86685714D01*
X119522857Y-86638095D01*
X119618095Y-86638095D01*
X119760952Y-86685714D01*
X120332381Y-87257143D01*
X120332381Y-86638095D01*
X125727381Y-100567857D02*
X125251190Y-100901191D01*
X125727381Y-101139286D02*
X124727381Y-101139286D01*
X124727381Y-100758333D01*
X124775000Y-100663095D01*
X124822619Y-100615476D01*
X124917857Y-100567857D01*
X125060714Y-100567857D01*
X125155952Y-100615476D01*
X125203571Y-100663095D01*
X125251190Y-100758333D01*
X125251190Y-101139286D01*
X125727381Y-99615476D02*
X125727381Y-100186905D01*
X125727381Y-99901191D02*
X124727381Y-99901191D01*
X124870238Y-99996429D01*
X124965476Y-100091667D01*
X125013095Y-100186905D01*
X124727381Y-99282143D02*
X124727381Y-98663095D01*
X125108333Y-98996429D01*
X125108333Y-98853571D01*
X125155952Y-98758333D01*
X125203571Y-98710714D01*
X125298810Y-98663095D01*
X125536905Y-98663095D01*
X125632143Y-98710714D01*
X125679762Y-98758333D01*
X125727381Y-98853571D01*
X125727381Y-99139286D01*
X125679762Y-99234524D01*
X125632143Y-99282143D01*
X127052381Y-100567857D02*
X126576190Y-100901191D01*
X127052381Y-101139286D02*
X126052381Y-101139286D01*
X126052381Y-100758333D01*
X126100000Y-100663095D01*
X126147619Y-100615476D01*
X126242857Y-100567857D01*
X126385714Y-100567857D01*
X126480952Y-100615476D01*
X126528571Y-100663095D01*
X126576190Y-100758333D01*
X126576190Y-101139286D01*
X127052381Y-99615476D02*
X127052381Y-100186905D01*
X127052381Y-99901191D02*
X126052381Y-99901191D01*
X126195238Y-99996429D01*
X126290476Y-100091667D01*
X126338095Y-100186905D01*
X126385714Y-98758333D02*
X127052381Y-98758333D01*
X126004762Y-98996429D02*
X126719048Y-99234524D01*
X126719048Y-98615476D01*
X128982143Y-105577381D02*
X128648809Y-105101190D01*
X128410714Y-105577381D02*
X128410714Y-104577381D01*
X128791667Y-104577381D01*
X128886905Y-104625000D01*
X128934524Y-104672619D01*
X128982143Y-104767857D01*
X128982143Y-104910714D01*
X128934524Y-105005952D01*
X128886905Y-105053571D01*
X128791667Y-105101190D01*
X128410714Y-105101190D01*
X129934524Y-105577381D02*
X129363095Y-105577381D01*
X129648809Y-105577381D02*
X129648809Y-104577381D01*
X129553571Y-104720238D01*
X129458333Y-104815476D01*
X129363095Y-104863095D01*
X130839286Y-104577381D02*
X130363095Y-104577381D01*
X130315476Y-105053571D01*
X130363095Y-105005952D01*
X130458333Y-104958333D01*
X130696429Y-104958333D01*
X130791667Y-105005952D01*
X130839286Y-105053571D01*
X130886905Y-105148810D01*
X130886905Y-105386905D01*
X130839286Y-105482143D01*
X130791667Y-105529762D01*
X130696429Y-105577381D01*
X130458333Y-105577381D01*
X130363095Y-105529762D01*
X130315476Y-105482143D01*
X118552381Y-102417857D02*
X118076190Y-102751191D01*
X118552381Y-102989286D02*
X117552381Y-102989286D01*
X117552381Y-102608333D01*
X117600000Y-102513095D01*
X117647619Y-102465476D01*
X117742857Y-102417857D01*
X117885714Y-102417857D01*
X117980952Y-102465476D01*
X118028571Y-102513095D01*
X118076190Y-102608333D01*
X118076190Y-102989286D01*
X118552381Y-101465476D02*
X118552381Y-102036905D01*
X118552381Y-101751191D02*
X117552381Y-101751191D01*
X117695238Y-101846429D01*
X117790476Y-101941667D01*
X117838095Y-102036905D01*
X117552381Y-100608333D02*
X117552381Y-100798810D01*
X117600000Y-100894048D01*
X117647619Y-100941667D01*
X117790476Y-101036905D01*
X117980952Y-101084524D01*
X118361905Y-101084524D01*
X118457143Y-101036905D01*
X118504762Y-100989286D01*
X118552381Y-100894048D01*
X118552381Y-100703571D01*
X118504762Y-100608333D01*
X118457143Y-100560714D01*
X118361905Y-100513095D01*
X118123810Y-100513095D01*
X118028571Y-100560714D01*
X117980952Y-100608333D01*
X117933333Y-100703571D01*
X117933333Y-100894048D01*
X117980952Y-100989286D01*
X118028571Y-101036905D01*
X118123810Y-101084524D01*
X135602381Y-97117857D02*
X135126190Y-97451191D01*
X135602381Y-97689286D02*
X134602381Y-97689286D01*
X134602381Y-97308333D01*
X134650000Y-97213095D01*
X134697619Y-97165476D01*
X134792857Y-97117857D01*
X134935714Y-97117857D01*
X135030952Y-97165476D01*
X135078571Y-97213095D01*
X135126190Y-97308333D01*
X135126190Y-97689286D01*
X135602381Y-96165476D02*
X135602381Y-96736905D01*
X135602381Y-96451191D02*
X134602381Y-96451191D01*
X134745238Y-96546429D01*
X134840476Y-96641667D01*
X134888095Y-96736905D01*
X134602381Y-95832143D02*
X134602381Y-95165476D01*
X135602381Y-95594048D01*
X133877381Y-106442857D02*
X133401190Y-106776191D01*
X133877381Y-107014286D02*
X132877381Y-107014286D01*
X132877381Y-106633333D01*
X132925000Y-106538095D01*
X132972619Y-106490476D01*
X133067857Y-106442857D01*
X133210714Y-106442857D01*
X133305952Y-106490476D01*
X133353571Y-106538095D01*
X133401190Y-106633333D01*
X133401190Y-107014286D01*
X133877381Y-105490476D02*
X133877381Y-106061905D01*
X133877381Y-105776191D02*
X132877381Y-105776191D01*
X133020238Y-105871429D01*
X133115476Y-105966667D01*
X133163095Y-106061905D01*
X133305952Y-104919048D02*
X133258333Y-105014286D01*
X133210714Y-105061905D01*
X133115476Y-105109524D01*
X133067857Y-105109524D01*
X132972619Y-105061905D01*
X132925000Y-105014286D01*
X132877381Y-104919048D01*
X132877381Y-104728571D01*
X132925000Y-104633333D01*
X132972619Y-104585714D01*
X133067857Y-104538095D01*
X133115476Y-104538095D01*
X133210714Y-104585714D01*
X133258333Y-104633333D01*
X133305952Y-104728571D01*
X133305952Y-104919048D01*
X133353571Y-105014286D01*
X133401190Y-105061905D01*
X133496429Y-105109524D01*
X133686905Y-105109524D01*
X133782143Y-105061905D01*
X133829762Y-105014286D01*
X133877381Y-104919048D01*
X133877381Y-104728571D01*
X133829762Y-104633333D01*
X133782143Y-104585714D01*
X133686905Y-104538095D01*
X133496429Y-104538095D01*
X133401190Y-104585714D01*
X133353571Y-104633333D01*
X133305952Y-104728571D01*
X135502381Y-91992857D02*
X135026190Y-92326191D01*
X135502381Y-92564286D02*
X134502381Y-92564286D01*
X134502381Y-92183333D01*
X134550000Y-92088095D01*
X134597619Y-92040476D01*
X134692857Y-91992857D01*
X134835714Y-91992857D01*
X134930952Y-92040476D01*
X134978571Y-92088095D01*
X135026190Y-92183333D01*
X135026190Y-92564286D01*
X135502381Y-91040476D02*
X135502381Y-91611905D01*
X135502381Y-91326191D02*
X134502381Y-91326191D01*
X134645238Y-91421429D01*
X134740476Y-91516667D01*
X134788095Y-91611905D01*
X135502381Y-90564286D02*
X135502381Y-90373810D01*
X135454762Y-90278571D01*
X135407143Y-90230952D01*
X135264286Y-90135714D01*
X135073810Y-90088095D01*
X134692857Y-90088095D01*
X134597619Y-90135714D01*
X134550000Y-90183333D01*
X134502381Y-90278571D01*
X134502381Y-90469048D01*
X134550000Y-90564286D01*
X134597619Y-90611905D01*
X134692857Y-90659524D01*
X134930952Y-90659524D01*
X135026190Y-90611905D01*
X135073810Y-90564286D01*
X135121429Y-90469048D01*
X135121429Y-90278571D01*
X135073810Y-90183333D01*
X135026190Y-90135714D01*
X134930952Y-90088095D01*
X118552381Y-105492857D02*
X118076190Y-105826191D01*
X118552381Y-106064286D02*
X117552381Y-106064286D01*
X117552381Y-105683333D01*
X117600000Y-105588095D01*
X117647619Y-105540476D01*
X117742857Y-105492857D01*
X117885714Y-105492857D01*
X117980952Y-105540476D01*
X118028571Y-105588095D01*
X118076190Y-105683333D01*
X118076190Y-106064286D01*
X117647619Y-105111905D02*
X117600000Y-105064286D01*
X117552381Y-104969048D01*
X117552381Y-104730952D01*
X117600000Y-104635714D01*
X117647619Y-104588095D01*
X117742857Y-104540476D01*
X117838095Y-104540476D01*
X117980952Y-104588095D01*
X118552381Y-105159524D01*
X118552381Y-104540476D01*
X117552381Y-103921429D02*
X117552381Y-103826190D01*
X117600000Y-103730952D01*
X117647619Y-103683333D01*
X117742857Y-103635714D01*
X117933333Y-103588095D01*
X118171429Y-103588095D01*
X118361905Y-103635714D01*
X118457143Y-103683333D01*
X118504762Y-103730952D01*
X118552381Y-103826190D01*
X118552381Y-103921429D01*
X118504762Y-104016667D01*
X118457143Y-104064286D01*
X118361905Y-104111905D01*
X118171429Y-104159524D01*
X117933333Y-104159524D01*
X117742857Y-104111905D01*
X117647619Y-104064286D01*
X117600000Y-104016667D01*
X117552381Y-103921429D01*
X132877381Y-111017857D02*
X132401190Y-111351191D01*
X132877381Y-111589286D02*
X131877381Y-111589286D01*
X131877381Y-111208333D01*
X131925000Y-111113095D01*
X131972619Y-111065476D01*
X132067857Y-111017857D01*
X132210714Y-111017857D01*
X132305952Y-111065476D01*
X132353571Y-111113095D01*
X132401190Y-111208333D01*
X132401190Y-111589286D01*
X131972619Y-110636905D02*
X131925000Y-110589286D01*
X131877381Y-110494048D01*
X131877381Y-110255952D01*
X131925000Y-110160714D01*
X131972619Y-110113095D01*
X132067857Y-110065476D01*
X132163095Y-110065476D01*
X132305952Y-110113095D01*
X132877381Y-110684524D01*
X132877381Y-110065476D01*
X132877381Y-109113095D02*
X132877381Y-109684524D01*
X132877381Y-109398810D02*
X131877381Y-109398810D01*
X132020238Y-109494048D01*
X132115476Y-109589286D01*
X132163095Y-109684524D01*
X129602381Y-111067857D02*
X129126190Y-111401191D01*
X129602381Y-111639286D02*
X128602381Y-111639286D01*
X128602381Y-111258333D01*
X128650000Y-111163095D01*
X128697619Y-111115476D01*
X128792857Y-111067857D01*
X128935714Y-111067857D01*
X129030952Y-111115476D01*
X129078571Y-111163095D01*
X129126190Y-111258333D01*
X129126190Y-111639286D01*
X128697619Y-110686905D02*
X128650000Y-110639286D01*
X128602381Y-110544048D01*
X128602381Y-110305952D01*
X128650000Y-110210714D01*
X128697619Y-110163095D01*
X128792857Y-110115476D01*
X128888095Y-110115476D01*
X129030952Y-110163095D01*
X129602381Y-110734524D01*
X129602381Y-110115476D01*
X128697619Y-109734524D02*
X128650000Y-109686905D01*
X128602381Y-109591667D01*
X128602381Y-109353571D01*
X128650000Y-109258333D01*
X128697619Y-109210714D01*
X128792857Y-109163095D01*
X128888095Y-109163095D01*
X129030952Y-109210714D01*
X129602381Y-109782143D01*
X129602381Y-109163095D01*
X115616667Y-111479762D02*
X115759524Y-111527381D01*
X115997620Y-111527381D01*
X116092858Y-111479762D01*
X116140477Y-111432143D01*
X116188096Y-111336905D01*
X116188096Y-111241667D01*
X116140477Y-111146429D01*
X116092858Y-111098810D01*
X115997620Y-111051190D01*
X115807143Y-111003571D01*
X115711905Y-110955952D01*
X115664286Y-110908333D01*
X115616667Y-110813095D01*
X115616667Y-110717857D01*
X115664286Y-110622619D01*
X115711905Y-110575000D01*
X115807143Y-110527381D01*
X116045239Y-110527381D01*
X116188096Y-110575000D01*
X116521429Y-110527381D02*
X116759524Y-111527381D01*
X116950001Y-110813095D01*
X117140477Y-111527381D01*
X117378572Y-110527381D01*
X118283334Y-111527381D02*
X117711905Y-111527381D01*
X117997619Y-111527381D02*
X117997619Y-110527381D01*
X117902381Y-110670238D01*
X117807143Y-110765476D01*
X117711905Y-110813095D01*
X135052381Y-82361905D02*
X135861905Y-82361905D01*
X135957143Y-82314286D01*
X136004762Y-82266667D01*
X136052381Y-82171429D01*
X136052381Y-81980952D01*
X136004762Y-81885714D01*
X135957143Y-81838095D01*
X135861905Y-81790476D01*
X135052381Y-81790476D01*
X136052381Y-80790476D02*
X136052381Y-81361905D01*
X136052381Y-81076191D02*
X135052381Y-81076191D01*
X135195238Y-81171429D01*
X135290476Y-81266667D01*
X135338095Y-81361905D01*
X119738095Y-74927381D02*
X119738095Y-75736905D01*
X119785714Y-75832143D01*
X119833333Y-75879762D01*
X119928571Y-75927381D01*
X120119048Y-75927381D01*
X120214286Y-75879762D01*
X120261905Y-75832143D01*
X120309524Y-75736905D01*
X120309524Y-74927381D01*
X120738095Y-75022619D02*
X120785714Y-74975000D01*
X120880952Y-74927381D01*
X121119048Y-74927381D01*
X121214286Y-74975000D01*
X121261905Y-75022619D01*
X121309524Y-75117857D01*
X121309524Y-75213095D01*
X121261905Y-75355952D01*
X120690476Y-75927381D01*
X121309524Y-75927381D01*
X122363095Y-92602381D02*
X122363095Y-93411905D01*
X122410714Y-93507143D01*
X122458333Y-93554762D01*
X122553571Y-93602381D01*
X122744048Y-93602381D01*
X122839286Y-93554762D01*
X122886905Y-93507143D01*
X122934524Y-93411905D01*
X122934524Y-92602381D01*
X123315476Y-92602381D02*
X123934524Y-92602381D01*
X123601190Y-92983333D01*
X123744048Y-92983333D01*
X123839286Y-93030952D01*
X123886905Y-93078571D01*
X123934524Y-93173810D01*
X123934524Y-93411905D01*
X123886905Y-93507143D01*
X123839286Y-93554762D01*
X123744048Y-93602381D01*
X123458333Y-93602381D01*
X123363095Y-93554762D01*
X123315476Y-93507143D01*
X102666667Y-116952381D02*
X102333333Y-116476190D01*
X102095238Y-116952381D02*
X102095238Y-115952381D01*
X102476191Y-115952381D01*
X102571429Y-116000000D01*
X102619048Y-116047619D01*
X102666667Y-116142857D01*
X102666667Y-116285714D01*
X102619048Y-116380952D01*
X102571429Y-116428571D01*
X102476191Y-116476190D01*
X102095238Y-116476190D01*
X103095238Y-116428571D02*
X103428572Y-116428571D01*
X103571429Y-116952381D02*
X103095238Y-116952381D01*
X103095238Y-115952381D01*
X103571429Y-115952381D01*
X104333334Y-116428571D02*
X104000000Y-116428571D01*
X104000000Y-116952381D02*
X104000000Y-115952381D01*
X104476191Y-115952381D01*
X105000000Y-115952381D02*
X105000000Y-116190476D01*
X104761905Y-116095238D02*
X105000000Y-116190476D01*
X105238096Y-116095238D01*
X104857143Y-116380952D02*
X105000000Y-116190476D01*
X105142858Y-116380952D01*
X105761905Y-115952381D02*
X105761905Y-116190476D01*
X105523810Y-116095238D02*
X105761905Y-116190476D01*
X106000001Y-116095238D01*
X105619048Y-116380952D02*
X105761905Y-116190476D01*
X105904763Y-116380952D01*
X105127381Y-78788095D02*
X104127381Y-78788095D01*
X104127381Y-78550000D01*
X104175000Y-78407142D01*
X104270238Y-78311904D01*
X104365476Y-78264285D01*
X104555952Y-78216666D01*
X104698810Y-78216666D01*
X104889286Y-78264285D01*
X104984524Y-78311904D01*
X105079762Y-78407142D01*
X105127381Y-78550000D01*
X105127381Y-78788095D01*
X104127381Y-77311904D02*
X104127381Y-77788095D01*
X104603571Y-77835714D01*
X104555952Y-77788095D01*
X104508333Y-77692857D01*
X104508333Y-77454761D01*
X104555952Y-77359523D01*
X104603571Y-77311904D01*
X104698810Y-77264285D01*
X104936905Y-77264285D01*
X105032143Y-77311904D01*
X105079762Y-77359523D01*
X105127381Y-77454761D01*
X105127381Y-77692857D01*
X105079762Y-77788095D01*
X105032143Y-77835714D01*
X154027381Y-98832857D02*
X153027381Y-98832857D01*
X153027381Y-98594762D01*
X153075000Y-98451904D01*
X153170238Y-98356666D01*
X153265476Y-98309047D01*
X153455952Y-98261428D01*
X153598810Y-98261428D01*
X153789286Y-98309047D01*
X153884524Y-98356666D01*
X153979762Y-98451904D01*
X154027381Y-98594762D01*
X154027381Y-98832857D01*
X154027381Y-97832857D02*
X153027381Y-97832857D01*
X153503571Y-97832857D02*
X153503571Y-97261428D01*
X154027381Y-97261428D02*
X153027381Y-97261428D01*
X153027381Y-96928095D02*
X153027381Y-96356666D01*
X154027381Y-96642381D02*
X153027381Y-96642381D01*
X154027381Y-95499523D02*
X154027381Y-96070952D01*
X154027381Y-95785238D02*
X153027381Y-95785238D01*
X153170238Y-95880476D01*
X153265476Y-95975714D01*
X153313095Y-96070952D01*
X148677381Y-99167857D02*
X148201190Y-99501191D01*
X148677381Y-99739286D02*
X147677381Y-99739286D01*
X147677381Y-99358333D01*
X147725000Y-99263095D01*
X147772619Y-99215476D01*
X147867857Y-99167857D01*
X148010714Y-99167857D01*
X148105952Y-99215476D01*
X148153571Y-99263095D01*
X148201190Y-99358333D01*
X148201190Y-99739286D01*
X147772619Y-98786905D02*
X147725000Y-98739286D01*
X147677381Y-98644048D01*
X147677381Y-98405952D01*
X147725000Y-98310714D01*
X147772619Y-98263095D01*
X147867857Y-98215476D01*
X147963095Y-98215476D01*
X148105952Y-98263095D01*
X148677381Y-98834524D01*
X148677381Y-98215476D01*
X147677381Y-97882143D02*
X147677381Y-97263095D01*
X148058333Y-97596429D01*
X148058333Y-97453571D01*
X148105952Y-97358333D01*
X148153571Y-97310714D01*
X148248810Y-97263095D01*
X148486905Y-97263095D01*
X148582143Y-97310714D01*
X148629762Y-97358333D01*
X148677381Y-97453571D01*
X148677381Y-97739286D01*
X148629762Y-97834524D01*
X148582143Y-97882143D01*
X142752381Y-111067857D02*
X142276190Y-111401191D01*
X142752381Y-111639286D02*
X141752381Y-111639286D01*
X141752381Y-111258333D01*
X141800000Y-111163095D01*
X141847619Y-111115476D01*
X141942857Y-111067857D01*
X142085714Y-111067857D01*
X142180952Y-111115476D01*
X142228571Y-111163095D01*
X142276190Y-111258333D01*
X142276190Y-111639286D01*
X141847619Y-110686905D02*
X141800000Y-110639286D01*
X141752381Y-110544048D01*
X141752381Y-110305952D01*
X141800000Y-110210714D01*
X141847619Y-110163095D01*
X141942857Y-110115476D01*
X142038095Y-110115476D01*
X142180952Y-110163095D01*
X142752381Y-110734524D01*
X142752381Y-110115476D01*
X142085714Y-109258333D02*
X142752381Y-109258333D01*
X141704762Y-109496429D02*
X142419048Y-109734524D01*
X142419048Y-109115476D01*
X139502381Y-111017857D02*
X139026190Y-111351191D01*
X139502381Y-111589286D02*
X138502381Y-111589286D01*
X138502381Y-111208333D01*
X138550000Y-111113095D01*
X138597619Y-111065476D01*
X138692857Y-111017857D01*
X138835714Y-111017857D01*
X138930952Y-111065476D01*
X138978571Y-111113095D01*
X139026190Y-111208333D01*
X139026190Y-111589286D01*
X138597619Y-110636905D02*
X138550000Y-110589286D01*
X138502381Y-110494048D01*
X138502381Y-110255952D01*
X138550000Y-110160714D01*
X138597619Y-110113095D01*
X138692857Y-110065476D01*
X138788095Y-110065476D01*
X138930952Y-110113095D01*
X139502381Y-110684524D01*
X139502381Y-110065476D01*
X138502381Y-109160714D02*
X138502381Y-109636905D01*
X138978571Y-109684524D01*
X138930952Y-109636905D01*
X138883333Y-109541667D01*
X138883333Y-109303571D01*
X138930952Y-109208333D01*
X138978571Y-109160714D01*
X139073810Y-109113095D01*
X139311905Y-109113095D01*
X139407143Y-109160714D01*
X139454762Y-109208333D01*
X139502381Y-109303571D01*
X139502381Y-109541667D01*
X139454762Y-109636905D01*
X139407143Y-109684524D01*
X152677381Y-111042857D02*
X152201190Y-111376191D01*
X152677381Y-111614286D02*
X151677381Y-111614286D01*
X151677381Y-111233333D01*
X151725000Y-111138095D01*
X151772619Y-111090476D01*
X151867857Y-111042857D01*
X152010714Y-111042857D01*
X152105952Y-111090476D01*
X152153571Y-111138095D01*
X152201190Y-111233333D01*
X152201190Y-111614286D01*
X151772619Y-110661905D02*
X151725000Y-110614286D01*
X151677381Y-110519048D01*
X151677381Y-110280952D01*
X151725000Y-110185714D01*
X151772619Y-110138095D01*
X151867857Y-110090476D01*
X151963095Y-110090476D01*
X152105952Y-110138095D01*
X152677381Y-110709524D01*
X152677381Y-110090476D01*
X151677381Y-109233333D02*
X151677381Y-109423810D01*
X151725000Y-109519048D01*
X151772619Y-109566667D01*
X151915476Y-109661905D01*
X152105952Y-109709524D01*
X152486905Y-109709524D01*
X152582143Y-109661905D01*
X152629762Y-109614286D01*
X152677381Y-109519048D01*
X152677381Y-109328571D01*
X152629762Y-109233333D01*
X152582143Y-109185714D01*
X152486905Y-109138095D01*
X152248810Y-109138095D01*
X152153571Y-109185714D01*
X152105952Y-109233333D01*
X152058333Y-109328571D01*
X152058333Y-109519048D01*
X152105952Y-109614286D01*
X152153571Y-109661905D01*
X152248810Y-109709524D01*
X160832143Y-114627381D02*
X160498809Y-114151190D01*
X160260714Y-114627381D02*
X160260714Y-113627381D01*
X160641667Y-113627381D01*
X160736905Y-113675000D01*
X160784524Y-113722619D01*
X160832143Y-113817857D01*
X160832143Y-113960714D01*
X160784524Y-114055952D01*
X160736905Y-114103571D01*
X160641667Y-114151190D01*
X160260714Y-114151190D01*
X161213095Y-113722619D02*
X161260714Y-113675000D01*
X161355952Y-113627381D01*
X161594048Y-113627381D01*
X161689286Y-113675000D01*
X161736905Y-113722619D01*
X161784524Y-113817857D01*
X161784524Y-113913095D01*
X161736905Y-114055952D01*
X161165476Y-114627381D01*
X161784524Y-114627381D01*
X162117857Y-113627381D02*
X162784524Y-113627381D01*
X162355952Y-114627381D01*
X149427381Y-110992857D02*
X148951190Y-111326191D01*
X149427381Y-111564286D02*
X148427381Y-111564286D01*
X148427381Y-111183333D01*
X148475000Y-111088095D01*
X148522619Y-111040476D01*
X148617857Y-110992857D01*
X148760714Y-110992857D01*
X148855952Y-111040476D01*
X148903571Y-111088095D01*
X148951190Y-111183333D01*
X148951190Y-111564286D01*
X148522619Y-110611905D02*
X148475000Y-110564286D01*
X148427381Y-110469048D01*
X148427381Y-110230952D01*
X148475000Y-110135714D01*
X148522619Y-110088095D01*
X148617857Y-110040476D01*
X148713095Y-110040476D01*
X148855952Y-110088095D01*
X149427381Y-110659524D01*
X149427381Y-110040476D01*
X148855952Y-109469048D02*
X148808333Y-109564286D01*
X148760714Y-109611905D01*
X148665476Y-109659524D01*
X148617857Y-109659524D01*
X148522619Y-109611905D01*
X148475000Y-109564286D01*
X148427381Y-109469048D01*
X148427381Y-109278571D01*
X148475000Y-109183333D01*
X148522619Y-109135714D01*
X148617857Y-109088095D01*
X148665476Y-109088095D01*
X148760714Y-109135714D01*
X148808333Y-109183333D01*
X148855952Y-109278571D01*
X148855952Y-109469048D01*
X148903571Y-109564286D01*
X148951190Y-109611905D01*
X149046429Y-109659524D01*
X149236905Y-109659524D01*
X149332143Y-109611905D01*
X149379762Y-109564286D01*
X149427381Y-109469048D01*
X149427381Y-109278571D01*
X149379762Y-109183333D01*
X149332143Y-109135714D01*
X149236905Y-109088095D01*
X149046429Y-109088095D01*
X148951190Y-109135714D01*
X148903571Y-109183333D01*
X148855952Y-109278571D01*
X160882143Y-116177381D02*
X160548809Y-115701190D01*
X160310714Y-116177381D02*
X160310714Y-115177381D01*
X160691667Y-115177381D01*
X160786905Y-115225000D01*
X160834524Y-115272619D01*
X160882143Y-115367857D01*
X160882143Y-115510714D01*
X160834524Y-115605952D01*
X160786905Y-115653571D01*
X160691667Y-115701190D01*
X160310714Y-115701190D01*
X161263095Y-115272619D02*
X161310714Y-115225000D01*
X161405952Y-115177381D01*
X161644048Y-115177381D01*
X161739286Y-115225000D01*
X161786905Y-115272619D01*
X161834524Y-115367857D01*
X161834524Y-115463095D01*
X161786905Y-115605952D01*
X161215476Y-116177381D01*
X161834524Y-116177381D01*
X162310714Y-116177381D02*
X162501190Y-116177381D01*
X162596429Y-116129762D01*
X162644048Y-116082143D01*
X162739286Y-115939286D01*
X162786905Y-115748810D01*
X162786905Y-115367857D01*
X162739286Y-115272619D01*
X162691667Y-115225000D01*
X162596429Y-115177381D01*
X162405952Y-115177381D01*
X162310714Y-115225000D01*
X162263095Y-115272619D01*
X162215476Y-115367857D01*
X162215476Y-115605952D01*
X162263095Y-115701190D01*
X162310714Y-115748810D01*
X162405952Y-115796429D01*
X162596429Y-115796429D01*
X162691667Y-115748810D01*
X162739286Y-115701190D01*
X162786905Y-115605952D01*
X146127381Y-111042857D02*
X145651190Y-111376191D01*
X146127381Y-111614286D02*
X145127381Y-111614286D01*
X145127381Y-111233333D01*
X145175000Y-111138095D01*
X145222619Y-111090476D01*
X145317857Y-111042857D01*
X145460714Y-111042857D01*
X145555952Y-111090476D01*
X145603571Y-111138095D01*
X145651190Y-111233333D01*
X145651190Y-111614286D01*
X145127381Y-110709524D02*
X145127381Y-110090476D01*
X145508333Y-110423810D01*
X145508333Y-110280952D01*
X145555952Y-110185714D01*
X145603571Y-110138095D01*
X145698810Y-110090476D01*
X145936905Y-110090476D01*
X146032143Y-110138095D01*
X146079762Y-110185714D01*
X146127381Y-110280952D01*
X146127381Y-110566667D01*
X146079762Y-110661905D01*
X146032143Y-110709524D01*
X145127381Y-109471429D02*
X145127381Y-109376190D01*
X145175000Y-109280952D01*
X145222619Y-109233333D01*
X145317857Y-109185714D01*
X145508333Y-109138095D01*
X145746429Y-109138095D01*
X145936905Y-109185714D01*
X146032143Y-109233333D01*
X146079762Y-109280952D01*
X146127381Y-109376190D01*
X146127381Y-109471429D01*
X146079762Y-109566667D01*
X146032143Y-109614286D01*
X145936905Y-109661905D01*
X145746429Y-109709524D01*
X145508333Y-109709524D01*
X145317857Y-109661905D01*
X145222619Y-109614286D01*
X145175000Y-109566667D01*
X145127381Y-109471429D01*
X160932143Y-117702381D02*
X160598809Y-117226190D01*
X160360714Y-117702381D02*
X160360714Y-116702381D01*
X160741667Y-116702381D01*
X160836905Y-116750000D01*
X160884524Y-116797619D01*
X160932143Y-116892857D01*
X160932143Y-117035714D01*
X160884524Y-117130952D01*
X160836905Y-117178571D01*
X160741667Y-117226190D01*
X160360714Y-117226190D01*
X161265476Y-116702381D02*
X161884524Y-116702381D01*
X161551190Y-117083333D01*
X161694048Y-117083333D01*
X161789286Y-117130952D01*
X161836905Y-117178571D01*
X161884524Y-117273810D01*
X161884524Y-117511905D01*
X161836905Y-117607143D01*
X161789286Y-117654762D01*
X161694048Y-117702381D01*
X161408333Y-117702381D01*
X161313095Y-117654762D01*
X161265476Y-117607143D01*
X162836905Y-117702381D02*
X162265476Y-117702381D01*
X162551190Y-117702381D02*
X162551190Y-116702381D01*
X162455952Y-116845238D01*
X162360714Y-116940476D01*
X162265476Y-116988095D01*
X136107143Y-111142857D02*
X136154762Y-111190476D01*
X136202381Y-111333333D01*
X136202381Y-111428571D01*
X136154762Y-111571429D01*
X136059524Y-111666667D01*
X135964286Y-111714286D01*
X135773810Y-111761905D01*
X135630952Y-111761905D01*
X135440476Y-111714286D01*
X135345238Y-111666667D01*
X135250000Y-111571429D01*
X135202381Y-111428571D01*
X135202381Y-111333333D01*
X135250000Y-111190476D01*
X135297619Y-111142857D01*
X136202381Y-110190476D02*
X136202381Y-110761905D01*
X136202381Y-110476191D02*
X135202381Y-110476191D01*
X135345238Y-110571429D01*
X135440476Y-110666667D01*
X135488095Y-110761905D01*
X135202381Y-109285714D02*
X135202381Y-109761905D01*
X135678571Y-109809524D01*
X135630952Y-109761905D01*
X135583333Y-109666667D01*
X135583333Y-109428571D01*
X135630952Y-109333333D01*
X135678571Y-109285714D01*
X135773810Y-109238095D01*
X136011905Y-109238095D01*
X136107143Y-109285714D01*
X136154762Y-109333333D01*
X136202381Y-109428571D01*
X136202381Y-109666667D01*
X136154762Y-109761905D01*
X136107143Y-109809524D01*
X125949643Y-111142857D02*
X125997262Y-111190476D01*
X126044881Y-111333333D01*
X126044881Y-111428571D01*
X125997262Y-111571429D01*
X125902024Y-111666667D01*
X125806786Y-111714286D01*
X125616310Y-111761905D01*
X125473452Y-111761905D01*
X125282976Y-111714286D01*
X125187738Y-111666667D01*
X125092500Y-111571429D01*
X125044881Y-111428571D01*
X125044881Y-111333333D01*
X125092500Y-111190476D01*
X125140119Y-111142857D01*
X126044881Y-110190476D02*
X126044881Y-110761905D01*
X126044881Y-110476191D02*
X125044881Y-110476191D01*
X125187738Y-110571429D01*
X125282976Y-110666667D01*
X125330595Y-110761905D01*
X125044881Y-109333333D02*
X125044881Y-109523810D01*
X125092500Y-109619048D01*
X125140119Y-109666667D01*
X125282976Y-109761905D01*
X125473452Y-109809524D01*
X125854405Y-109809524D01*
X125949643Y-109761905D01*
X125997262Y-109714286D01*
X126044881Y-109619048D01*
X126044881Y-109428571D01*
X125997262Y-109333333D01*
X125949643Y-109285714D01*
X125854405Y-109238095D01*
X125616310Y-109238095D01*
X125521071Y-109285714D01*
X125473452Y-109333333D01*
X125425833Y-109428571D01*
X125425833Y-109619048D01*
X125473452Y-109714286D01*
X125521071Y-109761905D01*
X125616310Y-109809524D01*
X157107143Y-105582143D02*
X157059524Y-105629762D01*
X156916667Y-105677381D01*
X156821429Y-105677381D01*
X156678571Y-105629762D01*
X156583333Y-105534524D01*
X156535714Y-105439286D01*
X156488095Y-105248810D01*
X156488095Y-105105952D01*
X156535714Y-104915476D01*
X156583333Y-104820238D01*
X156678571Y-104725000D01*
X156821429Y-104677381D01*
X156916667Y-104677381D01*
X157059524Y-104725000D01*
X157107143Y-104772619D01*
X158059524Y-105677381D02*
X157488095Y-105677381D01*
X157773809Y-105677381D02*
X157773809Y-104677381D01*
X157678571Y-104820238D01*
X157583333Y-104915476D01*
X157488095Y-104963095D01*
X158392857Y-104677381D02*
X159059524Y-104677381D01*
X158630952Y-105677381D01*
X155807143Y-110977380D02*
X155854762Y-111024999D01*
X155902381Y-111167856D01*
X155902381Y-111263094D01*
X155854762Y-111405952D01*
X155759524Y-111501190D01*
X155664286Y-111548809D01*
X155473810Y-111596428D01*
X155330952Y-111596428D01*
X155140476Y-111548809D01*
X155045238Y-111501190D01*
X154950000Y-111405952D01*
X154902381Y-111263094D01*
X154902381Y-111167856D01*
X154950000Y-111024999D01*
X154997619Y-110977380D01*
X155902381Y-110024999D02*
X155902381Y-110596428D01*
X155902381Y-110310714D02*
X154902381Y-110310714D01*
X155045238Y-110405952D01*
X155140476Y-110501190D01*
X155188095Y-110596428D01*
X155330952Y-109453571D02*
X155283333Y-109548809D01*
X155235714Y-109596428D01*
X155140476Y-109644047D01*
X155092857Y-109644047D01*
X154997619Y-109596428D01*
X154950000Y-109548809D01*
X154902381Y-109453571D01*
X154902381Y-109263094D01*
X154950000Y-109167856D01*
X154997619Y-109120237D01*
X155092857Y-109072618D01*
X155140476Y-109072618D01*
X155235714Y-109120237D01*
X155283333Y-109167856D01*
X155330952Y-109263094D01*
X155330952Y-109453571D01*
X155378571Y-109548809D01*
X155426190Y-109596428D01*
X155521429Y-109644047D01*
X155711905Y-109644047D01*
X155807143Y-109596428D01*
X155854762Y-109548809D01*
X155902381Y-109453571D01*
X155902381Y-109263094D01*
X155854762Y-109167856D01*
X155807143Y-109120237D01*
X155711905Y-109072618D01*
X155521429Y-109072618D01*
X155426190Y-109120237D01*
X155378571Y-109167856D01*
X155330952Y-109263094D01*
X150332143Y-89567857D02*
X150379762Y-89615476D01*
X150427381Y-89758333D01*
X150427381Y-89853571D01*
X150379762Y-89996429D01*
X150284524Y-90091667D01*
X150189286Y-90139286D01*
X149998810Y-90186905D01*
X149855952Y-90186905D01*
X149665476Y-90139286D01*
X149570238Y-90091667D01*
X149475000Y-89996429D01*
X149427381Y-89853571D01*
X149427381Y-89758333D01*
X149475000Y-89615476D01*
X149522619Y-89567857D01*
X150427381Y-88615476D02*
X150427381Y-89186905D01*
X150427381Y-88901191D02*
X149427381Y-88901191D01*
X149570238Y-88996429D01*
X149665476Y-89091667D01*
X149713095Y-89186905D01*
X150427381Y-88139286D02*
X150427381Y-87948810D01*
X150379762Y-87853571D01*
X150332143Y-87805952D01*
X150189286Y-87710714D01*
X149998810Y-87663095D01*
X149617857Y-87663095D01*
X149522619Y-87710714D01*
X149475000Y-87758333D01*
X149427381Y-87853571D01*
X149427381Y-88044048D01*
X149475000Y-88139286D01*
X149522619Y-88186905D01*
X149617857Y-88234524D01*
X149855952Y-88234524D01*
X149951190Y-88186905D01*
X149998810Y-88139286D01*
X150046429Y-88044048D01*
X150046429Y-87853571D01*
X149998810Y-87758333D01*
X149951190Y-87710714D01*
X149855952Y-87663095D01*
D11*
X122503266Y-103201181D02*
X122503266Y-102201181D01*
X123155743Y-103201181D02*
X123055362Y-103153562D01*
X123005171Y-103105943D01*
X122954981Y-103010705D01*
X122954981Y-102724990D01*
X123005171Y-102629752D01*
X123055362Y-102582133D01*
X123155743Y-102534514D01*
X123306314Y-102534514D01*
X123406695Y-102582133D01*
X123456886Y-102629752D01*
X123507076Y-102724990D01*
X123507076Y-103010705D01*
X123456886Y-103105943D01*
X123406695Y-103153562D01*
X123306314Y-103201181D01*
X123155743Y-103201181D01*
X123808219Y-102201181D02*
X124410505Y-102201181D01*
X124109362Y-103201181D02*
X124109362Y-102201181D01*
M02*
